<svg viewBox="0 0 1024 1024" height="1024" width="1024" version="1.1" fill="none" xmlns:xlink="http://www.w3.org/1999/xlink" xmlns="http://www.w3.org/2000/svg"><defs><clipPath id="master_svg0_30_325"><rect rx="0" height="1024" width="1024" y="0" x="0"></rect></clipPath></defs><g clip-path="url(#master_svg0_30_325)"><g><g><path style="mix-blend-mode:passthrough" fill-opacity="1" fill="#FF8EDE" d="M544.5245395202637,879.1822632408142C490.91253952026364,898.7322632408143,435.76453952026367,896.7622632408143,385.18213952026366,868.1322632408142C368.60813952026365,858.7662632408142,352.51613952026366,846.5142632408142,337.09613952026365,831.2402632408142C327.00812952026365,821.2482632408141,374.6621395202637,837.4362632408142,441.6725395202637,722.3862632408142C493.94053952026366,632.6999632408142,505.9965395202637,545.3640132408142,509.31053952026366,555.5019512408143C510.08053952026364,557.9039332408142,492.2085395202637,651.9139632408142,500.1845395202637,742.8022632408142C503.2605395202637,778.8802632408142,510.46453952026366,814.4742632408143,524.5385395202636,843.6322632408142C540.7285395202637,877.2602632408142,555.0925395202637,875.3382632408143,544.5245395202637,879.1822632408142Z"></path></g><g><path style="mix-blend-mode:passthrough" fill-opacity="1" fill="#FC09B2" d="M758.7235434265137,556.0297144126891C759.1075434265136,703.0277144126892,666.0575434265137,832.5857144126892,551.5365434265136,876.6857144126892C548.5105434265137,877.8857144126893,548.5575434265137,877.6937144126892,546.2995434265137,875.1477144126892C543.6575434265137,872.2177144126892,540.7755434265137,869.5277144126892,538.1825434265137,866.4517144126892C511.5675434265137,835.0837144126892,501.24254342651363,774.2197144126892,498.0245434265137,733.0997144126892C490.62654342651365,638.6077144126892,510.08054342651366,558.6717144126892,510.08054342651366,553.9637144126892L510.08054342651366,553.8677144126892C508.49454342651364,556.2217144126892,484.14054342651366,668.2477144126892,420.5365434265137,756.2517144126891C401.2235434265137,782.9617144126892,373.74854342651366,814.9077144126892,342.6660434265137,826.0997144126892C336.3260434265137,828.4057144126892,334.8360434265137,828.8857144126891,331.7620434265137,825.8117144126892L331.7620434265137,825.7637144126892C330.89804342651365,824.9477144126893,329.9380434265137,823.8437144126892,328.7840434265137,822.4957144126893C326.3088434265137,819.6007144126893,323.87534342651367,816.6707144126892,321.48404342651367,813.7057144126892C309.1809434265137,798.4127144126892,298.3256434265137,782.0087144126892,289.0580434265137,764.7057144126892C253.94009342651367,699.2777144126892,243.99609342651368,624.6737144126892,254.37409342651367,546.1797144126892C255.33410342651368,538.6877144126893,276.8560434265137,458.9917144126892,299.3361434265137,421.6660144126892C315.04414342651364,395.5820144126892,336.80404342651366,369.4960144126892,363.4685434265137,354.7500144126892C421.64254342651367,322.6100144126892,499.0805434265137,352.58801441268923,526.7985434265137,440.7860144126892C528.4305434265136,445.9737144126892,529.5365434265136,451.3557144126892,530.8325434265137,456.6397144126892C530.9785434265136,457.1177144126892,531.0745434265136,457.5997144126892,531.2665434265136,458.0797144126892C531.6505434265137,458.8497144126892,532.2745434265137,458.89571441268924,532.8025434265137,458.3197144126892C538.8065434265136,451.6437144126892,560.8565434265137,419.7460144126892,605.0985434265137,403.2220144126892C630.8485434265137,393.5660144126892,661.0165434265136,392.4140144126892,689.5025434265137,405.0940144126892C743.2085434265136,428.8720144126892,758.5825434265137,496.8457144126892,758.7235434265137,556.0297144126891Z"></path></g><g style="opacity:0.5;"><g><path style="mix-blend-mode:passthrough" fill-opacity="1" fill="#FC09B2" d="M544.5240487976074,879.1821216392517C490.91204879760744,898.7321216392518,435.7640487976074,896.7621216392517,385.1820487976074,868.1321216392517C469.7300487976074,831.4300216392517,496.05404879760744,748.3740816392517,499.7040487976074,743.2821016392517C499.8500487976074,743.0400976392517,500.04204879760744,742.8500952392517,500.18404879760743,742.8021216392517C503.2600487976074,778.8801216392517,510.4640487976074,814.4741216392517,524.5380487976074,843.6321216392517C540.7280487976075,877.2601216392517,555.0920487976074,875.3381216392518,544.5240487976074,879.1821216392517Z"></path></g></g><g style="opacity:0.25;"><g><path style="mix-blend-mode:passthrough" fill-opacity="1" fill="#000E3F" d="M553.8157406921387,875.8579014244079C548.2457406921387,878.071901424408,548.5317406921387,877.8439014244079,546.5257406921387,875.5379014244079C540.4937406921387,868.6079014244079,528.0037406921386,858.6439014244079,516.1057406921386,825.683901424408C514.8977406921387,822.3359014244079,513.9537406921387,821.317901424408,516.7397406921386,819.8099014244079C563.7577406921387,794.339901424408,596.9097406921387,771.1139014244079,635.4757406921387,727.799901424408C679.7937406921387,678.025901424408,714.0237406921387,614.813901424408,728.7297406921386,547.073901424408C741.6417406921387,487.60200142440794,733.9757406921387,452.39193442440796,736.3997406921387,451.95394662440793C737.1277406921387,451.82195842440797,737.5237406921387,452.585935424408,737.7997406921387,453.167931424408C750.4477406921387,479.759901424408,758.9717406921386,508.82790142440797,758.7057406921386,560.077901424408C757.9437406921386,706.471901424408,663.7737406921387,832.175901424408,553.8157406921387,875.8579014244079ZM510.07974069213867,553.8679014244079C508.49374069213866,556.221901424408,484.1397406921387,668.2479014244079,420.5357406921387,756.251901424408C401.2237406921387,782.961901424408,373.74804069213866,814.907901424408,342.66604069213867,826.099901424408C336.3260406921387,828.405901424408,334.8360406921387,828.885901424408,331.76204069213867,825.811901424408L331.76204069213867,825.763901424408C331.63644069213865,825.630901424408,331.5239406921387,825.486901424408,331.42604069213866,825.331901424408C328.14054069213864,821.4319014244079,324.8258406921387,817.557901424408,321.4820406921387,813.707901424408C313.2660406921387,804.147901424408,308.51004069213866,797.9039014244079,291.8400406921387,770.327901424408C290.20805069213867,767.589901424408,289.2940486921387,765.859901424408,289.05604169213865,764.707901424408C288.5260426921387,762.3059014244079,290.7360306921387,762.3059014244079,295.25004069213867,761.2019014244079C328.97404069213866,752.841901424408,358.85404069213865,731.705901424408,384.60204069213864,709.125901424408C476.2117406921387,628.759901424408,500.6637406921387,545.9880014244079,509.73974069213864,547.1900014244079C512.2417406921387,547.5260014244079,510.4157406921387,552.4259014244079,510.07974069213867,553.8679014244079Z"></path></g></g><g><path style="mix-blend-mode:passthrough" fill-opacity="1" fill="#000E3F" d="M555.8939871765136,507.3938964439392C559.4939871765137,491.61789644393923,547.4839871765137,475.4218964439392,529.0679871765137,471.2198964439392C510.65198717651367,467.0178964439392,492.8059771765137,476.3978964439392,489.20396017651365,492.1738964439392C485.6039571765137,507.9498964439392,497.61396717651365,524.1438964439392,516.0278871765137,528.3478964439392C534.4458871765137,532.5499964439392,552.2918871765137,523.1699964439392,555.8939871765136,507.3938964439392ZM695.1483871765137,554.2297964439392C671.7963871765137,548.8997964439392,649.1643871765136,560.7957964439393,644.5983871765137,580.8017964439392C640.0323871765137,600.8057964439392,655.2623871765137,621.3437964439393,678.6143871765137,626.6737964439392C701.9663871765136,632.0037964439392,724.5983871765137,620.1077964439392,729.1643871765136,600.1017964439392C733.7303871765137,580.0957964439392,718.5003871765136,559.5577964439392,695.1483871765137,554.2297964439392ZM598.8283871765136,728.5537964439393C575.4759871765136,723.2237964439391,552.8439871765137,735.1197964439392,548.2779871765136,755.1257964439392C543.7119871765137,775.1297964439392,558.9419871765136,795.6677964439392,582.2939871765136,800.9977964439393C605.6463871765137,806.3277964439392,628.2783871765137,794.4317964439392,632.8443871765137,774.4257964439391C637.4103871765137,754.4217964439392,622.1803871765137,733.8837964439392,598.8283871765136,728.5537964439393ZM688.5603871765137,473.3218964439392C692.1603871765137,457.5458964439392,680.1503871765137,441.3498864439392,661.7343871765137,437.1478864439392C643.3183871765136,432.9438764439392,625.4703871765137,442.3258964439392,621.8723871765137,458.1018964439392C618.2723871765137,473.8778964439392,630.2823871765137,490.0738964439392,648.6963871765137,494.2758964439392C667.1123871765137,498.4798964439392,684.9603871765137,489.0978964439392,688.5603871765137,473.3218964439392Z"></path></g><g transform="matrix(0.2225014865398407,-0.9749323725700378,0.9749323725700378,0.2225014865398407,-239.86846962416791,1033.3202413895237)"><ellipse style="mix-blend-mode:passthrough" fill-opacity="1" fill="#000E3F" ry="34.20199966430664" rx="29.29800033569336" cy="701.2518019676208" cx="557.221809387207"></ellipse></g><g><path style="mix-blend-mode:passthrough" fill-opacity="1" fill="#000E3F" d="M671.5856313171387,662.2216909751892C656.7036313171386,658.8256909751892,642.2816313171386,666.4056909751891,639.3716313171387,679.1556909751891C636.4616313171387,691.9036909751892,646.1676313171387,704.9916909751892,661.0496313171386,708.3896909751892C675.9316313171387,711.7856909751893,690.3536313171387,704.2036909751891,693.2636313171387,691.4556909751892C696.1736313171386,678.7056909751892,686.4676313171387,665.6176909751891,671.5856313171387,662.2216909751892ZM590.3576313171386,570.7436909751892C605.2396313171387,574.1396909751892,619.6636313171387,566.5596909751891,622.5716313171387,553.8096909751891C625.4816313171386,541.0616909751892,615.7756313171387,527.9736909751892,600.8936313171387,524.5756909751892C586.0116313171386,521.1796909751893,571.5896313171387,528.7596909751892,568.6796313171387,541.5096909751892C565.7716313171386,554.2596909751892,575.4776313171387,567.3476909751892,590.3576313171386,570.7436909751892ZM326.88603131713865,546.3996909751892C350.2380313171387,551.7296909751892,372.8700313171387,539.8316909751892,377.43603131713866,519.8276909751892C382.0020313171387,499.8236909751892,366.77203131713867,479.2860909751892,343.4200313171387,473.9560909751892C320.06803131713866,468.6260909751892,297.43603131713866,480.5220909751892,292.8700713171387,500.5276909751892C288.3040613171387,520.5316909751892,303.53403131713867,541.0696909751892,326.88603131713865,546.3996909751892ZM354.57003131713867,672.8076909751892C331.21813131713867,667.4776909751893,308.5860313171387,679.3736909751892,304.0201313171387,699.3796909751892C299.45413131713866,719.3836909751892,314.6841313171387,739.9216909751892,338.03613131713865,745.2516909751891C361.38803131713865,750.5816909751892,384.02203131713867,738.6856909751892,388.5856313171387,718.6796909751893C393.15163131713865,698.6756909751891,377.9220313171387,678.1376909751892,354.57003131713867,672.8076909751892ZM411.2816313171387,440.0920909751892C429.69763131713864,444.2960909751892,447.54363131713865,434.9140909751892,451.1456313171387,419.1380909751892C454.74563131713865,403.36209097518923,442.73563131713865,387.1661009751892,424.32163131713867,382.96408097518923C405.90563131713867,378.76208097518924,388.05963131713867,388.1420909751892,384.45803131713865,403.9180909751892C380.8580313171387,419.6940909751892,392.86563131713865,435.8880909751892,411.2816313171387,440.0920909751892ZM424.8236313171387,583.3956909751892C406.4076313171387,579.1916909751892,388.5616313171387,588.5736909751893,384.9601313171387,604.3496909751892C381.36013131713867,620.1256909751892,393.36963131713867,636.3216909751892,411.78563131713867,640.5236909751892C430.20163131713866,644.7276909751893,448.04763131713867,635.3456909751892,451.64963131713864,619.5696909751892C455.2476313171387,603.7936909751892,443.23763131713866,587.5976909751892,424.8236313171387,583.3956909751892ZM339.47403131713867,610.7096909751892C342.3840313171387,597.9616909751892,332.67813131713865,584.8736909751892,317.79603131713867,581.4756909751892C302.91403131713867,578.0796909751892,288.4920813171387,585.6596909751893,285.5820733171387,598.4076909751892C282.67207131713866,611.1576909751892,292.37806131713864,624.2456909751892,307.26013131713864,627.6416909751892C322.1420313171387,631.0396909751892,336.5641313171387,623.4596909751892,339.47403131713867,610.7096909751892ZM441.2036313171387,488.1316909751892C426.32163131713867,484.73369097518923,411.89963131713864,492.3156909751892,408.9896313171387,505.0656909751892C406.0796313171387,517.8136909751893,415.78563131713867,530.9036909751892,430.66763131713867,534.2996909751892C445.5496313171387,537.6956909751892,459.9736313171387,530.1156909751892,462.88163131713867,517.3656909751892C465.7916313171387,504.6176909751892,456.0856313171387,491.5276909751892,441.2036313171387,488.1316909751892Z"></path></g><g><path style="mix-blend-mode:passthrough" fill-opacity="1" fill="#000E3F" d="M996.9138207702637,366.2764390220642C966.7578207702637,363.0924390220642,945.3378207702636,380.3664390220642,926.6438207702637,399.4904390220642C919.5278207702637,406.7664390220642,912.1678207702637,414.8924390220642,904.3738207702637,423.49643902206424C866.1858207702637,465.6524390220642,818.7758207702636,517.9304390220642,762.1098207702637,508.3184390220642C760.4438207702636,497.9424390220642,758.0038207702637,488.0564390220642,754.7578207702637,478.5724390220642C745.2658207702636,450.8584390220642,727.7278207702636,427.35243902206423,706.2998207702636,411.5824390220642C706.3518207702637,411.4764390220642,706.4338207702637,411.3944390220642,706.4798207702637,411.2844390220642C727.8578207702636,359.6684390220642,727.3738207702637,301.0744390220642,705.1858207702637,254.5384390220642C696.3778207702637,236.07643902206422,684.4938207702637,220.01043902206422,670.3938207702637,206.6964390220642C692.7238207702637,197.2924390220642,709.0798207702637,177.0124390220642,715.2858207702636,150.8844390220642C716.3978207702637,146.1924390220642,717.3258207702637,141.5204390220642,718.2458207702637,136.9104390220642C722.0598207702636,117.68243902206422,725.3578207702636,101.0784390220642,740.6318207702636,88.20803902206421C758.2478207702636,73.3580390220642,776.5718207702637,76.9800390220642,787.8438207702636,85.32603902206421C800.9518207702637,95.03203902206421,806.1858207702637,110.97243902206421,800.5718207702637,124.08843902206421C796.0218207702636,134.7284390220642,784.1238207702637,139.73643902206422,775.3138207702636,139.00443902206422C771.1158207702637,138.6684390220642,763.7458207702637,136.7864390220642,761.5458207702636,127.95443902206421C760.9078207702637,125.04543902206422,757.9938207702637,123.23843902206421,755.1048207702637,123.95843902206421C752.2148207702637,124.67843902206421,750.4908207702637,127.64243902206421,751.2918207702637,130.51043902206422C754.0258207702636,141.48043902206422,762.6918207702637,148.59443902206422,774.4658207702637,149.5384390220642C787.3478207702636,150.6264390220642,803.7298207702637,143.5844390220642,810.2918207702637,128.2444390220642C817.8358207702637,110.6084390220642,811.1918207702637,89.46603902206421,794.1358207702636,76.83203902206421C779.6118207702636,66.08203902206421,756.1498207702637,61.31403902206421,733.8198207702636,80.1260390220642C715.7118207702637,95.38603902206421,711.7298207702637,115.4484390220642,707.8778207702637,134.8524390220642C706.9858207702637,139.3364390220642,706.0858207702637,143.8824390220642,705.0018207702636,148.44443902206422C699.5318207702637,171.4704390220642,685.2278207702636,189.2524390220642,665.7538207702637,197.2264390220642C664.2858207702636,197.8284390220642,662.7798207702637,198.2764390220642,661.2818207702637,198.7564390220642C634.1418207702636,176.8464390220642,600.1658207702636,164.39043902206421,563.7538207702637,164.39043902206421C563.3738207702637,164.39043902206421,562.9938207702637,164.39043902206421,562.6178207702636,164.3944390220642C550.8518207702637,164.4654390220642,539.1298207702637,165.8294390220642,527.6618207702636,168.46243902206422C518.4598207702636,159.5004390220642,512.1518207702636,147.6624390220642,509.8358207702637,134.6984390220642C507.1298207702637,119.55643902206421,510.8818207702637,104.18443902206421,514.5138207702637,89.31793902206421C520.7058207702637,63.95993902206421,527.1158207702637,37.73793902206421,501.9078207702637,13.035939022064209C489.0718207702637,0.457967022064209,470.4538207702637,-3.358030977935791,453.3118207702637,3.085969022064209C436.73182077026365,9.31796902206421,425.6418207702637,23.46593902206421,424.3718207702637,40.00793902206421C423.3818207702637,52.849939022064206,432.67582077026367,67.60393902206421,445.5238207702637,73.60193902206422C456.4638207702637,78.7039390220642,467.8678207702637,76.60393902206421,476.8338207702637,67.8499390220642C478.91882077026366,65.8075390220642,478.9538207702637,62.462539022064206,476.91382077026367,60.37593902206421C474.8718207702637,58.29263902206421,471.5288207702637,58.25503902206421,469.4398207702637,60.291939022064206C462.1218207702637,67.46393902206421,454.81782077026367,66.2779390220642,449.99382077026365,64.02393902206421C441.1658207702637,59.90593902206421,434.25582077026365,49.27793902206421,434.9078207702637,40.81593902206421C435.8598207702637,28.41393902206421,444.33782077026365,17.749939022064208,457.03182077026366,12.97793902206421C470.2838207702637,7.993979022064209,484.6438207702637,10.91393902206421,494.51582077026364,20.58193902206421C515.4198207702636,41.07393902206421,510.2398207702637,62.26593902206421,504.2498207702637,86.8079390220642C500.3558207702637,102.74043902206421,496.3318207702637,119.21443902206421,499.4318207702637,136.5544390220642C501.7518207702637,149.5144390220642,507.51282077026366,161.6134390220642,516.1118207702636,171.5844390220642C471.94982077026367,185.3804390220642,435.21982077026365,218.4304390220642,413.5498207702637,265.56643902206423C402.0938207702637,290.5024390220642,396.12382077026365,314.9204390220642,395.6658207702637,338.2244390220642C368.80182077026365,342.82843902206423,342.47182077026366,358.7644390220642,320.7398207702637,383.8324390220642C315.70982077026366,389.6344390220642,310.51982077026366,396.5704390220642,305.36582077026367,404.1884390220642C249.34782077026367,387.2184390220642,227.80182077026367,317.3244390220642,210.43982077026368,260.9164390220642C207.51182077026368,251.4004390220642,204.74982077026368,242.41443902206422,201.93982077026368,234.0964390220642C193.39182077026368,208.7524390220642,181.55182077026367,183.8924390220642,153.03782077026366,173.6804390220642C150.31082077026366,172.76643902206422,147.3528207702637,174.20043902206422,146.38282077026366,176.90843902206421C145.41182077026366,179.6164390220642,146.78482077026368,182.6034390220642,149.47182077026366,183.6304390220642C172.40182077026367,191.8424390220642,183.02782077026367,211.09443902206422,191.92782077026368,237.4734390220642C194.68582077026366,245.65843902206421,197.43582077026366,254.5784390220642,200.33982077026369,264.0234390220642C218.16382077026367,321.9314390220642,240.20382077026366,393.4694390220642,299.3838207702637,413.39343902206423C289.0958207702637,429.7854390220642,279.28982077026365,448.42943902206423,271.59182077026367,466.2314390220642C236.91782077026366,479.7984390220642,201.40782077026367,523.7014390220642,177.50382077026367,558.6174390220642C171.28782077026366,567.6914390220642,165.62982077026368,577.2714390220642,160.15982077026368,586.5374390220642C147.75582077026365,607.5434390220643,136.04182077026366,627.3834390220642,117.98612077026367,642.7414390220642C92.57412077026368,664.3614390220642,59.54812077026367,676.2854390220642,27.75610077026367,675.6914390220642C24.806100770263672,675.4994390220642,22.42210197026367,677.9434390220642,22.362100600263673,680.8614390220642C22.29846387026367,683.7794390220643,24.614170770263673,686.1954390220642,27.53210077026367,686.2554390220643C28.46210077026367,686.2774390220642,29.390100770263672,686.2854390220642,30.318100770263673,686.2854390220642C63.91212077026367,686.2854390220642,98.21412077026368,673.4354390220642,124.83582077026367,650.7914390220642C144.23782077026368,634.2854390220642,156.96182077026367,612.7434390220642,169.26182077026368,591.9114390220642C174.64182077026368,582.7954390220642,180.20982077026366,573.3694390220642,186.21982077026368,564.5894390220642C215.08182077026368,522.4334390220642,242.29982077026366,493.79943902206423,265.76982077026366,480.6594390220642C262.43382077026365,489.5454390220642,259.7538207702637,497.9794390220642,258.04382077026366,505.4574390220642C257.38782077026366,508.3314390220642,256.5098207702637,511.1614390220642,255.57582077026368,514.1614390220642C254.42582077026367,517.8694390220642,253.23382077026366,521.7054390220642,252.45582077026367,525.7374390220642C252.30582077026367,526.5114390220642,252.33382077026369,527.2754390220642,252.51182077026368,527.9934390220642C245.73982077026366,563.5194390220643,244.24382077026368,600.9994390220642,247.74182077026367,638.4994390220642C247.65982077026368,638.5774390220643,247.55182077026367,638.6054390220642,247.47382077026367,638.6894390220642C233.99982077026368,652.9594390220642,229.97982077026367,673.1834390220642,226.43382077026368,691.0294390220643L226.26982077026366,691.8354390220642C225.51982077026366,695.6214390220642,224.78382077026367,699.4114390220642,224.04582077026367,703.1994390220642C220.13382077026367,723.3534390220642,216.08582077026367,744.1934390220642,209.22582077026368,763.8234390220642C202.82182077026368,782.1874390220642,193.90382077026368,799.9194390220642,183.43782077026367,815.1074390220642C161.01782077026368,847.6534390220642,128.76582077026367,865.5754390220642,94.81602077026368,864.4154390220642C92.03802077026367,864.2294390220642,89.45002077026368,866.5874390220642,89.34602077026368,869.5054390220643C89.24152077026368,872.4234390220643,91.52262077026367,874.8724390220642,94.44002077026367,874.9754390220642C95.64602077026368,875.0194390220643,96.85202077026368,875.0414390220642,98.05602077026367,875.0414390220642C134.29582077026367,875.0414390220642,168.41582077026368,855.5414390220642,192.14382077026366,821.1034390220642C203.12982077026368,805.1514390220642,212.48982077026366,786.5474390220642,219.20182077026368,767.3074390220642C226.30982077026368,746.9574390220642,230.43182077026367,725.7354390220642,234.41582077026368,705.2134390220642C235.14782077026368,701.4414390220642,235.88382077026367,697.6674390220642,236.63382077026367,693.8974390220642L236.79382077026366,693.0854390220642C239.42782077026368,679.8334390220642,242.41982077026367,665.2134390220642,249.41182077026366,653.7034390220642C250.94782077026366,665.4974390220642,252.89382077026366,677.2734390220642,255.44182077026366,688.9614390220642C259.48182077026365,707.4614390220642,264.9318207702637,725.2774390220642,271.65582077026363,741.9134390220642C299.50782077026366,810.8554390220642,352.9638207702637,864.1234390220642,414.64982077026366,884.3974390220642C434.61182077026365,890.9614390220642,455.71182077026367,894.1414390220642,477.17382077026366,894.1414390220642C535.7638207702637,894.1394390220642,597.0118207702636,870.4234390220643,644.8858207702636,826.9874390220642C668.0398207702636,805.9814390220643,686.7058207702637,782.1954390220642,701.8818207702636,757.5114390220642C703.0318207702637,770.7594390220642,699.4338207702637,785.0134390220642,696.1038207702637,797.9134390220642L695.8978207702637,798.7154390220642C694.9458207702637,802.4054390220642,693.9778207702636,806.0894390220642,693.0118207702636,809.7754390220642C687.6878207702637,830.0254390220642,682.1838207702637,850.9634390220642,679.7498207702637,872.4154390220642C677.4518207702637,892.6674390220642,677.8118207702637,913.4874390220642,680.7958207702636,932.6294390220642C687.4438207702636,975.3194390220642,711.0078207702637,1008.4624390220642,745.4498207702637,1023.5524390220642C748.1228207702636,1024.7224390220642,751.2378207702636,1023.5124390220642,752.4118207702637,1020.8424390220642C753.5818207702637,1018.1624390220642,752.3638207702637,1015.0524390220642,749.6918207702637,1013.8824390220642C718.6258207702637,1000.2624390220642,697.3198207702636,970.0554390220642,691.2378207702636,931.0014390220642C688.3998207702637,912.7794390220643,688.0578207702637,892.9314390220642,690.2478207702636,873.6074390220642C692.5978207702636,852.9154390220642,698.0018207702636,832.3494390220642,703.2278207702636,812.4614390220642C704.2038207702636,808.7634390220642,705.1738207702637,805.0614390220642,706.1318207702636,801.3544390220642L706.3378207702636,800.5564390220642C710.8778207702637,782.9404390220642,716.0298207702637,762.9724390220642,710.0818207702637,744.2684390220642C710.0358207702636,744.1224390220642,709.9258207702637,744.0224390220642,709.8678207702636,743.8844390220642C735.3238207702636,698.1684390220643,749.3918207702636,650.5164390220642,757.0778207702637,612.2264390220643C758.4778207702636,605.2494390220642,759.6818207702637,598.4784390220642,760.6998207702637,591.8844390220642C776.8438207702636,613.5784390220642,789.4578207702637,651.9864390220642,797.4218207702637,704.0804390220642C799.0258207702636,714.6004390220642,799.9498207702637,725.5064390220642,800.8458207702637,736.0564390220642C802.8918207702636,760.1624390220642,805.0018207702636,785.0884390220642,815.3278207702637,808.3844390220642C829.8838207702637,841.2204390220642,856.2298207702637,868.2544390220642,887.6138207702637,882.5504390220642C890.2518207702636,883.6684390220643,893.3008207702637,882.4814390220643,894.4878207702636,879.8744390220642C895.6758207702637,877.2664390220642,894.5698207702636,874.1874390220642,891.9938207702637,872.9324390220642C862.9318207702637,859.6924390220643,838.5098207702637,834.6044390220642,824.9898207702637,804.1004390220642C815.3818207702636,782.4284390220643,813.4358207702637,759.4704390220642,811.3758207702637,735.1624390220642C810.4658207702637,724.4424390220643,809.5278207702637,713.3544390220642,807.8618207702636,702.4844390220642C801.4218207702637,660.3324390220642,788.3298207702637,604.8284390220642,762.5898207702637,577.7864390220642C765.0838207702636,556.4204390220642,765.3978207702637,537.0404390220642,763.5218207702636,519.1604390220642C767.7578207702637,519.7364390220642,771.9538207702636,520.1244390220642,776.0738207702636,520.1244390220642C831.0978207702636,520.1244390220642,875.6778207702637,470.9104390220642,912.2038207702636,430.5884390220642C919.9258207702637,422.0644390220642,927.2198207702637,414.0124390220642,934.1918207702637,406.8784390220642C953.6598207702637,386.9764390220642,971.5758207702637,374.2624390220642,995.8018207702637,376.7844390220642C998.7078207702637,377.1034390220642,1001.3168207702637,374.9924390220642,1001.6098207702637,372.0844390220642C1001.9208207702636,369.1824390220642,999.8168207702637,366.5794390220642,996.9138207702637,366.2764390220642ZM637.7818207702637,819.1624390220642C575.1398207702637,876.0004390220643,488.8578207702637,897.6604390220642,417.94982077026367,874.3604390220642C359.1778207702637,855.0424390220642,308.15182077026367,804.0504390220642,281.44982077026367,737.9564390220642C274.9518207702637,721.8724390220642,269.67982077026363,704.6304390220643,265.7718207702637,686.7124390220642C254.37182077026367,634.4444390220642,253.45782077026368,578.2044390220642,263.2018207702637,528.3464390220643C263.3458207702637,527.6174390220642,263.33482077026366,526.8664390220642,263.16982077026364,526.1424390220642C263.8258207702637,523.2284390220642,264.72782077026363,520.3324390220642,265.66982077026364,517.2944390220642C266.6178207702637,514.2374390220642,267.59782077026364,511.07843902206423,268.3438207702637,507.8124390220642C276.05582077026367,474.1074390220642,304.83782077026365,418.3144390220642,328.7258207702637,390.7564390220642C350.8678207702637,365.2184390220642,377.88582077026365,349.9134390220642,404.8078207702637,347.66243902206423C432.8558207702637,345.3124390220642,462.9978207702637,357.4524390220642,485.35182077026366,380.1284390220642C504.7638207702637,399.81643902206423,518.9978207702636,427.57843902206423,526.5118207702637,460.4104390220642C526.9598207702636,462.3554390220642,528.4638207702637,463.8834390220642,530.4018207702636,464.3624390220642C532.3408207702637,464.82843902206423,534.3768207702636,464.1734390220642,535.6798207702636,462.6644390220642C557.5738207702636,437.0624390220642,602.2718207702636,395.1244390220642,655.6158207702637,401.5984390220642C694.0738207702636,406.2944390220642,729.9018207702637,438.6044390220642,744.7598207702637,481.9984390220642C756.6698207702636,516.7734390220642,757.2938207702637,557.4944390220642,746.7258207702637,610.1454390220642C734.3778207702637,671.6064390220643,705.4558207702637,757.7624390220642,637.7818207702637,819.1624390220642Z"></path></g><g><path style="mix-blend-mode:passthrough" fill-opacity="1" fill="#FFFFFF" d="M527.7240551452637,264.2158726158142C525.2900551452636,275.0278726158142,515.5140551452637,280.9678726158142,505.2740551452637,278.8338726158142C494.9260651452637,276.6758726158142,488.31406514526367,265.8518726158142,490.62406514526367,256.2998726158142C493.12006514526365,245.9779026158142,502.7980551452637,239.7599026158142,513.1880551452637,242.0039036158142C523.7900551452636,244.29591261581422,530.0960551452637,253.9318726158142,527.7240551452637,264.2158726158142ZM633.4145551452636,308.1718726158142C624.1025551452636,306.3018726158142,617.1205551452637,294.78387261581423,619.5865551452637,285.6978726158142C621.8085551452637,277.5058726158142,629.9405551452637,268.9238726158142,642.3985551452637,271.4798726158142C666.1325551452637,276.3498726158142,659.3545551452637,313.3798726158142,633.4145551452636,308.1718726158142ZM566.7560551452636,327.4318726158142C561.0838551452637,327.44487261581423,555.6123551452637,325.3327726158142,551.4200551452636,321.51187261581424C540.8700551452637,311.9798726158142,538.2180551452636,293.5558726158142,544.1580551452637,270.9658726158142C544.9080551452637,268.1514726158142,547.7880551452637,266.4690726158142,550.6080551452636,267.1978726158142C553.4334551452637,267.9373726158142,555.1217551452637,270.8301726158142,554.3760551452636,273.6538726158142C549.5540551452636,292.0138726158142,551.0980551452636,306.9758726158142,558.5040551452637,313.6698726158142C562.1500551452637,316.9658726158142,566.8640551452637,317.7578726158142,571.7840551452637,315.91587261581424C579.6040551452637,312.9858726158142,588.8280551452636,302.6618726158142,591.2525551452636,282.4578726158142C591.5955551452637,279.5600726158142,594.2265551452637,277.4918726158142,597.1245551452637,277.8418726158142C600.0235551452637,278.1877726158142,602.0915551452637,280.8212726158142,601.7405551452637,283.7198726158142C599.2025551452637,304.8718726158142,589.3881551452637,320.6058726158142,575.4881551452637,325.8118726158142C572.6984551452637,326.8724726158142,569.7404551452637,327.4212726158142,566.7560551452636,327.4318726158142Z"></path></g><g><path style="mix-blend-mode:passthrough" fill-opacity="1" fill="#FF8EDE" d="M603.6160688171387,348.2880991783142C597.1100688171387,337.1920991783142,606.9560688171387,326.9520991783142,619.3820688171387,325.4540991783142C638.6380688171387,323.1340991783142,655.0840688171387,332.09009917831423,660.5760688171387,341.6100991783142C675.3120688171387,367.1520991783142,619.4040688171386,375.2080991783142,603.6160688171387,348.2880991783142ZM515.1960688171387,328.1080991783142C525.8720688171387,320.9340991783142,521.4440688171387,307.4340991783142,510.89806881713866,300.6960991783142C494.55406881713867,290.2520991783142,475.8520688171387,291.1860891783142,466.77207881713866,297.3800891783142C442.4140688171387,313.9980991783142,489.29206881713867,345.5120991783142,515.1960688171387,328.1080991783142Z"></path></g><g style="opacity:0.5;"><path style="mix-blend-mode:passthrough" fill-opacity="1" fill="#FFFFFF" d="M352.65005280151365,413.5619355064392C357.68405280151364,408.2839355064392,364.7620528015137,398.7599755064392,369.90405280151367,397.1019874064392C370.6580528015137,396.8579995064392,371.36205280151364,397.6879855064392,371.0140528015137,398.6040055064392C369.83005280151366,401.7120055064392,367.97205280151366,402.5280155064392,358.55605280151366,426.4200355064392C333.4680528015137,490.0740355064392,357.4680528015137,554.3638355064393,358.86205280151364,604.1018355064392C359.43805280151366,624.6538355064392,347.8740528015137,651.3058355064393,327.4400528015137,651.1338355064393C285.94206280151366,650.7858355064392,288.9240828015137,567.4818355064392,295.1280628015137,535.6358355064392C303.62605280151365,492.0240355064392,323.0120528015137,444.6340355064392,352.65005280151365,413.5619355064392Z"></path></g><g><path style="mix-blend-mode:passthrough" fill-opacity="1" fill="#FD8A02" d="M394.9283891296387,153.0154819908142C382.42238912963865,175.9114819908142,354.9201891296387,201.1694819908142,328.3320891296387,205.7754819908142C306.97008912963867,209.47548199081422,259.66013912963865,165.42748199081421,256.6581231296387,133.2774819908142C254.70812912963868,112.3959819908142,270.3420891296387,95.84988199081421,289.1440891296387,99.99198199081421C304.74408912963867,103.42788199081421,317.2600891296387,116.9634819908142,325.2500891296387,130.65948199081421C327.49408912963867,134.5074819908142,327.9260891296387,136.0814819908142,329.21808912963866,134.3754819908142C331.8080891296387,130.9594819908142,337.91008912963866,122.42948199081421,343.15808912963865,117.87548199081421C383.2143891296387,83.09998199081421,412.85038912963864,120.20348199081421,394.9283891296387,153.0154819908142ZM670.0603891296387,52.81198199081421C661.1083891296387,69.2018819908142,641.4203891296387,87.28398199081421,622.3863891296387,90.58198199081421C607.0943891296387,93.23188199081422,573.2263891296386,61.69788199081421,571.0763891296388,38.681881990814205C569.6803891296387,23.73393199081421,580.8723891296387,11.889931990814208,594.3323891296386,14.85393299081421C605.5003891296387,17.313931990814208,614.4603891296387,27.00398199081421,620.1803891296387,36.80788199081421C621.7863891296387,39.56198199081421,622.0963891296387,40.68798199081421,623.0203891296387,39.467881990814206C624.8743891296386,37.02198199081421,629.2423891296387,30.91588199081421,632.9983891296387,27.65588199081421C661.6763891296387,2.7618819908142083,682.8923891296387,29.323881990814208,670.0603891296387,52.81198199081421ZM895.8203891296387,313.4054819908142C879.8663891296387,327.5074819908142,851.7483891296387,339.2614819908142,830.0623891296386,335.4174819908142C812.6403891296387,332.3294819908142,788.5523891296386,285.3914819908142,795.1703891296387,259.8814819908142C799.4683891296387,243.3134819908142,816.0603891296387,234.95148199081422,829.3423891296387,243.3494819908142C840.3623891296387,250.31548199081422,846.2123891296387,264.1774819908142,848.5443891296387,276.9094819908142C849.1983891296387,280.4854819908142,849.0943891296387,281.8134819908142,850.5583891296387,280.8634819908142C853.4943891296386,278.9614819908142,860.5443891296387,274.1074819908142,865.8363891296386,272.0674819908142C906.2343891296387,256.4934819908142,918.6823891296386,293.1954819908142,895.8203891296387,313.4054819908142Z"></path></g></g></g></svg>