<svg viewBox="0 0 1024 1024" height="1024" width="1024" version="1.1" fill="none" xmlns:xlink="http://www.w3.org/1999/xlink" xmlns="http://www.w3.org/2000/svg"><defs><clipPath id="master_svg0_30_366"><rect rx="0" height="1024" width="1024" y="0" x="0"></rect></clipPath></defs><g clip-path="url(#master_svg0_30_366)"><g><g><path style="mix-blend-mode:passthrough" fill-opacity="1" fill="#FD8A02" d="M930.696385269165,253.82034628295898C923.7043852691651,257.430346282959,913.2383852691651,263.900346282959,912.330385269165,264.604346282959C906.154385269165,269.440346282959,900.616385269165,275.36634628295894,897.232385269165,282.53834628295897C894.508385269165,288.328346282959,893.8963852691651,294.094346282959,894.508385269165,299.814346282959C894.600385269165,300.768346282959,894.736385269165,301.722346282959,894.9163852691651,302.674346282959C893.5163852691651,302.507346282959,892.096385269165,302.719346282959,890.806385269165,303.28834628295897L856.7523852691651,318.158346282959C855.4443852691651,318.713346282959,854.3143852691651,319.61634628295894,853.482385269165,320.768346282959C852.909385269165,320.01434628295897,852.3103852691651,319.27934628295895,851.688385269165,318.566346282959C847.8963852691651,314.208346282959,843.266185269165,310.710346282959,837.136185269165,308.782346282959C829.598185269165,306.374346282959,821.4941852691651,306.398346282959,813.7301852691651,307.646346282959C813.140185269165,307.76034628295895,809.5081852691651,308.71234628295895,805.1481852691651,310.006346282959C801.288285269165,311.142346282959,796.8162852691651,312.504346282959,793.342185269165,313.776346282959C789.855985269165,315.046346282959,786.0023852691651,313.232346282959,784.760185269165,309.73634628295895C776.634285269165,286.852346282959,754.770285269165,219.38034628295898,745.2802552691651,179.151946282959C734.384255269165,132.883946282959,772.2722852691651,84.25591628295898,774.658285269165,83.68792328295899C775.046585269165,83.42880628295899,775.5078852691651,83.30121228295899,775.974185269165,83.32392502295899C777.246185269165,83.41392138295899,778.766185269165,83.57392528295898,780.560185269165,83.75592428295899C798.698185269165,85.84392628295899,842.560185269165,94.15394628295898,864.6503852691651,127.04794628295897C887.6703852691651,161.37394628295897,922.290385269165,223.28434628295898,933.5503852691651,244.782346282959C935.293385269165,248.062346282959,934.0073852691651,252.13534628295898,930.696385269165,253.82034628295898Z"></path></g><g style="opacity:0.15000000596046448;"><path style="mix-blend-mode:passthrough" fill-opacity="1" fill="#000E3F" d="M930.696037612915,253.81991659545898C923.704037612915,257.42991659545896,913.238037612915,263.899916595459,912.330037612915,264.603916595459C906.1540376129151,269.43991659545895,900.6160376129151,275.365916595459,897.2320376129151,282.537916595459C894.508037612915,288.327916595459,893.896037612915,294.09391659545895,894.508037612915,299.813916595459C894.600037612915,300.767916595459,894.7360376129151,301.721916595459,894.916037612915,302.673916595459C893.516037612915,302.50691659545896,892.0960376129151,302.719916595459,890.806037612915,303.287916595459L856.752037612915,318.15791659545897C855.444537612915,318.71391659545895,854.313837612915,319.615916595459,853.4820376129151,320.767916595459C852.908737612915,320.013916595459,852.3103376129151,319.279916595459,851.6880376129151,318.565916595459C847.896037612915,314.207916595459,843.266037612915,310.709916595459,837.1360376129151,308.781916595459C829.598037612915,306.373916595459,821.494037612915,306.397916595459,813.730037612915,307.64591659545897C813.1400376129151,307.759916595459,809.508037612915,308.711916595459,805.148037612915,310.005916595459C803.378037612915,300.153916595459,805.716037612915,281.717916595459,834.5920376129151,258.35791659545896C840.086037612915,253.93191659545897,846.5100376129151,249.321916595459,854.070037612915,244.555916595459C855.726637612915,243.52091659545897,857.311537612915,242.375916595459,858.8140376129151,241.127916595459C905.3320376129151,202.87391659545898,812.932037612915,112.92791659545898,780.560037612915,83.75591659545898C798.6980376129151,85.84391659545898,842.560037612915,94.15391659545898,864.6500376129151,127.04791659545899C887.670037612915,161.37391659545898,922.2900376129151,223.28391659545898,933.550037612915,244.781916595459C935.293037612915,248.06291659545897,934.007037612915,252.13491659545898,930.696037612915,253.81991659545898Z"></path></g><g><path style="mix-blend-mode:passthrough" fill-opacity="1" fill="#FFCF00" d="M894.510158706665,299.808033782959L851.698058706665,318.57003378295894L834.604058706665,258.35803378295896L807.222085906665,161.862013782959C806.758096706665,160.232005782959,808.984108706665,159.26000578295898,809.8641187066651,160.708003782959L858.814158706665,241.12603378295898L894.510158706665,299.808033782959Z"></path></g><g style="opacity:0.5;"><path style="mix-blend-mode:passthrough" fill-opacity="1" fill="#FD8A02" d="M894.509982925415,299.807986907959L851.6979829254151,318.569986907959L834.603982925415,258.357986907959C840.079992925415,253.93598690795898,846.511982925415,249.320006907959,854.069982925415,244.55999690795898C855.7219829254151,243.517086907959,857.306482925415,242.37079690795898,858.8139829254151,241.12798690795898L894.509982925415,299.807986907959Z"></path></g><g><path style="mix-blend-mode:passthrough" fill-opacity="1" fill="#FC09B2" d="M992.7401469879151,559.053945892334L975.010146987915,566.795945892334C966.178146987915,570.6539458923339,958.642146987915,569.315945892334,951.968146987915,564.275945892334C934.4421469879151,551.221945892334,922.4761469879151,513.195945892334,907.4701469879151,477.211945892334C884.200146987915,421.36594589233397,895.484146987915,415.279945892334,887.6961469879151,391.283945892334C884.428146987915,381.181945892334,875.9601469879151,373.529945892334,870.714146987915,364.063945892334C867.898176987915,358.955945892334,865.1061769879151,353.235945892334,863.222146987915,347.37794589233397C865.228916987915,348.199445892334,867.4839269879151,348.16694589233396,869.466166987915,347.287945892334L903.520146987915,332.41793589233396C905.545946987915,331.535945892334,907.121146987915,329.86162589233396,907.878146987915,327.785945892334C910.420146987915,332.279935892334,912.3741469879151,337.161955892334,914.006146987915,341.883945892334C914.324146987915,342.859945892334,914.642146987915,343.813945892334,914.9601469879151,344.74594589233396C918.366146987915,355.00794589233396,918.206046987915,366.42594589233397,923.406146987915,375.70994589233396C935.7101469879151,397.731945892334,947.834046987915,393.59994589233395,972.9421469879151,448.629945892334C995.352146987915,497.689945892334,1024.546146987915,545.1819458923339,992.7401469879151,559.053945892334Z"></path></g><g><path style="mix-blend-mode:passthrough" fill-opacity="1" fill="#018100" d="M907.8799587066651,327.785962689209C907.121158706665,329.86056268920896,905.546558706665,331.534162689209,903.522058706665,332.417962689209L869.4679587066651,347.287962689209C867.485758706665,348.16696268920896,865.230658706665,348.199462689209,863.223958706665,347.37796268920897C861.200538706665,346.60376268920896,859.5727287066651,345.049462689209,858.7059687066651,343.063962689209L852.529947706665,328.897962689209C851.350930706665,326.215962689209,851.7159217066651,323.105962689209,853.483928706665,320.76996268920897C854.314618706665,319.617162689209,855.4456587066651,318.714462689209,856.753948706665,318.159962689209L890.8079587066651,303.289974689209C892.0982587066651,302.72121768920897,893.5176587066651,302.50918168920896,894.917958706665,302.675960589209C897.848958706665,302.96041468920896,900.3953587066651,304.81161268920897,901.569958706665,307.511962689209L907.7459587066651,321.677962689209C908.6299587066651,323.699962689209,908.6299587066651,325.87796268920897,907.8799587066651,327.785962689209Z"></path></g><g style="opacity:0.5;"><g><path style="mix-blend-mode:passthrough" fill-opacity="1" fill="#FFFFFF" d="M777.6940500152588,125.45998501098633C776.1940500152588,136.70600501098633,775.9360500152588,147.90000501098632,776.6880500152588,159.03000501098632C777.4906500152588,170.15740501098634,779.1617500152588,181.20500501098633,781.6860500152588,192.07200501098635C784.1220500152588,202.96400501098634,787.3881500152588,213.67800501098634,791.1041500152588,224.23760501098633C794.8600500152588,234.78960501098632,799.1761500152588,245.14360501098633,803.8061500152588,255.41560501098633L803.8221500152588,255.44960501098632C805.0463500152588,258.17460501098634,803.9622500152587,261.38260501098637,801.3359500152587,262.80660501098635C798.7096500152588,264.2306050109863,795.4297500152588,263.38860501098634,793.8141500152587,260.8756050109863C787.4101500152588,250.88760501098633,782.2161500152588,240.16160501098634,777.9821500152588,229.07560501098632C773.7221500152588,217.99390501098634,770.5261600152588,206.49390501098634,768.3521500152588,194.78200501098632C766.2921540152588,183.05200501098633,765.2421670152588,171.08800501098634,765.8021640152588,159.13600501098634C766.3281650152588,147.21400501098634,768.3701600152588,135.2560050109863,772.6421900152587,124.14596501098633C773.1263800152587,122.91109101098633,774.4543900152588,122.23003001098633,775.7397500152588,122.55735401098633C777.0251500152588,122.88467001098633,777.8655500152588,124.11792501098633,777.7001500152588,125.43396501098633L777.6940500152588,125.45998501098633ZM908.0957500152588,419.32360501098634C914.7577500152588,433.9636050109863,920.5877500152587,448.86960501098633,926.3817500152588,463.74960501098633L934.8977500152588,486.0816050109863C937.7457500152587,493.4856050109863,940.4897500152588,500.96960501098636,943.4977500152588,508.05960501098633L943.5437500152588,508.16960501098634C944.3207500152588,510.01360501098634,943.5347500152589,512.1426050109862,941.7477500152588,513.0406050109864C939.9607500152588,513.9386050109863,937.7837500152588,513.2976050109863,936.7677500152588,511.57360501098634C932.5417500152588,504.3656050109863,929.2397500152588,496.98960501098634,926.2197500152588,489.4936050109863C923.1777500152588,482.0176050109863,920.4497500152588,474.44160501098634,917.8497500152588,466.83560501098634C912.7697500152588,451.5776050109863,908.1737500152587,436.1896050109863,904.7877500152588,420.40760501098634C904.5987500152588,419.5316050109863,905.1017500152589,418.6546050109863,905.9537500152587,418.3756050109863C906.8057500152588,418.0966050109863,907.7307500152588,418.5056050109863,908.0957500152588,419.32360501098634Z"></path></g></g><g style="opacity:0.25;"><path style="mix-blend-mode:passthrough" fill-opacity="1" fill="#000E3F" d="M992.739879800415,559.060033782959L975.013879800415,566.798033782959C966.191879800415,570.6480337829589,958.647879800415,569.310033782959,951.965879800415,564.274033782959C981.2318798004151,519.644033782959,946.4759798004151,438.828033782959,919.7838798004151,397.940033782959C900.785929800415,368.830033782959,906.971902800415,350.994043782959,914.0138998004151,341.876033782959C914.339879800415,342.848018782959,914.6559198004151,343.800043782959,914.971899800415,344.752043782959C918.3618798004151,355.01403378295896,918.213879800415,366.424033782959,923.4038798004151,375.702033782959C935.715879800415,397.724033782959,947.835879800415,393.59803378295896,972.9478798004151,448.626033782959C995.357879800415,497.700033782959,1024.554279800415,545.174033782959,992.739879800415,559.060033782959Z"></path></g><g><path style="mix-blend-mode:passthrough" fill-opacity="1" fill="#000E3F" d="M986.931943862915,467.645852142334C983.641943862915,460.77385214233396,980.289943862915,453.775852142334,977.077943862915,446.743852142334C960.717943862915,410.89385214233397,949.5419438629151,399.419852142334,940.5619438629151,390.20185214233396C935.713943862915,385.22585214233396,931.527943862915,380.925852142334,927.3659438629151,373.485852142334C924.593943862915,368.533852142334,923.5039438629151,362.657852142334,922.3459438629151,356.435852142334C921.5479438629151,352.133852142334,920.719943862915,347.683852142334,919.2839438629151,343.33385214233397C917.707943862915,338.561852142334,915.7159438629151,333.101852142334,913.039943862915,327.851852142334C913.007943862915,327.503852142334,912.933943862915,327.16085214233397,912.819943862915,326.82985214233395C913.1829438629151,324.466852142334,912.8659438629151,322.049852142334,911.9079438629151,319.859852142334L905.721943862915,305.693852142334C904.4179438629151,302.717852142334,902.017943862915,300.35785214233397,899.019943862915,299.10385214233395C898.487943862915,293.755852142334,899.239943862915,288.969852142334,901.3399438629151,284.489852142334C904.077943862915,278.68585214233394,908.717943862915,273.19985214233395,915.045943862915,268.255852142334C916.077943862915,267.523852142334,926.021943862915,261.359852142334,932.789943862915,257.85785214233397C935.462943862915,256.481852142334,937.4709438629151,254.089852142334,938.363943862915,251.219852142334C939.258943862915,248.386852142334,938.978943862915,245.31285214233398,937.585943862915,242.68785214233398C926.9559438629151,222.40185214233398,891.959943862915,159.58995214233397,868.429943862915,124.52995214233398C843.171943862915,86.91593214233399,791.568143862915,80.02592214233398,776.2281438629151,78.79792404233399C774.824343862915,78.72974014233398,773.433443862915,79.09490614233398,772.244143862915,79.84392214233398L772.328143862915,79.97792214233398C763.6340438629151,86.49592214233398,730.268103862915,135.22995214233399,740.874123862915,180.213852142334C750.634143862915,221.605852142334,772.870143862915,289.79585214233396,780.494143862915,311.24785214233395C781.4709438629151,314.056852142334,783.5356438629151,316.355852142334,786.2241438629151,317.62785214233395C788.9460438629151,318.927852142334,792.024043862915,319.077852142334,794.886043862915,318.053852142334C802.062143862915,315.467852142334,813.338143862915,312.369852142334,814.4600438629151,312.133852142334C822.5040438629151,310.83385214233397,829.6720438629151,311.157852142334,835.7720438629151,313.10385214233395C840.481943862915,314.597852142334,844.5039438629151,317.307852142334,848.073943862915,321.35385214233395C846.9619438629151,324.399852142334,847.0619438629151,327.755852142334,848.353943862915,330.729852142334L854.5379438629151,344.89185214233396C855.579943862915,347.27885214233396,857.3369438629151,349.284852142334,859.565943862915,350.63185214233397C861.231943862915,355.409852142334,863.563943862915,360.531852142334,866.7399438629151,366.271852142334C868.9519438629151,370.26185214233396,871.645943862915,373.875852142334,874.251943862915,377.373852142334C878.0419438629151,382.459852142334,881.621943862915,387.265852142334,883.375943862915,392.683852142334C886.001943862915,400.793852142334,886.305943862915,406.787852142334,886.659943862915,413.727852142334C887.3119438629151,426.58185214233396,888.125943862915,442.579852142334,903.275943862915,478.95185214233396C906.2639438629151,486.121852142334,909.133943862915,493.371852142334,911.949943862915,500.48785214233396C925.431943862915,534.5558521423341,937.073943862915,563.977852142334,955.731943862915,571.671852142334C958.7839438629151,572.929852142334,961.933943862915,573.559852142334,965.1579438629151,573.559852142334C968.9519438629151,573.559852142334,972.851943862915,572.691852142334,976.825943862915,570.9558521423339L994.553943862915,563.213852142334C1001.909943862915,560.0038521423339,1006.909943862915,554.9658521423339,1009.4139438629151,548.239852142334C1016.4619438629151,529.313852142334,1002.777943862915,500.735852142334,986.931943862915,467.645852142334ZM838.528143862915,304.44985214233395C831.0701438629151,302.071852142334,822.486143862915,301.64185214233396,812.9501438629151,303.181852142334C811.3341438629151,303.469852142334,799.266143862915,306.825852142334,791.826143862915,309.503852142334C791.2743438629151,309.703852142334,790.6656438629151,309.676852142334,790.134143862915,309.427852142334C789.625743862915,309.187852142334,789.2377438629151,308.750852142334,789.0601438629151,308.217852142334C781.480143862915,286.893852142334,759.394143862915,219.17385214233397,749.7141438629151,178.12795214233398C740.014143862915,136.97995214233399,771.212143862915,93.73595214233399,776.6421438629151,87.94394214233398C791.976143862915,89.29595214233399,838.420143862915,96.12995214233399,860.8899438629151,129.59195214233398C884.223943862915,164.35995214233398,918.979943862915,226.74185214233398,929.545943862915,246.90785214233398C929.881943862915,247.55185214233398,929.813943862915,248.131852142334,929.6959438629151,248.50385214233398C929.5189438629151,249.06085214233397,929.127943862915,249.52585214233397,928.607943862915,249.79385214233398C921.703943862915,253.363852142334,910.853943862915,260.03585214233397,909.5439438629151,261.029852142334C901.997943862915,266.921852142334,896.473943862915,273.51185214233396,893.121943862915,280.619852142334C890.459943862915,286.291852142334,889.4559438629151,292.277852142334,889.931943862915,298.817852142334C889.6159438629151,298.927852142334,889.2919438629151,298.98785214233396,888.979943862915,299.123852142334L854.9179438629151,313.991852142334C854.601943862915,314.129852142334,854.3359438629151,314.327852142334,854.0379438629151,314.48785214233396C849.553943862915,309.673852142334,844.479943862915,306.33385214233397,838.528143862915,304.44985214233395ZM856.681943862915,327.095852142334C856.1389438629151,325.827852142334,856.363943862915,324.361852142334,857.2639438629151,323.315852142334C857.323943862915,323.227852142334,857.419943862915,323.163852142334,857.471943862915,323.071852142334C857.779943862915,322.765852142334,858.135943862915,322.495852142334,858.555943862915,322.30985214233397L892.515943862915,307.489852142334C893.5239438629151,308.206852142334,894.781943862915,308.479852142334,895.995943862915,308.245852142334C896.161943862915,308.21385214233396,896.287943862915,308.10785214233397,896.4459438629151,308.05985214233397C896.8399438629151,308.403852142334,897.179943862915,308.813852142334,897.401943862915,309.323852142334L903.587943862915,323.489852142334C903.8659438629151,324.13185214233397,903.8939438629151,324.799852142334,903.795943862915,325.44985214233395L864.179943862915,342.741852142334C863.6199438629151,342.35785214233397,863.1399438629151,341.885852142334,862.867943862915,341.26185214233396L856.681943862915,327.095852142334ZM1000.905943862915,545.077852142334C999.2719438629151,549.471852142334,996.005943862915,552.681852142334,990.923943862915,554.903852142334L973.1959438629151,562.641852142334C968.107943862915,564.863852142334,963.529943862915,565.0718521423339,959.1959438629151,563.285852142334C944.0999438629151,557.059852142334,932.587943862915,527.9598521423341,920.395943862915,497.151852142334C917.559943862915,489.985852142334,914.669943862915,482.683852142334,911.661943862915,475.465852142334C897.1159438629151,440.551852142334,896.3499438629151,425.42785214233396,895.731943862915,413.27385214233396C895.363943862915,406.005852142334,895.015943862915,399.14185214233396,892.015943862915,389.89385214233397C889.8019438629151,383.051852142334,885.601943862915,377.411852142334,881.537943862915,371.957852142334C878.9999438629151,368.54785214233397,876.603943862915,365.327852142334,874.6879438629151,361.873852142334C872.391943862915,357.721852142334,870.5899438629151,353.965852142334,869.1879438629151,350.461852142334L906.131943862915,334.337852142334C907.977943862915,338.34585214233397,909.439943862915,342.485852142334,910.659943862915,346.183852142334C911.9039438629151,349.947852142334,912.6399438629151,353.907852142334,913.4179438629151,358.097852142334C914.6579438629151,364.765852142334,915.9379438629151,371.661852142334,919.439943862915,377.921852142334C924.183943862915,386.407852142334,928.979943862915,391.329852142334,934.055943862915,396.539852142334C942.545943862915,405.257852142334,953.113943862915,416.103852142334,968.8179438629151,450.515852142334C972.0519438629151,457.601852142334,975.4279438629151,464.651852142334,978.741943862915,471.567852142334C993.0719438629151,501.493852142334,1006.605943862915,529.761852142334,1000.905943862915,545.077852142334Z"></path></g><g><path style="mix-blend-mode:passthrough" fill-opacity="1" fill="#91D728" d="M878.576114956665,705.659859564209C882.7281149566651,702.177859564209,887.004114956665,698.8838595642089,891.734114956665,696.225859564209C894.726114956665,694.543859564209,896.414114956665,694.957859564209,898.582114956665,697.621859564209C903.672114956665,703.877759564209,908.0881149566651,713.617759564209,909.2721149566651,717.033859564209C909.770114956665,718.467859564209,910.822114956665,718.661759564209,911.8581149566651,717.5677595642089C924.3441149566651,704.393759564209,982.631814956665,656.947809564209,1000.6738149566651,655.203792564209C1003.835814956665,654.897762564209,1005.319814956665,655.867793564209,1006.4558149566651,658.855769564209C1008.0058149566651,662.935789564209,1008.2258149566651,667.217759564209,1008.069814956665,671.501759564209C1006.727814956665,708.371759564209,979.7058149566651,757.711959564209,980.329814956665,757.845959564209C980.547814956665,757.891959564209,980.825814956665,757.999959564209,980.987814956665,757.909959564209C985.9858149566651,755.183959564209,991.4078149566651,753.525859564209,996.733814956665,751.627759564209C1001.015814956665,750.101759564209,1005.479814956665,749.313759564209,1009.935814956665,748.523759564209C1012.195814956665,748.123759564209,1014.451814956665,748.353859564209,1016.669814956665,748.921859564209C1018.305814956665,749.341759564209,1019.3278149566651,750.341759564209,1019.4178149566651,752.0817595642089C1020.299814956665,768.965959564209,1005.991814956665,792.695959564209,995.243814956665,805.279959564209C962.239814956665,843.913959564209,900.350114956665,878.523959564209,850.568114956665,874.695959564209C847.6901149566651,874.473959564209,844.8341149566651,873.953959564209,841.9681149566651,873.577959564209C839.882124956665,873.303959564209,838.5981249566651,872.107959564209,837.8161449566651,870.193959564209C828.126134956665,846.445959564209,825.772134956665,787.301959564209,854.934114956665,735.339859564209C860.7001149566651,725.067859564209,872.8921149566651,710.425859564209,878.576114956665,705.659859564209Z"></path></g><g style="opacity:0.5;"><path style="mix-blend-mode:passthrough" fill-opacity="1" fill="#018100" d="M930.796152456665,855.195643157959C903.0680524566651,869.1516431579589,879.6601524566651,874.425643157959,859.7660524566651,874.979643157959C851.808052456665,875.201643157959,844.416112456665,874.243643157959,841.382122456665,873.4396431579589C839.1401154566651,872.845643157959,838.576089456665,872.007643157959,839.372110456665,869.923643157959C841.294532456665,864.8716431579589,843.6040424566651,859.974643157959,846.280132456665,855.277643157959C854.022152456665,841.721643157959,875.574152456665,829.961643157959,890.142152456665,824.003643157959C909.704152456665,816.003643157959,921.108152456665,812.377643157959,932.892152456665,802.127643157959C937.122152456665,798.447643157959,938.282152456665,796.651643157959,940.2502524566651,795.117943157959C942.910252456665,793.047943157959,951.474252456665,780.655943157959,955.424252456665,767.199943157959C962.022252456665,744.729943157959,963.3022524566651,741.2919431579589,967.9422524566651,733.341943157959C974.868252456665,721.477943157959,976.030252456665,720.149943157959,978.398252456665,717.237943157959C986.150252456665,707.703943157959,988.9322524566651,704.513913157959,997.9322524566651,697.991943157959C1000.2682524566651,696.299923157959,1004.456252456665,693.825923157959,1003.8122524566651,696.597953157959C994.930252456665,734.893943157959,976.396252456665,760.319943157959,981.550252456665,757.701943157959C989.770252456665,753.523943157959,1018.352252456665,742.8399431579589,1019.414252456665,751.931943157959C1020.962252456665,765.223943157959,1009.0562524566651,787.097943157959,1000.536252456665,798.249643157959C998.7162524566651,800.633643157959,957.3562524566651,841.827643157959,930.796152456665,855.195643157959Z"></path></g><g><path style="mix-blend-mode:passthrough" fill-opacity="1" fill="#018100" d="M990.2616001129151,681.467896282959C985.1496001129151,699.431846282959,976.2756001129151,716.425946282959,964.985600112915,731.421846282959C959.4196001129151,738.995846282959,953.1356001129151,745.979846282959,946.6520001129151,752.699846282959C940.126000112915,759.401946282959,933.058000112915,765.5498462829589,926.428000112915,771.599946282959C912.866000112915,783.664346282959,900.270000112915,795.826346282959,889.500000112915,810.034346282959C878.443400112915,824.272346282959,868.049000112915,839.013346282959,858.350020112915,854.210346282959C857.3826701129151,855.7173462829589,855.418440112915,856.225346282959,853.841410112915,855.377346282959C852.2643831129151,854.529346282959,851.605875112915,852.609346282959,852.3299961129151,850.972346282959C859.896830112915,834.079346282959,869.0591001129151,817.9483462829589,879.692000112915,802.798346282959C884.8480001129151,795.1603462829589,890.9540001129151,787.668346282959,897.298000112915,780.834346282959C903.716000112915,773.9859462829589,910.5260001129151,767.645946282959,917.326000112915,761.469946282959C931.2320001129151,749.415946282959,944.138000112915,737.639946282959,955.6116001129151,723.987946282959C966.9636001129151,710.419946282959,976.7856001129151,695.5679462829589,984.225600112915,679.255976282959C984.906600112915,677.693905282959,986.686600112915,676.932369282959,988.2856001129151,677.518673282959C989.885600112915,678.1049152829589,990.7516001129151,679.835996282959,990.2616001129151,681.467896282959Z"></path></g><g><path style="mix-blend-mode:passthrough" fill-opacity="1" fill="#000E3F" d="M858.414175112915,879.535873626709C855.6621751129151,879.535873626709,852.9361751129151,879.433873626709,850.226175112915,879.225873626709C833.436195112915,877.9318736267089,831.418195112915,867.607873626709,829.2841551129151,856.673873626709C827.194132112915,845.9798736267089,826.3881631129151,834.427873626709,826.822183112915,821.361873626709C828.342205112915,775.295873626709,848.6081751129151,715.252073626709,889.506175112915,692.274073626709C894.390175112915,689.519973626709,898.504175112915,690.339973626709,902.100175112915,694.752073626709C907.418175112915,701.292073626709,910.102175112915,707.344073626709,911.736175112915,711.308073626709C928.2124751129151,695.678073626709,981.088475112915,652.534053626709,1000.238475112915,650.686031326709C1005.414475112915,650.1720546267089,1008.834475112915,652.326043626709,1010.7024751129151,657.244013626709C1012.666475112915,662.418073626709,1012.752475112915,667.671973626709,1012.608475112915,671.668073626709C1011.550475112915,700.6659736267089,996.752475112915,733.066073626709,989.136475112915,749.431973626709C995.6384751129151,747.066873626709,1002.3324751129151,745.267573626709,1009.1444751129151,744.053973626709C1011.858475112915,743.571973626709,1014.6884751129151,743.730073626709,1017.7984751129151,744.523973626709C1021.464475112915,745.467973626709,1023.766475112915,748.203973626709,1023.954475112915,751.849873626709C1024.998475112915,771.833873626709,1007.890475112915,797.467873626709,998.6964751129151,808.227873626709C968.2924751129151,843.819873626709,910.038175112915,879.531873626709,858.414175112915,879.535873626709ZM894.5321751129151,699.892073626709C894.3881751129151,699.9580736267089,894.202175112915,700.052073626709,893.962175112915,700.1840736267089L893.958075112915,700.188073626709C857.8020751129151,720.496073626709,837.384175112915,776.669873626709,835.8981151129151,821.663873626709C835.4881351129151,834.039873626709,836.240095112915,844.919873626709,838.1960751129151,854.935873626709C840.438075112915,866.407873626709,841.416075112915,869.439873626709,850.9220751129151,870.1718736267089C888.680075112915,873.0758736267089,950.8324751129151,850.275873626709,991.790475112915,802.331873626709C1003.2984751129151,788.861873626709,1015.134475112915,767.271873626709,1014.914475112915,753.179873626709C1013.316475112915,752.829873626709,1011.964475112915,752.781873626709,1010.724475112915,752.993873626709C997.588475112915,755.321873626709,987.2164751129151,759.683873626709,983.160475112915,761.897873626709C981.444475112915,762.833873626709,979.036475112915,762.597873626709,977.604475112915,761.259873626709C974.826475112915,758.653873626709,975.674475112915,756.833873626709,980.3804751129151,746.7261736267089C987.566475112915,731.296173626709,1002.518475112915,699.180073626709,1003.530475112915,671.344073626709C1003.7024751129151,666.6120736267089,1003.306475112915,663.3620736267089,1002.208475112915,660.4761336267089C1002.107475112915,660.196283626709,1001.9854751129151,659.924803626709,1001.842475112915,659.6641236267089C1001.748475112915,659.690123626709,1001.498475112915,659.690123626709,1001.108475112915,659.7261336267089C985.868475112915,661.198073626709,929.294475112915,705.774073626709,915.1499751129151,720.694173626709C913.089975112915,722.866173626709,911.013975112915,723.018073626709,909.6439751129151,722.760173626709C906.352075112915,722.144073626709,905.190075112915,719.302073626709,903.719975112915,715.706073626709C902.227975112915,712.052073626709,899.969975112915,706.532073626709,895.053975112915,700.488073626709C894.890075112915,700.280773626709,894.715875112915,700.081873626709,894.5321751129151,699.892073626709ZM891.7341751129151,696.230073626709L891.778175112915,696.230073626709L891.7341751129151,696.230073626709Z"></path></g><g><path style="mix-blend-mode:passthrough" fill-opacity="1" fill="#FFFFFF" d="M490.54966651916504,581.690009954834C490.325666519165,587.4460099548339,489.3656665191651,587.980009954834,487.80366651916506,593.162009954834C485.199666519165,601.668009954834,490.63166651916504,602.372009954834,489.73766651916503,609.206009954834C488.661666519165,617.370009954834,481.25166651916504,621.258109954834,474.0916665191651,621.422109954834C455.10766651916504,621.912109954834,441.998166519165,613.1000099548339,445.01966651916507,617.116009954834C447.545666519165,620.488109954834,449.68366651916506,624.120109954834,451.57166651916503,627.894109954834C453.78966651916505,632.414109954834,455.84966651916505,636.962109954834,456.60166651916506,642.018109954834C458.83766651916505,651.760109954834,456.163666519165,661.944109954834,446.19766651916507,662.306109954834C444.03816651916503,662.376109954834,439.11216651916504,660.952109954834,437.322166519165,660.536109954834C426.49416651916505,658.1281099548339,422.51616651916504,665.5121099548339,416.91016651916505,667.848109954834C408.03416651916507,671.558109954834,401.45616651916504,664.116109954834,399.30016651916503,654.914109954834C397.25816651916506,646.1761099548339,398.426166519165,633.830109954834,400.69816651916506,625.158109954834C400.75206651916506,624.962109954834,400.58616651916503,624.694109954834,400.52016651916506,624.476109954834C398.322166519165,625.1801099548339,391.154166519165,634.732109954834,374.762166519165,640.826109954834C366.54216651916505,643.876109954834,356.34206651916503,640.884109954834,355.032066519165,631.2621099548339C354.29212651916504,625.902109954834,356.93816651916507,624.510109954834,348.79212651916504,615.775909954834C343.246136519165,609.843909954834,342.52613651916505,601.473909954834,348.40811651916505,596.031909954834C357.606166519165,587.541909954834,370.84016651916505,589.113909954834,375.440166519165,588.153909954834C378.55216651916504,587.503909954834,362.32416651916503,584.083909954834,353.52213651916503,569.579909954834C350.80414651916504,565.111909954834,351.92414651916505,559.437909954834,357.406166519165,557.0560099548339C358.98616651916507,556.3780099548339,360.49216651916504,555.5560099548339,362.072166519165,554.8780099548339C367.98216651916505,552.3219099548339,364.32816651916505,543.7340099548339,367.94416651916504,536.026009954834C373.132166519165,524.981989954834,389.642166519165,524.140009954834,402.75216651916503,543.914009954834C410.30016651916503,555.284009954834,409.190166519165,555.522009954834,409.950166519165,555.630009954834C410.56816651916506,555.718009954834,410.394166519165,555.174009954834,410.426166519165,554.866009954834C414.06616651916505,516.996028954834,433.07416651916503,511.73802995483396,443.41016651916505,523.424009954834C445.89566651916505,526.226009954834,446.85066651916503,529.834009954834,448.68866651916505,532.992009954834C451.63066651916506,538.018009954834,456.39866651916503,536.376009954834,461.12666651916504,537.748009954834C466.24866651916506,539.230009954834,468.29766651916503,543.480009954834,467.488666519165,548.610009954834C465.166666519165,563.235909954834,450.19666651916503,574.394009954834,455.19666651916503,572.754009954834C464.63666651916503,569.673909954834,468.30166651916505,567.600009954834,478.670666519165,568.9419099548339C484.07266651916507,569.626009954834,490.810666519165,574.678009954834,490.54966651916504,581.690009954834Z"></path></g><g><path style="mix-blend-mode:passthrough" fill-opacity="1" fill="#018100" d="M623.59989503479,411.46154940795896C622.7098950347901,406.89454940795895,620.74089503479,402.60554940795896,617.8578950347901,398.95154940795896L596.9938950347901,372.457549407959L464.95789503479006,204.848049407959C458.19189503479004,196.262879407959,447.19489503479,192.17938940795898,436.46589503479004,194.26801640795898L250.17199503479003,230.388049407959C239.44219503479002,232.478149407959,230.77309503479006,240.37654940795898,227.69599503479003,250.866049407959L158.45200503479003,488.05754940795896C157.13463803479004,492.525549407959,156.90899103479003,497.243549407959,157.79400103479003,501.815549407959L203.12999503479006,735.557549407959L582.0078950347901,662.0695494079589L668.9358950347901,645.201549407959L623.59989503479,411.46154940795896ZM320.04789503479003,661.3675494079589C319.77589503479004,662.865549407959,319.29789503479003,664.3195494079589,318.93589503479006,665.817549407959C318.64189503479,666.8855494079589,317.93589503479006,667.475549407959,316.86989503479003,667.747549407959C303.81589503479006,671.267549407959,272.75989503479,668.611549407959,247.51399503479004,649.973549407959C242.51999503479004,646.2715494079589,235.66399503479005,638.939549407959,233.55199503479002,635.647549407959C232.00999503479005,633.2415494079589,230.57999503479004,630.7895494079589,229.48799503479006,628.1555494079589C228.80799503479005,626.499549407959,229.12599503479004,625.613549407959,230.66999503479002,624.659549407959C234.27799503479002,622.435549407959,239.65999503479003,620.755549407959,241.52199503479005,620.3475494079589C242.29399503479004,620.189549407959,242.47399503479005,619.667549407959,241.95199503479006,619.0295494079589C235.91199503479004,611.651549407959,214.93599503479004,578.075549407959,215.20799503479003,568.517549407959C215.25399503479002,566.8375494079589,215.86599503479005,566.1555494079589,217.50199503479004,565.749549407959C219.72599503479003,565.181549407959,221.97599503479006,565.363549407959,224.22199503479004,565.725549407959C243.22399503479005,568.835549407959,266.94789503479,585.8855494079589,267.51389503479004,585.8855494079589C267.55989503479003,585.7935494079591,267.6278950347901,585.6355494079589,267.58189503479,585.545549407959C266.49189503479005,582.753549407959,265.99189503479005,579.823549407959,265.33389503479003,576.919549407959C264.83589503479004,574.581549407959,264.72189503479,572.1975494079591,264.58589503479004,569.813549407959C264.51789503479006,568.5875494079589,264.79189503479006,567.429549407959,265.24389503479006,566.317549407959C265.56189503479004,565.477549407959,266.1518950347901,565.023549407959,267.06189503479004,565.0915494079591C275.95989503479007,565.725549407959,287.4258950347901,574.7615494079589,293.28189503479007,581.209549407959C311.30589503479007,601.0015494079589,325.33789503479005,635.621549407959,320.04789503479003,661.3675494079589ZM489.74789503479,609.1975494079591C488.65789503479004,617.369549407959,481.25789503479007,621.2515494079589,474.08389503479003,621.411549407959C455.10589503479,621.909549407959,442.00589503479006,613.101549407959,445.02589503479004,617.119549407959C447.54589503479,620.479549407959,449.67989503479004,624.111549407959,451.56389503479005,627.879549407959C453.78789503479004,632.419549407959,455.85389503479,636.961549407959,456.60389503479,642.023549407959C458.85189503479006,651.763549407959,456.17389503479006,661.931549407959,446.20589503479005,662.295549407959C444.04989503479004,662.363549407959,439.12389503479005,660.955549407959,437.32989503479,660.525549407959C426.49989503479003,658.1175494079589,422.52789503479005,665.497549407959,416.91989503479004,667.835549407959C408.04389503479,671.5595494079589,401.45989503479007,664.111549407959,399.30389503479,654.917549407959C397.25989503479,646.177549407959,398.41789503479004,633.825549407959,400.71189503479,625.1555494079589C400.75789503479007,624.951549407959,400.59789503479004,624.701549407959,400.52989503479,624.473549407959C398.32789503479,625.177549407959,391.15389503479,634.735549407959,374.76189503479003,640.8195494079589C366.54389503479,643.861549407959,356.34989503479005,640.887549407959,355.03389503479,631.2615494079589C354.28389503479,625.903549407959,356.93989503479,624.4955494079591,348.78989503479005,615.7795494079589C343.24989503479003,609.831549407959,342.52389503479003,601.475549407959,348.40389503479,596.027549407959C357.59789503479004,587.537549407959,370.83389503479003,589.103549407959,375.44189503479004,588.1495494079591C378.55189503479005,587.4915494079589,362.3198950347901,584.085549407959,353.51189503479003,569.579549407959C350.80989503479003,565.1075494079589,351.92189503479005,559.431549407959,357.41589503479,557.047549407959C358.98189503479,556.365549407959,360.47989503479005,555.5495494079589,362.0698950347901,554.869549407959C367.97189503479,552.325549407959,364.31789503479,543.721549407959,367.9498950347901,536.025549407959C373.1278950347901,524.969549407959,389.62989503479,524.129549407959,402.75189503479004,543.903549407959C410.28789503479004,555.277549407959,409.1758950347901,555.527549407959,409.94789503479,555.6175494079589C410.56189503479004,555.707549407959,410.37989503479,555.163549407959,410.42389503479,554.8675494079589C414.05589503479,516.999549407959,433.05789503479,511.733549407959,443.40989503479005,523.423549407959C445.88389503479004,526.215549407959,446.83789503479005,529.825549407959,448.67589503479,532.9815494079589C451.62789503479,538.0215494079589,456.39389503479003,536.365549407959,461.11589503479,537.749549407959C466.24589503479007,539.225549407959,468.28989503479005,543.471549407959,467.47189503479007,548.601549407959C465.15589503479003,563.223549407959,450.19589503479006,574.391549407959,455.18989503479,572.757549407959C464.63389503479004,569.671549407959,468.28989503479005,567.603549407959,478.66389503479,568.9435494079589C484.06789503479,569.6255494079589,490.80989503479003,574.6875494079591,490.53789503479004,581.679549407959C490.31189503479004,587.445549407959,489.35789503479003,587.967549407959,487.78989503479005,593.1655494079589C485.20589503479005,601.659549407959,490.63189503479003,602.363549407959,489.74789503479,609.1975494079591ZM454.67189503479005,486.739549407959L342.61189503479005,508.465549407959C305.24389503479006,515.707549407959,269.07989503479007,491.303549407959,261.83789503479005,453.935549407959L246.42399503479004,374.49954940795897C244.51799503479003,364.647549407959,250.94199503479004,355.111549407959,260.79389503479,353.205549407959L472.51589503479005,312.137549407959C482.36789503479,310.229549407959,491.90389503479,316.67754940795896,493.80989503479003,326.507549407959L509.22389503479,405.943549407959C516.46789503479,443.333549407959,492.03989503479005,479.477549407959,454.67189503479005,486.739549407959ZM603.34989503479,563.927549407959C602.62389503479,567.765549407959,599.01389503479,577.1175494079589,595.7678950347901,582.407549407959C590.8638950347901,590.3995494079591,584.93989503479,597.2315494079589,578.69589503479,602.975549407959C564.0078950347901,616.4375494079591,547.5018950347901,623.7035494079589,538.10389503479,624.8375494079589C537.01389503479,624.997549407959,536.12989503479,624.701549407959,535.46989503479,623.815549407959C534.56189503479,622.567549407959,533.58589503479,621.387549407959,532.74589503479,620.1395494079591C518.21789503479,598.209549407959,518.30789503479,560.863549407959,527.61589503479,535.755549407959C530.65789503479,527.581549407959,537.9238950347901,514.913549407959,545.91389503479,511.00954940795896C546.7318950347901,510.601549407959,547.45789503479,510.805549407959,548.0698950347901,511.43954940795896C548.90989503479,512.325549407959,549.56789503479,513.301549407959,549.95589503479,514.459549407959C550.74989503479,516.707549407959,551.54589503479,518.955549407959,551.92989503479,521.339549407959C552.42989503479,524.267549407959,553.0658950347901,527.173549407959,553.0878950347901,530.169549407959C553.0878950347901,530.283549407959,553.20189503479,530.3955494079589,553.26989503479,530.465549407959C553.51989503479,530.419549407959,558.94589503479,521.973549407959,566.7098950347901,512.961549407959C572.24989503479,506.513549407959,578.9918950347901,499.77154940795896,585.89389503479,495.57154940795897C587.84589503479,494.39154940795896,589.8678950347901,493.39154940795896,592.1378950347901,493.073549407959C593.79589503479,492.847549407959,594.6358950347901,493.255549407959,595.29389503479,494.799549407959C599.12989503479,503.561549407959,592.22789503479,542.541549407959,589.34589503479,551.667549407959C589.11989503479,552.417549407959,589.4818950347901,552.8475494079589,590.27789503479,552.711549407959C592.1618950347901,552.393549407959,597.76989503479,551.917549407959,601.94589503479,552.6655494079589C603.73989503479,552.961549407959,604.35189503479,553.641549407959,604.3298950347901,555.457549407959C604.32589503479,558.297549407959,603.89389503479,561.113549407959,603.34989503479,563.927549407959Z"></path></g><g><path style="mix-blend-mode:passthrough" fill-opacity="1" fill="#91D728" d="M434.71571925354004,194.602147064209L425.86771925354003,196.31814706420897C418.46971925354006,178.442147064209,402.44371925354005,151.02604706420897,357.98171925354006,121.49204706420899C333.92571925354,105.65004706420899,307.55571925354,92.10204706420899,280.50771925354,82.210047064209C209.74371925354004,56.328057064208984,198.98971925354004,92.13404706420899,214.29771925354004,124.68604706420898C226.55971925354004,151.42204706420898,278.07571925354006,184.65214706420898,273.44571925354006,225.882147064209L264.28571925354004,227.65814706420898C267.49171925354005,190.174147064209,215.78171925354005,163.458147064209,199.71571925354004,132.138047064209C186.14571925354005,106.16404706420899,186.52371925354004,77.00004706420899,213.13771925354004,60.64404706420898C244.34371925354003,46.38204706420898,283.43771925354,61.948047064208986,314.37371925354006,77.17804706420898C366.07171925354004,102.74204706420898,417.93371925354006,140.50604706420899,434.71571925354004,194.602147064209ZM813.0717192535401,692.106147064209C809.0097192535401,704.434147064209,762.24171925354,666.340147064209,759.03971925354,662.934147064209C729.75371925354,631.762147064209,728.59571925354,590.2641470642089,734.67971925354,548.036147064209C739.88771925354,511.622147064209,779.31571925354,413.290147064209,750.91171925354,400.540147064209C745.8277192535401,398.27014706420897,739.71971925354,398.52014706420897,739.49371925354,398.564147064209C692.1357192535401,406.056147064209,701.1257192535401,458.952147064209,640.73971925354,499.81614706420896L638.94571925354,490.552147064209C684.71971925354,452.010147064209,680.3617192535401,407.630147064209,720.26571925354,386.78014706420896C733.0237192535401,380.242147064209,747.4857192535401,380.288147064209,757.99771925354,384.646147064209C774.2977192535401,391.38814706420897,778.90571925354,408.71014706420897,779.2257192535401,426.28214706420897C778.11371925354,476.36414706420896,759.17971925354,497.226147064209,751.7317192535401,550.464147064209C746.62371925354,586.560147064209,741.56171925354,614.710147064209,760.33571925354,645.1781470642089C782.96971925354,681.254147064209,815.20571925354,685.680147064209,813.0717192535401,692.106147064209ZM171.63771925354004,573.150147064209L173.13371925354005,580.862147064209C160.26571925354003,584.028147064209,134.52571925354005,593.206147064209,122.47171925354004,626.554147064209C119.26171925354004,638.624147064209,117.68771925354004,641.588147064209,118.55771925354004,662.7641470642089C119.11371925354004,676.602147064209,120.17171925354003,689.808147064209,116.31371925354004,704.016147064209C109.33771925354004,730.016147064209,86.20591925354005,753.2881470642089,56.005919253540036,746.122147064209C20.19191925354004,737.186147064209,-8.74008074645996,681.5381470642089,22.187919253540038,624.820147064209C37.07791925354004,597.742147064209,58.50191925354004,578.950147064209,66.81191925354004,569.938147064209C90.67991925354004,544.3121470642091,98.26991925354004,518.3501470642091,96.29991925354004,496.740147064209C94.11591925354004,470.338147064209,77.31991925354004,451.580147064209,77.18591925354004,451.606147064209C76.19791925354004,450.572147064209,70.80191925354004,443.616147064209,60.28191925354004,435.992147064209C36.49991925354004,418.774147064209,15.86195925354004,418.844147064209,16.90194925354004,413.23214706420896C18.295949253540037,405.632147064209,47.58991925354004,418.12614706420896,50.60991925354004,419.50614706420896C119.52771925354004,450.77014706420897,126.78171925354003,528.590147064209,79.21991925354004,581.800147064209C51.05991925354004,613.354147064209,15.30995925354004,647.152147064209,31.31391925354004,696.912147064209C36.98191925354004,716.0001470642089,53.82791925354004,729.406147064209,64.25591925354004,729.882147064209L66.06191925354004,730.132147064209C80.88391925354004,731.560147064209,102.01991925354004,716.058147064209,104.01191925354004,682.210147064209C105.22191925354004,660.908147064209,100.08191925354004,631.540147064209,121.04371925354003,603.818147064209C136.80371925354004,583.004147064209,157.62171925354005,575.036147064209,171.63771925354004,573.150147064209ZM686.50771925354,889.254147064209L278.07171925354004,968.462147064209C277.32171925354004,968.598147064209,276.57371925354005,968.712147064209,275.84771925354005,968.802147064209C275.59771925354005,968.848147064209,275.34771925354005,968.848147064209,275.09771925354005,968.8701470642089C274.98371925354,968.892147064209,274.89171925354003,968.916147064209,274.77971925354007,968.916147064209C274.62171925354005,968.916147064209,274.46171925354,968.940147064209,274.30371925354007,968.940147064209C274.19171925354004,968.962147064209,274.07771925354007,968.962147064209,273.96371925354003,968.962147064209C273.78171925354,968.984147064209,273.57771925354007,968.984147064209,273.39571925354005,968.984147064209C272.48771925354004,969.030147064209,271.60171925354,969.008147064209,270.71571925354004,968.940147064209C270.42171925354006,968.916147064209,270.10371925354,968.916147064209,269.80771925354003,968.872147064209C269.33671925354,968.843147064209,268.86671925354005,968.790147064209,268.39971925354,968.714147064209C268.17971925354004,968.694147064209,267.95971925354,968.6631470642089,267.74171925354005,968.622147064209C267.46971925354006,968.576147064209,267.19771925354,968.508147064209,266.92371925354,968.464147064209C266.87771925354,968.464147064209,266.85571925354003,968.464147064209,266.83371925354004,968.440147064209C266.58971925354,968.3991470642089,266.34771925354005,968.3461470642089,266.10771925354004,968.282147064209C265.55671925354005,968.169147064209,265.01171925354004,968.033147064209,264.4717192535401,967.874147064209C263.83071925354005,967.690147064209,263.19471925354003,967.486147064209,262.56571925354,967.262147064209C262.4957192535401,967.262147064209,262.45371925354004,967.2161470642089,262.40571925354004,967.194147064209C261.84271925354005,966.9951470642089,261.28971925354006,966.7691470642089,260.74971925354004,966.5141470642089C260.13071925354006,966.272147064209,259.53171925354,965.984147064209,258.95571925354005,965.652147064209C258.39971925354007,965.393147064209,257.86071925354,965.097147064209,257.34371925354003,964.766147064209C255.52171925354003,963.6491470642089,253.82371925354005,962.340147064209,252.27971925354004,960.862147064209C251.98371925354004,960.599147064209,251.70371925354004,960.318147064209,251.43971925354003,960.022147064209C250.53471925354003,959.102147064209,249.69971925354005,958.1151470642089,248.94171925354004,957.070147064209C248.75971925354003,956.820147064209,248.55571925354005,956.5481470642089,248.39571925354005,956.276147064209C247.29571925354003,954.712147064209,246.37471925354004,953.0291470642089,245.64971925354004,951.260147064209C245.39771925354003,950.739147064209,245.18471925354004,950.201147064209,245.01371925354005,949.648147064209C244.81771925354005,949.133147064209,244.64371925354004,948.610147064209,244.49171925354003,948.080147064209C244.37171925354005,947.683147064209,244.26571925354003,947.282147064209,244.17371925354004,946.878147064209C244.03771925354005,946.378147064209,243.92371925354004,945.856147064209,243.80971925354004,945.356147064209L211.57371925354005,779.016147064209L574.9237192535401,708.5481470642089L677.3557192535401,688.684147064209L709.6157192535401,855.0001470642089C712.70571925354,870.842147064209,702.35371925354,886.166147064209,686.50771925354,889.254147064209ZM498.77971925354007,352.14814706420896L509.21371925354003,405.94814706420897C516.46171925354,443.324147064209,492.04971925354005,479.486147064209,454.67371925354,486.736147064209L342.61371925354,508.47014706420896C305.23771925354004,515.718147064209,269.07571925354006,491.30414706420896,261.82771925354007,453.930147064209L251.39371925354004,400.130147064209L498.77971925354007,352.14814706420896ZM604.32571925354,555.460147064209C604.32571925354,558.2981470642089,603.89371925354,561.114147064209,603.34971925354,563.928147064209C602.62371925354,567.766147064209,599.01371925354,577.118147064209,595.76771925354,582.408147064209C590.86371925354,590.400147064209,584.93971925354,597.232147064209,578.69571925354,602.9761470642089C564.00771925354,616.438147064209,547.50171925354,623.704147064209,538.10371925354,624.838147064209C537.01371925354,624.998147064209,536.1297192535401,624.7021470642089,535.46971925354,623.816147064209C534.56171925354,622.568147064209,533.58571925354,621.388147064209,532.7457192535401,620.140147064209C518.21771925354,598.210147064209,518.30771925354,560.864147064209,527.6157192535401,535.756147064209C530.65771925354,527.582147064209,537.9237192535401,514.9141470642089,545.9137192535401,511.010147064209C546.7317192535401,510.60214706420896,547.4577192535401,510.806147064209,548.06971925354,511.440147064209C548.9097192535401,512.326147064209,549.5677192535401,513.3021470642091,549.95571925354,514.460147064209C550.7497192535401,516.708147064209,551.54571925354,518.9561470642091,551.92971925354,521.340147064209C552.42971925354,524.268147064209,553.06571925354,527.1741470642089,553.0877192535401,530.170147064209C553.0877192535401,530.284147064209,553.2017192535401,530.396147064209,553.2697192535401,530.466147064209C553.5197192535401,530.420147064209,558.94571925354,521.974147064209,566.70971925354,512.9621470642089C572.2497192535401,506.514147064209,578.99171925354,499.772147064209,585.89371925354,495.572147064209C587.84571925354,494.392147064209,589.86771925354,493.392147064209,592.13771925354,493.074147064209C593.79571925354,492.848147064209,594.6357192535401,493.25614706420896,595.2937192535401,494.800147064209C599.1297192535401,503.562147064209,592.22771925354,542.542147064209,589.34571925354,551.668147064209C589.11971925354,552.418147064209,589.4817192535401,552.848147064209,590.27771925354,552.7121470642089C592.16171925354,552.3941470642089,597.7697192535401,551.918147064209,601.94571925354,552.666147064209C603.7357192535401,552.964147064209,604.34771925354,553.646147064209,604.32571925354,555.460147064209ZM320.05571925354,661.378147064209C319.76571925354006,662.866147064209,319.30771925354003,664.320147064209,318.92371925354,665.806147064209C318.64571925354005,666.878147064209,317.92971925354004,667.480147064209,316.87371925354006,667.754147064209C303.81571925354007,671.258147064209,272.75571925354006,668.610147064209,247.51571925354003,649.964147064209C242.51971925354005,646.262147064209,235.66571925354003,638.9421470642089,233.54771925354004,635.652147064209C232.01571925354003,633.244147064209,230.56971925354003,630.796147064209,229.47971925354003,628.162147064209C228.80771925354003,626.488147064209,229.12571925354004,625.616147064209,230.67571925354005,624.670147064209C234.26571925354003,622.424147064209,239.65171925354005,620.756147064209,241.51571925354003,620.348147064209C242.29571925354003,620.196147064209,242.46971925354003,619.6541470642089,241.95571925354005,619.0381470642089C235.89771925354003,611.656147064209,214.93171925354005,578.074147064209,215.20571925354005,568.516147064209C215.25171925354005,566.842147064209,215.85571925354003,566.146147064209,217.48771925354004,565.738147064209C219.71571925354004,565.190147064209,221.96771925354003,565.354147064209,224.21571925354004,565.728147064209C243.27171925354003,568.830147064209,267.08571925354005,585.972147064209,267.50971925354,585.890147064209C267.55771925354003,585.7881470642089,267.62171925354005,585.638147064209,267.58371925354004,585.552147064209C266.48571925354,582.758147064209,265.98771925354004,579.826147064209,265.33171925354003,576.924147064209C264.82771925354007,574.568147064209,264.71371925354003,572.188147064209,264.57571925354,569.808147064209C264.52371925354004,568.592147064209,264.78371925354,567.432147064209,265.23571925354,566.304147064209C265.56171925354005,565.478147064209,266.14171925354003,565.018147064209,267.05971925354004,565.094147064209C275.94771925354,565.730147064209,287.41371925354,574.768147064209,293.28771925354005,581.212147064209C311.30571925354,601.006147064209,325.32771925354007,635.612147064209,320.05571925354,661.378147064209Z"></path></g><g style="opacity:0.25;"><g><path style="mix-blend-mode:passthrough" fill-opacity="1" fill="#000E3F" d="M578.6959868316651,602.9761399841309C574.313946831665,576.6420399841309,567.4819738316651,547.7640399841308,566.707986831665,512.9620399841309C572.247966831665,506.5140399841309,578.9899868316651,499.77199998413084,585.891986831665,495.5719899841309C587.843986831665,494.3919899841309,589.865986831665,493.39199398413086,592.135986831665,493.0740012841309C593.794086831665,492.84798798413084,594.6339868316651,493.25600798413086,595.291986831665,494.80000998413084C599.127986831665,503.5620399841309,592.226086831665,542.5420399841308,589.343986831665,551.6680399841308C589.117986831665,552.4180399841308,589.4799868316651,552.8479399841309,590.276086831665,552.7120399841309C592.159986831665,552.3940399841308,597.7680868316651,551.9180399841308,601.944086831665,552.6659399841309C603.738086831665,552.9620399841309,604.3500868316651,553.6420399841309,604.328086831665,555.4579399841309C604.328086831665,558.2959399841309,603.895986831665,561.1119399841309,603.351986831665,563.9260399841309C602.625986831665,567.7640399841308,599.015986831665,577.1160399841309,595.770086831665,582.4059399841309C590.8640868316651,590.4000399841309,584.938086831665,597.2321399841309,578.6959868316651,602.9761399841309Z"></path></g></g><g transform="matrix(0.9817003607749939,-0.19043205678462982,0.19043205678462982,0.9817003607749939,-136.35633955428915,52.14417030009929)"><path style="mix-blend-mode:passthrough" fill-opacity="1" fill="#FFCF00" d="M203.13669776916504,735.557186126709L677.6146977691651,735.557186126709L677.6146977691651,779.827186126709L203.13669776916504,779.827186126709L203.13669776916504,735.557186126709Z"></path></g><g><path style="mix-blend-mode:passthrough" fill-opacity="1" fill="#FFCF00" d="M493.81011378479,326.517927532959L498.78011378479005,352.147927532959L251.39413378479003,400.128027532959L246.42412778479004,374.498027532959C244.51301378479005,364.65052753295896,250.94814378479003,355.11862753295895,260.79611378479007,353.210027532959L472.52211378479,312.145992532959C482.3701137847901,310.233727532959,491.90211378479,316.669367532959,493.81011378479,326.517927532959Z"></path></g><g><path style="mix-blend-mode:passthrough" fill-opacity="1" fill="#FC09B2" d="M316.87214855041503,474.541968157959C306.258098550415,472.069968157959,302.628118550415,464.347968157959,305.90210855041505,457.70196815795896C315.524148550415,438.169968157959,357.63814855041505,437.945968157959,354.02014855041506,458.127968157959C352.26414855041503,467.939968157959,333.79414855041506,478.481968157959,316.87214855041503,474.541968157959ZM465.86574855041505,445.645968157959C474.78574855041506,439.385968157959,475.265748550415,430.865968157959,469.74374855041503,425.925958157959C453.51774855041504,411.40596815795897,414.37374855041503,426.943968157959,425.273748550415,444.30996815795896C430.573748550415,452.75196815795897,451.6457485504151,455.625968157959,465.86574855041505,445.645968157959ZM394.72014855041505,607.455768157959C389.57414855041503,610.961768157959,384.03014855041505,612.9597681579589,378.62004855041505,614.867768157959C373.13414855041503,616.659768157959,367.85414855041506,618.241768157959,362.10014855041504,619.4497681579589L362.01204855041505,619.467768157959C360.996548550415,619.678768157959,359.961848550415,619.205768157959,359.457548550415,618.298768157959C358.953048550415,617.3927681579589,359.09584855041504,616.263768157959,359.810148550415,615.511768157959C364.28014855041505,610.823768157959,370.08004855041503,608.195768157959,375.758048550415,606.253768157959C381.532048550415,604.439768157959,387.346148550415,603.275768157959,393.47604855041504,603.357768157959C394.71604855041505,603.367768157959,395.71204855041503,604.379768157959,395.70404855041505,605.617768157959C395.68954855041505,606.352768157959,395.32364855041504,607.0367681579589,394.72014855041505,607.455768157959ZM477.92374855041504,596.331768157959C472.325748550415,598.409768157959,466.67574855041505,599.063768157959,461.009748550415,599.383768157959C455.33974855041504,599.557768157959,449.65574855041507,599.385768157959,443.91574855041506,597.781768157959C442.914748550415,597.502768157959,442.20774855041503,596.608768157959,442.167748550415,595.569768157959C442.12774855041505,594.531768157959,442.76274855041504,593.585768157959,443.739748550415,593.2297681579589C449.33774855041503,591.187768157959,454.991748550415,590.577768157959,460.65974855041503,590.313768157959C466.331748550415,590.195768157959,472.01774855041504,590.409768157959,477.75774855041504,592.051768157959C478.69474855041506,592.319768157959,479.35374855041505,593.158768157959,479.390748550415,594.131768157959C479.42874855041504,595.1047681579589,478.83674855041505,595.992768157959,477.92374855041504,596.331768157959ZM425.51774855041504,621.031768157959C428.5017485504151,625.919768157959,430.30974855041507,631.117768157959,431.53174855041505,636.657768157959C432.60574855041506,642.173768157959,433.06774855041505,648.169768157959,431.181748550415,653.9217681579589C430.86074855041505,654.894768157959,429.95474855041505,655.554768157959,428.92974855041507,655.562768157959C427.90574855041507,655.570768157959,426.98874855041504,654.925768157959,426.65174855041505,653.957768157959L426.62574855041504,653.877768157959C424.847748550415,648.633768157959,423.729748550415,643.693768157959,422.633748550415,638.455768157959C421.68374855041503,633.2297681579589,420.71974855041503,627.793768157959,421.33374855041507,621.957768157959C421.436748550415,620.991768157959,422.14474855041504,620.1997681579589,423.092748550415,619.989768157959C424.04174855041504,619.780768157959,425.01774855041504,620.1997681579589,425.51774855041504,621.031768157959ZM375.47014855041505,555.125768157959C381.11014855041503,556.987768157959,385.798148550415,560.319768157959,390.082148550415,563.955768157959C394.28014855041505,567.7097681579589,398.10604855041504,571.801768157959,400.92604855041503,576.905768157959C401.42414855041505,577.812768157959,401.28564855041503,578.935768157959,400.582348550415,579.693768157959C399.87914855041504,580.451768157959,398.76924855041506,580.674768157959,397.82814855041505,580.245768157959C392.516048550415,577.807768157959,388.216148550415,574.343768157959,384.08614855041503,570.771768157959C380.042048550415,567.079768157959,376.19604855041507,563.311768157959,372.920048550415,558.567768157959C372.20164855041503,557.549768157959,372.44424855041507,556.1427681579589,373.46204855041503,555.423768157959C374.06004855041505,555.003768157959,374.82404855041506,554.923768157959,375.47014855041505,555.125768157959ZM445.62774855041505,544.909768157959C444.263748550415,550.433768157959,442.02174855041505,555.2097681579589,439.68974855041506,559.991768157959C437.23174855041503,564.705768157959,434.70974855041504,569.3537681579589,431.027748550415,573.687768157959C430.17874855041504,574.703768157959,428.66674855041504,574.839768157959,427.64974855041504,573.991768157959C427.073748550415,573.4987681579589,426.75774855041504,572.7677681579589,426.79174855041504,572.009768157959C427.133748550415,566.191768157959,429.095748550415,560.869768157959,431.60574855041506,555.859768157959C434.24374855041503,550.917768157959,437.455748550415,546.2197681579589,442.03174855041505,542.5797681579589C443.008748550415,541.803768157959,444.42974855041507,541.965768157959,445.205748550415,542.941768157959C445.657748550415,543.509768157959,445.78574855041506,544.2577681579589,445.62774855041505,544.909768157959Z"></path></g><g style="opacity:0.5;"><path style="mix-blend-mode:passthrough" fill-opacity="1" fill="#FFFFFF" d="M250.68395675354003,269.882048001709C239.08595675354005,328.31005800170897,216.49195675354002,416.924358001709,196.81795675354005,478.24035800170896C194.60999675354003,485.12435800170897,184.24799675354004,482.28835800170896,185.83399375354003,475.232358001709C200.18995675354003,412.256358001709,225.98795675354003,324.312058001709,245.64595675354005,268.502068001709C246.72395675354005,265.448088001709,251.31395675354003,266.722072601709,250.68395675354003,269.882048001709Z"></path></g><g><path style="mix-blend-mode:passthrough" fill-opacity="1" fill="#FD8A02" d="M432.31602081604,604.0258275329589C428.85002081604006,611.619827532959,418.45602081604005,615.903827532959,409.82200081604003,610.539827532959C404.06999081604005,606.9398275329589,401.07401481604006,600.091827532959,402.02399681604004,593.553727532959C403.59599081604006,582.745787532959,417.67402081604,576.753777532959,426.56402081604006,582.427787532959C433.51602081604005,586.7398075329589,435.65202081604,596.707827532959,432.31602081604,604.0258275329589Z"></path></g><g><path style="mix-blend-mode:passthrough" fill-opacity="1" fill="#018100" d="M588.7816176910401,508.829926517334C583.32161769104,516.589936517334,578.77961769104,524.669936517334,575.72161769104,533.335936517334C572.7336176910401,542.049936517334,570.67361769104,551.165936517334,568.71761769104,560.603936517334C567.63561769104,565.323936517334,566.52361769104,570.0719365173339,565.13961769104,574.829936517334C564.41161769104,577.207936517334,563.63961769104,579.585936517334,562.67761769104,582.013936517334C561.68961769104,584.589936517334,560.43961769104,586.739936517334,559.3296176910401,588.8360365173339C557.01361769104,593.107936517334,554.66761769104,597.378036517334,551.99561769104,601.583936517334C550.61561769104,603.654036517334,549.04561769104,605.702336517334,547.64161769104,607.5443365173339C546.2586176910401,609.413336517334,544.93861769104,611.328336517334,543.68361769104,613.286336517334C543.0496176910401,614.274336517334,541.76961769104,614.622336517334,540.72161769104,614.091336517334C539.67361769104,613.560336517334,539.19861769104,612.322336517334,539.61961769104,611.226336517334C540.49961769104,608.934336517334,541.54361769104,606.612336517334,542.7816176910401,604.426036517334C543.99961769104,602.238036517334,545.0976176910401,600.280036517334,546.10561769104,598.1720365173339C548.22161769104,594.031936517334,550.17361769104,589.687936517334,552.06761769104,585.312036517334C553.0016176910401,583.0579365173339,554.00761769104,580.944036517334,554.67361769104,578.997936517334C555.39361769104,576.919936517334,556.01961769104,574.690036517334,556.60161769104,572.4419365173339C557.7916176910401,567.864636517334,558.8776176910401,563.2608365173339,559.8576176910401,558.633936517334C561.9436176910401,549.281936517334,564.2536176910401,539.5719365173339,568.37561769104,530.3799365173339C570.44961769104,525.7970365173339,572.92761769104,521.407736517334,575.77961769104,517.263936517334C578.74961769104,513.225886517334,581.93361769104,509.395896517334,585.5396176910401,506.029903517334C586.40161769104,505.20971251733397,587.76461769104,505.243740517334,588.58361769104,506.105892517334C589.29361769104,506.85988651733396,589.3476176910401,508.009886517334,588.7816176910401,508.829926517334ZM228.45200769104005,575.287936517334C233.05600769104004,577.061936517334,237.44001769104003,579.421936517334,241.70401769104004,582.0579365173339C245.89751769104004,584.8364365173339,249.83631769104005,587.981336517334,253.47401769104005,591.456036517334C260.73201769104,598.440036517334,266.50601769104003,606.5823365173339,271.93601769104004,614.476336517334C274.57421769104,618.401336517334,277.30231769104006,622.266336517334,280.11801769104005,626.066336517334C281.49801769104005,627.934336517334,282.91201769104003,629.768336517334,284.35601769104005,631.426336517334C285.70201769104006,632.982336517334,287.42601769104004,634.568336517334,289.13401769104,636.308336517334C292.52601769104,639.6603365173339,295.96201769104005,642.9583365173339,299.47001769104,646.008336517334C301.19201769104006,647.586336517334,302.94401769104,648.992336517334,304.89001769104004,650.566336517334C306.83941769104,652.137336517334,308.66981769104007,653.850336517334,310.36611769104,655.692336517334C311.17701769104,656.549336517334,311.20331769104007,657.882336517334,310.42691769104005,658.770336517334C309.65041769104005,659.658336517334,308.32581769104,659.811336517334,307.36811769104,659.122336517334C305.47281769104006,657.774336517334,303.53241769104005,656.490336517334,301.55011769104004,655.274336517334C299.56011769104003,654.088336517334,297.33811769104005,652.776336517334,295.28411769104,651.372336517334C291.23211769104006,648.470336517334,287.46011769104007,645.388336517334,283.71611769104004,642.290336517334C281.90211769104,640.760336517334,279.94011769104003,639.234336517334,278.06011769104003,637.214336517334C276.26011769104,635.322336517334,274.65411769104,633.404336517334,273.09011769104006,631.470336517334C270.02811769104005,627.574336517334,267.22011769104006,623.584336517334,264.45211769104003,619.612336517334C259.11011769104005,611.590336517334,253.79211769104003,603.906036517334,247.76211769104003,596.940036517334C241.68811769104005,590.044036517334,234.45209769104005,584.248036517334,226.48809269104004,579.092036517334C225.49004559104003,578.446436517334,225.20438569104005,577.114036517334,225.85009169104003,576.116036517334C226.41573569104003,575.263736517334,227.49791769104004,574.9193365173339,228.45200769104005,575.287936517334ZM591.0036176910401,738.766336517334C586.5416176910401,749.656336517334,581.4796176910401,760.204336517334,576.20761769104,770.636336517334C570.97161769104,781.088336517334,565.37961769104,791.340336517334,559.71961769104,801.552336517334C553.9456176910401,811.700336517334,548.09361769104,821.806336517334,541.88961769104,831.710336517334C535.72161769104,841.636336517334,529.3396176910401,851.442336517334,522.3496176910401,860.9043365173341C521.32161769104,862.315336517334,519.39961769104,862.733336517334,517.8786176910401,861.8753365173341C516.3576176910401,861.017336517334,515.72161769104,859.155336517334,516.3976176910401,857.546336517334C520.88161769104,846.6703365173339,525.96961769104,836.134336517334,531.27361769104,825.722336517334C536.5396176910401,815.288336517334,542.16161769104,805.052336517334,547.8596176910401,794.860336517334C553.67161769104,784.732336517334,559.5516176910401,774.6443365173341,565.78761769104,764.7563365173339C571.98561769104,754.846336517334,578.3956176910401,745.056336517334,585.4056176910401,735.606336517334C586.38061769104,734.297336517334,588.1766176910401,733.918336517334,589.59661769104,734.720336517334C591.01761769104,735.522336517334,591.62061769104,737.255336517334,591.0036176910401,738.766336517334ZM638.36961769104,753.514336517334C634.78561769104,762.848336517334,630.5996176910401,771.844336517334,626.2036176910401,780.720336517334C621.84561769104,789.618336517334,617.12961769104,798.3143365173339,612.34561769104,806.972336517334C607.44761769104,815.566336517334,602.4736176910401,824.116336517334,597.1456176910401,832.466336517334C591.85561769104,840.838336517334,586.3496176910401,849.088336517334,580.23761769104,856.9963365173339C579.19161769104,858.360336517334,577.3006176910401,858.7463365173339,575.80361769104,857.9013365173339C574.30561769104,857.057336517334,573.6576176910401,855.239336517334,574.28361769104,853.638336517334C577.88961769104,844.316336517334,582.10161769104,835.336336517334,586.52961769104,826.4783365173339C590.91961769104,817.598336517334,595.66361769104,808.918336517334,600.4836176910401,800.282336517334C605.41761769104,791.710336517334,610.42161769104,783.176336517334,615.7816176910401,774.844336517334C621.10361769104,766.490336517334,626.63561769104,758.254336517334,632.76961769104,750.358336517334C633.7586176910401,749.089336517334,635.5276176910401,748.735336517334,636.92861769104,749.5253365173339C638.3306176910401,750.3143365173339,638.94261769104,752.011336517334,638.36961769104,753.514336517334ZM361.44761769104,783.288336517334C356.98561769104003,794.176336517334,351.92361769104,804.726336517334,346.65161769104003,815.158336517334C341.41561769104004,825.610336517334,335.82361769104006,835.8623365173339,330.16361769104003,846.0743365173339C324.39001769104004,856.222336517334,318.53801769104007,866.328336517334,312.33401769104006,876.234336517334C306.16601769104005,886.1603365173339,299.78401769104005,895.966336517334,292.79401769104004,905.428336517334C291.76601769104,906.839336517334,289.84371769104007,907.2563365173339,288.32301769104004,906.398336517334C286.80221769104,905.540336517334,286.16551769104,903.6793365173339,286.84201769104004,902.070336517334C291.32601769104,891.194336517334,296.41401769104004,880.658336517334,301.71801769104,870.2463365173339C306.98401769104004,859.812336517334,312.60601769104005,849.576336517334,318.30401769104003,839.386336517334C324.11601769104004,829.258336517334,329.99561769104,819.1703365173339,336.23161769104,809.282336517334C342.42961769104005,799.3723365173339,348.83961769104,789.584336517334,355.85161769104,780.132336517334C356.82861769104005,778.8323365173339,358.61761769104004,778.4573365173339,360.03361769104004,779.2563365173339C361.45061769104007,780.0543365173339,362.05561769104,781.7793365173341,361.44761769104,783.288336517334ZM408.81361769104,798.036336517334C405.22961769104006,807.370336517334,401.04361769104,816.366336517334,396.64761769104007,825.242336517334C392.28961769104,834.1403365173339,387.57361769104,842.836336517334,382.7916176910401,851.494336517334C377.89361769104005,860.088336517334,372.91961769104,868.638336517334,367.59161769104,876.988336517334C362.30161769104006,885.360336517334,356.79561769104004,893.610336517334,350.68361769104,901.518336517334C349.63761769104,902.882336517334,347.74661769104006,903.268336517334,346.24961769104004,902.4233365173341C344.75161769104005,901.579336517334,344.10361769104003,899.761336517334,344.72961769104006,898.1603365173339C348.33561769104006,888.838336517334,352.54761769104005,879.858336517334,356.97561769104004,871.0003365173341C361.36561769104003,862.120336517334,366.10961769104006,853.440336517334,370.92961769104005,844.8043365173339C375.8636176910401,836.232336517334,380.86761769104004,827.6983365173339,386.22761769104005,819.366336517334C391.54961769104,811.012336517334,397.08161769104004,802.7763365173339,403.21561769104005,794.880336517334C404.20361769104005,793.607336517334,405.97461769104007,793.251336517334,407.37761769104003,794.042336517334C408.78061769104005,794.8333365173339,409.39161769104004,796.532336517334,408.81361769104,798.036336517334Z"></path></g><g style="opacity:0.25;"><g><path style="mix-blend-mode:passthrough" fill-opacity="1" fill="#000E3F" d="M686.5080859527588,889.2540345153809L278.0720859527588,968.4620345153809C276.9814859527588,968.6590345153809,275.88318595275877,968.8100345153808,274.7800859527588,968.9160345153808C274.62208595275877,968.9160345153808,274.46207595275877,968.9400345153808,274.3040559527588,968.9400345153808C274.1920559527588,968.9620345153809,274.07804595275877,968.9620345153809,273.96405595275877,968.9620345153809C273.7820559527588,968.9840345153808,273.5780759527588,968.9840345153808,273.3960659527588,968.9840345153808C272.4880759527588,969.0300345153809,271.6020559527588,969.0080345153808,270.7160759527588,968.9400345153808C270.42206595275877,968.9160345153808,270.10407595275876,968.9160345153808,269.8080859527588,968.8720345153808C269.3363759527588,968.8430345153809,268.86643595275876,968.7900345153809,268.40009595275876,968.7140345153808C267.9021059527588,968.6440345153809,267.4021059527588,968.5780345153809,266.9240859527588,968.4640345153808C266.87809595275877,968.4640345153808,266.8560859527588,968.4640345153808,266.8340859527588,968.4400345153808C266.58966595275876,968.3990345153809,266.3473559527588,968.3460345153809,266.1080759527588,968.2820345153808C265.5571959527588,968.1690345153809,265.01136195275876,968.0330345153809,264.4720859527588,967.8740345153809C283.3380859527588,931.2780345153809,323.0660859527588,916.2940345153809,427.4520859527588,870.3220345153809C508.1580859527588,834.7940345153809,557.1740859527588,778.6060345153809,574.9260859527587,708.5460345153808L677.3580859527588,688.6820345153808L709.6180859527587,854.9980345153808C712.7060859527587,870.8420345153809,702.3540859527589,886.1660345153808,686.5080859527588,889.2540345153809ZM582.0100859527588,662.0700345153809C582.5560859527588,653.1480345153809,582.6460859527588,644.0220345153809,582.3060859527588,634.7380345153808C581.9200859527588,624.4320345153808,580.5120859527588,613.9200345153808,578.6960859527587,602.9780345153808C574.3140859527588,576.6440345153809,567.4820859527588,547.7660345153809,566.7080859527588,512.9640345153808C565.8460859527588,474.77803451538085,572.2260859527588,429.44203451538084,596.9940859527587,372.45803451538086L617.8580859527588,398.9520345153809C620.7430859527587,402.60413451538085,622.7120859527588,406.8936345153809,623.6000859527587,411.4620345153809L668.9380859527588,645.2040345153808L582.0100859527588,662.0700345153809ZM668.9340859527588,645.2140345153808L677.3620859527588,688.6740345153809L574.9320859527588,708.5400345153809C578.7060859527587,693.6560345153808,581.0620859527587,678.1440345153808,582.0140859527587,662.0720345153809L668.9340859527588,645.2140345153808Z"></path></g></g><g><path style="mix-blend-mode:passthrough" fill-opacity="1" fill="#000E3F" d="M404.89200284729003,405.79391095483396C402.43560284729006,406.29381895483397,400.84790284729,408.68865495483396,401.34400284729,411.145904954834C403.46800284729005,421.635884954834,399.66400284729,434.60188495483396,388.42600284729,437.963884954834C382.70600284729005,439.675884954834,378.04200284729006,437.869884954834,375.12800284729,436.051884954834C369.46200284729,432.513884954834,365.04000284729005,425.627884954834,363.86802284729004,418.50588495483396C363.45801284729004,416.035884954834,361.12403284729004,414.311914954834,358.65003284729005,414.767914954834C356.17567284729006,415.175314954834,354.50022284729005,417.511584954834,354.90802954729,419.985884954834C356.51002284729003,429.70988495483397,362.41602284729004,438.821884954834,370.32000284729,443.75588495483396C374.56800284729,446.407884954834,379.12400284729006,447.74588495483397,383.76600284729005,447.74588495483397C386.17600284729,447.74588495483397,388.60800284729004,447.38788495483396,391.03200284729,446.65988495483396C407.42800284729003,441.75588495483396,413.16800284729004,423.771884954834,410.24400284729006,409.341884954834C409.75010284729,406.881404954834,407.35070284729005,405.290767954834,404.89200284729003,405.79391095483396Z"></path></g><g><path style="mix-blend-mode:passthrough" fill-opacity="1" fill="#000E3F" d="M498.26772706604004,325.65406776733397L498.26572706604003,325.65406776733397C495.88172706604007,313.362027767334,483.93572706604004,305.288017767334,471.65772706604,307.692012767334L259.93012706604003,348.75596776733397C254.01232706604003,349.884767767334,248.79276706604003,353.335367767334,245.43607706604004,358.33796776733396C242.05275906604004,363.322467767334,240.80332406604003,369.453067767334,241.96607406604005,375.363967767334L257.37202706604006,454.796367767334C264.17202706604,489.86036776733397,295.00812706604006,514.282367767334,329.47202706604,514.282367767334C334.09202706604003,514.282367767334,338.77802706604007,513.844367767334,343.48172706604004,512.930367767334L455.54172706604004,491.194367767334C495.30772706604,483.484367767334,521.3857270660401,444.854367767334,513.6737270660401,405.083967767334L498.26772706604004,325.65406776733397ZM453.80972706604007,482.282367767334L341.74972706604,504.018367767334C306.92212706604005,510.766367767334,273.04412706604006,487.91836776733396,266.28612706604,453.066367767334L250.87808706604005,373.63396776733396C250.17995706604003,370.08726776733397,250.92964706604005,366.408667767334,252.96012706604003,363.417967767334C254.97552706604003,360.416667767334,258.10732706604006,358.345567767334,261.65812706604004,357.665967767334L473.38572706604003,316.601987767334C480.76872706604,315.185057767334,487.90672706604005,320.00486776733396,489.35172706604004,327.381967767334L489.34972706604003,327.381967767334L504.75372706604,406.81396776733396C511.51372706604,441.666367767334,488.66172706604004,475.520367767334,453.80972706604007,482.282367767334Z"></path></g><g><path style="mix-blend-mode:passthrough" fill-opacity="1" fill="#000E3F" d="M321.33403331604006,406.229823236084C313.09400331604,407.56182323608397,306.59400331604,417.293823236084,308.98398731604004,424.707823236084C309.99598331604005,433.209823236084,318.99403331604003,438.64382323608396,326.79603331604005,437.38182323608396C336.36203331604,435.83382323608396,341.43603331604004,426.479823236084,339.91403331604005,418.927823236084C338.04803331604006,409.65582323608396,329.71403331604006,404.873823236084,321.33403331604006,406.229823236084ZM436.13013331604003,384.01983223608397C427.60813331604004,385.699823236084,421.94613331604,393.981823236084,423.75013331604003,403.017823236084C425.27413331604004,410.659823236084,434.00013331604003,417.15782323608397,442.41013331604006,414.85782323608396C449.78213331604,414.14582323608397,456.53213331604,404.839823236084,454.65213331604,396.229823236084C452.82613331604,387.881833236084,444.40813331604005,382.38781323608396,436.13013331604003,384.01983223608397Z"></path></g><g><path style="mix-blend-mode:passthrough" fill-opacity="1" fill="#000E3F" d="M808.3363169097901,676.3558384704589C798.1963169097901,670.7498384704589,781.22431690979,661.369838470459,768.05631690979,640.345838470459C751.85431690979,614.085838470459,755.29031690979,589.9378384704589,760.04631690979,556.5158384704589L760.7263169097901,551.719838470459C763.94031690979,528.753838470459,769.35831690979,512.031838470459,774.6003169097901,495.863838470459C781.32031690979,475.127838470459,787.67031690979,455.54183847045897,788.32831690979,426.477838470459L788.33231690979,426.281838470459L788.32831690979,426.085838470459C787.7923169097901,400.189838470459,778.76031690979,383.423838470459,761.4803169097901,376.249838470459C755.5763169097901,373.795838470459,748.7923169097901,372.497838470459,741.86831690979,372.497838470459C732.92831690979,372.497838470459,724.02631690979,374.637838470459,716.1243169097901,378.687838470459C692.96231690979,390.783838470459,683.20031690979,409.607838470459,672.8643169097901,429.53983847045896C665.47831690979,443.77983847045897,657.89231690979,458.405838470459,644.70831690979,472.585838470459L632.51631690979,409.74383847045897C631.33931690979,403.770838470459,628.7693169097901,398.15983847045896,625.01631690979,393.367838470459L472.09231690979004,199.21583847045898C464.61431690979003,189.671838470459,453.03531690979,184.261838470459,440.91631690979005,184.65183847045898C424.16631690979005,139.89783847045896,383.00431690979,101.02383847045898,318.43031690979006,69.01983847045898C296.52631690979,58.25983847045899,267.92031690979,45.925838470458984,240.66031690979003,45.925838470458984C229.25431690979005,45.925838470458984,218.72631690979003,48.093838470458984,209.37031690979003,52.37183847045898L208.86031690979004,52.605838470458984L208.38231690979003,52.89983847045899C180.22831690979004,70.24383847045898,173.81831690979004,102.21983847045898,191.65831690979005,136.349838470459C198.38431690979004,149.45983847045898,210.42631690979005,161.48383847045898,222.07031690979005,173.111838470459C237.84031690979003,188.85783847045897,252.84031690979003,203.837838470459,255.05431690979003,220.207838470459L248.47031690979003,221.481838470459C234.29631690979005,224.235838470459,223.00631690979003,234.527838470459,218.99831690979005,248.34583847045897L149.71431690979003,485.519838470459C148.02631690979004,491.21983847045897,147.73231690979003,497.449838470459,148.87031690979003,503.50383847045896L161.01431690979004,566.059838470459C148.38231690979003,569.439838470459,129.38831690979003,577.777838470459,113.82431690979004,598.319838470459C95.10601690979004,623.073838470459,95.12601690979004,648.465838470459,95.14001690979003,668.869838470459C95.14401690979004,673.459838470459,95.14601690979003,677.793838470459,94.92201690979005,681.695838470459C93.36801690979004,708.597838470459,77.94201690979004,721.131838470459,68.00601690979003,721.131838470459C67.68601690979004,721.131838470459,67.37201690979003,721.117838470459,67.06201690979005,721.091838470459L65.38201690979004,720.881838470459L65.04001690979004,720.839838470459L64.69401690979004,720.823838470459C58.682016909790036,720.535838470459,44.73801690979004,710.261838470459,40.00001690979004,694.339838470459C26.79601690979004,653.217838470459,53.490016909790036,623.739838470459,79.30401690979004,595.231838470459C81.53651690979004,592.772838470459,83.75981690979003,590.305838470459,85.97401690979004,587.829838470459C112.39631690979004,558.305838470459,123.81431690979004,519.931838470459,116.50431690979003,485.189838470459C109.64431690979004,452.581838470459,87.57001690979004,426.319838470459,54.34601690979004,411.237838470459C53.49201690979004,410.84983847045896,33.24801690979004,401.71783847045896,21.65201690979004,401.715838470459C12.908016909790039,401.715838470459,8.85201690979004,406.817838470459,7.970016909790039,411.591838470459C6.076016909790039,421.747838470459,16.000016909790038,425.223838470459,23.974016909790038,428.013838470459C31.980016909790038,430.81583847045897,42.94601690979004,434.653838470459,54.93401690979004,443.341838470459C63.19801690979004,449.32583847045896,67.91201690979004,454.771838470459,69.68801690979004,456.819838470459C70.12201690979003,457.321838470459,70.44201690979004,457.68183847045896,70.64001690979003,457.887838470459L70.88801690979004,458.14783847045896C72.37601690979004,459.893838470459,85.47601690979003,475.88583847045896,87.26401690979004,497.489838470459C88.66401690979004,512.991838470459,85.09401690979004,537.003838470459,60.16001690979004,563.739838470459C58.66001690979004,565.369838470459,56.66801690979004,567.377838470459,54.362016909790036,569.703838470459C44.09201690979004,580.059838470459,26.90201690979004,597.391838470459,14.212016909790039,620.447838470459C-2.253983090209961,650.647838470459,-4.523983090209961,684.251838470459,7.968016909790039,712.6778384704589C17.49801690979004,734.363838470459,34.63401690979004,750.1538384704589,53.804016909790036,754.915838470459C58.26201690979004,755.9758384704589,62.66201690979004,756.501838470459,66.97001690979003,756.501838470459C97.68601690979004,756.501838470459,118.61631690979004,730.507838470459,125.06431690979004,706.353838470459C128.91431690979005,692.179838470459,128.34831690979004,679.045838470459,127.80031690979004,666.345838470459L127.63631690979004,662.425838470459C126.91631690979004,644.7258384704589,127.84231690979004,641.345838470459,130.31431690979005,632.305838470459L131.12831690979004,629.301838470459C137.71631690979004,611.375838470459,149.47631690979003,599.051838470459,166.15231690979004,592.553838470459L234.91831690979004,947.067838470459C238.36631690979004,965.025838470459,254.15231690979004,978.073838470459,272.45031690979005,978.073838470459C274.90431690979005,978.073838470459,277.37831690979004,977.833838470459,279.80231690979,977.361838470459L688.20831690979,898.1778384704589C708.9123169097901,894.141838470459,722.52231690979,873.9998384704589,718.55431690979,853.2738384704589L650.7923169097901,503.871838470459C678.07831690979,483.94383847045896,691.0143169097901,461.667838470459,701.52231690979,443.571838470459C712.90231690979,423.973838470459,720.45031690979,410.973838470459,740.44031690979,407.621838470459L740.54031690979,407.619838470459C742.37831690979,407.619838470459,745.2263169097901,407.93383847045897,747.2063169097901,408.817838470459C748.91631690979,409.585838470459,754.2923169097901,414.089838470459,750.9763169097901,439.51783847045897C748.46431690979,458.783838470459,741.90431690979,482.649838470459,736.11631690979,503.70783847045897C731.35431690979,521.0338384704589,727.2403169097901,535.997838470459,725.70831690979,546.769838470459C720.20831690979,584.649838470459,718.27031690979,632.8218384704589,752.42031690979,669.141838470459C752.7683169097901,669.507838470459,791.42831690979,703.633838470459,809.17031690979,703.633838470459C815.13631690979,703.633838470459,819.93431690979,700.305838470459,821.69431690979,694.947838470459C824.8363169097901,685.477838470459,815.68831690979,680.419838470459,808.3363169097901,676.3558384704589ZM278.07231690979006,968.447838470459C276.21831690979,968.809838470459,274.33731690979005,968.991838470459,272.45431690979007,968.991838470459C258.74431690979003,968.991838470459,246.51631690979005,959.2978384704589,243.83631690979004,945.337838470459L203.79231690979003,738.893838470459L432.22231690979004,694.591838470459L477.82631690979,929.717838470459L278.07231690979006,968.447838470459ZM686.48631690979,889.263838470459L486.74431690979003,927.989838470459L441.14031690979004,692.863838470459L669.58031690979,648.559838470459L669.60431690979,648.549838470459L709.64031690979,854.983838470459C712.68431690979,870.873838470459,702.33031690979,886.175838470459,686.48631690979,889.263838470459ZM813.0723169097901,692.113838470459C812.5143169097901,693.815838470459,811.14031690979,694.551838470459,809.17631690979,694.551838470459C796.93431690979,694.551838470459,761.82031690979,665.853838470459,759.04031690979,662.919838470459C729.7543169097901,631.769838470459,728.57431690979,590.271838470459,734.70431690979,548.047838470459C739.88031690979,511.629838470459,779.3363169097901,413.285838470459,750.9123169097901,400.52783847045896C747.0143169097901,398.787838470459,742.5283169097901,398.54183847045897,740.54431690979,398.54183847045897C739.94031690979,398.54183847045897,739.56831690979,398.56583847045897,739.51631690979,398.57583847045896C692.1583169097901,406.067838470459,701.1483169097901,458.965838470459,640.76031690979,499.829838470459L667.87631690979,639.647838470459L667.84831690979,639.647838470459L202.06031690979003,729.9858384704589L173.14031690979004,580.873838470459C160.24631690979004,584.0098384704589,134.54631690979005,593.2258384704589,122.46831690979003,626.551838470459C119.24431690979004,638.6298384704589,117.70231690979004,641.5818384704589,118.56431690979004,662.7838384704589C119.11031690979004,676.585838470459,120.15431690979004,689.799838470459,116.29431690979004,704.011838470459C110.21631690979004,726.775838470459,91.72801690979004,747.419838470459,66.97401690979004,747.419838470459C63.438016909790036,747.419838470459,59.77201690979004,746.997838470459,55.99801690979004,746.101838470459C20.17401690979004,737.2018384704589,-8.749973090209961,681.537838470459,22.17001690979004,624.825838470459C37.06401690979004,597.765838470459,58.49401690979004,578.965838470459,66.80401690979004,569.931838470459C90.68601690979004,544.3218384704589,98.27001690979004,518.3518384704589,96.31801690979005,496.739838470459C94.13801690979004,470.405838470459,77.38401690979003,451.607838470459,77.20201690979003,451.607838470459C76.20201690979003,450.56383847045896,70.80001690979005,443.617838470459,60.26601690979004,435.989838470459C36.52001690979004,418.77983847045897,15.86201690979004,418.82583847045896,16.904016909790037,413.239838470459C17.22801690979004,411.48183847045897,19.032016909790038,410.795838470459,21.65601690979004,410.795838470459C30.41401690979004,410.795838470459,48.29001690979004,418.45783847045897,50.59601690979004,419.50583847045897C119.51831690979004,450.78983847045896,126.78431690979004,528.613838470459,79.20001690979004,581.781838470459C51.05001690979004,613.339838470459,15.316016909790038,647.163838470459,31.29801690979004,696.9278384704589C36.97401690979004,715.997838470459,53.81801690979004,729.391838470459,64.26001690979004,729.891838470459L66.07601690979004,730.117838470459C66.71001690979004,730.179838470459,67.35201690979004,730.2118384704589,68.00801690979004,730.2118384704589C82.65401690979004,730.2118384704589,102.12031690979003,714.597838470459,103.99031690979004,682.217838470459C105.21631690979004,660.923838470459,100.08631690979004,631.545838470459,121.06431690979004,603.803838470459C136.81831690979004,583.007838470459,157.61431690979003,575.015838470459,171.64431690979004,573.155838470459L157.79631690979005,501.82583847045896C156.93431690979003,497.237838470459,157.11631690979004,492.51583847045896,158.43231690979005,488.067838470459L227.71831690979005,250.87583847045897C230.77531690979004,240.373838470459,239.45431690979004,232.46683847045898,250.19431690979005,230.397838470459L264.27031690979004,227.67383847045897C267.49431690979003,190.171838470459,215.77831690979005,163.473838470459,199.70431690979004,132.145938470459C186.13031690979003,106.17393847045898,186.53831690979004,77.02393847045899,213.14431690979004,60.633938470458986C221.82031690979005,56.667938470458985,231.10631690979005,55.009938470458984,240.66031690979003,55.009938470458984C265.45431690979007,55.009938470458984,292.04431690979004,66.17793847045898,314.39831690979,77.15793847045899C366.06831690979004,102.76793847045899,417.87431690979,140.497938470459,434.72031690979003,194.575838470459L436.44631690979,194.255838470459C447.18231690979,192.158838470459,458.18831690979005,196.243838470459,464.95831690979,204.83583847045898L617.88231690979,398.987838470459C620.7503169097901,402.638838470459,622.7103169097901,406.917838470459,623.60231690979,411.473838470459L638.94831690979,490.567838470459C684.7163169097901,452.01783847045897,680.35831690979,407.613838470459,720.2683169097901,386.771838470459C726.95831690979,383.360838470459,734.3603169097901,381.581838470459,741.8703169097901,381.581838470459C747.7103169097901,381.581838470459,753.2643169097901,382.67183847045897,758.0003169097901,384.639838470459C774.30031690979,391.405838470459,778.88631690979,408.703838470459,779.2503169097901,426.275838470459C778.1143169097901,476.357838470459,759.1823169097901,497.24183847045896,751.7343169097901,550.4578384704589C746.6483169097901,586.553838470459,741.5623169097901,614.705838470459,760.3603169097901,645.171838470459C782.9703169097901,681.265838470459,815.20831690979,685.667838470459,813.0723169097901,692.113838470459Z"></path></g><g><path style="mix-blend-mode:passthrough" fill-opacity="1" fill="#000E3F" d="M273.44003800354005,225.901938079834L425.86443800354004,196.29793807983398C418.46443800354007,178.45193807983398,402.43443800354004,151.02793807983397,357.98243800354004,121.47193807983399C333.91843800354,105.67193807983398,307.53803800354,92.09393807983398,280.52203800354005,82.19793807983399C263.52603800354007,75.98394807983398,249.99803800354005,73.32793807983398,239.45203800354005,73.32793807983398C206.07999800354003,73.33193587983398,202.65000800354005,99.95793807983398,214.27800800354004,124.69593807983398C226.58203800354005,151.437938079834,278.07203800354006,184.629938079834,273.44003800354005,225.901938079834ZM243.91203800354003,148.747938079834C234.81003800354003,138.543938079834,226.21003800354003,128.905938079834,222.52803800354005,120.89993807983399C216.68601800354003,108.46993807983398,215.68801800354004,96.67393807983399,219.89203800354005,90.04993807983399C223.11003800354004,84.97993807983399,229.69203800354003,82.40992807983399,239.45403800354003,82.40792807983398C249.54403800354004,82.40792807983398,262.31003800354006,85.20593807983398,277.40603800354006,90.72593807983398C302.87003800354006,100.05393807983398,329.01243800354007,113.311938079834,353.00043800354,129.061938079834C381.31043800354007,147.88593807983398,400.94043800354007,167.78993807983397,412.65243800354006,189.61393807983399L282.51803800354,214.887938079834C279.88003800354005,189.069938079834,260.17003800354,166.973938079834,243.91203800354003,148.747938079834Z"></path></g></g></g></svg>