<svg viewBox="0 0 1024 1024" height="1024" width="1024" version="1.1" fill="none" xmlns:xlink="http://www.w3.org/1999/xlink" xmlns="http://www.w3.org/2000/svg"><defs><clipPath id="master_svg0_30_723"><rect rx="0" height="1024" width="1024" y="0" x="0"></rect></clipPath></defs><g clip-path="url(#master_svg0_30_723)"><g><g><path style="mix-blend-mode:passthrough" fill-opacity="1" fill="#FFCF00" d="M677.688455078125,225.65167578125C653.176455078125,232.50767578125,645.420455078125,247.54767578125,643.242455078125,241.55767578125C642.636455078125,239.91267578125,642.287455078125,238.18267578125,642.210455078125,236.42967578125C641.330455078125,215.89767578125,649.750455078125,196.04767578125,664.214455078125,181.60967578125C682.438455078125,163.41767578125,710.366455078125,156.31767578125,735.240455078125,154.77767578125C752.604455078125,153.70167578125,777.904455078125,156.51167578125,811.218455078125,154.49167578125C839.922455078125,152.75167578125,852.292455078125,145.01167578125,858.078455078125,143.89967578125C860.854455078125,143.36767578125,862.076455078125,145.37567578125,861.596455078125,148.09767578125C860.616455078125,153.65767578125,859.214455078125,159.04767578125,856.416455078125,164.04967578125C849.830455078125,175.81767578125,841.480455078125,186.12967578125,831.534455078125,195.22167578125C784.942455078125,237.81367578125,735.816455078125,209.39567578125,677.688455078125,225.65167578125ZM831.638455078125,426.68167578125C809.458455078125,414.19567578125,793.338455078125,419.34767578125,796.034455078125,413.57167578125C796.770455078125,411.97967578125,797.746455078125,410.51067578125,798.930455078125,409.21667578125C812.826455078125,394.07567578125,832.816455078125,385.99267578125,853.252455078125,386.01067578125C879.002455078125,386.03267578125,903.772455078125,400.76067578125,922.448455078125,417.26067578125C935.486455078125,428.77867578125,951.388455078125,448.65467578125,976.374455078125,470.78467578125C997.902455078125,489.85067578125,1012.121455078125,493.12467578125,1017.001455078125,496.43067578125C1019.331455078125,498.01567578125,1018.781455078125,500.29967578125,1016.521455078125,501.88567578125C1011.891455078125,505.12467578125,1007.091455078125,507.94567578125,1001.576455078125,509.50167578125C988.596455078125,513.1686757812499,975.400455078125,514.5536757812499,961.938455078125,513.94967578125C898.878455078125,511.12067578125,884.234455078125,456.28867578125,831.638455078125,426.68167578125ZM798.348455078125,677.68967578125C791.492455078125,653.17767578125,776.452455078125,645.42167578125,782.442455078125,643.24367578125C784.088455078125,642.63967578125,785.818455078125,642.29067578125,787.570455078125,642.21167578125C808.100455078125,641.33367578125,827.952455078125,649.75167578125,842.390455078125,664.21667578125C860.582455078125,682.44067578125,867.682455078125,710.37067578125,869.222455078125,735.24267578125C870.298455078125,752.60667578125,867.488455078125,777.90667578125,869.508455078125,811.22067578125C871.248455078125,839.92467578125,878.988455078125,852.29667578125,880.100455078125,858.08067578125C880.632455078125,860.85667578125,878.624455078125,862.07867578125,875.902455078125,861.59867578125C870.342455078125,860.62067578125,864.952455078125,859.21667578125,859.952455078125,856.41867578125C848.182455078125,849.83267578125,837.870455078125,841.48067578125,828.778455078125,831.53667578125C786.186455078125,784.94267578125,814.604455078125,735.81567578125,798.348455078125,677.68967578125ZM597.320455078125,831.63967578125C609.806455078125,809.45967578125,604.654455078125,793.33967578125,610.430455078125,796.03567578125C612.022455078125,796.77167578125,613.491455078125,797.74867578125,614.786455078125,798.93167578125C629.926455078125,812.82767578125,638.010455078125,832.81567578125,637.992455078125,853.25367578125C637.970455078125,879.00367578125,623.242455078125,903.77367578125,606.742455078125,922.44967578125C595.224455078125,935.48967578125,575.348455078125,951.39167578125,553.220455078125,976.37567578125C534.154455078125,997.90367578125,530.880455078125,1012.12267578125,527.574455078125,1017.00267578125C525.988455078125,1019.34267578125,523.704455078125,1018.78267578125,522.118455078125,1016.52267578125C518.880455078125,1011.90267578125,516.058455078125,1007.09267578125,514.502455078125,1001.57867578125C510.836455078125,988.59867578125,509.450455078125,975.40167578125,510.052455078125,961.94067578125C512.880455078125,898.87767578125,567.712455078125,884.23467578125,597.320455078125,831.63967578125ZM346.310455078125,798.34967578125C370.822455078125,791.49367578125,378.578455078125,776.45367578125,380.756455078125,782.44367578125C381.356455078125,784.09767578125,381.714455078125,785.81167578125,381.788455078125,787.57167578125C382.668455078125,808.10367578125,374.248455078125,827.95367578125,359.784455078125,842.39167578125C341.560455078125,860.58367578125,313.632455078125,867.68367578125,288.758455078125,869.22367578125C271.394455078125,870.29767578125,246.094455078125,867.48767578125,212.780455078125,869.50967578125C184.076455078125,871.24967578125,171.704455078125,878.98967578125,165.920455078125,880.10167578125C163.144455078125,880.63567578125,161.922455078125,878.62567578125,162.402455078125,875.90367578125C163.380455078125,870.34567578125,164.784455078125,864.95367578125,167.582455078125,859.95367578125C174.168455078125,848.18367578125,182.518455078125,837.87167578125,192.464455078125,828.77967578125C239.058455078125,786.18767578125,288.184455078125,814.60367578125,346.310455078125,798.34967578125ZM192.360455078125,597.31967578125C214.540455078125,609.80567578125,230.660455078125,604.65367578125,227.964455078125,610.42967578125C227.228455078125,612.02267578125,226.251455078125,613.49167578125,225.068455078125,614.78567578125C211.172455078125,629.92367578125,191.182455078125,638.00767578125,170.744455078125,637.98967578125C144.994455078125,637.96767578125,120.226455078125,623.23967578125,101.548155078125,606.73967578125C88.508155078125,595.22167578125,72.608155078125,575.34567578125,47.622155078125,553.21767578125C26.094155078125,534.15167578125,11.874125078125001,530.87767578125,6.998125078125,527.57167578125C4.660122078125,525.98567578125,5.216122078125,523.70167578125,7.478125078125,522.11567578125C12.100125078125,518.87767578125,16.904155078125,516.05867578125,22.418155078125,514.4996757812501C35.398155078125,510.83367578125,48.594155078125,509.44767578125,62.056155078125,510.05167578125C125.122455078125,512.87967578125,139.766455078125,567.71167578125,192.360455078125,597.31967578125ZM225.650455078125,346.31167578125C232.506455078125,370.82367578125,247.546455078125,378.57967578125,241.554455078125,380.75767578125C239.902455078125,381.35767578125,238.186455078125,381.71367578125,236.426455078125,381.78967578125C215.894455078125,382.66967578125,196.044455078125,374.25167578125,181.606455078125,359.78567578125C163.414455078125,341.56167578125,156.314455078125,313.63367578125,154.774455078125,288.75967578125C153.700455078125,271.39567578125,156.510455078125,246.09567578125,154.488455078125,212.78167578125C152.748455078125,184.07767578125,145.008455078125,171.70767578125,143.896455078125,165.92167578125C143.364455078125,163.14567578125,145.372455078125,161.92367578125,148.094455078125,162.40367578125C153.652455078125,163.38167578125,159.044455078125,164.78367578125,164.044455078125,167.58167578125C175.814455078125,174.16767578125,186.126455078125,182.51767578125,195.218455078125,192.46367578125C237.812455078125,239.05767578125,209.396455078125,288.18567578125,225.650455078125,346.31167578125ZM426.680455078125,192.36167578125C414.194455078125,214.54167578125,419.346455078125,230.66167578125,413.570455078125,227.96567578125C411.978455078125,227.22967578125,410.509455078125,226.25267578125,409.214455078125,225.06967578125C394.076455078125,211.17367578125,385.992455078125,191.18367578125,386.008455078125,170.74767578125C386.030455078125,144.99567578125,400.758455078125,120.22767578125,417.258455078125,101.55017578125C428.776455078125,88.51217578125,448.652455078125,72.61017578125,470.780455078125,47.62417578125C489.846455078125,26.09817578125,493.120455078125,11.87616578125,496.426455078125,7.00016578125C498.012455078125,4.66016578125,500.296455078125,5.21816578125,501.882455078125,7.48016578125C505.120455078125,12.102165781250001,507.940455078125,16.90817578125,509.498455078125,22.42217578125C513.164455078125,35.40217578125,514.550455078125,48.59817578125,513.9464550781249,62.06017578125C511.120455078125,125.12167578125,456.288455078125,139.76567578125,426.680455078125,192.36167578125ZM775.490455078125,446.34967578125C811.746455078125,591.86167578125,723.170455078125,739.22367578125,577.658455078125,775.47967578125C504.604455078125,793.68367578125,431.116455078125,780.42967578125,371.440455078125,744.30567578125C312.214455078125,708.49567578125,266.588455078125,650.12967578125,248.528455078125,577.64767578125C212.272455078125,432.13567578125,300.824455078125,284.77967578125,446.358455078125,248.51767578125C518.864455078125,230.45167578125,591.846455078125,243.37767578125,651.266455078125,278.90367578125C711.140455078125,314.65967578125,757.298455078125,373.34367578125,775.490455078125,446.34967578125Z"></path></g><g><path style="mix-blend-mode:passthrough" fill-opacity="1" fill="#FD8A02" d="M674.201732421875,112.5139C662.949732421875,162.2699,598.851732421875,147.4939,554.935732421875,187.414C550.777732421875,191.19400000000002,546.443732421875,194.776,542.4977324218751,198.796C540.241732421875,201.096,537.325732421875,200.628,537.601732421875,192.52800000000002C538.281732421875,172.5559,543.577732421875,150.1959,557.123732421875,134.6759C591.147732421875,95.6879,629.573732421875,111.2219,664.611732421875,76.00591C668.125732421875,72.47392,670.073732421875,72.811913,671.977732421875,77.41991C674.981732421875,84.6879,677.043732421875,99.9459,674.201732421875,112.5139ZM909.171732421875,344.216C866.031732421875,371.442,831.155732421875,315.66999999999996,771.875732421875,312.842C766.261732421875,312.574,760.663732421875,312.044,755.031732421875,312.096C751.809732421875,312.126,750.077732421875,309.736,756.001732421875,304.202C770.605732421875,290.56,790.159732421875,278.496,810.713732421875,277.098C862.341732421875,273.58799999999997,878.527732421875,311.74199999999996,928.205732421875,311.616C933.187732421875,311.60400000000004,934.323732421875,313.22,932.413732421875,317.824C929.399732421875,325.09000000000003,920.069732421875,337.338,909.171732421875,344.216ZM911.485732421875,674.202C861.729732421875,662.95,876.505732421875,598.85,836.587732421875,554.9359999999999C832.807732421875,550.7760000000001,829.223732421875,546.444,825.203732421875,542.498C822.905732421875,540.242,823.371732421875,537.326,831.471732421875,537.604C851.443732421875,538.284,873.803732421875,543.5799999999999,889.323732421875,557.126C928.311732421875,591.15,912.777732421875,629.576,947.993732421875,664.612C951.525732421875,668.126,951.185732421875,670.074,946.579732421875,671.978C939.311732421875,674.982,924.053732421875,677.044,911.485732421875,674.202ZM679.783732421875,909.174C652.557732421875,866.036,708.331732421875,831.16,711.157732421875,771.878C711.425732421875,766.264,711.955732421875,760.666,711.903732421875,755.032C711.873732421875,751.81,714.263732421875,750.08,719.797732421875,756.002C733.439732421875,770.606,745.503732421875,790.16,746.901732421875,810.714C750.411732421875,862.342,712.255732421875,878.528,712.383732421875,928.204C712.395732421875,933.186,710.779732421875,934.322,706.173732421875,932.412C698.909732421875,929.402,686.661732421875,920.07,679.783732421875,909.174ZM349.797732421875,911.486C361.049732421875,861.73,425.147732421875,876.506,469.063732421875,836.588C473.221732421875,832.808,477.555732421875,829.224,481.501732421875,825.204C483.759732421875,822.904,486.673732421875,823.37,486.397732421875,831.47C485.717732421875,851.442,480.421732421875,873.802,466.875732421875,889.324C432.849732421875,928.312,394.425732421875,912.778,359.387732421875,947.994C355.873732421875,951.526,353.925732421875,951.186,352.021732421875,946.58C349.017732421875,939.312,346.955732421875,924.056,349.797732421875,911.486ZM114.825932421875,679.786C157.966032421875,652.56,192.841732421875,708.332,252.121732421875,711.158C257.735732421875,711.426,263.33373242187497,711.956,268.96573242187503,711.904C272.187732421875,711.874,273.919732421875,714.264,267.995732421875,719.798C253.391732421875,733.44,233.837732421875,745.504,213.283732421875,746.902C161.656032421875,750.412,145.470032421875,712.258,95.794032421875,712.382C90.811932421875,712.396,89.675932421875,710.778,91.586032421875,706.174C94.600032421875,698.91,103.930032421875,686.662,114.825932421875,679.786ZM112.514032421875,349.798C162.270032421875,361.05,147.494032421875,425.15,187.411732421875,469.064C191.191732421875,473.224,194.775732421875,477.556,198.79573242187502,481.502C201.09373242187502,483.758,200.627732421875,486.674,192.527732421875,486.398C172.556032421875,485.716,150.19803242187498,480.422,134.675932421875,466.876C95.687932421875,432.85,111.22193242187501,394.426,76.005982421875,359.39C72.473982421875,355.876,72.813980421875,353.928,77.419982421875,352.024C84.687932421875,349.018,99.946032421875,346.956,112.514032421875,349.798ZM344.213732421875,114.8279C371.439732421875,157.9659,315.66773242187503,192.84199999999998,312.841732421875,252.124C312.573732421875,257.738,312.043732421875,263.336,312.095732421875,268.96799999999996C312.125732421875,272.19,309.735732421875,273.922,304.201732421875,267.998C290.55973242187497,253.394,278.495732421875,233.84,277.097732421875,213.286C273.587732421875,161.65789999999998,311.741732421875,145.4719,311.61773242187496,95.79390000000001C311.603732421875,90.81190000000001,313.221732421875,89.6739,317.825732421875,91.5859C325.089732421875,94.5999,337.337732421875,103.9299,344.213732421875,114.8279ZM743.097732421875,178.70600000000002C722.005732421875,183.95999999999998,691.779732421875,188.52800000000002,674.049732421875,206.646C672.705732421875,207.91,671.547732421875,207.128,672.417732421875,205.42C679.377732421875,193.14,689.369732421875,183.14600000000002,702.205732421875,177.28C715.509732421875,171.1559,728.491732421875,170.8499,742.851732421875,173.2419C745.079732421875,173.76999999999998,745.269732421875,177.98000000000002,743.097732421875,178.70600000000002ZM911.085732421875,439.736C892.457732421875,428.536,867.853732421875,410.394,842.503732421875,410.668C840.661732421875,410.612,840.395732421875,409.24,842.215732421875,408.646C855.821732421875,404.884,869.953732421875,404.882,883.175732421875,409.812C896.913732421875,414.89,906.309732421875,423.85,914.771732421875,435.696C915.977732421875,437.648,913.133732421875,440.76,911.085732421875,439.736ZM845.293732421875,743.098C840.039732421875,722.008,835.471732421875,691.78,817.353732421875,674.05C816.091732421875,672.706,816.871732421875,671.548,818.579732421875,672.418C830.859732421875,679.378,840.853732421875,689.37,846.719732421875,702.206C852.841732421875,715.51,853.151732421875,728.492,850.757732421875,742.852C850.231732421875,745.08,846.017732421875,745.272,845.293732421875,743.098ZM584.2637324218749,911.086C595.463732421875,892.458,613.605732421875,867.854,613.331732421875,842.504C613.389732421875,840.66,614.759732421875,840.394,615.351732421875,842.216C619.113732421875,855.82,619.115732421875,869.954,614.185732421875,883.176C609.107732421875,896.912,600.147732421875,906.31,588.299732421875,914.772C586.351732421875,915.98,583.239732421875,913.136,584.2637324218749,911.086ZM280.901732421875,845.294C301.993732421875,840.042,332.219732421875,835.472,349.949732421875,817.354C351.293732421875,816.09,352.451732421875,816.872,351.581732421875,818.578C344.621732421875,830.858,334.629732421875,840.852,321.793732421875,846.718C308.48973242187503,852.842,295.507732421875,853.15,281.149732421875,850.756C278.919732421875,850.232,278.727732421875,846.02,280.901732421875,845.294ZM112.91403242187499,584.264C131.542032421875,595.464,156.145932421875,613.606,181.495732421875,613.332C183.337732421875,613.39,183.60573242187502,614.76,181.78373242187502,615.352C168.177932421875,619.116,154.045932421875,619.116,140.82403242187502,614.188C127.08603242187499,609.11,117.688032421875,600.148,109.228032421875,588.302C108.022032421875,586.354,110.86403242187501,583.24,112.91403242187499,584.264ZM178.70573242187498,280.904C183.957732421875,301.994,188.527732421875,332.222,206.645732421875,349.952C207.907732421875,351.296,207.127732421875,352.454,205.419732421875,351.584C193.139732421875,344.624,183.14573242187498,334.632,177.279732421875,321.796C171.15803242187502,308.49199999999996,170.847932421875,295.51,173.242032421875,281.152C173.767732421875,278.91999999999996,177.97973242187498,278.73,178.70573242187498,280.904ZM439.735732421875,112.9139C428.537732421875,131.5419,410.393732421875,156.14589999999998,410.669732421875,181.49599999999998C410.611732421875,183.338,409.241732421875,183.60399999999998,408.649732421875,181.784C404.887732421875,168.1799,404.885732421875,154.0479,409.813732421875,140.82389999999998C414.891732421875,127.08789999999999,423.851732421875,117.6899,435.699732421875,109.2279C437.645732421875,108.0219,440.759732421875,110.8639,439.735732421875,112.9139Z"></path></g><g style="opacity:0.6499999761581421;"><g><path style="mix-blend-mode:passthrough" fill-opacity="1" fill="#FFFFFF" d="M627.4079856567382,124.20808201416015C621.1219856567383,126.74608201416015,615.1359856567383,128.85610201416014,609.3399856567382,131.19410201416017C603.5419856567382,133.49210201416017,597.9519856567383,135.85810201416015,592.5019856567383,138.59010201416015C587.0559856567384,141.32210201416015,581.6979856567383,144.42010201416016,576.6259856567383,148.13810201416015C571.5659856567383,151.85210201416015,566.7839856567383,156.23610201416017,562.9199856567383,161.48210201416015C561.7659856567383,162.92010201416016,560.5099856567383,162.30810201416017,561.1319856567383,160.49610201416016C563.5939856567383,154.26010201416017,566.9059856567383,148.13810201416015,571.2219856567383,142.65010201416015C575.5179856567383,137.15810201416016,580.7539856567382,132.29010201416017,586.7159856567382,128.48607201416016C592.6659856567383,124.66408201416016,599.3099856567383,121.97607201416015,606.0799856567382,120.47207201416016C612.8459856567383,118.91207901416016,619.8039856567383,118.66407801416015,626.4019856567384,118.83407591416015C628.6839856567383,119.04407501416016,629.4599856567384,123.18807201416016,627.4079856567382,124.20808201416015ZM867.8159856567382,319.39600201416016C861.5779856567383,316.7440020141602,855.8519856567383,314.0060020141601,850.1019856567383,311.55800201416014C844.3759856567383,309.08400201416015,838.7519856567383,306.8040020141601,832.9639856567383,304.88200201416015C827.1819856567383,302.96400201416014,821.2019856567383,301.36600201416013,814.9859856567383,300.40600201416015C808.7819856567382,299.45400201416015,802.2999856567383,299.1740020141601,795.8579856567383,300.1500020141601C794.0259856567383,300.35000201416017,793.5699856567383,299.02800201416017,795.2899856567383,298.18800201416013C801.4399856567383,295.5200020141601,808.1119856567383,293.5320020141602,815.0439856567383,292.70400201416015C821.9659856567383,291.85800201416015,829.1099856567383,292.12000201416015,836.0159856567383,293.64400201416015C842.9259856567382,295.1500020141601,849.5239856567383,297.9460020141602,855.3759856567383,301.67000201416016C861.2619856567383,305.3520020141601,866.3579856567383,310.09600201416015,870.9039856567383,314.88200201416015C872.3719856567383,316.64600201416016,869.9899856567383,320.12400201416017,867.8159856567382,319.39600201416016ZM899.7919856567382,627.4100020141602C897.2559856567383,621.1240020141602,895.1439856567383,615.1380020141602,892.8079856567383,609.3420020141601C890.5099856567383,603.5420020141602,888.1439856567383,597.9540020141601,885.4099856567383,592.5020020141601C882.6779856567383,587.0560020141602,879.5799856567382,581.6980020141602,875.8619856567383,576.6260020141601C872.1499856567383,571.5660020141602,867.7639856567383,566.7840020141601,862.5179856567382,562.9200020141602C861.0799856567382,561.7660020141602,861.6919856567383,560.5100020141601,863.5039856567383,561.1320020141602C869.7399856567383,563.5940020141602,875.8639856567382,566.9080020141602,881.3499856567382,571.2220020141601C886.8439856567383,575.5180020141602,891.7099856567382,580.7560020141602,895.5139856567383,586.7160020141602C899.3359856567383,592.6660020141601,902.0239856567383,599.3100020141601,903.5279856567383,606.0820020141601C905.0859856567383,612.8480020141601,905.3359856567383,619.8040020141602,905.1659856567383,626.4040020141601C904.9579856567383,628.6860020141602,900.8119856567383,629.4600020141602,899.7919856567382,627.4100020141602ZM704.6039856567382,867.8180020141601C707.2539856567383,861.5800020141602,709.9939856567382,855.8540020141602,712.4419856567383,850.1040020141602C714.9159856567383,844.3780020141602,717.1959856567382,838.7540020141602,719.1179856567383,832.9660020141602C721.0359856567383,827.1820020141602,722.6339856567383,821.2040020141602,723.5939856567383,814.9880020141602C724.5459856567383,808.7840020141601,724.8259856567382,802.3020020141602,723.8499856567382,795.8600020141602C723.6499856567383,794.0280020141602,724.9719856567383,793.5720020141601,725.8119856567383,795.2920020141602C728.4799856567383,801.4440020141601,730.4679856567383,808.1160020141601,731.2959856567383,815.0460020141602C732.1419856567383,821.9680020141601,731.8799856567383,829.1120020141601,730.3559856567383,836.0180020141602C728.8499856567382,842.9300020141602,726.0539856567383,849.5260020141602,722.3299856567382,855.3780020141602C718.6479856567382,861.2660020141601,713.9039856567383,866.3600020141602,709.1179856567383,870.9080020141602C707.3539856567382,872.3720020141601,703.8759856567383,869.9900020141602,704.6039856567382,867.8180020141601ZM396.5899856567383,899.7920020141602C402.8759856567383,897.2560020141601,408.8619856567383,895.1440020141602,414.6579856567383,892.8080020141601C420.4559856567383,890.5080020141602,426.04598565673825,888.1420020141602,431.4979856567383,885.4100020141601C436.9439856567383,882.6780020141601,442.3019856567383,879.5800020141602,447.3739856567383,875.8620020141601C452.4339856567383,872.1500020141601,457.21598565673827,867.7640020141602,461.0799856567383,862.5180020141602C462.2339856567383,861.0800020141602,463.48998565673827,861.6920020141602,462.86798565673826,863.5040020141602C460.40598565673827,869.7400020141602,457.09398565673825,875.8640020141602,452.7779856567383,881.3500020141602C448.4819856567383,886.8420020141601,443.2459856567383,891.7100020141602,437.2839856567383,895.5160020141601C431.33398565673826,899.3380020141601,424.68998565673826,902.0240020141601,417.9199856567383,903.5300020141601C411.15398565673826,905.0900020141602,404.1959856567383,905.3380020141601,397.5979856567383,905.1680020141602C395.3139856567383,904.9580020141601,394.5399856567383,900.8140020141601,396.5899856567383,899.7920020141602ZM156.18208565673828,704.6040020141602C162.42008565673828,707.2560020141601,168.14608565673828,709.9960020141601,173.89608565673828,712.4400020141602C179.62208565673828,714.9160020141602,185.24608565673827,717.1940020141601,191.03408565673828,719.1160020141601C196.81608565673827,721.0340020141601,202.79608565673828,722.6320020141602,209.0120856567383,723.5920020141601C215.2160856567383,724.5460020141602,221.6979856567383,724.8260020141602,228.13998565673828,723.8480020141601C229.9719856567383,723.6480020141602,230.4279856567383,724.9700020141602,228.7079856567383,725.8100020141602C222.55798565673828,728.4780020141602,215.88408565673828,730.4660020141602,208.9540856567383,731.2920020141602C202.03208565673827,732.1380020141602,194.88808565673827,731.8760020141601,187.98208565673826,730.3520020141601C181.0720856567383,728.8480020141601,174.47408565673828,726.0500020141601,168.62208565673828,722.3260020141602C162.73408565673827,718.6440020141602,157.64008565673828,713.9000020141601,153.0940856567383,709.1140020141602C151.62808565673828,707.3540020141602,154.01008565673828,703.8760020141601,156.18208565673828,704.6040020141602ZM124.20805565673828,396.59200201416013C126.74605565673828,402.87800201416013,128.8560856567383,408.8640020141602,131.19408565673828,414.66000201416017C133.49208565673828,420.4580020141602,135.8580856567383,426.04800201416015,138.59208565673828,431.49800201416014C141.32408565673828,436.94400201416016,144.4220856567383,442.30200201416017,148.14008565673828,447.3760020141602C151.85208565673827,452.4360020141602,156.2380856567383,457.21800201416016,161.48408565673827,461.08200201416014C162.9220856567383,462.23600201416014,162.3100856567383,463.49200201416016,160.49808565673828,462.87000201416015C154.2620856567383,460.40600201416015,148.13808565673827,457.09400201416014,142.65208565673828,452.7800020141602C137.15808565673828,448.4840020141602,132.2920856567383,443.24800201416014,128.48805565673828,437.28600201416015C124.66606565673828,431.33600201416016,121.97805565673828,424.69200201416015,120.47405565673829,417.92200201416017C118.91406265673828,411.15600201416015,118.66606165673828,404.20000201416013,118.83605955673828,397.60000201416017C119.04206065673829,395.3160020141602,123.18605565673828,394.54000201416017,124.20805565673828,396.59200201416013ZM319.3959856567383,156.18410201416015C316.7459856567383,162.42210201416015,314.0059856567383,168.15010201416015,311.55998565673826,173.89810201416014C309.0859856567383,179.62410201416014,306.80598565673824,185.24810201416017,304.8839856567383,191.03610201416015C302.96598565673827,196.81810201416016,301.36798565673826,202.79810201416015,300.4079856567383,209.01410201416016C299.4559856567383,215.21810201416014,299.1739856567383,221.70000201416016,300.15198565673825,228.14200201416014C300.3519856567383,229.97400201416016,299.0299856567383,230.43000201416015,298.19198565673827,228.70800201416017C295.5239856567383,222.55800201416014,293.53598565673826,215.88610201416014,292.7079856567383,208.95410201416016C291.8619856567383,202.03210201416016,292.1239856567383,194.88810201416015,293.6479856567383,187.98410201416016C295.1539856567383,181.07210201416015,297.94998565673825,174.47610201416015,301.6739856567383,168.62410201416014C305.3559856567383,162.73810201416015,310.0999856567383,157.64210201416017,314.8859856567383,153.09610201416015C316.6459856567383,151.63010201416017,320.1239856567383,154.01210201416015,319.3959856567383,156.18410201416015ZM280.42598565673825,462.85800201416015C282.9959856567383,374.57400201416016,369.1019856567383,293.06800201416013,456.7199856567383,287.41800201416015C459.3129856567383,287.2510020141601,461.5499856567383,289.21700201416013,461.7179856567383,291.81000201416015C461.92798565673826,295.09200201416013,458.8619856567383,296.54800201416015,459.0779856567383,296.34600201416015C404.5079856567383,323.3640020141602,356.63198565673827,357.54000201416017,321.54598565673825,411.55600201416013C304.2459856567383,438.01200201416015,293.4999856567383,465.9820020141602,293.62798565673825,465.67000201416016C292.18598565673824,469.17300201416015,288.1769856567383,470.84400201416014,284.6739856567383,469.40200201416013C282.0399856567383,468.3110020141602,280.3509856567383,465.70900201416015,280.42598565673825,462.85800201416015Z"></path></g></g><g style="opacity:0.5;"><path style="mix-blend-mode:passthrough" fill-opacity="1" fill="#FD8A02" d="M775.48994140625,446.34980859375C811.74594140625,591.8618085937501,723.16994140625,739.2238085937499,577.65794140625,775.47980859375C504.60394140625,793.68380859375,431.11594140625,780.4298085937501,371.43994140625,744.30580859375C855.09794140625,779.2278085937501,739.7319414062499,389.10380859375,651.26594140625,278.90380859375C711.13994140625,314.65980859375,757.29794140625,373.34380859375,775.48994140625,446.34980859375Z"></path></g><g><path style="mix-blend-mode:passthrough" fill-opacity="1" fill="#91D728" d="M606.6098515625,525.7239117187501C603.2669515625,531.26181171875,600.5789515625,537.16951171875,598.5998515625,543.32791171875C580.8258515625,537.18991171875,567.3438715625,546.15191171875,567.6098515625,541.04191171875C567.9778515625,532.71991171875,569.2358515625,522.74591171875,561.5538315625,512.79191171875C560.3058515625,511.19191171875,558.9938315625,509.76591171875,557.5478515625,508.53591171875C563.6018715625,491.92191171875,572.3898515625,478.29388171875,582.4998515625,473.59588171875C598.0119515625,466.38788171875,610.3978515625,492.02391171875,606.6098515625,525.7239117187501ZM589.6738515625,644.51151171875C589.4141515625,644.41751171875,589.1580515625,644.31351171875,588.9058515625,644.19951171875C585.9738515625,637.9735117187499,582.0178515625,634.02351171875,581.9519515625,631.94351171875C584.4639515625,630.73351171875,611.3519515625,630.93551171875,621.1079515625,609.47151171875C621.2579515625,609.11551171875,621.4158515625,608.7855117187501,621.5579515625,608.40351171875C623.3199515625,609.29151171875,625.1359515624999,610.08551171875,627.0659515625,610.80151171875C641.1379515625,615.2855117187501,654.6499515625,614.65351171875,666.8978515625,611.0695117187499C673.6718515625,615.24751171875,678.8538515625,620.06151171875,681.6038515625,625.34951171875C692.7258515625,646.65451171875,641.8139515625,664.99351171875,589.6738515625,644.51151171875Z"></path></g><g><path style="mix-blend-mode:passthrough" fill-opacity="1" fill="#018100" d="M642.94802109375,626.9397421875C662.34602109375,631.4457421875,663.84402109375,632.3057421875,663.34402109375,632.1277421875C665.75602109375,632.9897421875,665.58992109375,636.4957421875,663.04602109375,637.0957421875C640.58402109375,642.2197421875001,616.34802109375,627.7777421875,620.27602109375,623.4997421875C622.16402109375,621.4397421875,627.27002109375,624.0617421874999,642.94802109375,626.9397421875ZM583.32397109375,486.7441121875C583.79999109375,484.2181091875,587.29199109375,483.8461001875,588.27795109375,486.2601021875C591.10592109375,493.3041121875,591.76402109375,500.8821421875,591.35992109375,508.3400421875C589.48791109375,530.8941421875,580.53393559375,534.2800421875,580.47991943375,528.6361421875C580.32189909375,511.9521421875,583.46191109375,484.9721071875,583.32397109375,486.7441121875Z"></path></g><g><path style="mix-blend-mode:passthrough" fill-opacity="1" fill="#FFFFFF" d="M518.872055078125,391.98809814625C528.538055078125,391.89410400625,534.290055078125,396.95809640625,536.420055078125,404.66011640625C547.8399550781251,445.97211640625,489.580055078125,475.37011640625,457.634055078125,453.22211640625C446.200045078125,445.29611640625,430.566035078125,423.23811640625,446.012025078125,411.49011640625C454.158055078125,405.29611640625,487.370055078125,392.29812640625,518.872055078125,391.98809814625ZM621.557955078125,608.40381640625C621.413955078125,608.78381640625,621.255955078125,609.11581640625,621.107955078125,609.47181640625C611.351955078125,630.9358164062501,584.463955078125,630.7338164062501,581.951955078125,631.94381640625C582.0179550781249,634.02381640625,585.975955078125,637.97581640625,588.905955078125,644.19981640625C590.495955078125,647.59781640625,591.811955078125,651.70381640625,592.007955078125,656.53981640625C592.713955078125,674.06781640625,572.8739550781249,686.60381640625,549.815955078125,671.9358164062501C546.061955078125,669.55381640625,546.911955078125,670.82781640625,543.809955078125,675.52981640625C521.193955078125,709.9418164062499,494.415955078125,695.3778164062501,496.027955078125,664.87181640625C496.851955078125,649.4318164062499,500.087955078125,649.8458164062499,489.081955078125,656.48781640625C471.825955078125,666.91981640625,458.219955078125,665.9038164062499,450.373955078125,659.01981640625C470.183955078125,643.27981640625,476.861955078125,617.14181640625,458.585955078125,589.91981640625C452.501955078125,581.90581640625,445.297975078125,575.57781640625,437.803955078125,570.64981640625C443.555965078125,564.65181640625,453.403955078125,560.92381640625,467.32195507812503,561.80781640625C470.475955078125,562.00581640625,470.489955078125,561.94781640625,469.385955078125,558.69381640625C458.247955078125,525.60781640625,476.939955078125,502.92581640624996,505.125955078125,518.1478164062501C509.847955078125,520.68781640625,508.53595507812497,518.94381640625,515.701955078125,512.32781640625C528.303955078125,500.69381640625,545.585955078125,497.92581640624996,557.547955078125,508.53781640625C558.995955078125,509.76781640625,560.307955078125,511.19381640625,561.553955078125,512.79381640625C569.235955078125,522.74581640625,567.977955078125,532.72181640625,567.609955078125,541.04381640625C567.343955078125,546.15381640625,580.8259550781249,537.19181640625,598.599955078125,543.32981640625C590.251955078125,569.5898164062501,597.183955078125,596.34581640625,621.557955078125,608.40381640625Z"></path></g><g><path style="mix-blend-mode:passthrough" fill-opacity="1" fill="#FC09B2" d="M357.71798296875,477.42022656250003C368.87794296875,456.34822656250003,401.03004296875,447.4962265625,422.93594296875,453.8122265625C444.62394296875,460.0642265625,449.55394296875,484.7542265625,422.76194296875,500.3562265625C386.06394296875,521.7257265625,343.24194296875,504.7537265625,357.71798296875,477.42022656250003ZM632.01954296875,409.0741865625C612.27754296875,395.7021765625,579.72954296875,402.9701845625,563.34754296875,418.8262265625C547.12954296875,434.5242265625,554.36054296875,458.6402265625,585.33954296875,459.8462265625C627.77554296875,461.5002265625,657.62854296875,426.4202265625,632.01954296875,409.0741865625ZM571.78954296875,588.0737265625C571.48354296875,587.0597265625,572.60154296875,586.3317265625,573.2035429687501,585.5437265625001C577.46754296875,579.8637265625,577.09954296875,571.8837265625,569.58554296875,568.2617265625C562.14354296875,564.6997265625,555.52554296875,566.2697265625,550.50154296875,566.8837265625C548.72754296875,567.1137265625,549.78554296875,564.9657265625,549.70554296875,561.2417265624999C549.34954296875,545.1117265625,534.47754296875,538.1377265625,519.14554296875,554.2737265625C517.66954296875,555.8097265625,515.86554296875,553.9057265625,514.0595429687501,552.9497265625C497.89354296875,544.2097265625,487.56154296875,557.4017265625,493.79954296874996,575.9417265625C495.00954296875,579.5157265625,493.11954296875,576.4017265625,484.92754296875,578.0457265625C471.02554296875,580.8457265625,466.43354296875,595.8737265625,483.06754296875,607.7617265625C484.45954296875,608.7697265625,483.19754296875,609.7737265625,482.32154296875,611.1597265625C472.15754296875,627.4697265625,484.65154296875,643.6277265625,504.95154296875,631.3497265625C511.20754296875,627.5877265624999,509.34754296874996,627.3617265625,508.89554296874996,636.0997265625C507.97554296875,653.2917265625,523.51754296875,662.5057265625001,536.82354296875,640.6877265625C537.76754296875,639.1517265625,537.8575429687501,638.9817265625,539.38354296875,640.1017265625001C545.89754296875,644.8917265625,558.9595429687499,648.5757265625,563.84954296875,639.3157265625C567.5595429687501,632.2897265624999,562.9975429687499,622.3017265625,557.60154296875,617.4317265625C581.5555429687499,615.2277265625,586.67354296875,596.4357265625,574.23954296875,589.6097265625C573.38154296875,589.1357265624999,572.04954296875,589.0177265625,571.78954296875,588.0737265625ZM546.08354296875,601.9917265624999C543.50554296875,614.0217265625,527.00354296875,620.7617265625,516.76354296875,613.2257265625C510.55354296875,608.6417265625,507.34154296875,600.5477265625,509.05954296875,592.8477265624999C511.69954296875,581.2797265625,523.75954296875,576.2037265625,532.89554296875,579.5277265625C541.69354296875,582.7777265625,548.20154296875,592.7017265625,546.08354296875,601.9917265624999Z"></path></g><g><path style="mix-blend-mode:passthrough" fill-opacity="1" fill="#000E3F" d="M650.908,189.624C639.592,205.158,634.372,224.748,637.286,240.746C637.538,242.13,638.306,246.344,642.222,247.9C643.114,248.252,643.974,248.412,644.82,248.412C647.894,248.412,650.76,246.3,654.188,243.77C659.274,240.02,666.956,234.352,679.18,230.934C680.286,230.628,686.092,229.168,692.174,227.998C709.18,225.016,725.534,225.33,741.438,225.634C774.182,226.272,805.074,226.848,835.242,199.272C845.782,189.636,854.518,178.686,861.21,166.724C864.678,160.526,866.13,154.02,867.006,149.046C867.592,145.716,866.748,142.64,864.688,140.612C862.764,138.714,859.974,137.934,857.044,138.508C855.11,138.878,852.974,139.68,850.27,140.696C843.226,143.34,831.438,147.764,810.886,149.01C801.564,149.574,790.872,149.35,779.542,149.114C736.06,148.192,681.904,147.062,650.908,189.624ZM758.922,159.806C765.788,159.806,772.622,159.948,779.312,160.088C790.868,160.332,801.782,160.56,811.548,159.968C833.752,158.62,846.506,153.834,854.128,150.972C854.618,150.786,855.09,150.608,855.544,150.442C854.78,153.902,853.622,157.796,851.626,161.364C845.508,172.298,837.502,182.324,827.832,191.166C800.898,215.788,773.44,215.272,741.646,214.656C728.958,214.41,715.994,214.168,702.49,215.512C699.062,215.676,694.746,216.336,690.61,217.12C686.802,217.779,683.021,218.587,679.276,219.542C679.052,219.6,678.836,219.67,678.626,219.752C677.144,220.118,676.246,220.356,676.212,220.364C662.06,224.322,653.052,230.964,647.674,234.934L647.594,234.994C646.58,222.59,651.078,208.038,659.784,196.086C683.114,164.048,721.574,159.806,758.922,159.806ZM540.446,205.462C542.358,205.462,544.446,204.648,546.416,202.642C572.178,176.398,598.692,168.748,622.086,161.998C644.912,155.412,664.804,149.674,674.614,127.962C683.148,110.114,682.59,88.732,677.048,75.326C676.354,73.646,674.508,69.176,669.98,68.28C665.468,67.404,662.01,70.836,660.718,72.134C644.854,88.082,628.412,92.924,611.006,98.052C591.68,103.744,571.694,109.632,552.988,131.07C535.382,151.242,526.7,195.238,535.676,203.55C536.968,204.766,538.672,205.449,540.446,205.462ZM561.258,138.286C577.862,119.258,595.468,114.072,614.108,108.582C631.722,103.392,649.922,98.032,667.446,80.922C671.01,90.782,671.436,105.756,666.498,119.006C666.281,119.347,666.102,119.712,665.964,120.092C665.534,121.29,665.064,122.432,664.566,123.524C663.748,125.208,662.83,126.841,661.818,128.416C661.683,128.624,661.563,128.841,661.458,129.066C652.888,141.68,638.164,145.926,619.042,151.446C596.828,157.854,569.476,165.746,542.996,190.622C543.07,179.03,547.896,153.598,561.258,138.286ZM1020.08,491.884C1018.45,490.78,1016.38,489.838,1013.75,488.646C1006.9,485.534,995.432,480.33,980.016,466.674C971.062,458.744,962.46,449.71,954.14,440.972C936.03,421.95,917.3,402.28,892.454,390.822C849.298,370.932,808.69,385.232,792.394,408.784C791.594,409.94,789.156,413.466,790.824,417.334C792.592,421.426,796.834,422.064,802.206,422.874C808.454,423.816,817.892,425.242,828.944,431.466C829.96,432.04,835.212,435.192,840.398,438.71C854.446,448.604,865.74,460.336,876.724,471.746C899.422,495.326,920.862,517.602,961.694,519.434C963.624,519.52,965.788,519.578,968.136,519.578C982.586,519.578,1003.95,517.396,1019.67,506.382C1022.44,504.44,1024.02,501.664,1024,498.774C1023.98,496.068,1022.55,493.556,1020.08,491.884ZM962.188,508.462C925.734,506.83,906.688,487.044,884.634,464.13C875.846,455,866.866,445.67,856.382,437.082C853.792,434.724,850.186,432.08,846.636,429.668C843.531,427.485,840.342,425.422,837.078,423.484C836.885,423.369,836.684,423.266,836.478,423.176C835.766,422.741,835.05,422.315,834.328,421.898C821.522,414.688,810.454,413.016,803.842,412.018L803.732,412C818.802,394.012,852.09,384.302,887.856,400.79C910.794,411.366,928.788,430.264,946.186,448.54C954.662,457.444,963.43,466.65,972.732,474.89C989.388,489.64,1001.79,495.274,1009.21,498.638L1010.51,499.23C995.042,508.4,973.848,508.988,962.188,508.462ZM810.344,271.622C783.63,273.44,746.38,298.412,746.852,310.634C746.986,314.13,749.73,317.802,755.084,317.588C791.936,317.258,816.018,330.584,837.33,342.354C852.736,350.86,866.672,358.556,881.922,358.556C887.27,358.556,892.782,357.608,898.574,355.418C917.212,348.828,931.926,333.324,937.486,319.93C938.182,318.25,940.034,313.786,937.466,309.952C934.988,306.248,930.376,306.128,928.402,306.128L927.958,306.128C905.596,306.128,890.592,297.952,874.712,289.302C857.022,279.664,838.738,269.692,810.344,271.622ZM926.738,317.1C922.282,326.594,911.994,337.484,899.13,343.362C898.737,343.451,898.355,343.582,897.99,343.754C896.85,344.29,895.722,344.762,894.608,345.178C892.827,345.797,891.01,346.308,889.168,346.708C888.924,346.762,888.683,346.831,888.448,346.916C873.476,349.774,860.06,342.368,842.638,332.748C822.398,321.572,797.482,307.808,761.164,306.678C769.416,298.528,790.814,283.956,811.09,282.58C836.268,280.858,852.398,289.648,869.462,298.946C885.586,307.73,902.244,316.806,926.738,317.1ZM883.304,850.272C880.66,843.228,876.236,831.44,874.988,810.888C874.264,798.948,874.568,786.48,874.864,774.422C875.51,748.16,876.174,721.008,866.708,695.338C850.26,650.754,811.44,632.142,783.258,637.288C781.872,637.538,777.656,638.306,776.102,642.222C774.46,646.364,777.006,649.816,780.23,654.188C783.982,659.272,789.65,666.956,793.064,679.168C793.378,680.298,794.874,686.278,796.054,692.454C798.982,709.362,798.67,725.626,798.368,741.44C797.744,774.164,797.154,805.072,824.732,835.242C839.758,851.678,863.38,867.202,876.388,867.202C878.264,867.202,879.922,866.88,881.298,866.188C884.648,864.508,886.256,861.006,885.496,857.046C885.122,855.108,884.32,852.974,883.304,850.272ZM832.832,827.832C808.21,800.9,808.734,773.442,809.342,741.648C809.586,728.96,809.832,715.996,808.486,702.49C808.32,699.016,807.648,694.648,806.854,690.474C806.199,686.712,805.399,682.978,804.456,679.278C804.401,679.06,804.331,678.847,804.248,678.638C803.882,677.152,803.644,676.248,803.634,676.21C799.674,662.056,793.03,653.052,789.062,647.67L788.996,647.58C812.34,645.542,842.774,662.198,856.408,699.138C865.148,722.84,864.51,748.926,863.89,774.154C863.59,786.444,863.278,799.152,864.03,811.554C865.378,833.754,870.168,846.514,873.028,854.134C873.262,854.756,873.488,855.354,873.694,855.914C865.886,853.94,847.774,844.182,832.832,827.832ZM925.948,611.006C920.256,591.68,914.368,571.696,892.93,552.988C873.44,535.978,846.172,532.608,831.656,532.114C829.13,532.02,821.506,531.77,819.09,537.408C817.808,540.398,818.656,543.764,821.356,546.414C823.982,548.992,826.408,551.738,828.972,554.644C830.148,555.978,831.326,557.31,832.522,558.626C848.966,576.72,854.982,597.948,860.798,618.478C867.488,642.094,873.83,664.474,896.162,674.66C900.678,676.788,905.408,678.428,910.272,679.554C914.896,680.6,919.838,681.05,924.682,681.05C934.068,681.05,943.08,679.362,948.674,677.048C950.356,676.352,954.822,674.506,955.716,669.98C956.616,665.446,953.162,662.012,951.864,660.718C935.918,644.856,931.078,628.416,925.948,611.006ZM912.696,668.85C910.064,668.236,907.476,667.442,904.952,666.476C904.621,666.27,904.27,666.099,903.904,665.966C902.835,665.582,901.783,665.154,900.75,664.682C899.099,663.9,897.496,663.022,895.948,662.052C881.986,652.996,877.198,636.092,871.362,615.486C865.488,594.75,858.828,571.244,840.648,551.242C839.491,549.963,838.343,548.675,837.206,547.378C835.968,545.968,834.718,544.569,833.456,543.18C846.918,543.876,869.682,547.266,885.714,561.256C904.74,577.862,909.928,595.468,915.418,614.108C920.606,631.714,925.966,649.91,943.062,667.43C936.642,669.592,923.752,671.352,912.696,668.85ZM615.218,792.394C614.06,791.596,610.544,789.164,606.668,790.828C602.578,792.594,601.936,796.838,601.124,802.208C600.182,808.456,598.756,817.894,592.536,828.948C591.96,829.966,588.794,835.246,585.262,840.442C583.113,843.487,580.855,846.453,578.492,849.334L578.394,849.45C570.16,859.49,561.112,868.204,552.254,876.726C528.674,899.424,506.398,920.864,504.566,961.696C503.948,975.5,504.818,1001.39,517.618,1019.67C519.548,1022.42,522.294,1024,525.164,1024L525.228,1024C527.932,1023.98,530.442,1022.55,532.112,1020.08C533.218,1018.45,534.164,1016.37,535.358,1013.74C538.47,1006.89,543.676,995.428,557.326,980.018C565.258,971.064,574.292,962.464,583.026,954.146C602.05,936.034,621.72,917.302,633.18,892.456C653.068,849.296,638.768,808.69,615.218,792.394ZM623.21,887.86C612.634,910.798,593.734,928.794,575.456,946.194C566.552,954.67,557.348,963.436,549.11,972.738C534.364,989.386,528.728,1001.79,525.364,1009.2C525.167,1009.64,524.968,1010.08,524.766,1010.51C515.596,995.04,515.01,973.864,515.536,962.188C517.168,925.732,536.956,906.686,559.868,884.634C569.012,875.832,578.356,866.838,586.956,856.334C589.292,853.76,591.904,850.198,594.292,846.688C596.489,843.566,598.564,840.361,600.512,837.078C600.626,836.882,600.73,836.68,600.818,836.478C601.61,835.17,602.08,834.36,602.098,834.328C609.308,821.522,610.98,810.458,611.976,803.846L611.996,803.732C629.988,818.812,639.69,852.1,623.21,887.86ZM713.65,746.844C713.556,746.844,713.46,746.846,713.368,746.852C709.868,746.986,706.366,749.584,706.414,755.086C706.756,791.858,693.416,816.016,681.648,837.33C670.16,858.14,660.148,876.274,668.584,898.58C675.178,917.222,690.68,931.932,704.07,937.484C705.108,937.914,707.206,938.788,709.562,938.788C711.022,938.788,712.584,938.452,714.05,937.47C717.892,934.898,717.878,930.026,717.872,928.194C717.816,905.702,726.018,890.652,734.698,874.718C744.34,857.026,754.308,838.734,752.38,810.346C750.828,787.598,727.93,746.844,713.65,746.844ZM725.058,869.462C716.272,885.584,707.194,902.244,706.898,926.734C697.406,922.284,686.516,911.996,680.64,899.132C680.55,898.739,680.419,898.357,680.248,897.992C679.727,896.885,679.253,895.756,678.826,894.61C678.208,892.829,677.697,891.012,677.296,889.17C677.243,888.926,677.175,888.686,677.09,888.452C674.234,873.476,681.642,860.06,691.258,842.638C702.434,822.4,716.194,797.48,717.328,761.166C725.476,769.418,740.046,790.814,741.426,811.09C743.136,836.284,734.356,852.402,725.058,869.462ZM386.714,783.256C386.462,781.87,385.694,777.654,381.778,776.102C377.64,774.46,374.186,777.004,369.812,780.232C364.73,783.982,357.048,789.65,344.838,793.062C343.712,793.374,337.764,794.862,331.61,796.04C314.688,798.98,298.41,798.672,282.564,798.364C249.842,797.758,218.93,797.154,188.764,824.73C169.954,841.922,152.338,870.378,157.814,881.296C159.22,884.096,161.898,885.68,165.05,885.68C165.668,885.68,166.308,885.618,166.956,885.492C168.89,885.122,171.026,884.32,173.73,883.304C180.774,880.66,192.562,876.236,213.114,874.99C225.056,874.264,237.53,874.572,249.592,874.866C275.846,875.504,303,876.174,328.666,866.708C373.25,850.254,391.85,811.432,386.714,783.256ZM324.866,856.41C301.166,865.148,275.084,864.504,249.858,863.892C237.568,863.59,224.85,863.278,212.45,864.03C190.246,865.378,177.492,870.166,169.87,873.026C169.246,873.26,168.65,873.486,168.086,873.692C170.062,865.886,179.82,847.778,196.168,832.834C218.998,811.962,242.204,809.158,268.108,809.158C272.764,809.158,277.508,809.248,282.352,809.34C295.028,809.584,307.976,809.828,321.462,808.49C324.93,808.33,329.318,807.652,333.512,806.856C337.277,806.2,341.016,805.399,344.72,804.456C344.938,804.4,345.146,804.332,345.352,804.254C346.842,803.886,347.75,803.646,347.788,803.638C361.938,799.678,370.946,793.034,376.326,789.064L376.418,788.998C378.484,812.38,361.806,842.776,324.866,856.41ZM477.586,821.358C451.822,847.602,425.308,855.252,401.916,862.002C379.054,868.598,359.136,874.346,349.338,896.138C340.852,913.966,341.416,935.296,346.95,948.68C347.648,950.362,349.494,954.826,354.018,955.72C354.53,955.822,355.024,955.868,355.508,955.868C359.298,955.868,362.132,953.018,363.28,951.866C379.144,935.922,395.586,931.078,412.992,925.952C432.318,920.26,452.306,914.374,471.01,892.936C488.616,872.76,497.3,828.762,488.324,820.454C485.76,818.076,481.448,817.428,477.586,821.358ZM462.74,885.716C446.136,904.742,428.53,909.93,409.89,915.42C392.276,920.608,374.076,925.97,356.552,943.078C352.988,933.214,352.564,918.24,357.506,904.984C357.718,904.654,357.896,904.292,358.034,903.906C358.454,902.744,358.906,901.632,359.388,900.57C360.218,898.858,361.146,897.188,362.182,895.582C362.324,895.364,362.446,895.142,362.552,894.914C371.122,882.31,385.842,878.066,404.956,872.55C427.168,866.142,454.52,858.252,481,833.374C480.93,844.974,476.102,870.404,462.74,885.716ZM185.824,641.734C204.816,638.746,222.358,628.586,231.606,615.218C232.408,614.058,234.844,610.536,233.172,606.668C231.406,602.578,227.16,601.938,221.79,601.128C215.542,600.184,206.104,598.76,195.052,592.54C194.038,591.968,188.802,588.826,183.628,585.316C169.564,575.42,158.262,563.678,147.27,552.258C124.574,528.678,103.136,506.404,62.302,504.57C36.828,503.398,4.26599,511.092,0.421986,522.688C-0.758014,526.244,0.581986,529.858,3.91799,532.118C5.54799,533.224,7.62599,534.168,10.256,535.362C17.108,538.474,28.572,543.68,43.982,557.332C50.972,563.52,58.378,571.244,66.218,579.422C93.582,607.958,127.02,642.84,171.928,642.838C176.582,642.832,181.228,642.463,185.824,641.734ZM74.142,571.82C66.144,563.476,58.588,555.598,51.264,549.112C34.616,534.368,22.21,528.732,14.8,525.366C14.19,525.088,13.608,524.826,13.064,524.572C19.978,520.45,39.684,514.562,61.812,515.538C98.268,517.17,117.312,536.958,139.364,559.868C148.154,569.002,157.138,578.334,167.624,586.926C170.226,589.294,173.85,591.948,177.406,594.364C180.498,596.535,183.671,598.587,186.92,600.516C187.112,600.628,187.308,600.732,187.504,600.818C188.822,601.614,189.634,602.088,189.668,602.104C202.474,609.314,213.542,610.982,220.154,611.982L220.252,611.996C212.196,621.482,198.728,628.59,184.118,630.89C137.764,638.162,103.964,602.924,74.142,571.82ZM213.658,752.378C240.372,750.56,277.622,725.588,277.148,713.366C277.014,709.894,274.454,706.416,269.034,706.416L268.914,706.416C232.098,706.862,207.982,693.416,186.668,681.648C165.842,670.144,147.694,660.132,125.364,668.602C106.754,675.208,92.066,690.69,86.514,704.068C85.818,705.75,83.966,710.212,86.534,714.046C89.108,717.892,94,717.858,95.81,717.872C118.308,717.74,133.35,726.014,149.284,734.698C165.478,743.522,182.172,752.618,206.65,752.618C208.914,752.618,211.252,752.54,213.658,752.378ZM154.536,725.058C138.412,716.272,121.754,707.194,97.264,706.902C101.718,697.408,112.01,686.516,124.874,680.638C125.266,680.551,125.647,680.42,126.01,680.248C127.1,679.737,128.209,679.268,129.336,678.844C131.134,678.216,132.969,677.699,134.83,677.296C135.084,677.242,135.326,677.172,135.564,677.084C150.528,674.246,163.946,681.64,181.362,691.256C201.6,702.43,226.52,716.192,262.836,717.324C254.58,725.478,233.186,740.044,212.912,741.422C187.726,743.156,171.602,734.358,154.536,725.058ZM140.694,173.728C143.338,180.77,147.762,192.56,149.01,213.114C149.734,225.05,149.43,237.52,149.134,249.582C148.488,275.84,147.824,302.992,157.292,328.662C171.974,368.45,204.476,387.546,231.324,387.546C234.56,387.546,237.714,387.268,240.746,386.714C242.132,386.464,246.348,385.694,247.9,381.778C249.542,377.636,246.996,374.184,243.77,369.812C240.02,364.726,234.352,357.044,230.94,344.832C230.626,343.704,229.132,337.73,227.954,331.556C225.024,314.646,225.336,298.38,225.636,282.562C226.26,249.838,226.85,218.928,199.274,188.758C189.948,178.556,171.02,160.862,149.052,156.992C145.728,156.41,142.646,157.248,140.612,159.312C138.714,161.24,137.948,164.024,138.512,166.954C138.88,168.89,139.682,171.026,140.694,173.728ZM191.168,196.168C215.79,223.1,215.266,250.562,214.658,282.354C214.414,295.04,214.168,308.004,215.514,321.506C215.68,324.984,216.352,329.356,217.15,333.536C217.803,337.294,218.602,341.026,219.544,344.722C219.6,344.94,219.67,345.156,219.752,345.362C220.118,346.848,220.356,347.752,220.366,347.79C224.324,361.942,230.968,370.948,234.936,376.33C234.96,376.362,234.982,376.394,235.006,376.422C211.584,378.486,181.226,361.804,167.592,324.866C158.852,301.164,159.49,275.078,160.11,249.85C160.41,237.56,160.722,224.854,159.97,212.452C158.622,190.248,153.834,177.49,150.972,169.87L150.472,168.53C167.89,172.98,183.282,187.542,191.168,196.168ZM98.05,412.994C103.744,432.32,109.63,452.304,131.068,471.012C145.744,483.82,173.028,491.906,190.008,491.906C196.37,491.904,201.284,490.77,203.548,488.324C205.926,485.756,206.568,481.442,202.642,477.588C176.396,451.824,168.748,425.31,162,401.918C155.414,379.09,149.674,359.196,127.96,349.384C110.118,340.85,88.734,341.41,75.324,346.95C73.642,347.644,69.18,349.492,68.282,354.018C67.382,358.55,70.834,361.986,72.134,363.282C88.08,379.146,92.922,395.586,98.05,412.994ZM119.008,357.502C119.344,357.716,119.706,357.894,120.094,358.036C121.29,358.468,122.43,358.932,123.522,359.432C125.204,360.25,126.84,361.166,128.42,362.182C128.632,362.32,128.85,362.44,129.072,362.546C141.684,371.116,145.934,385.84,151.452,404.96C157.86,427.172,165.75,454.524,190.626,481C179.028,480.928,153.596,476.1,138.284,462.74C119.258,446.134,114.07,428.53,108.58,409.89C103.39,392.278,98.028,374.074,80.918,356.55C90.776,352.986,105.746,352.558,119.008,357.502ZM408.782,231.606C409.656,232.21,411.876,233.746,414.576,233.746C415.524,233.747,416.462,233.553,417.332,233.176C421.422,231.406,422.064,227.164,422.876,221.792C423.818,215.548,425.244,206.106,431.464,195.056C432.038,194.04,435.198,188.77,438.726,183.576C448.614,169.54,460.34,158.25,471.746,147.274C495.326,124.576,517.602,103.138,519.434,62.306C520.572,36.846,512.906,4.27,501.316,0.425999C497.762,-0.758001,494.148,0.581999,491.884,3.92C490.78,5.55,489.834,7.628,488.64,10.256C485.532,17.106,480.324,28.57,466.672,43.986C458.74,52.94,449.706,61.542,440.972,69.858C421.95,87.972,402.28,106.702,390.822,131.546C370.93,174.706,385.23,215.31,408.782,231.606ZM400.792,136.14C411.368,113.202,430.266,95.208,448.542,77.808C457.446,69.332,466.65,60.568,474.89,51.264C489.636,34.61,495.268,22.206,498.636,14.794C498.912,14.188,499.174,13.606,499.426,13.062C503.55,19.98,509.454,39.686,508.462,61.812C506.83,98.268,487.042,117.31,464.13,139.364C454.994,148.16,445.656,157.146,437.06,167.642C434.708,170.226,432.08,173.814,429.68,177.344C427.492,180.455,425.425,183.649,423.484,186.92C423.371,187.112,423.269,187.31,423.18,187.514C422.745,188.229,422.317,188.947,421.896,189.67C414.686,202.474,413.014,213.54,412.018,220.15L412,220.266C394.01,205.188,384.308,171.904,400.792,136.14ZM300.192,271.744C301.622,273.276,305.496,277.424,310.052,277.424C310.95,277.424,311.88,277.264,312.818,276.886C315.836,275.68,317.62,272.702,317.586,268.918C317.244,232.142,330.584,207.986,342.352,186.67C353.852,165.844,363.872,147.698,355.398,125.368C348.796,106.756,333.31,92.066,319.93,86.516C318.254,85.822,313.784,83.97,309.952,86.532C306.112,89.106,306.124,93.974,306.13,95.808C306.188,118.302,297.986,133.352,289.304,149.286C279.662,166.978,269.696,185.27,271.622,213.656C273.378,239.462,290.274,261.126,300.192,271.744ZM298.942,154.54C307.728,138.416,316.81,121.754,317.102,97.266C326.596,101.72,337.488,112.008,343.366,124.876C343.452,125.26,343.58,125.64,343.756,126.01C344.282,127.134,344.75,128.242,345.16,129.338C345.784,131.13,346.304,132.964,346.708,134.83C346.762,135.082,346.832,135.326,346.92,135.562C349.77,150.532,342.364,163.944,332.746,181.36C321.592,201.558,307.862,226.424,306.684,262.574C297.66,252.546,284.018,234.086,282.578,212.908C280.862,187.718,289.644,171.6,298.942,154.54Z"></path></g><g><path style="mix-blend-mode:passthrough" fill-opacity="1" fill="#000E3F" d="M445.02157226562497,243.19009828125C373.219572265625,261.08208828125,312.683972265625,305.86208828125,274.564072265625,369.28198828125C236.442012265625,432.70398828124996,225.300022265625,507.17598828125,243.192032265625,578.97798828125C261.082072265625,650.77998828125,305.864072265625,711.31798828125,369.283572265625,749.43598828125C412.947572265625,775.68198828125,461.84357226562497,789.13998828125,511.505572265625,789.13998828125C533.977572265625,789.13998828125,556.607572265625,786.38198828125,578.977572265625,780.80998828125C727.199572265625,743.87798828125,817.741572265625,593.24598828125,780.811572265625,445.02198828125C743.8775722656251,296.80208828125,593.2495722656249,206.25408828125,445.02157226562497,243.19009828125ZM740.0275722656249,649.06198828125C703.417572265625,709.9699882812499,645.279572265625,752.97398828125,576.3195722656251,770.15598828125C507.369572265625,787.33798828125,435.84357226562497,776.63398828125,374.937572265625,740.0279882812499C314.029972265625,703.41798828125,271.025972265625,645.27998828125,253.84397226562498,576.32198828125C218.375972265625,433.97398828125,305.329972265625,289.31208828125,447.67757226562503,253.84208828125C468.709572265625,248.58728828125,490.304572265625,245.92618828125,511.981572265625,245.91808828125C631.247572265625,245.91808828125,740.049572265625,326.84008828125,770.157572265625,447.67598828125C787.339572265625,516.63198828125,776.637572265625,588.1519882812499,740.0275722656249,649.06198828125Z"></path></g><g><path style="mix-blend-mode:passthrough" fill-opacity="1" fill="#000E3F" d="M385.463848046875,440.61180234375C406.737848046875,449.39790234375,428.481948046875,426.45980234374997,414.737848046875,407.26390234375C406.927848046875,396.35590234375,393.105848046875,394.15190234375,383.037848046875,399.27980234375C365.817848046875,408.04980234375,368.349848046875,433.54390234375,385.463848046875,440.61180234375ZM590.175748046875,389.60580234375C601.973748046875,375.33380234375,592.245748046875,351.63381934375,572.927748046875,351.96585083375C561.629748046875,352.16186534375,550.4577480468749,360.59384234375,548.679748046875,373.89180234375C545.545748046875,397.29390234375,575.511748046875,407.34590234375,590.175748046875,389.60580234375ZM614.503748046875,590.73340234375C606.101748046875,581.15340234375,602.529748046875,570.28340234375,603.887748046875,558.42740234375C606.287748046875,537.41540234375,624.331748046875,512.92940234375,652.151748046875,492.92340234375C654.612748046875,491.15440234375,655.1737480468751,487.72440234375,653.4037480468751,485.26340234375C651.6347480468751,482.80240234375003,648.204748046875,482.24240234375,645.743748046875,484.01140234375C633.887748046875,492.53540234375,623.681748046875,501.91740234375004,615.447748046875,511.61540234375C615.441748046875,503.03540234375,614.5737480468749,494.51740234375,611.895748046875,486.53540234375C607.295748046875,472.81340234375,594.433748046875,460.72940234375,579.665748046875,465.36540234375C566.877748046875,469.37940234375003,557.0157480468749,488.69340234375,552.523748046875,499.10940234375C548.469748046875,497.60340234374996,543.887748046875,496.80540234374996,538.745748046875,496.80540234374996C524.927748046875,496.80540234374996,514.779748046875,507.03340234375,508.28374804687496,514.98740234375C504.483748046875,512.41340234375,498.619748046875,509.24340234375,491.45374804687503,508.00340234375C479.441748046875,505.92340234375,467.085748046875,511.91940234375,460.74974804687497,522.93140234375C455.17974804687503,532.61740234375,455.069748046875,543.92740234375,460.103748046875,554.73540234375C451.885748046875,554.89940234375,442.015748046875,557.90140234375,433.329848046875,566.93740234375C417.843848046875,558.84140234375,398.185848046875,553.35340234375,376.333848046875,551.4074023437499C373.310048046875,551.12540234375,370.635748046875,553.36140234375,370.377848046875,556.38740234375C370.108448046875,559.4074023437499,372.338048046875,562.07440234375,375.357848046875,562.34340234375C409.487848046875,565.38140234375,437.487848046875,577.25940234375,450.257748046875,594.11740234375C457.465748046875,603.63140234375,459.92774804687497,614.80340234375,457.581748046875,627.32740234375C454.015748046875,646.3534023437501,440.649848046875,655.58340234375,430.067848046875,659.97340234375C406.013848046875,669.9594023437501,371.263848046875,666.14540234375,349.229828046875,651.11140234375C346.728878046875,649.52240234375,343.418028046875,650.20340234375,341.747742046875,652.6514023437501C340.077454046875,655.09940234375,340.650116046875,658.4304023437501,343.041838046875,660.17940234375C358.545848046875,670.7574023437501,379.651848046875,676.39340234375,399.939848046875,676.39340234375C412.151848046875,676.39340234375,424.065848046875,674.34940234375,434.27784804687496,670.1134023437501C438.98184804687503,668.1614023437501,443.245748046875,665.80940234375,447.053748046875,663.08740234375C454.863748046875,667.9754023437499,470.869748046875,672.1134023437501,488.849748046875,662.2954023437501C486.939748046875,682.70740234375,496.20174804687497,693.8054023437501,506.901748046875,697.5034023437499C509.75974804687496,698.49140234375,512.837748046875,698.98740234375,516.0157480468749,698.98740234375C527.825748046875,698.98740234375,541.0057480468749,692.1194023437499,549.2657480468749,678.0174023437501C556.371748046875,683.1514023437501,564.837748046875,685.2634023437499,573.381748046875,683.85740234375C583.487748046875,682.19540234375,591.921748046875,675.68340234375,595.941748046875,666.43340234375C597.795748046875,662.1714023437501,598.507748046875,657.59540234375,598.2697480468751,653.0074023437501C613.601748046875,657.09740234375,627.303748046875,658.93540234375,639.0837480468749,658.93540234375C665.397748046875,658.93540234375,682.243748046875,649.9174023437499,686.887748046875,637.20140234375C689.681748046875,629.54940234375,687.8617480468749,618.75940234375,675.6257480468751,610.25940234375C698.411748046875,600.94540234375,719.849748046875,581.90940234375,729.795748046875,560.64540234375C731.0197480468751,557.91040234375,729.8237480468749,554.69940234375,727.108748046875,553.43040234375C724.393748046875,552.1614023437501,721.1637480468751,553.30440234375,719.849748046875,555.99740234375C708.547748046875,580.1574023437499,680.587748046875,601.14140234375,654.805748046875,604.8014023437499C643.473748046875,606.42940234375,627.267748046875,605.28940234375,614.503748046875,590.73340234375ZM582.653748046875,474.88740234375C591.9097480468749,471.97540234375003,599.785748046875,481.80740234375,602.433748046875,489.70740234375C606.1537480468751,500.79340234375,605.857748046875,513.66740234375,604.763748046875,526.1614023437501C602.5967480468751,529.6234023437501,600.651748046875,533.21840234375,598.939748046875,536.92540234375C593.777748046875,534.84140234375,585.3617480468749,533.35740234375,572.617748046875,536.2194023437501C572.8757480468751,528.27740234375,571.815748046875,516.36140234375,564.635748046875,507.63140234375C563.5927480468749,506.38840234375,562.444748046875,505.23740234375,561.203748046875,504.19140234375004C566.833748046875,490.69940234374997,575.465748046875,477.14340234375,582.653748046875,474.88740234375ZM585.879748046875,662.06340234375C583.353748046875,667.87740234375,578.017748046875,671.97740234375,571.605748046875,673.03140234375C564.339748046875,674.2254023437499,557.059748046875,671.4594023437501,551.617748046875,665.44740234375C548.906748046875,662.44840234375,543.993748046875,663.31240234375,542.4677480468749,667.0554023437501C535.579748046875,683.90340234375,520.507748046875,690.59340234375,510.487748046875,687.13340234375C500.075748046875,683.53740234375,496.863748046875,669.8694023437499,502.103748046875,651.47140234375C502.766748046875,649.13040234375,501.80974804687503,646.63340234375,499.752748046875,645.33340234375C497.696748046875,644.03440234375,495.029748046875,644.24240234375,493.199748046875,645.84540234375C476.287748046875,660.72140234375,462.191748046875,657.84540234375,455.793748046875,655.19740234375C462.181748046875,648.07940234375,466.485748046875,639.4214023437501,468.373748046875,629.35140234375C471.317748046875,613.6614023437501,468.165748046875,599.57540234375,459.013748046875,587.49140234375C454.917748046875,582.08540234375,449.501748046875,577.15540234375,443.065748046875,572.75740234375C455.425748046875,561.68340234375,468.609748046875,566.9654023437499,469.181748046875,567.20740234375C471.517748046875,568.22740234375,474.247748046875,567.50540234375,475.77374804687497,565.4654023437499C477.300748046875,563.42540234375,477.22274804687504,560.60240234375,475.585748046875,558.64940234375C467.147748046875,548.58940234375,465.159748046875,537.28540234375,470.267748046875,528.4114023437501C474.311748046875,521.3734023437501,482.05774804687496,517.51940234375,489.58374804687503,518.82340234375C498.79974804687504,520.41940234375,505.35774804687503,526.57140234375,505.40574804687503,526.61740234375C506.534748046875,527.69740234375,508.065748046875,528.25140234375,509.623748046875,528.14640234375C511.18274804687496,528.0324023437499,512.617748046875,527.25840234375,513.569748046875,526.02040234375C520.363748046875,517.20040234375,528.4717480468751,507.78840234375,538.743748046875,507.78840234375C546.6697480468749,507.78840234375,552.359748046875,510.01040234375,556.133748046875,514.5804023437499C564.343748046875,524.52640234375,561.0157480468749,542.40840234375,560.985748046875,542.57540234375C560.608748046875,544.4844023437499,561.271748046875,546.44940234375,562.727748046875,547.73940234375C564.182748046875,549.03340234375,566.213748046875,549.45740234375,568.0637480468749,548.85640234375C583.081748046875,543.98240234375,591.315748046875,545.65840234375,595.049748046875,547.22440234375C594.065748046875,550.58840234375,593.351748046875,553.91640234375,592.979748046875,557.18240234375C591.259748046875,572.24440234375,595.723748046875,585.96640234375,606.2497480468751,597.97040234375C608.787748046875,600.87440234375,611.613748046875,603.51240234375,614.685748046875,605.8444023437501C603.699748046875,628.32840234375,583.5197480468751,626.63640234375,582.6597480468749,626.54440234375C580.282748046875,626.28740234375,578.009748046875,627.58840234375,577.027748046875,629.76840234375C576.054748046875,631.95440234375,576.610748046875,634.52040234375,578.401748046875,636.10840234375C586.3757480468751,643.17240234375,589.451748046875,653.84840234375,585.879748046875,662.06340234375ZM662.609748046875,614.47940234375C674.299748046875,619.56740234375,680.027748046875,626.9174023437499,677.517748046875,633.78740234375C673.029748046875,646.07940234375,644.7277480468749,656.33940234375,595.7217480468751,641.90540234375C594.983748046875,640.08240234375,594.100748046875,638.3214023437499,593.079748046875,636.63940234375C603.4097480468749,634.31340234375,615.983748046875,627.3594023437499,624.085748046875,611.48740234375C631.031748046875,614.7094023437501,638.685748046875,616.36740234375,646.9197480468749,616.36740234375C649.989748046875,616.36740234375,653.139748046875,616.13940234375,656.357748046875,615.68140234375C658.4577480468749,615.37140234375,660.543748046875,614.97040234375,662.609748046875,614.47940234375Z"></path></g></g></g></svg>