<svg viewBox="0 0 1024 1024" height="1024" width="1024" version="1.1" fill="none" xmlns:xlink="http://www.w3.org/1999/xlink" xmlns="http://www.w3.org/2000/svg"><defs><clipPath id="master_svg0_30_213"><rect rx="0" height="1024" width="1024" y="0" x="0"></rect></clipPath></defs><g clip-path="url(#master_svg0_30_213)"><g><g><path style="mix-blend-mode:passthrough" fill-opacity="1" fill="#018100" d="M796.2784633903503,860.6720500488282C832.6784633903503,824.8560500488281,858.0904633903504,780.0400500488281,876.9704633903503,733.0120500488281C886.4164633903504,709.4360500488281,894.2844633903503,685.1700500488281,900.8564633903503,660.5037500488281C907.3944633903503,635.8417500488281,912.8444633903504,610.7637500488281,916.5724633903503,585.4537700488281C917.6904633903504,578.3697800488281,922.9184633903503,578.5477600488281,922.9764633903503,585.9797700488281C922.2624633903504,612.0057500488281,919.0084633903504,637.9317500488281,913.8264633903503,663.5477500488281C908.6144633903504,689.1540500488281,901.2584633903504,714.4280500488281,891.4904633903503,738.8360500488282C886.6494633903503,751.0560500488282,881.0204633903503,762.9740500488281,874.9324633903503,774.6460500488281C868.7764633903504,786.2900500488281,861.8364633903503,797.5220500488281,854.4024633903504,808.3900500488281C839.1914633903503,829.8880500488281,821.3554633903503,849.6640500488281,800.5904633903504,865.6060500488281C793.5114633903503,870.8880500488281,790.3374633903503,866.8280500488281,796.2784633903503,860.6720500488282ZM844.4964633903503,873.5540500488281C869.3474633903503,856.9940500488281,889.6834633903503,835.6320500488281,906.1234633903504,811.4780500488281C922.6034633903504,787.3060500488282,935.3874633903504,760.4440500488281,946.0074633903504,732.3080500488281C947.6994633903504,728.3920500488282,952.7814633903504,729.6280500488281,952.2214633903503,733.9500500488282C947.3994633903503,764.1840500488281,936.7874633903504,794.2540500488282,919.0514633903504,820.2880500488282C901.4974633903504,846.3060500488282,876.3294633903504,867.7200500488282,847.5714633903503,879.3380500488281C842.6814633903504,881.2180500488281,840.4724633903503,876.562050048828,844.4964633903503,873.5540500488281ZM164.67846339035034,874.9920500488281L156.17446339035035,869.8400500488281C153.34646339035032,868.0740500488281,150.88646339035034,865.8520500488281,148.22846339035033,863.8240500488281C142.79646339035034,859.850050048828,138.38246339035032,854.850050048828,133.62246339035033,850.100050048828C124.89996339035034,839.9880500488282,117.22996339035033,828.8760500488281,111.35796339035033,816.9280500488281C99.70166339035035,793.1700500488281,93.24026339035035,767.2020500488281,92.40396339035034,740.7520500488281C92.50596339035035,736.9480500488281,97.72196339035034,736.5180500488282,98.77196339035034,739.8740500488282C105.43126339035034,764.0080500488282,114.33136339035035,787.4660500488282,125.35596339035034,809.9440500488281C130.81996339035032,821.0420500488281,137.20846339035035,831.5120500488281,144.07646339035034,841.7400500488282C147.88446339035033,846.5140500488282,151.25646339035035,851.7800500488281,155.53246339035036,856.2220500488281C157.61846339035034,858.4880500488282,159.50246339035033,861.0280500488282,161.74046339035033,863.1660500488281L168.49246339035034,869.6600500488281C171.39046339035033,872.7640500488282,168.61846339035034,877.1080500488281,164.67846339035034,874.9920500488281ZM124.12396339035034,889.4640500488281C121.41286339035034,888.8930500488282,118.70156339035034,888.3220500488281,115.98996339035034,887.7520500488281C113.26996339035034,887.1340500488282,110.72396339035035,886.0580500488281,108.06796339035034,885.1780500488281C102.68396339035034,883.5160500488281,97.84196339035034,880.7620500488281,92.79196339035033,878.2740500488281C83.17196339035034,872.6120500488281,74.14796339035034,865.812050048828,66.39196339035034,857.8540500488282C50.990963390350345,842.0340500488281,39.34556339035034,822.9540500488281,32.31800409035034,802.0240500488281C31.500003390350344,798.9320500488282,36.326003390350344,796.9040500488281,38.09800339035034,799.2120500488281C49.93676339035034,816.1330500488282,63.12296339035034,832.0700500488281,77.52796339035035,846.8680500488281C84.63396339035035,854.148050048828,92.23796339035034,860.7340500488281,100.13196339035034,867.0820500488281C104.28396339035034,869.8900500488281,108.21596339035034,873.2200500488282,112.64596339035035,875.6880500488281C114.82996339035034,876.9720500488281,116.93206339035034,878.5280500488282,119.20596339035035,879.6820500488282L126.08796339035034,883.2160500488282C129.11596339035034,885.0200500488281,127.82996339035034,890.0120500488281,124.12396339035034,889.4640500488281ZM891.1284633903504,885.5300500488281C923.8984633903503,867.5080500488282,950.6624633903504,841.2780500488282,971.4644633903504,811.0040500488282C992.2904633903504,780.6560500488281,1007.4724633903503,746.3440500488282,1017.6604633903503,710.2000500488282C1019.3114633903504,705.1460500488281,1024.4714633903504,705.9980500488281,1023.9664633903503,711.4260500488281C1019.6744633903503,749.5380500488282,1006.5904633903504,787.4840500488281,984.3584633903504,819.8620500488281C973.2584633903504,836.0140500488282,959.8824633903504,850.7160500488282,944.5644633903504,862.9740500488281C929.2684633903503,875.2420500488281,912.0204633903503,885.0020500488281,893.8224633903503,891.5000500488281C887.6404633903503,893.6200500488281,885.7744633903503,888.8160500488282,891.1284633903504,885.5300500488281Z"></path></g><g><path style="mix-blend-mode:passthrough" fill-opacity="1" fill="#FFFFFF" d="M800.9316682243348,495.57999145507813C797.2576682243348,545.2999914550782,810.1916682243348,594.4239914550781,813.5576682243347,643.7939914550782C828.6056682243347,865.6839914550782,655.9216682243348,919.1399914550781,554.1019682243348,857.1239914550781C548.1179682243347,853.4979914550781,542.3903682243347,849.4659914550781,536.9598682243347,845.0539914550782C508.81586822433474,822.1639914550781,489.8698682243347,790.7979914550781,482.8059082243347,755.4679914550782C465.0278682243347,666.4579914550782,526.0398682243347,602.0599914550781,555.5998682243347,525.2219914550781C572.6598682243347,480.8799914550781,577.5658682243347,426.13199145507815,567.0738682243348,375.65399145507814C566.1518682243347,371.17999145507815,565.4938682243347,367.6699914550781,569.8679682243347,367.52399145507815C580.8916682243347,367.15599145507815,602.5476682243348,363.3999914550781,618.1716682243348,358.2859814550781C632.3576682243347,353.62598145507815,649.5796682243347,352.5779714550781,663.2316682243347,351.3259884550781C672.7556682243347,350.46398945507815,682.2396682243348,351.03799445507815,691.7456682243347,350.7099914550781C699.9756682243348,352.5359814550781,743.4556682243347,350.4839784550781,808.2016682243348,376.8619914550781C818.5696682243347,381.09199145507813,818.1996682243348,377.1499914550781,814.7916682243347,390.96399145507814C806.4976682243347,424.6719914550781,803.0916682243347,460.9659914550781,801.7576682243348,480.7339914550781C801.1396682243347,489.6479914550781,800.9536682243347,495.18999145507814,800.9316682243348,495.57999145507813Z"></path></g><g><path style="mix-blend-mode:passthrough" fill-opacity="1" fill="#FFCF00" d="M833.2199572868346,456.3957980957031C828.2939572868347,456.3957980957031,823.8599572868347,456.40179809570316,819.4279572868347,456.38779809570315C815.6939572868347,456.3757980957031,815.2199572868346,454.2977980957031,818.7779572868346,453.3937980957031C849.9619572868347,445.46779809570313,883.6879572868347,418.2597980957031,897.2099572868347,383.4218980957031C899.6499572868347,377.1338980957031,899.3779572868348,379.51189809570315,908.8499572868348,376.09789809570316C922.6879572868347,371.10789809570315,934.9519572868347,365.4838980957031,952.0659572868348,362.9918980957031C953.9139572868347,362.72389809570313,954.6079572868347,363.17989809570315,954.7299572868347,364.9098980957031C956.4679572868347,389.3079980957031,936.2519572868348,434.43579809570315,895.0879572868347,449.7357980957031C888.9579572868347,452.0137980957031,860.9559572868347,455.3817980957031,860.2299572868346,455.39779809570314C851.0539572868347,455.58779809570314,841.9319572868347,457.04179809570314,833.2199572868346,456.3957980957031ZM531.4259572868348,413.37779809570316C532.0959572868347,413.90779809570313,532.7859572868347,414.5137980957031,532.3079572868347,415.38579809570314C531.8679572868348,416.1877980957031,530.9059572868347,416.18379809570314,530.0979572868347,416.0097980957031C523.8919572868347,414.6737980957031,501.4279572868347,405.4957980957031,495.58595728683474,403.0597980957031C483.7579572868347,398.12779809570316,478.1459572868347,395.5917980957031,468.0880572868347,387.11589809570313C438.0500172868347,361.79989809570316,425.1180072868347,318.9718980957031,432.4439972868347,293.2398980957031C433.2040072868347,290.5679020957031,434.4079872868347,289.98388709570315,436.76598728683473,291.53189109570314C459.45595728683475,306.4098980957031,478.83595728683474,322.6458980957031,483.2599572868347,326.9818980957031C487.45595728683475,331.09389809570314,487.13395728683474,330.4078980957031,486.8159572868347,335.4438980957031C485.78595728683473,351.7798980957031,499.6739572868347,388.2678980957031,531.4259572868348,413.37779809570316Z"></path></g><g><path style="mix-blend-mode:passthrough" fill-opacity="1" fill="#FD8A02" d="M383.56396476730345,268.0439147988281C386.28797476730347,268.70791579882814,389.6619747673035,269.39989879882813,392.96197476730345,270.3539087988281C406.60997476730347,274.3039287988281,419.1939747673035,280.58586879882813,431.22197476730344,288.0478687988281C433.6739747673035,289.5678687988281,433.77197476730345,289.85186879882815,433.05997476730346,292.89786879882814C430.26197476730346,304.85596879882814,429.44797476730344,315.4778687988281,434.2099747673035,332.1858687988281C438.8159747673035,348.34196879882813,446.6699747673035,362.7779687988281,457.64597476730347,375.53576879882814C461.0759747673035,379.52176879882813,464.5159747673035,383.45376879882815,468.6479747673035,386.7317687988281C470.06197476730347,387.8537687988281,469.3299747673035,389.1817687988281,468.43797476730344,389.3757687988281C466.4499747673035,389.8017687988281,465.4199747673035,389.04776879882814,456.0279747673035,383.8757687988281C426.87007476730344,367.81996879882814,410.60597476730345,354.2659687988281,395.93997476730345,338.36796879882814C384.7919947673035,326.28196879882813,376.70400476730345,311.6459687988281,375.0440057673035,295.3619687988281C374.2319937673035,287.3999687988281,375.4299917673035,278.38996879882814,379.3260147673035,270.0839587988281C380.0260347673035,268.5919497988281,381.2840247673035,267.9319457988281,383.56396476730345,268.0439147988281ZM808.8403747673035,455.5677687988281C804.2023747673035,455.5657687988281,803.7183747673034,455.13576879882817,803.9703747673034,451.03576879882814C804.1163747673035,448.64576879882816,807.2663747673034,421.7457687988281,814.0363747673034,391.4577687988281C816.5363747673034,380.2697687988281,816.9063747673035,379.8357687988281,819.6923747673035,380.4597687988281C826.7343747673035,382.03376879882813,839.5683747673035,384.05776879882814,843.4463747673035,384.0797687988281C863.4423747673035,384.1917687988281,871.3663747673035,385.0197687988281,891.8523747673034,380.72376879882813C893.9063747673034,380.2937687988281,896.4183747673035,379.1437687988281,897.8283747673034,381.0157687988281C900.5223747673035,384.5897687988281,873.3923747673034,443.43776879882813,811.2543747673035,455.37176879882816C810.2943747673035,455.5537687988281,809.2963747673034,455.53376879882813,808.8403747673035,455.5677687988281ZM569.8883747673035,428.56976879882814C567.6543747673035,428.0487687988281,565.4383747673035,427.45376879882815,563.2443747673035,426.78576879882814C542.6303747673035,420.6597687988281,540.1503747673034,420.8217687988281,529.5043747673035,412.6957687988281C487.8123747673035,380.8737687988281,480.70837476730344,325.5419687988281,489.91437476730346,332.99186879882814C508.0323747673035,347.6518687988281,525.4363747673035,361.3798687988281,553.9583747673034,366.84196879882813C563.1723747673035,368.60576879882814,566.2583747673035,366.4459687988281,567.2783747673035,371.2937687988281C569.9603747673035,384.05976879882815,571.2623747673035,397.87176879882816,571.8983747673035,406.93976879882814C573.3083747673035,427.02176879882813,573.2743747673035,429.33776879882817,569.8883747673035,428.56976879882814ZM989.2483747673035,362.4618687988281C993.7823747673035,363.5598687988281,997.5043747673035,363.63996879882814,997.1243747673035,368.5657687988281C993.8463747673035,411.1497687988281,950.9983747673035,435.2217687988281,910.1243747673035,446.21376879882814C908.6103747673035,446.62176879882816,905.2743747673035,447.16576879882814,905.2783747673035,445.5997687988281C905.2883747673035,442.26576879882816,940.2043747673034,429.5757687988281,952.2383747673034,381.5757687988281C953.5583747673035,376.3137687988281,953.9583747673034,370.9097687988281,954.6243747673035,365.5478687988281C954.9503747673035,362.9258687988281,954.9403747673034,362.9618687988281,957.4183747673035,362.31386879882814C959.4793747673035,361.7600687988281,961.6023747673034,361.4704687988281,963.7363747673035,361.4518687988281C977.9783747673034,361.40786879882813,983.4523747673035,361.0598687988281,989.2483747673035,362.4618687988281Z"></path></g><g style="opacity:0.15000000596046448;"><g><path style="mix-blend-mode:passthrough" fill-opacity="1" fill="#000E3F" d="M374.44399976730347,291.0780507324219C375.20999076730345,284.40405073242187,375.66799976730346,277.8400307324219,378.46599976730346,271.76602073242185C380.18200976730344,268.0420227024219,381.04000976730345,267.57000773242186,384.91799976730346,268.40002473242185C388.76399976730346,269.2220107324219,392.5799997673035,270.1400107324219,396.31399976730347,271.41403073242185C402.47599976730345,273.51602073242185,395.4339997673035,275.66605073242187,404.8659997673035,298.03405073242186C412.52799976730347,316.20205073242187,423.49199976730347,329.4100507324219,435.35399976730343,341.0740507324219C441.20599976730347,346.82805073242184,441.81999976730344,355.8400507324219,453.95599976730347,371.03175073242187C466.3039997673035,386.4917507324219,467.2339997673035,384.81775073242187,469.3079997673035,387.5357507324219C470.0179997673035,388.4657507324219,468.80999976730345,390.7377507324219,464.60399976730343,388.5257507324219C434.4599997673035,372.66175073242186,395.1359997673035,347.3360507324219,380.95595976730345,316.47205073242185C375.2419737673035,304.02405073242187,375.9099697673035,300.32805073242184,374.44399976730347,291.0780507324219ZM997.0379997673035,368.2997507324219C996.0839997673035,397.14975073242186,973.6979997673035,418.3917507324219,947.9099997673035,431.6117507324219C929.7119997673035,440.9397507324219,910.5779997673035,446.4997507324219,907.9659997673035,446.63375073242184C907.0039997673034,446.68175073242185,905.7859997673035,446.8917507324219,905.3459997673035,445.8317507324219C904.8519997673035,444.6397507324219,906.0099997673035,444.1537507324219,906.8439997673034,443.6777507324219C919.7099997673034,436.3237507324219,934.6859997673034,421.99575073242187,943.4719997673035,404.78175073242187C948.3839997673035,395.15775073242185,960.8699997673035,393.3197507324219,973.0519997673034,373.76775073242186C979.3539997673034,363.65005073242185,976.1419997673034,361.28605073242187,981.7299997673034,361.4940507324219C985.8379997673035,361.6460507324219,989.8779997673034,362.3580507324219,993.8039997673035,363.5520507324219C996.2939997673035,364.3120507324219,997.2099997673034,365.8160507324219,997.0379997673035,368.2997507324219ZM572.7039997673035,419.2857507324219C572.7039997673035,426.82975073242187,573.4479997673035,429.56775073242187,568.8499997673034,428.3097507324219C563.5459997673034,426.8577507324219,548.4599997673034,422.5217507324219,543.4299997673035,420.80375073242186C524.6259997673035,414.38775073242186,498.23799976730345,381.1637507324219,504.02599976730346,382.0477507324219C512.8639997673034,383.3957507324219,551.4879997673034,395.05575073242187,568.3699997673034,406.70575073242185C571.1719997673035,408.6397507324219,572.9139997673035,410.80175073242185,572.5739997673035,414.3797507324219C572.4199997673035,415.99375073242186,572.6839997673035,417.64775073242185,572.7579997673034,419.2857507324219L572.7039997673035,419.2857507324219ZM805.6619997673035,438.4197507324219C805.8779997673034,435.91175073242186,807.2879997673035,435.00375073242185,809.3619997673035,434.5637507324219C823.3519997673035,431.5877507324219,824.9319997673035,431.33975073242186,835.6039997673035,431.34975073242185C855.5779997673035,431.3677507324219,856.2979997673035,431.27775073242185,858.7219997673035,431.5297507324219C865.2819997673034,432.2117507324219,839.0859997673035,448.97975073242185,817.5179997673035,454.03175073242187C799.1559997673035,458.32975073242187,804.2439997673034,454.8817507324219,805.6619997673035,438.4197507324219Z"></path></g></g><g><path style="mix-blend-mode:passthrough" fill-opacity="1" fill="#000E3F" d="M685.5222932243347,661.7638672363281C685.0282932243347,666.8078672363281,683.3062932243347,671.1378672363281,680.7362932243348,674.7178672363282L618.1679932243347,665.2858672363282C615.4199932243347,656.7238672363281,615.5379932243347,646.3018672363281,624.9899932243347,643.5538672363281C631.8319932243347,641.5758672363281,656.7079932243347,641.4378672363281,677.2942932243348,649.1298672363281C683.6022932243347,651.4818672363281,686.0742932243347,656.2278672363282,685.5222932243347,661.7638672363281ZM587.6599932243347,619.6018982363281C595.4199932243347,618.7958682363281,603.7779932243348,623.6459072363281,606.1039932243348,632.6139672363281C610.1959932243348,648.3919672363281,590.4940932243347,657.7758672363282,578.9660332243348,646.8358672363281C569.6960132243347,638.0338672363281,574.3920592243347,620.9798872363282,587.6599932243347,619.6018982363281ZM721.7522932243347,636.2398672363281C714.4242932243347,633.5619672363281,705.1342932243347,636.2218672363281,700.6882932243348,644.3478672363282C692.8622932243347,658.6498672363281,709.6742932243347,672.5618672363281,723.5262932243347,664.7718672363281C734.6682932243348,658.5038672363281,734.2822932243347,640.8198672363282,721.7522932243347,636.2398672363281Z"></path></g><g><path style="mix-blend-mode:passthrough" fill-opacity="1" fill="#FC09B2" d="M723.0361345329285,135.82192989570314C733.8761345329285,136.13192709570313,743.3741345329285,138.41993309570313,752.4181345329284,142.59193309570313C805.6041345329285,167.12397309570312,800.3821345329285,194.68997309570312,881.3781345329285,260.2096730957031C922.2241345329285,293.25167309570315,941.0761345329284,291.0196730957031,970.7381345329285,317.2576730957031C988.2561345329285,332.7536730957031,995.6641345329284,350.4896730957031,996.3161345329285,360.37767309570313C996.5041345329284,363.2056730957031,995.4981345329285,364.3256730957031,992.9701345329285,363.6376730957031C988.0361345329285,362.29567309570314,982.9621345329284,361.9476730957031,977.9461345329285,361.2296730957031C967.8701345329284,359.7876730957031,945.2941345329284,363.98567309570313,934.8481345329285,367.26567309570316C912.5801345329285,374.2556730957031,910.6221345329285,377.6956730957031,889.3941345329285,381.5056730957031C870.2981345329285,384.9336730957031,856.5041345329284,385.03367309570314,845.3481345329285,384.35567309570314C805.7441345329285,381.9456730957031,806.8601345329284,372.8036730957031,757.3921345329285,360.6116730957031C707.1701345329284,348.2336730957031,668.8461345329285,349.0956730957031,629.7581345329285,355.6616730957031C612.0701345329285,358.6336730957031,577.7381345329285,370.71367309570314,551.0181345329285,364.4476730957031C497.39813453292845,351.8756730957031,478.97203453292843,310.84767309570316,413.64403453292846,278.9796730957031C383.40203453292844,264.22767309570315,377.11004453292844,271.8856730957031,383.8680445329285,261.8456730957031C394.3020345329285,246.34567309570312,415.4240345329285,230.57797309570313,439.2920345329285,225.15797309570314C459.24603453292843,220.62597309570313,464.7000345329285,221.9239730957031,474.38203453292846,221.42197309570312C509.64413453292843,219.59397309570312,541.2581345329285,212.25597309570313,577.0541345329284,193.8659730957031C589.2261345329284,187.61197309570312,597.2661345329285,179.82597309570312,622.1261345329285,166.66797309570313C663.1021345329284,144.97995309570314,702.0861345329284,136.49595609570312,714.1221345329284,136.72195409570313C717.4101345329284,136.77995309570312,720.5761345329284,135.37394709570313,723.0361345329285,135.82192989570314ZM551.0121345329285,664.3316730957031C563.5561345329285,653.4176730957031,586.6941345329285,655.7136730957031,599.3681345329285,665.3136730957032C611.9141345329285,674.8176730957031,608.9341345329285,692.1176730957031,587.5901345329285,695.5556730957031C558.3541345329285,700.2656730957032,534.7421345329285,678.4896730957031,551.0121345329285,664.3316730957031ZM746.6301345329284,688.6056730957031C737.1361345329285,674.9576730957032,714.1361345329285,671.5276730957031,699.5021345329285,677.7416730957032C685.0141345329284,683.8916730957031,683.6761345329285,701.3956730957032,703.5321345329285,709.9456730957031C730.7301345329284,721.6556730957032,758.9461345329285,706.3116730957031,746.6301345329284,688.6056730957031Z"></path></g><g><path style="mix-blend-mode:passthrough" fill-opacity="1" fill="#FF8EDE" d="M680.7360598258972,674.7177570800782C668.1180598258973,692.2777570800781,634.7380598258973,692.2577570800781,622.0840798258972,673.6297570800781C620.6020798258972,671.4536570800781,619.1760598258973,668.5077570800781,618.1680598258972,665.2857370800781C625.4660298258972,660.6777670800781,634.4440598258972,657.9697570800781,644.1320598258972,657.9697570800781C659.2980598258972,657.9677429200781,672.7060598258972,664.5937770800781,680.7360598258972,674.7177570800782Z"></path></g><g><path style="mix-blend-mode:passthrough" fill-opacity="1" fill="#FFFFFF" d="M761.2559953727722,231.15806450195313C737.2739953727722,260.4240645019531,644.1339953727722,240.70406450195313,668.8579953727722,195.31606450195312C692.4859953727722,151.94606450195312,795.3779953727721,189.49006450195313,761.2559953727722,231.15806450195313ZM942.3779953727721,342.69836450195317C926.8299953727721,363.1283645019531,863.1899953727723,352.0283645019531,878.8479953727722,320.6483645019531C893.8119953727722,290.6623645019531,964.4999953727722,313.61236450195315,942.3779953727721,342.69836450195317ZM735.2539953727722,320.95836450195316C720.1359953727722,341.7103645019531,656.2799953727722,331.9463645019531,671.2759953727723,300.2463645019531C685.6079953727722,269.95006450195314,756.7599953727722,291.4143645019531,735.2539953727722,320.95836450195316ZM503.2719953727722,284.36036450195314C486.1379953727722,303.48236450195316,423.5919953727722,287.32236450195313,441.71200537277224,257.29606450195314C459.02799537277224,228.60206450195312,527.6499953727722,257.1360645019531,503.2719953727722,284.36036450195314ZM607.8579953727722,306.7703645019531C596.0239953727722,308.82436450195314,585.2899953727722,306.48236450195316,575.2919953727722,300.88636450195315C550.5119953727722,287.01436450195314,549.7159953727722,255.25606450195312,582.2819953727723,244.9920645019531C600.9339953727722,239.1120645019531,628.8719953727722,246.1100645019531,637.7719953727722,267.59606450195315C644.7739953727722,284.49236450195315,632.5919953727722,303.86236450195315,607.8579953727722,306.7703645019531ZM819.7259953727722,316.3683645019531C807.9579953727722,318.76636450195315,797.1579953727722,316.74036450195314,787.0019953727722,311.4383645019531C761.8279953727722,298.2963645019531,760.1039953727723,266.5740645019531,792.3559953727722,255.36406450195312C810.8279953727722,248.9440645019531,838.9579953727722,255.12006450195312,848.4839953727721,276.33636450195314C855.9739953727722,293.02436450195313,844.3639953727723,312.74036450195314,819.7259953727722,316.3683645019531Z"></path></g><g style="opacity:0.20000000298023224;"><g><path style="mix-blend-mode:passthrough" fill-opacity="1" fill="#000E3F" d="M554.1020197868347,857.1243137207032C565.1040197868347,845.8963137207031,577.5260197868347,835.7123137207032,591.8940197868347,830.0063137207031C660.3380197868347,802.774313720703,773.7820197868348,829.2463137207031,770.8980197868348,652.9303137207031C769.9720197868347,596.5603137207031,772.5240197868347,530.4363137207031,801.7520197868347,480.7380137207031C796.6160197868347,555.0923137207031,809.3760197868347,582.4783137207031,813.5560197868347,643.7943137207031C828.6060197868347,865.6843137207031,655.9220197868347,919.1403137207031,554.1020197868347,857.1243137207032ZM599.0180197868347,546.9783137207031C617.1640197868347,498.29231372070313,627.1740197868347,438.31201372070313,601.5100197868347,390.92001372070314C597.3100197868347,383.1660137207031,593.1720197868348,385.5180057207031,593.4800197868348,389.39401372070313C594.7180197868347,405.0240137207031,616.6260197868347,442.9960137207031,573.1580197868348,546.5463137207031C569.8400197868348,554.4543137207031,557.3179597868348,576.4983137207031,570.6940197868347,581.4823137207031C585.1620197868347,586.8743137207032,594.6060197868347,558.8163137207032,599.0180197868347,546.9783137207031Z"></path></g></g><g style="opacity:0.5;"><path style="mix-blend-mode:passthrough" fill-opacity="1" fill="#FFFFFF" d="M602.1740354118347,196.60395590820312C629.0340354118347,177.12205590820312,655.4160354118347,160.28201590820314,688.0460354118347,152.0639949082031C688.3320354118347,151.99198890820313,688.6280354118347,151.94400020820314,688.9220354118347,151.9359894082031C690.0660354118347,151.90798950820312,691.3260354118347,151.50799590820313,692.0800354118347,152.93598590820312C694.6540354118347,157.80598590820313,656.2740354118347,168.87795590820312,630.5640354118348,192.00195590820312C623.4380354118347,198.41195590820314,615.8300354118347,204.06995590820313,608.4580354118348,210.09795590820312C557.0019354118347,252.17155590820312,495.1739454118347,257.41355590820314,494.1579585118347,237.63795590820314C493.6199644118347,227.17795590820313,507.7599354118347,230.61195590820313,513.6339354118347,230.84805590820312C545.4959354118347,232.13395590820312,576.3440354118347,215.33805590820313,602.1740354118347,196.60395590820312Z"></path></g><g style="opacity:0.25;"><path style="mix-blend-mode:passthrough" fill-opacity="1" fill="#000E3F" d="M819.6602951774597,331.17604184570314C858.9382951774597,332.0400418457031,898.7202951774598,323.7680418457031,883.5962951774598,276.7099418457031C880.1522951774597,265.99399184570314,877.3522951774597,261.31997184570315,876.5322951774597,258.8840018457031C876.2062951774597,257.9160158457031,877.1962951774597,257.2520138457031,877.9222951774598,257.76998884570315C886.2162951774598,263.70999184570314,904.4722951774597,279.06594184570315,927.3782951774597,289.7920418457031C954.5242951774596,302.50194184570313,984.5142951774596,322.2160418457031,993.9962951774597,350.51594184570314C994.5742951774597,352.2420418457031,996.4282951774597,358.73214184570315,996.3162951774598,361.53814184570314C996.2522951774597,363.1621418457031,995.3782951774597,363.9721418457031,993.7642951774596,363.74014184570314C989.5582951774597,363.13414184570314,978.7322951774597,360.36014184570314,970.4042951774597,361.04014184570315C916.7222951774597,365.4261418457031,923.7842951774597,378.4761418457031,872.6882951774597,383.7841418457031C863.8772951774597,384.6831418457031,855.0082951774598,384.8831418457031,846.1662951774597,384.3801418457031C806.2222951774597,382.18014184570313,806.6062951774597,372.7481418457031,757.2402951774598,360.5661418457031C671.9518951774597,339.5199418457031,627.3439051774598,360.37014184570313,637.6459051774597,351.3299418457031C673.6858951774598,319.70204184570315,722.9758951774597,322.10994184570313,767.6042951774597,326.6879418457031C780.0422951774597,327.9619418457031,799.7862951774597,330.73994184570313,819.6602951774597,331.17604184570314Z"></path></g><g style="opacity:0.5;"><g><path style="mix-blend-mode:passthrough" fill-opacity="1" fill="#FD8A02" d="M832.9283005485535,456.3997238769531C816.5883005485534,456.3997238769531,817.0623005485535,456.70772387695314,816.3503005485535,455.07772387695314C815.4843005485534,453.0957238769531,828.4143005485535,453.0917238769531,849.0323005485534,440.02992387695315C861.5403005485534,432.1059238769531,856.6863005485534,433.0419238769531,865.3323005485535,431.6260238769531C914.2083005485534,423.6100238769531,927.8703005485535,411.1679238769531,944.7203005485535,400.96202387695314C944.8463005485535,400.8860238769531,945.1423005485535,400.85602387695315,945.1823005485535,400.9179238769531C945.3443005485535,401.1679238769531,945.6143005485535,401.54992387695313,945.5283005485535,401.7279238769531C934.6483005485535,423.8299238769531,917.9983005485535,441.4179238769531,894.7403005485535,449.8237238769531C886.8663005485535,452.6697238769531,856.1183005485534,456.4057238769531,832.9263005485534,456.4057238769531L832.9283005485535,456.3997238769531ZM532.4220005485535,415.3539238769531C532.0600005485535,415.5660238769531,531.6820005485534,415.93392387695314,531.2539005485535,416.0079238769531C527.2660005485535,416.69792387695315,488.17000054855345,399.72992387695314,484.5759005485535,398.15792387695313C473.0559005485535,393.12392387695314,456.0519005485535,378.6279238769531,444.74191054855345,358.60992387695313C442.5639005485535,354.7579238769531,440.26391054855344,350.9839438769531,438.8239135485535,346.76995387695314C435.0899005485535,335.8399638769531,459.8279005485535,368.9139238769531,498.0279005485535,380.0799238769531C508.17790054855345,383.0459238769531,505.60790054855346,393.2139238769531,530.4959005485534,412.68192387695314C531.1319005485534,413.1799238769531,531.7419005485534,413.7239238769531,532.2879005485535,414.3199238769531C532.4579005485534,414.5079238769531,532.3759005485534,414.9279238769531,532.4220005485535,415.3539238769531Z"></path></g></g><g><path style="mix-blend-mode:passthrough" fill-opacity="1" fill="#000E3F" d="M926.7176037712097,285.28832543945316C897.6396037712097,271.00032543945315,863.4616037712096,241.77232543945314,841.1776037712098,219.18002543945312C834.4316037712097,212.3440254394531,827.8356037712097,204.79792543945314,820.8576037712097,196.8100254394531C799.6316037712097,172.53002543945314,777.6856037712098,147.42202543945314,747.6956037712098,137.63197543945313C693.0816037712098,119.80802543945313,644.9316037712097,147.46002543945312,598.3796037712098,174.20802543945314C570.5816037712098,190.1780254394531,541.8336037712097,206.69192543945314,512.5476037712097,212.68992543945313C501.80360377120974,214.88992543945312,490.6316037712097,215.95602543945313,478.8016037712097,217.0779254394531C450.8540037712097,219.73992543945315,421.9540037712097,222.4880254394531,398.4060037712097,241.08832543945311C389.27800377120974,248.3003254394531,382.50200377120973,256.54432543945313,378.0660437712097,265.46632543945316C377.2808537712097,266.1753254394531,376.79824377120974,267.15932543945314,376.7180437712097,268.2143254394531C373.9880337712097,274.50032543945315,372.4060357712097,281.1023254394531,372.0880427712097,287.9343254394531C371.1200557712097,308.78432543945314,381.43603377120974,330.6143254394531,401.1400037712097,349.40232543945314C437.93200377120974,384.49032543945316,492.6896037712097,411.67832543945315,568.5116037712097,432.5143254394531C568.0976037712097,470.48832543945315,560.4736037712097,507.1223254394531,545.9596037712097,538.1883254394531C542.4936037712097,545.6143254394531,537.2136037712097,554.942325439453,531.0976037712097,565.7463254394531C498.0736037712097,624.0923254394531,436.60200377120975,732.6883254394531,512.0416037712097,825.5023254394531C543.2936037712097,863.9583254394531,589.3216037712098,885.2203254394532,638.9996037712096,885.2203254394532C648.6556037712097,885.2203254394532,658.4556037712098,884.4183254394532,668.3036037712097,882.7803254394531C731.0156037712097,872.3523254394531,781.2096037712097,831.5003254394531,802.5776037712097,773.5003254394531C827.3396037712098,706.2843254394531,819.8496037712098,631.2463254394531,809.2596037712096,566.7063254394532C803.8076037712096,533.5003254394531,803.0636037712097,497.45032543945314,806.8616037712097,460.0283254394531C809.3716037712097,460.07032543945314,812.0116037712097,460.1363254394531,814.9216037712097,460.22232543945313C820.2936037712097,460.3763254394531,826.3716037712097,460.55632543945313,833.1136037712097,460.55632543945313C852.5116037712097,460.55632543945313,877.3856037712097,459.08432543945315,906.6186037712097,451.4303254394531C939.7746037712097,442.7403254394531,983.5156037712097,420.3583254394531,997.6606037712097,385.88432543945316C1012.5576037712098,349.5743254394531,988.6906037712097,315.7283254394531,926.7176037712097,285.28832543945316ZM403.6459037712097,247.72632543945312C425.23790377120974,230.66802543945312,452.8759037712097,228.04002543945313,479.60160377120974,225.49802543945313C491.1336037712097,224.40202543945313,503.0556037712097,223.26802543945314,514.2436037712097,220.97402543945313C544.8656037712097,214.70402543945312,574.2136037712097,197.84202543945312,602.5936037712097,181.53802543945312C649.6056037712096,154.52802543945313,694.0116037712097,128.99998543945313,745.0696037712097,145.67202543945314C772.8496037712098,154.7380254394531,794.0156037712097,178.95602543945313,814.4856037712098,202.37602543945314C821.5536037712097,210.46192543945313,828.2336037712098,218.1019254394531,835.1556037712097,225.1180254394531C846.2076037712097,236.32032543945314,885.1976037712097,274.3103254394531,922.9856037712098,292.87832543945314C966.5736037712097,314.28432543945314,989.7596037712098,336.1743254394531,993.0816037712098,359.2523254394531C964.3756037712097,352.4703254394531,935.9556037712097,361.6623254394531,911.4336037712097,370.96032543945313C890.1736037712097,379.0163254394531,866.5656037712097,382.1803254394531,843.0916037712097,380.0943254394531C827.2716037712097,378.6943254394531,813.1336037712097,373.74632543945313,798.1676037712098,368.50832543945313C793.5916037712097,366.90832543945317,788.9856037712098,365.29832543945315,784.2896037712097,363.7783254394531C735.2196037712097,347.8643254394531,688.7416037712097,342.72632543945315,646.1376037712098,348.4883254394531C637.6836037712097,349.6323254394531,629.3196037712097,351.2283254394531,621.2776037712097,353.2323254394531C566.9796037712097,366.7923254394531,538.0316037712097,367.3023254394531,499.32760377120974,335.3263254394531C495.0696037712097,331.79332543945316,490.8286037712097,328.2393254394531,486.6056037712097,324.66432543945314C457.0200037712097,299.71032543945313,426.4260037712097,273.9103254394531,388.0820037712097,264.80632543945313L388.0320037712097,264.79432543945313C391.8300037712097,258.70032543945314,396.99200377120974,252.98432543945313,403.6459037712097,247.72632543945312ZM380.53595377120973,288.3263254394531C380.7905837712097,282.91332543945316,381.96820377120974,277.5843254394531,384.0179037712097,272.56832543945313C384.72590377120974,272.7203254394531,385.4339037712097,272.87032543945315,386.1339037712097,273.03432543945314C422.5139037712097,281.6723254394531,452.3259037712097,306.8143254394531,481.1556037712097,331.12832543945314C485.39960377120974,334.72232543945313,489.66360377120975,338.29332543945316,493.94560377120973,341.84232543945313C517.8216037712098,361.57232543945315,538.6176037712097,369.6723254394531,562.7536037712098,370.32232543945315C566.2396037712097,387.91832543945316,568.1636037712098,405.7883254394531,568.5036037712098,423.72432543945314C495.2476037712097,403.3503254394531,442.3639037712097,377.03432543945314,406.9720037712097,343.28432543945314C389.0700037712097,326.21232543945314,379.6799937712097,306.6943254394531,380.53595377120973,288.3263254394531ZM794.6396037712097,770.5843254394531C774.3376037712097,825.6943254394531,726.5896037712098,864.5203254394531,666.9116037712097,874.4443254394531C609.4196037712097,883.9863254394531,553.9836037712097,863.7083254394531,518.6016037712097,820.1763254394531C446.7979037712097,731.8363254394532,504.1756037712097,630.4783254394531,538.4536037712097,569.9183254394532C544.6596037712097,558.9603254394531,550.0156037712097,549.4963254394531,553.6236037712097,541.7743254394532C576.5376037712097,492.71432543945315,582.9176037712098,430.3843254394531,571.3396037712097,370.25032543945315C586.6436037712097,369.6143254394531,603.4576037712097,366.40232543945314,623.3296037712097,361.44232543945316C631.2216037712097,359.4823254394531,639.2156037712098,357.95632543945317,647.2736037712098,356.87032543945315C688.6096037712098,351.2963254394531,733.8376037712097,356.31832543945313,781.6876037712098,371.82232543945315C786.3196037712097,373.3283254394531,790.8616037712097,374.9163254394531,795.3796037712098,376.49632543945313C800.9016037712097,378.42832543945315,806.4956037712097,380.38432543945316,812.2136037712097,382.15432543945315C795.5896037712098,447.48832543945315,791.6636037712096,511.72632543945315,800.9116037712097,568.0783254394531C811.3256037712097,631.5303254394531,818.7216037712097,705.2103254394531,794.6396037712097,770.5843254394531ZM904.4716037712097,443.2523254394531C866.2516037712097,453.2643254394531,835.5176037712097,452.3703254394531,815.1676037712098,451.77432543945315C812.7056037712098,451.7013254394531,810.2426037712097,451.64032543945314,807.7796037712097,451.59232543945313C810.4056037712097,429.56032543945315,814.5996037712098,407.09432543945314,820.3436037712097,384.4783254394531C827.4276037712098,386.3583254394531,834.7196037712097,387.8443254394531,842.3456037712097,388.52032543945313C847.2776037712097,388.96032543945313,852.2156037712098,389.1743254394531,857.1436037712097,389.1743254394531C876.9056037712097,389.1743254394531,896.4636037712097,385.6803254394531,914.4296037712097,378.87032543945315C938.3936037712098,369.78832543945316,966.1756037712097,360.74632543945313,993.2936037712097,368.00832543945313C992.9356037712097,373.0523254394531,991.7666037712097,378.0073254394531,989.8316037712098,382.6803254394531C976.8676037712097,414.27432543945315,935.7456037712097,435.05632543945313,904.4716037712097,443.2523254394531Z"></path></g><g><path style="mix-blend-mode:passthrough" fill-opacity="1" fill="#FFFFFF" d="M391.9400766716003,777.9536867675781C390.25607667160034,806.7336867675781,383.8120766716004,835.2896867675781,361.5380766716004,853.5176867675782L361.49607667160035,853.5176867675782C361.2140766716003,853.7636867675781,360.92707667160033,854.0026867675781,360.6340766716004,854.235686767578C346.2240766716003,865.629686767578,330.2520766716003,873.5936867675781,312.35207667160034,877.6576867675781C306.1320766716003,879.0756867675782,299.8700766716004,880.4096867675781,293.42407667160035,880.3476867675781C290.6340766716003,880.3276867675781,287.9640766716003,881.2916867675781,285.13007667160036,881.1896867675781C214.73797667160034,878.7476867675781,183.57795667160033,832.6196867675781,189.63397667160035,789.2216867675781C190.10597667160033,785.7316867675781,188.93597667160034,769.4116867675781,194.33597667160035,743.3216867675781C200.75797667160035,712.3116867675781,201.96597667160034,685.3836867675782,194.10997667160035,654.1876867675782C183.35195667160033,611.5296867675781,166.45995667160034,605.9056867675781,178.40595667160034,604.9196867675781C190.09997667160033,603.9156867675781,179.76995667160034,603.8716867675781,202.44397667160035,603.8716867675781L202.44397667160035,604.0156867675781C241.41597667160033,604.0156867675781,272.7939766716004,594.2976867675782,306.9740766716003,560.7217067675781C309.4780766716003,558.2577207675781,310.46207667160036,558.2377017675781,313.2960766716003,560.5777267675782C366.9160766716003,604.5096867675782,396.1080766716003,706.8016867675781,391.9400766716003,777.9536867675781Z"></path></g><g><path style="mix-blend-mode:passthrough" fill-opacity="1" fill="#FFCF00" d="M398.9180766716003,559.5179941894531C395.69807667160035,564.6179941894532,368.60607667160036,584.6159941894531,363.9080766716003,587.0879941894532C362.73007667160033,587.7079941894531,361.17207667160034,586.6859941894531,361.46207667160036,585.1039941894531C361.86407667160034,582.9079941894531,366.02407667160037,573.5239941894531,365.14807667160034,561.4739941894532C362.33007667160035,522.7559941894531,349.21407667160037,524.5659941894531,356.91607667160036,519.0859941894531C373.30607667160035,507.4279941894531,385.25607667160034,500.51799418945313,403.16407667160036,491.18399418945313C407.87807667160035,488.7279941894531,408.99407667160034,489.5859981894531,409.8240766716003,495.46600418945314C412.08007667160035,511.42199418945313,410.73207667160034,540.8099941894532,398.9180766716003,559.5179941894531ZM94.37397667160033,674.5422941894531C77.14397667160034,668.1942941894531,69.71797667160034,662.6982941894531,60.38999667160034,655.1622941894532C59.51399667160034,654.4542941894531,58.78399667160034,653.5182941894532,58.13599367160034,652.5822941894531C57.013991671600344,650.9622941894531,57.19199367160034,649.9562941894532,58.925996671600345,648.9482941894531C84.46997667160034,634.0902941894531,92.33197667160034,631.5922941894531,97.73597667160034,628.7322941894531C100.29797667160034,627.3762941894531,102.19197667160034,627.9582941894531,104.20997667160034,630.1102941894532C136.94397667160035,665.0262941894531,178.80407667160034,668.8502941894532,180.03007667160034,669.5022941894531C180.85607667160036,669.9402941894531,180.99007667160035,671.2662941894531,180.02207667160036,671.8582941894531C177.70407667160035,673.2762941894531,143.23797667160034,681.7922941894531,143.02797667160036,681.8442941894532C139.96997667160034,682.6182941894531,116.49997667160034,682.6922941894532,94.37397667160033,674.5422941894531Z"></path></g><g><path style="mix-blend-mode:passthrough" fill-opacity="1" fill="#FD8A02" d="M185.2480139274597,670.3694992675781C182.26401392745973,669.2794992675781,150.49401392745972,668.7914992675782,115.50601392745972,641.9004992675781C112.89401392745971,639.8924992675782,104.15201392745972,631.9044992675781,102.64801392745971,629.1184992675782C101.69401392745972,627.3524992675782,103.26801392745972,626.406499267578,105.06001392745972,625.6484992675781C125.34601392745972,617.0664992675781,147.94601392745972,609.9144992675781,169.3900139274597,606.1784992675781C173.1000139274597,605.5324992675781,173.80401392745972,605.8484992675781,175.77601392745973,609.1104992675781C187.40401392745972,628.3204992675782,192.94801392745973,645.0044992675781,196.79401392745973,663.4124992675781C197.26401392745973,665.6624992675781,197.1400139274597,666.9384992675781,194.18401392745972,667.7084992675782C191.18001392745973,668.4924992675781,188.22801392745973,669.4744992675782,185.2480139274597,670.3694992675781ZM356.5380139274597,592.1664992675782C347.8000139274597,597.3174992675781,346.3940139274597,600.2604992675781,343.59401392745974,596.4324992675781C337.54401392745973,588.1614992675782,331.9060139274597,578.3954992675781,318.7400139274597,566.0539992675781C311.4060139274597,559.1799992675781,308.6220139274597,559.4499992675782,311.8020139274597,555.8939992675781C313.6140139274597,553.8679992675782,329.9900139274597,539.4119992675782,337.0240139274597,533.9840992675781C353.8820139274597,520.9740992675781,353.5880139274597,519.9480992675781,356.7200139274597,525.6179992675782C369.6120139274597,548.9740992675781,367.0520139274597,585.9684992675782,356.5380139274597,592.1664992675782ZM28.710013927459716,689.1304992675781C24.550003927459716,688.0384992675781,20.678003927459716,686.3044992675782,16.942003927459716,684.2374992675782C14.504005927459717,682.8894992675781,14.278005927459716,681.5994992675782,16.382003927459717,679.6594992675781C28.580013927459717,668.4144992675781,39.15801392745972,661.5754992675782,51.35001392745972,653.483499267578C56.26001392745972,650.2234992675781,57.078013927459715,650.9774992675782,59.12801392745972,652.9114992675782C78.44001392745972,671.1374992675782,110.76001392745971,681.6294992675781,130.06001392745972,681.8954992675781C132.73201392745972,681.9314992675781,133.3140139274597,684.2114992675781,129.3380139274597,684.9414992675781C89.57401392745972,692.2354992675781,86.71401392745972,691.8494992675782,65.68601392745973,692.9474992675781C56.61601392745972,693.4214992675782,40.846013927459715,692.3154992675782,28.710013927459716,689.1304992675781ZM461.2260139274597,478.0499892675781C459.89201392745974,503.6799992675781,410.0640139274597,552.3639992675782,403.8480139274597,555.5959992675781C402.9960139274597,556.0379992675781,401.7280139274597,555.0519992675781,401.90401392745974,554.0699992675782C402.78201392745973,549.1139992675782,415.16601392745974,528.9339992675781,408.9180139274597,493.60199926757815C408.2020139274597,489.55199926757814,408.4960139274597,488.6919992675781,412.1960139274597,487.05399926757815C423.89001392745973,481.8760092675781,442.2560139274597,474.5240192675781,456.51001392745974,472.96801726757815C460.4640139274597,472.53402726757815,461.2040139274597,473.1800232675781,461.2260139274597,478.0499892675781Z"></path></g><g><path style="mix-blend-mode:passthrough" fill-opacity="1" fill="#018100" d="M141.31630030441283,612.9978117675781C95.93200030441284,626.1918117675781,51.72400030441284,649.6958117675781,16.14200030441284,680.8478117675782C14.658000304412841,682.1478117675781,13.625990304412841,682.2338117675781,12.199990304412841,681.0398117675782C7.755990304412842,677.3198117675781,4.893990304412842,672.6638117675782,4.129992304412842,666.8418117675781C2.775990304412842,656.5258117675781,6.843990304412841,638.1698117675782,20.10600030441284,620.9438117675782C45.69000030441284,587.7198117675781,81.91200030441284,583.0098117675782,101.49000030441285,521.3498117675781C121.09430030441284,459.6099117675781,179.34430030441285,396.9659117675781,249.58630030441284,420.89593176757813C272.66230030441284,428.75591176757814,275.39230030441286,436.3119117675781,307.46630030441287,442.42391176757815C350.66030030441283,450.6519117675781,366.41430030441285,440.30191176757813,393.46030030441284,440.3099117675781C418.0743003044128,440.31791176757815,449.53230030441284,446.6899117675781,459.99830030441285,468.9759117675781C463.43830030441285,476.2999117675781,455.5863003044128,468.52991176757814,414.3503003044128,486.60191176757814C343.58230030441285,517.6158117675782,304.7543003044128,567.8938117675781,281.40030030441284,582.7118117675782C238.82630030441285,609.7278117675781,187.64830030441283,599.5298117675782,141.31630030441283,612.9978117675781Z"></path></g><g style="opacity:0.15000000596046448;"><g><path style="mix-blend-mode:passthrough" fill-opacity="1" fill="#000E3F" d="M16.574004497528076,684.0361899414063C14.674003497528076,682.9761899414062,14.472002497528075,681.6261899414062,15.994004497528076,680.0581899414062C21.200004497528077,674.6921899414062,24.732004497528074,672.8341899414063,28.330004497528076,669.5381899414062C30.552004497528074,667.5021899414062,32.972004497528076,666.4981899414063,35.94000449752808,666.9901899414062C42.274004497528075,668.0361899414063,48.66200449752807,668.0561899414063,55.052004497528074,668.1061899414062C56.972004497528076,668.1221899414063,60.82200449752808,669.7461899414062,67.24400449752807,668.4781899414063C71.31400449752807,667.6741899414062,75.42600449752808,668.1821899414062,79.51600449752807,668.0801899414063C80.58800449752808,668.0541899414063,81.73600449752807,668.6161899414062,82.75200449752808,669.1081899414062C99.73200449752808,677.3561899414062,119.05800449752807,681.6021899414062,127.90600449752807,681.8461899414062C129.90200449752808,681.9001899414062,132.24000449752808,681.6821899414062,132.16800449752807,683.1381899414063C132.11600449752808,684.2021899414062,130.07600449752806,684.8181899414062,129.0360044975281,685.0061899414063C119.20000449752807,686.7761899414063,98.80600449752808,691.1621899414063,76.56600449752807,692.2901899414062C56.64800449752808,693.2981899414062,33.930004497528074,693.7081899414063,16.574004497528076,684.0361899414063ZM457.53000449752807,491.0939899414062C445.25200449752805,518.0059899414063,411.5240044975281,550.6059899414063,404.4000044975281,555.3879899414062C403.0480044975281,556.2959899414062,401.5200044975281,555.0059899414063,401.9140044975281,553.6819899414063C403.0840044975281,549.7499899414063,408.49400449752807,540.1099899414063,409.74000449752805,525.4239899414063C410.7700044975281,513.2779899414063,422.6280044975281,508.75798994140627,430.95800449752807,482.72597994140625C431.81600449752807,480.0459899414063,433.32800449752807,478.65197994140624,435.86000449752805,477.83596994140623C442.57400449752805,475.66997994140627,449.4260044975281,474.11797994140625,456.3800044975281,472.98397794140624C460.6440044975281,472.2899779414063,461.06400449752806,473.7139889414062,461.1980044975281,475.94997994140624C461.2280044975281,476.4379899414063,459.5320044975281,486.70598994140624,457.53000449752807,491.0939899414062ZM190.73000449752809,649.1981899414062C192.39800449752806,649.1781899414062,193.60400449752808,649.7821899414063,194.00200449752808,651.5061899414063C194.9980044975281,655.8081899414062,196.03600449752807,660.1041899414063,196.92800449752806,664.4281899414062C197.51200449752807,667.2641899414062,196.03000449752807,667.2141899414063,186.62600449752807,669.9381899414062C186.0100044975281,670.1161899414062,185.31600449752807,670.2401899414062,184.69200449752807,670.1501899414062C178.39000449752808,669.2401899414062,172.02400449752807,668.6301899414062,165.88000449752806,666.8901899414062C163.71200449752808,666.2761899414063,141.84000449752807,659.6841899414062,142.56800449752808,657.6041899414063C142.71000449752808,657.1981899414062,143.13200449752807,656.7401899414062,143.5340044975281,656.5961899414062C160.53000449752807,650.5261899414063,172.36400449752807,649.4141899414062,190.73000449752809,649.1981899414062ZM357.86000449752805,591.3041899414062C354.8440044975281,593.2661899414063,351.8800044975281,595.3161899414063,348.79200449752807,597.1561899414063C344.8780044975281,599.4881899414063,344.9980044975281,598.6561899414063,336.9600044975281,586.8901899414062C335.5100044975281,584.7661899414063,335.4960044975281,584.1081899414063,336.90800449752805,582.0381899414062C342.78800449752805,573.4141899414062,355.4140044975281,563.1699899414062,362.6800044975281,558.9379899414063C364.28800449752805,558.0020899414062,365.2740044975281,558.4099899414063,365.36200449752806,560.1379899414062C366.3100044975281,578.4101899414062,360.3200044975281,589.7041899414063,357.86000449752805,591.3041899414062Z"></path></g></g><g style="opacity:0.20000000298023224;"><g><path style="mix-blend-mode:passthrough" fill-opacity="1" fill="#000E3F" d="M361.49629078292844,853.5176213378907C295.0882907829285,910.6376213378906,177.91599078292847,873.1916213378906,189.63400178292846,789.2236213378906C190.10600078292848,785.7336213378906,188.93600378292848,769.4136213378906,194.33600078292847,743.3236213378906C197.82600078292847,726.4696213378907,199.71399078292848,711.0956213378906,199.56999078292847,695.8836213378906C225.57999078292846,747.8196213378906,197.90799078292847,817.9236213378906,281.06799078292846,851.6116213378906C313.91429078292845,864.9316213378906,344.72629078292846,858.4856213378906,361.49629078292844,853.5176213378907ZM352.30429078292843,674.5178213378906C352.8622907829284,677.9318213378906,353.5562907829285,687.8356213378906,347.3642907829285,686.8536213378907C343.89029078292845,686.3016213378907,342.8362907829285,680.2238213378906,341.9082907829285,677.5559213378906C336.99629078292844,663.4119213378906,334.02629078292847,649.2498213378906,327.61829078292845,635.5839213378906C313.3862907829285,605.2479213378906,300.6342907829285,592.3578813378906,298.84429078292845,585.6158713378907C298.18829078292845,583.1438903378906,302.08429078292846,581.5138813378907,304.9322907829285,583.8878513378907C332.9842907829285,607.2678213378906,346.42829078292846,638.5018213378906,352.30429078292843,674.5178213378906Z"></path></g></g><g><path style="mix-blend-mode:passthrough" fill-opacity="1" fill="#FC09B2" d="M245.12400665206908,763.0339430175782C237.44200065206908,760.8658430175781,235.0480066520691,755.0939430175781,237.6680166520691,750.3418430175781C245.3700066520691,736.3758830175781,276.1900566520691,737.6398630175781,272.8599566520691,752.2839430175782C271.2419566520691,759.3999430175782,257.3700566520691,766.4899430175781,245.12400665206908,763.0339430175782ZM355.1160566520691,746.9358430175781C361.85405665206906,742.6578430175781,362.4940566520691,736.4399130175781,358.6220566520691,732.6398630175781C347.2420566520691,721.4658530175781,318.0740566520691,731.5078430175781,325.4620566520691,744.5838430175781C329.0520566520691,750.9418430175781,344.3740566520691,753.7579430175781,355.1160566520691,746.9358430175781Z"></path></g><g><path style="mix-blend-mode:passthrough" fill-opacity="1" fill="#91D728" d="M224.6423154411316,472.2379348144531C219.74231544113158,498.02003481445314,156.4680154411316,516.9059348144531,156.4720154411316,481.0579348144531C156.4780154411316,446.7999848144531,231.6043154411316,435.5380348144531,224.6423154411316,472.2379348144531ZM405.5363154411316,469.2319348144531C402.8423154411316,486.83393481445313,360.3963154411316,501.1839348144531,359.5263154411316,476.8759348144531C358.6923154411316,453.6459648144531,409.3623154411316,444.17797481445314,405.5363154411316,469.2319348144531ZM255.3903154411316,536.7540348144531C253.0663154411316,554.4104348144531,210.93231544113158,569.6464348144532,209.5503154411316,545.3600348144531C208.23031544113158,522.1540348144531,258.6883154411316,511.6220348144531,255.3903154411316,536.7540348144531ZM108.78801544113159,598.7244348144532C106.1400154411316,616.3344348144531,63.734016441131594,630.7944348144531,62.79801514113159,606.4884348144531C61.904014441131594,583.2594348144531,112.54801544113158,573.6574348144532,108.78801544113159,598.7244348144532ZM161.5360154411316,565.2744348144531C155.0100154411316,570.4504348144532,147.6940154411316,572.5864348144531,139.7480154411316,572.4924348144531C120.0520154411316,572.2644348144531,109.03201544113159,553.1824348144531,125.4640154411316,536.1279348144532C134.87401544113158,526.3599348144531,154.2120154411316,521.3519348144531,166.7623154411316,531.4879348144532C176.6323154411316,539.4599348144532,175.6383154411316,555.3004348144532,161.5360154411316,565.2744348144531ZM308.3683154411316,502.29793481445313C301.9963154411316,507.66203481445314,294.7463154411316,510.0099348144531,286.8003154411316,510.1499348144531C267.1063154411316,510.4959348144531,255.53431544113158,491.7459348144531,271.46031544113157,474.21793481445314C280.5823154411316,464.1779348144531,299.7643154411316,458.60995481445315,312.6043154411316,468.37393481445315C322.7043154411316,476.0539348144531,322.1723154411316,491.9159348144531,308.3683154411316,502.29793481445313Z"></path></g><g style="opacity:0.25;"><path style="mix-blend-mode:passthrough" fill-opacity="1" fill="#000E3F" d="M182.16442115402222,604.7801652832031C140.11042115402222,608.3701652832032,66.65202115402221,635.7881652832032,16.538021154022218,680.4961652832031C14.596021154022218,682.2281652832031,13.636001154022217,682.3421652832031,11.848001154022217,680.7541652832031C7.538001154022217,676.9221652832032,4.592006154022217,672.3121652832031,4.162006154022217,666.3941652832032C2.244001154022217,640.0181652832032,22.970021154022216,612.4121652832032,44.146021154022215,597.1801652832031C75.29602115402221,574.7761652832031,90.31002115402222,553.2120652832032,98.44402115402222,530.2780652832031C101.98602115402221,520.2960652832031,110.54642115402221,489.18406528320315,131.54442115402222,463.1341252832031C132.53242115402222,461.90811528320313,133.4524211540222,459.57611128320315,134.9584211540222,460.0181274832031C137.08242115402223,460.6421202832031,136.01042115402223,463.13012528320314,136.00442115402222,464.7621152832031C135.8764211540222,502.7100652832031,89.12802115402222,568.2441652832031,111.82842115402222,593.9181652832032C117.70442115402221,600.5621652832031,129.49642115402222,598.1621652832032,137.82442115402222,595.1441652832032C167.59242115402222,584.3521652832031,209.9704211540222,548.1121652832031,265.18442115402223,564.4821652832031C289.8384211540222,571.7921652832031,287.2624211540222,569.6621652832031,292.96042115402224,570.5301652832031C293.74642115402224,570.6481652832031,294.70842115402223,570.5941652832031,294.8824211540222,571.6501652832031C294.99642115402224,572.3381652832031,294.53042115402224,572.8621652832031,294.0024211540222,573.2921652832031C251.39642115402222,607.8541652832031,221.36042115402222,601.4361652832031,182.16442115402222,604.7801652832031Z"></path></g><g style="opacity:0.5;"><path style="mix-blend-mode:passthrough" fill-opacity="1" fill="#FFFFFF" d="M208.43600768722536,441.5980210644531C195.72599768722534,439.66803106445315,200.33000168722535,431.2480210644531,217.93001768722533,432.64202906445314C247.16201768722533,434.96002106445314,273.6480176872253,457.5819910644531,311.38161768722534,463.2219910644531C350.84561768722534,469.11999106445313,371.9716176872254,459.66799106445313,374.0276176872253,459.4479910644531C375.18961768722534,459.32199106445313,376.50961768722533,461.07399106445314,375.52961768722537,462.27599106445314C374.04761768722534,464.0899910644531,372.47761768722535,464.9139910644531,368.1496176872254,466.9599910644531C357.44161768722535,472.0219910644531,346.4616176872253,476.40999106445315,334.6276176872253,477.84799106445314C271.22201768722533,485.5439910644531,244.06001768722535,447.0079910644531,208.43600768722536,441.5980210644531Z"></path></g><g style="opacity:0.5;"><g><path style="mix-blend-mode:passthrough" fill-opacity="1" fill="#FD8A02" d="M135.84803238449098,682.3956691894531C120.11403238449097,682.0156691894531,107.20603238449097,679.2236691894532,94.66803238449097,674.6476691894532C92.14403238449097,673.7256691894531,82.98400238449096,670.1016691894531,79.91400098449097,668.0356691894531C79.85200448449096,667.9936691894532,80.00399738449097,667.4316691894531,80.19200038449097,667.2736691894531C80.45223938449097,667.0766691894531,80.77346038449096,666.9756691894531,81.10000238449096,666.9896691894531C86.36200238449096,667.3076691894531,91.54603238449097,666.3136691894531,96.76003238449097,665.9476691894531C110.00403238449097,665.0156691894531,123.07403238449098,662.8436691894531,135.82603238449096,659.0216691894532C138.73603238449095,658.1496691894531,140.62003238449097,656.6756691894532,144.24603238449097,658.5176691894532C152.24403238449096,662.5816691894531,165.84003238449097,667.257669189453,178.874032384491,669.1136691894532C179.71803238449098,669.2336691894532,180.57593238449095,669.4696691894532,180.70793238449096,670.4296691894531C180.94993238449098,672.1776691894531,181.00793238449097,672.2136691894532,148.55603238449095,680.4736691894532C143.57603238449096,681.7396691894531,138.63803238449097,682.6216691894531,135.84803238449098,682.3956691894531ZM402.711932384491,553.0339691894532C399.96993238449096,558.9559691894531,395.77993238449096,563.6619691894531,390.595932384491,567.5719691894532C381.62593238449097,574.3419691894532,375.595932384491,579.5299691894531,365.735932384491,585.9859691894532C364.65993238449096,586.6899691894531,363.57393238449094,587.8859691894531,362.223932384491,586.9659691894531C360.009932384491,585.4559691894531,362.64793238449096,584.6959691894531,364.629932384491,571.4519691894532C366.367932384491,559.8379691894531,363.305932384491,557.4759691894532,367.16193238449097,555.8260691894532C387.65793238449095,547.0579691894532,401.75193238449094,528.9820291894531,408.31193238449094,522.2940371894531C408.785932384491,521.8100280894531,409.473932384491,521.5260311894531,410.059932384491,521.9920351894531C412.26793238449096,523.7560091894532,407.43593238449097,542.8320691894531,402.711932384491,553.0339691894532Z"></path></g></g><g><path style="mix-blend-mode:passthrough" fill-opacity="1" fill="#000E3F" d="M465.64828834152223,471.2381586425781C465.4152883415222,470.10905864257813,464.7282883415222,469.1254586425781,463.7482883415222,468.5181586425781C461.97028834152223,462.5301586425781,458.12628834152224,457.2841586425781,452.2162883415222,452.90615864257813C443.11228834152223,446.16015864257815,432.3842883415222,441.4161586425781,420.3302883415222,438.8061586425781C402.0742883415222,434.85815864257813,384.0442883415222,436.8801586425781,366.6102883415222,438.8401586425781C353.7262883415222,440.2941586425781,340.41028834152223,441.7841586425781,327.34028834152224,440.7701586425781C297.4202883415222,438.4320586425781,280.3962883415222,430.5660586425781,265.37628834152224,423.6281586425781C252.32428834152222,417.5960986425781,239.99628834152222,411.9001156425781,222.19428834152222,411.3460998425781C205.6962883415222,410.81008864257814,188.7682883415222,414.84408864257813,173.27228834152223,422.9580586425781C144.4042883415222,438.06805864257814,122.49028834152222,462.57005864257815,106.28828834152222,497.87015864257813C103.32628834152221,504.3321586425781,101.14628834152222,510.73215864257816,98.83598834152221,517.5118586425781C92.92398834152222,534.8858586425781,86.81198834152222,552.849858642578,66.42398834152222,573.1118586425781C60.153988341522215,579.3438586425781,53.235988341522216,584.9438586425781,46.549988341522216,590.3618586425781C28.505988341522215,604.9798586425782,9.848028341522216,620.0938586425781,2.070028341522217,648.8078586425781C-4.1399716584777835,671.7338586425781,3.554028341522217,685.6758586425781,26.285988341522216,692.6778586425781C36.501988341522214,695.8278586425781,48.55798834152222,697.1158586425781,61.491988341522216,697.1158586425781C108.73228834152222,697.1118586425781,167.55828834152223,679.9138586425781,190.14628834152222,673.311858642578L193.54628834152223,672.3218586425781C193.7862883415222,674.0458586425782,194.06428834152223,675.7478586425782,194.25828834152222,677.503858642578C195.1322883415222,685.3918586425782,195.55028834152222,693.109858642578,195.5002883415222,700.4358586425781C195.3982883415222,714.8918586425782,192.99228834152223,728.7298586425782,190.44428834152222,743.3778586425781C189.62228834152222,748.1038586425782,188.80028834152222,752.8378586425781,188.05628834152222,757.5938586425782C181.8162883415222,797.5898586425781,179.49628834152222,835.9038586425781,219.1442883415222,865.0978586425781C238.3882883415222,879.2698586425781,261.2182883415222,885.4478586425781,283.8342883415222,885.4478586425781C320.6422883415222,885.4478586425781,356.87628834152224,869.0758586425782,376.12628834152224,844.1358586425781C395.5842883415222,818.9238586425781,401.66228834152224,772.8998586425781,392.7982883415222,717.8618586425781C385.7162883415222,673.8638586425782,370.5322883415222,631.6838586425781,351.6102883415222,600.0898586425781C392.56428834152223,573.8578586425781,425.0162883415222,545.0698586425781,448.0482883415222,514.4678586425781C460.14828834152223,498.3940586425781,465.4622883415222,485.6820586425781,464.78028834152224,474.68605864257813C465.5262883415222,473.7400586425781,465.91228834152224,472.5160586425781,465.64828834152223,471.2381586425781ZM10.229988341522217,651.0178586425782C17.293988341522216,624.9418586425782,34.089988341522215,611.3378586425781,51.87198834152222,596.9338586425781C58.72198834152222,591.3858586425781,65.80798834152222,585.6458586425781,72.38398834152221,579.1098586425782C94.17598834152221,557.4478586425781,100.90828834152222,537.6798586425781,106.84228834152222,520.2358586425781C109.08028834152222,513.6658586425781,111.19028834152222,507.4641586425781,113.97428834152221,501.3981586425781C129.36628834152222,467.8661586425781,150.0422883415222,444.65815864257814,177.18828834152222,430.4501586425781C191.4042883415222,423.0101586425781,206.9162883415222,419.34212864257813,221.9282883415222,419.80013864257813C238.0062883415222,420.30413864257815,249.04428834152222,425.4021586425781,261.82628834152223,431.3061586425781C277.4922883415222,438.5441586425781,295.2482883415222,446.7461586425781,326.6762883415222,449.2021586425781C340.5582883415222,450.28615864257813,354.2762883415222,448.74015864257814,367.55428834152224,447.2461586425781C385.0742883415222,445.2721586425781,401.62628834152224,443.4161586425781,418.54228834152224,447.07415864257814C429.4142883415222,449.4281586425781,439.0462883415222,453.6761586425781,447.1782883415222,459.7021586425781C450.9622883415222,462.5061586425781,453.5342883415222,465.60815864257813,454.99628834152224,469.08615864257814C448.93628834152224,470.2941586425781,442.7022883415222,471.56215864257814,436.60028834152223,473.46815864257815C418.0862883415222,479.2341586425781,399.2582883415222,487.9261586425781,379.0502883415222,500.02415864257813C360.7262883415222,510.99215864257815,342.9442883415222,523.8098586425781,324.68428834152223,539.2038586425781C318.0322883415222,544.8078586425781,311.63628834152223,550.7998586425781,305.4442883415222,556.5918586425781C301.88128834152224,559.9488586425781,298.2882883415222,563.2738586425781,294.6662883415222,566.5658586425782C277.9302883415222,581.7058586425782,259.1902883415222,591.5318586425781,237.3802883415222,596.6098586425782C223.2682883415222,599.8958586425781,208.6322883415222,599.8878586425781,196.04028834152223,599.6178586425781C180.8222883415222,599.3058586425782,166.31228834152222,602.3438586425781,154.03228834152222,605.3618586425781C111.20628834152221,615.8958586425781,70.45998834152222,634.7258586425781,32.931988341522214,661.3318586425781C27.789988341522218,664.9758586425781,22.86598834152222,668.9858586425781,18.103988341522218,672.8638586425782C16.61598834152222,674.0718586425781,15.123988341522217,675.2748586425781,13.627988341522217,676.4718586425781C7.972028341522217,670.6978586425781,7.0780283415222165,662.6578586425782,10.229988341522217,651.0178586425782ZM187.77028834152222,665.1938586425781C112.20228834152222,687.2898586425781,58.705988341522215,693.8178586425781,28.771988341522217,684.5978586425781C25.779988341522216,683.6758586425781,23.173988341522218,682.6418586425782,20.867988341522217,681.4958586425781C21.723988341522215,680.801858642578,22.587988341522216,680.1158586425781,23.441988341522215,679.4198586425781C28.097988341522218,675.6278586425781,32.91198834152222,671.7098586425782,37.821988341522214,668.2298586425782C74.48398834152222,642.2418586425781,114.26228834152222,623.8538586425782,156.05228834152223,613.5758586425782C160.71228834152222,612.4298586425781,165.72428834152223,611.2818586425781,170.94828834152221,610.3258586425782C181.43828834152222,626.5678586425781,188.4282883415222,644.2318586425781,192.16428834152222,663.9178586425782C191.06228834152222,664.2318586425781,189.66428834152222,664.6398586425781,187.77028834152222,665.1938586425781ZM369.42428834152224,838.9718586425781C335.0002883415222,883.5758586425782,261.8002883415222,886.0178586425782,224.1542883415222,858.2898586425781C191.54028834152223,834.2758586425781,189.24228834152223,804.8318586425781,196.40828834152222,758.9018586425782C197.1442883415222,754.1898586425782,197.9582883415222,749.5058586425781,198.77028834152222,744.8278586425781C201.26628834152223,730.4838586425781,203.85028834152223,715.6518586425782,203.95028834152222,700.4958586425781C204.00228834152222,692.8338586425782,203.56828834152222,684.7858586425782,202.6622883415222,676.5718586425781C199.9122883415222,651.6518586425782,192.26428834152222,628.9458586425781,180.02628834152222,608.9178586425782C185.2022883415222,608.2858586425781,190.5122883415222,607.9418586425782,195.86028834152222,608.0718586425781C208.9882883415222,608.3618586425781,224.23428834152222,608.3518586425781,239.29428834152222,604.8458586425782C262.22028834152223,599.5118586425781,282.7582883415222,588.7418586425781,300.3422883415222,572.8358586425782C303.6102883415222,569.8798586425781,306.8302883415222,566.8638586425782,310.0502883415222,563.8518586425781C343.1102883415222,587.9858586425781,373.49628834152224,651.2058586425782,384.4442883415222,719.205858642578C392.93628834152224,771.9458586425781,387.4622883415222,815.5978586425781,369.42428834152224,838.9718586425781ZM441.2842883415222,509.38615864257815C418.87428834152223,539.1558586425781,387.1922883415222,567.2418586425781,347.1282883415222,592.9158586425781C337.5262883415222,578.1838586425781,327.10028834152223,566.1938586425781,316.3602883415222,557.9998586425781C320.8662883415222,553.8158586425782,325.4382883415222,549.6278586425781,330.1342883415222,545.6678586425782C348.0402883415222,530.5698586425781,365.4642883415222,518.0118586425781,383.3922883415222,507.28015864257816C403.01828834152224,495.52615864257814,421.2482883415222,487.1061586425781,439.1162883415222,481.53815864257814C444.7302883415222,479.78815864257814,450.42428834152224,478.62015864257813,456.40028834152224,477.43015864257814C456.0462883415222,485.8641586425781,451.0862883415222,496.3661586425781,441.2842883415222,509.38615864257815Z"></path></g><g><path style="mix-blend-mode:passthrough" fill-opacity="1" fill="#000E3F" d="M311.7179511833191,714.8241570800782C309.41005118331907,715.1800570800781,307.8282511833191,717.3404570800781,308.1859511833191,719.6480570800782C309.3239511833191,727.0020570800781,306.3119511833191,735.8700570800781,298.4959511833191,737.8180570800781C295.3459511833191,738.6100570800781,292.34395118331906,738.0280570800782,289.5619511833191,736.1020570800781C285.7399511833191,733.4640570800781,282.89195118331907,728.5260570800781,282.3059511833191,723.5260570800781C282.0294511833191,721.2091570800782,279.9320511833191,719.5516570800781,277.6139511833191,719.8180570800781C275.2953511833191,720.0915570800781,273.63605118331907,722.1910570800782,273.9059511833191,724.5100570800781C274.7799511833191,731.9320570800782,278.9359511833191,739.0381570800781,284.7579511833191,743.0620570800781C288.1739511833191,745.4200570800781,291.9199511833191,746.6200570800781,295.7879511833191,746.6200570800781C297.3599511833191,746.6200570800781,298.95195118331907,746.4200570800781,300.54795118331907,746.0240570800781C313.2259511833191,742.8600570800781,318.2519511833191,729.4080570800782,316.5439511833191,718.3561570800781C316.1880511833191,716.0472570800781,314.0263511833191,714.4651570800781,311.7179511833191,714.8241570800782ZM250.7019811833191,713.2021570800781C244.6279711833191,713.8981570800781,239.54198118331908,720.7981570800781,241.03997718331908,726.3041570800781C241.4919731833191,732.5601570800782,247.8919811833191,736.8401570800781,253.6419511833191,736.1801570800782C260.6939511833191,735.3701570800781,264.7219511833191,728.6981570800781,263.8659511833191,723.1221570800781C262.8159511833191,716.2761570800782,256.8779511833191,712.4961570800781,250.7019811833191,713.2021570800781ZM338.9959511833191,723.6161570800781C344.4144511833191,723.3442570800781,349.6684511833191,716.7641570800781,348.58445118331906,710.4021870800781C347.5324511833191,704.2322070800781,341.5584511833191,699.9281920800781,335.4459511833191,700.8421940800781C329.1540511833191,701.7821970800782,324.7320511833191,707.6501770800782,325.7440511833191,714.3241570800782C326.5999511833191,719.9641570800782,332.7639511833191,725.0141570800781,338.9959511833191,723.6161570800781Z"></path></g><g><path style="mix-blend-mode:passthrough" fill-opacity="1" fill="#FD8A02" d="M305.67372999191286,307.2435051269531C299.60172999191286,328.7215051269531,281.46972999191286,355.0235051269531,260.16972999191285,363.9255051269531C243.05772999191285,371.0795051269531,195.21172999191285,343.3455051269531,186.58572999191284,317.0995051269531C180.98372999191284,300.0539051269531,190.87572999191283,283.2779051269531,207.34572999191283,283.1519051269531C221.01172999191283,283.04790512695314,234.02772999191285,291.95390512695315,243.29972999191284,301.85790512695314C245.90372999191285,304.6399051269531,246.56372999191285,305.86950512695313,247.31772999191284,304.20190512695314C248.82772999191283,300.8599051269531,252.29372999191284,292.58390512695314,255.80372999191283,287.78590512695314C282.5937299919128,251.15790512695312,314.37572999191286,276.46390512695314,305.67372999191286,307.2435051269531ZM101.45202999191284,391.21550512695313C97.10402999191284,406.59150512695317,84.12602999191284,425.41950512695314,68.87802999191284,431.79350512695316C56.62802999191284,436.9135051269531,22.375999991912842,417.0595051269531,16.201999991912842,398.2715051269531C12.19199999191284,386.0695051269531,19.27399999191284,374.0595051269531,31.06402999191284,373.9695051269531C40.84602999191284,373.89350512695313,50.16402999191284,380.2715051269531,56.80202999191284,387.36150512695315C58.66602999191284,389.3535051269531,59.138029991912845,390.2335051269531,59.678029991912844,389.03950512695315C60.75802999191284,386.6475051269531,63.24002999191284,380.72150512695316,65.75202999191285,377.28750512695314C84.93202999191284,351.0655051269531,107.68202999191284,369.1815051269531,101.45202999191284,391.21550512695313ZM154.50572999191283,231.91190512695312C150.15772999191284,247.28790512695312,137.17972999191284,266.1159051269531,121.93172999191285,272.4899051269531C109.68202999191284,277.6099051269531,75.43002999191285,257.7579051269531,69.25602999191284,238.96790512695313C65.24602999191285,226.76590512695313,72.32602999191283,214.75585512695312,84.11802999191285,214.66586512695312C93.90002999191285,214.59185512695313,103.21802999191284,220.96790512695313,109.85602999191285,228.05790512695313C111.72002999191284,230.04990512695312,112.19202999191285,230.92990512695312,112.73202999191284,229.73580512695312C113.81402999191285,227.34390512695313,116.29372999191284,221.41990512695313,118.80572999191284,217.98390512695312C137.98372999191284,191.76190512695314,160.73572999191285,209.87785512695314,154.50572999191283,231.91190512695312Z"></path></g></g></g></svg>