<svg viewBox="0 0 1024 1024" height="1024" width="1024" version="1.1" fill="none" xmlns:xlink="http://www.w3.org/1999/xlink" xmlns="http://www.w3.org/2000/svg"><defs><clipPath id="master_svg0_30_792"><rect rx="0" height="1024" width="1024" y="0" x="0"></rect></clipPath></defs><g clip-path="url(#master_svg0_30_792)"><g><g><path style="mix-blend-mode:passthrough" fill-opacity="1" fill="#FFCF00" d="M655.0459192228317,494.40157012939454C661.7419192228317,517.6035701293945,660.1999192228317,532.7855701293945,677.4239192228317,550.1195701293946C682.6119192228317,555.3415701293945,688.8239192228317,558.3275701293945,696.4399192228317,557.9475701293945C701.2639192228318,557.7075701293945,706.1039192228317,557.8495701293946,710.9339192228317,557.7355701293945C765.1459192228317,556.4715701293945,744.0879192228317,640.5415701293946,733.9299192228317,669.3875701293946C713.8839192228318,726.3035701293945,678.3879192228317,778.6775701293946,632.6899192228317,818.0935701293945C387.73791922283175,1029.3815701293945,-5.943980777168278,844.4215701293946,78.71601922283173,528.2995701293945C96.64201922283172,461.36357012939453,134.23201922283172,405.81757012939454,195.88391922283174,360.9517701293945C361.4579192228317,240.4657701293945,597.6779192228317,295.59776012939454,655.0459192228317,494.40157012939454ZM393.07991922283173,694.4295701293945L393.07991922283173,694.4515701293946C393.73591922283174,694.4515701293946,393.1579192228317,694.4875701293945,394.98591922283174,694.3295701293946C394.2279192228317,694.1855701293946,392.7919192228317,693.8375701293945,391.54791922283175,694.1075701293945C390.8859192228317,694.2515701293945,391.3599192228317,693.5395701293945,391.06991922283174,694.1655701293946C391.0659192228317,694.1735701293945,391.3939192228317,694.4035701293946,391.5739192228317,694.4175701293946C392.0739192228317,694.4535701293945,392.5779192228317,694.4295701293945,393.07991922283173,694.4295701293945ZM385.47191922283173,411.5835701293945C386.07191922283175,411.5835701293945,385.9459192228317,411.62957012939455,385.9819192228317,411.34557012939456C385.3879192228317,411.32157012939456,385.50791922283173,411.28157012939454,385.47191922283173,411.5835701293945ZM349.21191922283174,540.0335701293945C349.80991922283175,540.0335701293945,349.6839192228317,540.0775701293945,349.7179192228317,539.7955701293945C349.1239192228317,539.7715701293945,349.24791922283174,539.7315701293945,349.21191922283174,540.0335701293945ZM376.6799192228317,790.4775701293945C376.0979192228317,790.4775701293945,376.2039192228317,790.4255701293946,376.2039192228317,790.7215701293945C376.79391922283173,790.7035701293945,376.6799192228317,790.7435701293946,376.6799192228317,790.4775701293945Z"></path></g><g style="opacity:0.5;"><g><path style="mix-blend-mode:passthrough" fill-opacity="1" fill="#FFCF00" d="M747.7579374113083,607.3004021606446C747.0459374113083,615.6964021606445,746.8519374113083,633.4144021606446,733.8819374113083,669.6904021606445C644.4079374113082,919.9844021606445,323.2419374113083,983.5624021606445,149.9241374113083,812.0804021606446C97.91423741130829,760.6304021606445,75.06018741130829,709.6584021606445,68.86618741130829,646.7264021606445C56.75413741130829,523.9444021606446,110.95213741130829,405.67400216064453,227.5499374113083,340.58002216064455C232.31593741130828,337.9260331606445,232.2539374113083,338.12003316064454,236.65393741130828,341.4620121606445C310.8239374113083,397.8220021606445,254.9799374113083,485.0504021606445,236.21993741130828,552.1464021606446C212.0199374113083,638.6984021606445,261.1599374113083,724.5744021606445,350.5059374113083,745.7964021606444C509.24593741130826,783.5044021606445,555.4939374113083,590.1304021606445,686.3139374113083,557.4224021606445C689.0759374113082,556.7324021606446,689.9179374113083,557.8324021606445,695.0119374113083,557.8764021606446C708.9959374113083,558.0484021606445,702.9759374113083,558.5884021606446,723.7359374113083,560.7904021606446C737.6899374113083,562.2784021606445,746.3159374113083,582.9384021606445,747.0659374113083,597.0244021606445C747.2619374113083,600.4364021606445,748.0619374113082,603.8684021606446,747.7579374113083,607.3004021606446Z"></path></g><g><path style="mix-blend-mode:passthrough" fill-opacity="1" fill="#FD8A02" d="M747.7579374113083,607.3004021606446C747.0459374113083,615.6964021606445,746.8519374113083,633.4144021606446,733.8819374113083,669.6904021606445C644.4079374113082,919.9844021606445,323.2419374113083,983.5624021606445,149.9241374113083,812.0804021606446C97.91423741130829,760.6304021606445,75.06018741130829,709.6584021606445,68.86618741130829,646.7264021606445C56.75413741130829,523.9444021606446,110.95213741130829,405.67400216064453,227.5499374113083,340.58002216064455C232.31593741130828,337.9260331606445,232.2539374113083,338.12003316064454,236.65393741130828,341.4620121606445C310.8239374113083,397.8220021606445,254.9799374113083,485.0504021606445,236.21993741130828,552.1464021606446C212.0199374113083,638.6984021606445,261.1599374113083,724.5744021606445,350.5059374113083,745.7964021606444C509.24593741130826,783.5044021606445,555.4939374113083,590.1304021606445,686.3139374113083,557.4224021606445C689.0759374113082,556.7324021606446,689.9179374113083,557.8324021606445,695.0119374113083,557.8764021606446C708.9959374113083,558.0484021606445,702.9759374113083,558.5884021606446,723.7359374113083,560.7904021606446C737.6899374113083,562.2784021606445,746.3159374113083,582.9384021606445,747.0659374113083,597.0244021606445C747.2619374113083,600.4364021606445,748.0619374113082,603.8684021606446,747.7579374113083,607.3004021606446Z"></path></g></g><g><path style="mix-blend-mode:passthrough" fill-opacity="1" fill="#018100" d="M936.2517864103318,636.3379529418945C936.1517864103317,639.8719529418945,934.2717864103317,660.9879529418945,932.3557864103318,673.8299529418946C908.4277864103317,834.3579529418946,794.4817864103318,918.3699529418946,632.7857864103318,942.9539529418946C563.7918864103317,953.4439529418945,475.3278864103317,955.6579529418946,470.2518954103317,954.7139529418946C470.02389941033175,954.6719529418945,469.7359046103317,954.2539529418946,469.7158850403317,953.9899529418946C469.20788941033175,947.5939529418945,645.8977864103317,941.5079529418945,743.8437864103317,754.5519529418946C761.9197864103317,720.0459529418945,776.3617864103317,677.2919529418946,781.9337864103318,650.9019529418945C794.2037864103318,592.7740529418945,862.0477864103318,547.8300529418946,927.9297864103316,535.6580279418945C933.0437864103317,534.7120439418945,931.9837864103317,532.9160229418945,935.4197864103317,569.6160529418945C936.6437864103317,582.6880529418945,936.3057864103317,634.4740529418946,936.2517864103318,636.3379529418945Z"></path></g><g><path style="mix-blend-mode:passthrough" fill-opacity="1" fill="#91D728" d="M879.0139973478317,551.0162498168945C913.9539973478318,536.0162498168945,926.4059973478318,538.6502498168945,935.5779973478317,532.0242498168946C1057.0309973478318,444.32024981689455,1005.8209973478317,292.00204981689456,888.1439973478317,261.7880898168945C786.7099973478317,235.73004981689454,679.2679973478317,298.9120498168945,676.2639973478317,410.7182498168945C676.1779973478317,413.52424981689455,677.0619973478317,416.19824981689453,677.0839973478318,418.9402498168945C677.2779973478317,440.60624981689455,686.9259973478318,460.0522498168946,691.2619973478318,482.38824981689453C695.4479973478317,503.94824981689453,697.8439973478318,528.5282498168945,690.3119973478317,549.3102498168946C688.6279973478318,554.0142498168946,683.6859973478317,558.2882498168944,695.3179973478317,558.3102498168946C712.7339973478317,558.3542498168945,720.9139973478317,556.5182498168945,731.0779973478317,564.7622498168946C746.9179973478317,577.6022498168945,748.8619973478317,599.8742498168945,746.1639973478317,620.0522498168946C740.9839973478317,659.0262498168945,717.7419973478317,718.0062498168945,680.4299973478318,766.3482498168945C539.2699973478317,949.2682498168946,258.19999734783175,958.3322498168945,119.32799734783173,775.9962498168945C115.05399734783173,770.4062498168945,116.99599734783173,770.4062498168945,95.35189734783172,782.0822498168945C70.05989734783172,795.7422498168945,36.091897347831726,818.0142498168946,18.243897347831727,840.4582498168945C5.835877347831726,856.0822498168945,-1.308122652168274,875.6562498168945,11.899877347831726,890.7202498168946C17.79189734783173,897.4542498168945,24.933897347831728,902.4382498168945,33.43789734783172,905.4602498168945C136.70199734783174,942.1042498168945,307.83799734783173,954.9242498168945,417.79199734783174,954.9242498168945L417.79199734783174,955.0962498168946C461.9899973478317,955.0962498168946,459.2279973478317,955.1602498168945,460.7599973478317,954.8582498168945C490.1539973478317,949.1602498168945,526.7319973478317,942.7302498168946,575.6139973478317,919.6802498168945C580.1959973478317,917.5202498168945,584.6039973478318,915.2582498168945,588.9839973478317,912.9822498168945C588.8799973478317,916.7782498168946,589.6159973478317,920.4582498168945,590.8719973478318,923.9522498168946C592.1839973478317,927.7442498168946,594.1659973478318,931.3002498168945,596.6079973478318,934.5222498168945C599.0599973478318,937.7322498168945,601.9959973478317,940.6122498168945,605.3779973478318,942.8762498168945C608.7199973478317,945.1702498168945,612.4659973478317,946.9402498168945,616.5779973478317,947.6002498168946C618.1529973478317,947.8532498168945,619.7269973478317,947.1482498168946,620.5869973478317,945.8042498168945C621.4459973478317,944.4612498168946,621.4259973478318,942.7352498168946,620.5359973478318,941.4122498168946L620.4239973478317,941.2442498168946C618.3519973478317,938.1602498168945,616.2779973478317,935.5922498168945,614.2539973478317,933.0422498168946L608.3339973478318,925.4882498168945L602.3499973478317,917.8422498168945C600.3039973478317,915.2262498168946,598.2159973478317,912.5462498168945,595.5879973478317,909.8242498168945L595.4839973478317,909.7162498168946C595.4399973478318,909.6722498168946,595.3759973478317,909.6502498168945,595.3319973478317,909.6082498168945C611.2819973478317,900.9422498168946,626.5529973478317,891.0832498168945,641.0159973478317,880.1142498168946C641.0219973478318,880.2642498168946,640.9759973478317,880.4062498168945,640.9999973478317,880.5602498168945C642.0419973478317,886.8942498168946,644.4059973478318,892.9202498168945,647.4959973478317,898.5202498168945C650.5519973478317,904.1582498168946,654.4439973478318,909.3382498168945,658.8879973478317,913.9762498168946C663.3439973478318,918.6022498168945,668.3759973478317,922.6922498168946,673.8919973478318,925.9662498168946C679.3719973478318,929.2762498168945,685.3079973478317,931.8702498168946,691.6059973478317,933.1502498168945C693.3179973478317,933.5002498168946,695.0499973478318,932.6472498168945,695.8149973478318,931.0762498168946C696.5799973478317,929.5062498168945,696.1849973478318,927.6162498168945,694.8539973478318,926.4842498168945L694.8159973478317,926.4522498168946L681.6639973478317,915.2422498168945C677.4679973478317,911.4802498168946,673.4099973478317,907.6762498168945,669.5259973478318,903.6842498168945C665.6299973478317,899.7042498168945,661.9299973478318,895.5422498168946,658.2719973478318,891.2422498168945L647.3959973478318,877.7522498168945L647.3619973478317,877.7082498168945C646.9119973478317,877.1652498168945,646.3139973478317,876.7662498168945,645.6399973478317,876.5602498168945C657.7619973478318,867.0372498168946,669.2359973478317,856.7162498168946,679.9839973478317,845.6662498168945C680.0419973478317,845.9302498168945,680.0619973478317,846.1982498168945,680.1859973478317,846.4522498168946C684.5739973478318,855.5242498168946,690.9959973478317,863.6342498168946,698.4799973478317,870.5102498168945C705.9479973478317,877.4462498168946,714.5779973478317,883.0542498168945,723.6839973478317,887.5282498168946C732.8579973478318,891.8762498168945,742.5299973478317,895.1042498168945,752.4459973478317,896.8842498168946C762.3359973478317,898.7062498168946,772.4519973478317,899.2502498168946,782.3619973478317,898.0242498168946C784.1849973478318,897.7892498168945,785.5719973478317,896.2732498168946,785.6429973478317,894.4372498168946C785.7139973478318,892.6002498168946,784.4489973478318,890.9812498168945,782.6499973478317,890.6062498168945L782.6159973478317,890.6002498168946C773.3319973478317,888.7142498168945,764.3239973478318,886.6602498168945,755.5399973478317,884.0022498168945C746.7839973478317,881.2982498168946,738.2319973478317,878.1422498168945,730.0879973478317,874.1842498168945C721.8859973478317,870.3502498168946,714.1119973478317,865.7082498168945,706.7279973478318,860.4602498168945C699.3659973478317,855.1602498168945,692.5219973478318,849.1342498168946,685.9119973478317,842.4542498168945L685.8799973478317,842.4202498168945C685.3889973478317,841.9332498168945,684.7659973478317,841.6002498168946,684.0879973478317,841.4642498168945C693.6109973478317,831.3222498168946,702.5289973478317,820.6292498168946,710.7959973478318,809.4402498168945C710.9179973478317,809.7022498168946,711.0099973478317,809.9742498168945,711.1999973478318,810.2082498168945C719.1259973478317,819.9642498168945,729.1539973478317,828.0202498168945,740.0659973478317,834.3942498168946C750.9779973478318,840.8322498168945,762.8659973478317,845.4882498168945,775.0519973478317,848.7402498168946C787.2799973478317,851.8582498168945,799.8419973478317,853.5682498168945,812.3959973478318,853.6022498168945C824.9339973478317,853.6802498168945,837.4899973478317,852.2382498168945,849.4719973478317,848.7782498168946C851.2759973478318,848.2532498168945,852.4119973478317,846.4722498168945,852.1269973478318,844.6152498168946C851.8419973478317,842.7582498168945,850.2239973478318,841.4002498168945,848.3459973478317,841.4402498168945L848.3159973478317,841.4422498168946C836.3959973478318,841.7242498168945,824.6679973478317,841.4782498168945,813.0479973478317,840.3722498168945C801.4459973478317,839.2122498168945,789.9519973478317,837.3582498168945,778.7599973478317,834.4142498168945C756.2939973478317,828.7082498168945,735.1139973478317,819.0982498168945,716.0179973478317,805.1522498168945C715.5139973478317,804.8022498168946,714.9269973478317,804.5902498168946,714.3159973478317,804.5382498168946C722.8729973478318,792.5492498168945,730.7309973478317,780.0762498168946,737.8519973478317,767.1822498168945C738.0799973478317,767.5722498168946,738.3839973478317,767.9282498168945,738.7679973478317,768.2162498168946C749.9039973478317,776.6302498168945,762.7419973478317,782.6862498168946,775.9959973478317,786.9802498168946C789.2719973478318,791.3322498168945,803.0679973478317,793.8202498168945,816.9139973478317,795.0262498168945C830.7779973478317,796.0822498168945,844.7299973478317,795.8562498168945,858.4919973478317,793.9842498168945C872.2319973478317,792.1502498168945,885.8679973478318,788.8482498168945,898.5979973478318,783.2502498168946C900.3379973478317,782.4902498168946,901.2309973478317,780.5452498168945,900.6719973478317,778.7302498168946C900.1139973478317,776.9152498168945,898.2829973478317,775.8082498168945,896.4159973478318,776.1582498168946L896.3579973478318,776.1702498168945C883.4369973478317,778.5572498168946,870.3739973478317,780.1022498168945,857.2519973478318,780.7982498168946C844.1859973478317,781.4282498168945,831.0959973478317,781.3582498168945,818.1019973478317,780.2762498168945C805.1079973478318,779.3122498168946,792.2059973478317,777.3682498168945,779.5039973478317,774.4622498168945C766.8179973478317,771.5142498168946,754.4159973478318,767.4822498168945,742.3159973478317,762.2022498168946L742.2879973478317,762.1902498168945C741.7939973478317,761.9882498168945,741.2599973478317,761.9052498168945,740.7279973478318,761.9462498168946C747.9899973478317,748.3422498168945,754.0999973478317,735.0382498168944,759.3119973478317,722.3602498168946C759.6199973478317,722.5382498168944,759.9279973478317,722.7242498168946,760.2919973478317,722.8102498168946C774.1509973478318,726.0622498168946,788.2369973478317,728.2592498168945,802.4279973478317,729.3822498168945C816.7629973478317,730.5602498168946,831.1739973478317,730.4812498168945,845.4959973478317,729.1482498168946C859.9319973478317,727.5862498168945,873.8279973478317,725.1422498168945,887.8179973478317,721.3142498168945C901.6939973478318,717.4862498168945,915.4219973478317,712.0982498168945,927.5619973478317,704.0922498168945C929.0539973478317,703.1092498168946,929.5709973478317,701.1632498168944,928.7619973478318,699.5702498168946C927.9539973478318,697.9772498168945,926.0779973478317,697.2442498168946,924.4039973478317,697.8682498168946L924.3619973478317,697.8842498168945C911.4739973478318,702.6842498168945,898.3059973478317,706.0982498168945,884.8539973478318,708.6562498168946C878.1159973478317,709.8582498168946,871.3579973478318,711.0542498168945,864.5199973478317,711.9462498168946C857.6619973478317,712.9122498168945,850.8459973478317,713.8702498168946,844.0759973478317,714.4202498168945C830.4899973478317,715.7662498168945,816.7819973478317,716.1462498168945,802.9759973478317,716.1522498168945C789.4579973478317,716.1082498168946,775.8439973478318,715.6062498168945,762.0819973478317,715.4582498168945C769.8039973478317,695.8102498168946,775.3859973478317,677.9482498168945,779.6799973478318,663.2862498168945L779.6899973478318,663.2922498168946C793.9459973478317,667.3722498168945,808.7839973478317,667.3702498168946,823.0979973478318,665.8682498168946C837.4759973478317,664.3442498168945,851.5259973478318,660.9622498168945,865.1719973478317,656.4602498168945C878.7639973478317,651.8042498168945,891.9859973478317,646.0062498168945,904.3839973478317,638.6862498168946C916.7699973478317,631.4102498168945,928.4899973478317,622.7302498168945,938.2439973478317,612.1022498168945C939.4679973478317,610.7892498168945,939.5039973478317,608.7632498168946,938.3279973478317,607.4072498168946C937.1509973478318,606.0522498168946,935.1399973478317,605.8022498168946,933.6679973478317,606.8302498168946L933.6399973478317,606.8482498168945C922.3179973478317,614.6162498168945,910.4859973478317,621.3262498168945,898.2459973478317,627.2242498168946C885.9819973478317,633.0562498168945,873.3839973478317,638.1962498168946,860.4839973478317,642.4222498168945C847.6349973478317,646.7562498168945,834.5049973478317,650.2102498168945,821.1859973478317,652.7602498168945C808.1239973478317,655.1562498168946,794.9139973478317,656.6522498168945,781.7939973478317,656.0102498168945C785.7019973478317,642.4242498168945,788.5159973478317,632.2762498168945,791.1259973478317,627.1202498168946C808.3999973478317,592.9702498168945,843.9439973478318,566.1022498168945,879.0139973478317,551.0162498168945Z"></path></g><g><path style="mix-blend-mode:passthrough" fill-opacity="1" fill="#FC09B2" d="M824.5882262540817,143.98981309814454C806.8702262540817,144.13381309814451,786.3702262540817,131.41581309814453,786.3182262540818,105.99581309814454C786.2662262540817,80.07981309814453,807.1562262540817,67.80382539814453,824.3682262540817,67.74582672114452C843.6942262540817,67.67982479814454,862.6561262540818,82.94981309814453,862.7501262540817,105.77581309814454C862.8401262540817,128.07381309814454,844.4842262540817,144.03181309814454,824.5882262540817,143.98981309814454ZM981.4121262540817,173.81761309814453C957.5741262540818,172.74561309814453,943.2041262540818,154.33981309814453,943.2681262540817,135.38381309814451C943.3841262540817,100.75381309814453,985.7681262540817,84.53781309814454,1008.4421262540817,108.42581309814453C1031.5621262540817,132.7878130981445,1017.1921262540817,172.16561309814455,981.4121262540817,173.81761309814453ZM774.9942262540817,479.1336130981445C762.4922262540817,474.4796130981445,750.5982702540817,463.83361309814455,750.6382483240817,449.58161309814454C750.7122229540818,424.15161309814454,782.1882262540818,415.38161309814456,802.5282262540817,419.71161309814454C819.7422262540817,423.3756130981445,837.4183262540818,438.1836130981445,832.2362262540818,457.5976130981445C826.3282262540818,479.72761309814456,795.2362262540818,486.6696130981445,774.9942262540817,479.1336130981445Z"></path></g><g style="opacity:0.25;"><g><path style="mix-blend-mode:passthrough" fill-opacity="1" fill="#000E3F" d="M936.3221433439255,612.9620957641602C936.3221433439255,752.7800957641601,874.4341433439255,860.3180957641601,744.3881433439255,912.8860957641601C641.2901433439255,954.5600957641601,520.5161433439255,952.6980957641601,476.44214334392547,955.0540957641601C474.90414334392545,955.1360957641601,469.89615234392545,955.5600957641601,469.7181433439255,954.0220957641602C469.68213264392546,953.7180957641601,548.2421433439255,930.9500957641602,553.1241433439254,928.9800957641602C579.1881433439255,918.4700957641602,602.0261433439255,903.3740957641602,628.5421433439255,894.3860957641601C681.1041433439254,876.5680957641601,728.6621433439254,862.1780957641602,771.5521433439255,825.5900957641602C886.5541433439255,727.4800957641602,886.9541433439255,619.3600957641602,933.3441433439255,583.6040957641602C937.4621433439255,580.4300957641601,936.5381433439254,588.8840957641602,936.5381433439254,612.9620957641602L936.3221433439255,612.9620957641602ZM1015.0421433439254,153.81609576416014C1009.0481433439255,164.87009576416017,997.3501433439254,173.08609576416018,981.4101433439255,173.82609576416016C957.5741433439255,172.74009576416017,943.2121433439255,154.33209576416016,943.2621433439255,135.38209576416017C943.3121433439255,118.50409576416016,953.4281433439255,105.96809576416015,966.4081433439255,100.36809576416016C963.4981433439254,105.62409576416016,961.7941433439255,111.81809576416015,961.7701433439255,118.72609576416016C961.7201433439254,137.67609576416015,976.0821433439255,156.08409576416017,999.9181433439255,157.17009576416015C1005.4921433439255,156.90009576416014,1010.5781433439255,155.74009576416017,1015.0421433439254,153.81609576416014ZM858.1001433439255,123.98009576416015C852.1041433439254,135.03409576416016,840.4081433439255,143.25209576416017,824.4681433439255,143.99209576416015C800.6301433439255,142.90609576416017,786.2701433439255,124.49809576416015,786.3201433439255,105.54809576416017C786.3701433439255,88.67009576416015,796.4881433439255,76.13609576416016,809.4661433439255,70.53409576416016C806.5541433439255,75.79009576416016,804.8521433439255,81.98409576416016,804.8281433439255,88.89209576416016C804.7781433439254,107.84409576416016,819.1401433439255,126.25009576416016,842.9761433439255,127.33609576416015C848.5501433439255,127.06409576416016,853.6341433439254,125.90409576416016,858.1001433439255,123.98009576416015Z"></path></g></g><g style="opacity:0.5;"><g><path style="mix-blend-mode:passthrough" fill-opacity="1" fill="#FFFFFF" d="M793.5240838712692,285.18938769531246C796.9580838712692,283.9473876953125,826.0181838712692,277.68938769531246,819.9801838712692,288.1443876953125C818.2381838712693,291.16238769531253,814.8961838712693,288.4993876953125,795.5920838712692,302.7713876953125C779.7660838712692,314.4733876953125,766.9020838712693,328.4373876953125,756.2820838712693,344.4813876953125C731.8740838712692,381.7373876953125,733.8940838712692,409.0993876953125,721.9160838712693,420.7913876953125C715.5080838712693,427.0493876953125,706.1060838712692,423.5533876953125,702.5600638712692,415.6753876953125C690.4160838712693,388.7053876953125,720.1120838712692,311.7493876953125,793.5240838712692,285.18938769531246ZM1001.5061838712693,139.3498876953125C998.1781838712692,142.8598876953125,992.5721838712692,141.9198876953125,990.5941838712693,134.80388769531248C984.1701838712693,111.6938876953125,975.4021838712692,116.3558876953125,976.3261838712692,111.3358876953125C976.5861838712692,109.9178876953125,977.7461838712693,109.4978876953125,978.9481838712693,109.0138876953125C982.0321838712692,107.77588769531249,985.4941838712692,108.5838876953125,988.4361838712692,109.78188769531249C1000.9081838712692,114.8558876953125,1007.6241838712692,132.8998876953125,1001.5061838712693,139.3498876953125ZM846.0501838712692,112.8238876953125C842.7221838712692,116.3338876953125,837.1161838712692,115.3938876953125,835.1381838712692,108.2778876953125C828.7141838712693,85.1678876953125,819.9461838712692,89.8298876953125,820.8701838712692,84.8098876953125C821.1301838712692,83.3918876953125,822.2901838712692,82.9718876953125,823.4901838712692,82.4898836953125C826.8061838712692,81.1578826953125,829.9701838712692,82.0318836953125,832.9801838712692,83.2578776953125C845.4521838712692,88.3298776953125,852.1681838712692,106.3738876953125,846.0501838712692,112.8238876953125Z"></path></g></g><g><path style="mix-blend-mode:passthrough" fill-opacity="1" fill="#FD8A02" d="M712.9982356290817,657.7681677856446C703.3162356290817,645.6441677856445,681.9902356290818,637.1161677856445,668.1482356290817,636.7601677856445L662.4762356290818,636.6101677856445L666.2402356290818,640.8601677856445C675.2962356290817,651.0921677856445,694.9922356290817,661.7841677856445,710.3242356290817,661.7841677856445C710.5942356290817,661.7841677856445,710.8642356290817,661.7821677856446,711.1342356290817,661.7721677856446L716.0982356290817,661.6501677856445L712.9982356290817,657.7681677856446ZM648.6022356290817,672.9641677856446L643.0122356290817,672.0901677856446L646.1782356290818,676.7821677856446C653.9282356290818,688.2721677856446,672.5782356290817,701.6741677856446,687.9962356290818,703.3141677856445L692.9462356290817,703.8401677856446L690.3682356290817,699.5801677856446C682.3282356290817,686.3041677856445,662.2782356290817,675.1001677856445,648.6022356290817,672.9641677856446ZM624.5522356290817,706.4721677856446L619.1202356290818,704.9101677856445L621.6702356290817,709.9541677856446C627.9062356290817,722.3101677856446,644.7362356290818,737.9401677856445,659.8442356290817,741.5081677856446L664.6982356290818,742.6541677856445L662.6682356290818,738.1021677856445C656.3422356290818,723.9161677856446,637.8542356290817,710.2961677856445,624.5522356290817,706.4721677856446ZM596.5042356290817,736.7781677856445L591.3082356290818,734.5561677856444L593.2122356290818,739.8761677856446C597.8622356290817,752.8881677856446,612.6402356290818,770.4661677856445,627.2142356290817,775.8881677856446L631.8882356290817,777.6281677856446L630.4382356290818,772.8561677856445C625.9162356290817,758.0201677856445,609.2422356290817,742.2221677856446,596.5042356290817,736.7781677856445ZM564.9502356290817,763.4001677856445L560.0682356290818,760.5461677856445L561.2962356290817,766.0661677856446C564.3082356290818,779.5521677856445,576.7962356290817,798.8161677856446,590.5982356290817,806.0021677856446L595.0142356290817,808.3001677856446L594.1702356290817,803.3921677856445C591.5382356290818,788.1401677856445,576.9362356290817,770.3981677856445,564.9502356290817,763.4001677856445ZM530.3862356290817,785.8601677856445L525.8942356290818,782.4081677856445L526.4242356290817,788.0481677856445C527.7202356290818,801.8061677856444,537.6882356290816,822.4921677856446,550.4542356290817,831.3561677856445L554.5402356290817,834.1901677856445L554.3282356290817,829.2221677856446C553.6582356290817,813.7821677856446,541.4082356290817,794.3381677856446,530.3862356290817,785.8601677856445ZM489.3442356290817,799.6341677856445L489.1322356290817,805.3141677856445C488.6162356290817,819.1441677856445,495.79223562908174,840.9581677856445,507.29223562908174,851.3901677856445L510.9642356290817,854.7181677856445L511.40823562908173,849.7801677856445C512.7862356290817,834.4541677856446,503.18623562908175,813.5621677856445,493.35023562908174,803.6661677856446L489.3442356290817,799.6341677856445ZM450.9902356290817,811.7541677856445L450.00623562908174,817.3741677856445C447.6062356290817,831.0381677856445,451.7282356290817,853.6381677856446,461.6882356290817,865.5061677856445L464.86423562908175,869.2901677856445L465.98223562908174,864.4781677856446C469.4522356290817,849.5501677856445,462.7962356290817,827.5281677856445,454.41023562908174,816.3241677856445L450.9902356290817,811.7541677856445ZM411.5142356290817,818.3441677856445L409.73023562908173,823.7881677856445C405.41223562908175,836.9881677856445,406.2502356290817,859.9541677856446,414.38623562908174,873.0941677856446L416.9782356290817,877.2841677856445L418.78023562908174,872.6961677856445C424.3602356290817,858.4741677856446,420.94423562908173,835.7121677856445,414.24423562908174,823.3781677856446L411.5142356290817,818.3441677856445ZM371.6922356290817,819.0741677856445L369.1042356290817,824.2181677856445C362.8582356290817,836.6241677856445,360.2602356290817,859.4541677856446,366.3482356290817,873.6701677856445L368.28023562908174,878.1761677856446L370.7482356290817,873.9421677856445C378.3682356290817,860.8741677856445,378.3922356290817,837.8281677856446,373.6302356290817,824.4981677856445L371.6922356290817,819.0741677856445ZM332.20623562908173,813.8801677856445L328.91423562908176,818.5441677856445C320.85223562908175,829.9581677856445,314.82623562908174,852.1561677856446,318.71223562908176,867.0081677856446L319.9662356290817,871.8001677856445L323.0362356290817,867.9141677856445C332.6322356290817,855.7661677856445,336.11623562908176,833.0621677856445,333.35023562908174,819.4761677856445L332.20623562908173,813.8801677856445ZM290.0602356290817,806.7941677856445C280.3822356290817,816.8021677856445,271.0802356290817,837.8181677856445,272.6522356290817,853.1581677856445L273.14823562908174,858.0361677856446L276.7682356290817,854.7281677856446C287.9782356290817,844.4821677856445,294.88023562908177,822.5061677856445,294.30223562908174,808.4081677856445L294.0602356290817,802.6561677856446L290.0602356290817,806.7941677856445ZM229.17223562908174,832.4621677856445L228.92623562908173,837.3561677856445L233.00423562908173,834.6381677856446C245.67423562908172,826.1901677856445,255.87223562908173,805.5461677856445,257.44823562908175,791.5621677856445L258.0942356290817,785.8361677856445L253.50223562908172,789.3221677856445C242.36623562908173,797.7781677856445,229.93823562908173,817.1301677856445,229.17223562908174,832.4621677856445ZM189.31023562908172,804.9581677856445L188.28823562908173,809.7161677856445L192.73223562908174,807.7321677856446C206.56023562908172,801.5601677856446,220.0342356290817,782.8661677856445,223.94223562908172,769.2801677856446L225.55223562908174,763.6901677856445L220.41423562908173,766.4201677856445C207.98023562908173,773.0281677856445,192.51623562908173,790.0901677856446,189.31023562908172,804.9581677856445ZM197.89423562908172,736.6181677856446L192.21223562908173,738.4441677856446C178.64023562908173,742.8081677856445,160.37623562908172,756.3341677856445,154.53023562908172,770.5721677856445L152.72223562908172,774.9761677856445L157.36223562908174,773.9141677856445C172.29823562908172,770.5001677856445,188.61223562908174,754.6481677856445,195.16023562908174,741.9201677856445L197.89423562908172,736.6181677856446ZM172.7842356290817,709.8821677856445L176.50023562908171,705.2881677856445L170.62023562908172,705.8741677856445C156.37823562908173,707.2921677856446,135.46223562908173,717.0761677856445,127.03423562908173,729.3761677856446L124.31623562908172,733.3381677856446L129.11623562908173,733.2401677856445C144.18623562908172,732.9301677856445,163.86423562908172,720.9141677856445,172.7842356290817,709.8821677856445ZM161.6902356290817,669.8201677856446L155.86423562908172,669.2141677856446C141.90223562908173,667.7541677856445,119.53023562908173,673.3021677856445,108.55623562908173,683.8661677856445L105.07223562908173,687.2181677856445L109.83023562908173,688.0741677856445C111.77223562908173,688.4201677856445,113.83023562908173,688.5841677856445,115.97023562908173,688.5841677856445C130.06223562908173,688.5841677856445,147.64423562908172,681.5001677856445,157.18623562908172,673.5681677856445L161.6902356290817,669.8201677856446ZM148.53823562908173,634.5401677856446L153.55423562908172,631.6341677856445L147.97823562908172,630.0341677856445C134.46023562908172,626.1561677856446,111.47223562908172,627.6841677856446,98.84022562908173,636.1601677856445L94.79223562908173,638.8781677856446L99.37623562908172,640.5301677856446C103.84423562908172,642.1421677856445,109.12023562908172,642.8521677856445,114.64023562908173,642.8521677856445C126.81223562908173,642.8521677856445,140.15223562908173,639.3981677856445,148.53823562908173,634.5401677856446ZM123.97823562908172,597.9401677856445C132.3442356290817,597.9401677856445,140.51223562908172,596.6341677856445,146.55223562908174,594.3301677856446L151.9642356290817,592.2681677856446L146.72023562908174,589.7961677856445C133.89623562908173,583.7421677856446,110.95423562908172,581.4921677856446,97.23823562908173,587.7801677856446L92.80023562908173,589.8141677856445L97.07023562908172,592.1801677856445C104.29023562908172,596.1821677856445,114.27223562908173,597.9401677856445,123.97823562908172,597.9401677856445ZM140.61423562908172,555.1801677856445C144.41223562908172,555.1801677856445,147.99223562908173,554.8681677856446,151.11623562908173,554.2461677856445L156.78423562908173,553.1161677856445L152.04623562908174,549.8041677856445C140.60023562908174,541.8041677856445,118.35823562908172,535.9041677856445,103.52823562908172,539.8681677856446L98.80621562908172,541.1281677856446L102.62221562908172,544.1801677856445C111.79023562908172,551.5001677856445,127.53423562908173,555.1801677856445,140.61423562908172,555.1801677856445ZM160.73623562908173,515.5481677856445C161.20423562908172,515.5481677856445,161.66223562908172,515.5421677856446,162.11423562908172,515.5241677856445L167.91223562908172,515.3261677856445L163.74423562908174,511.28816778564453C153.63423562908173,501.48016778564454,132.68823562908173,492.01616778564454,117.52023562908172,493.52216778564457L112.66623562908173,494.0101677856445L115.93423562908173,497.6301677856445C125.80423562908172,508.57016778564457,146.6542356290817,515.5481677856445,160.73623562908173,515.5481677856445ZM179.27623562908173,479.44616778564455L185.08423562908172,480.2801677856445L181.6182356290817,475.54616778564457C173.15623562908172,463.9821677856445,154.10023562908174,450.93616778564456,139.22223562908172,449.94216778564453L134.40823562908173,449.6201677856445L136.96823562908173,453.7121677856445C145.03823562908173,466.6301677856445,165.36223562908174,477.4481677856445,179.27623562908173,479.44616778564455ZM202.54023562908174,447.52616778564453L208.11223562908174,449.54016778564454L205.61623562908173,444.1681677856445C199.65823562908173,431.3281677856445,183.95823562908174,414.93616778564456,168.98423562908172,410.8421677856445L164.35823562908172,409.58016778564456L166.02023562908172,414.07616778564454C171.33823562908174,428.50416778564454,189.1182356290817,442.6741677856445,202.54023562908174,447.52616778564453ZM231.41823562908172,421.26416778564453L236.4822356290817,424.43416778564455L235.13223562908172,418.61216778564454C231.88423562908173,404.63816778564455,219.96623562908172,385.2501677856445,206.37023562908172,378.30016778564453L202.13423562908173,376.1301677856445L202.80423562908175,380.8421677856445C204.96823562908173,396.09816778564453,219.3442356290817,413.70416778564453,231.41823562908172,421.26416778564453ZM269.76623562908173,405.48216778564455L269.67023562908173,399.66016778564455C269.43423562908174,385.58816778564454,261.24623562908175,364.06616778564455,249.43823562908173,354.45616778564454L245.67023562908173,351.38816778564455L245.42023562908173,356.24216778564454C244.63423562908173,371.33616778564453,255.18023562908172,391.8281677856445,265.51623562908173,401.50416778564454L269.76623562908173,405.48216778564455ZM306.73623562908176,392.62416778564454L307.6522356290817,386.94216778564453C309.8642356290817,373.1441677856445,305.5122356290817,350.5601677856445,295.5082356290817,338.9281677856445L292.30423562908175,335.20013778564453L291.23023562908173,340.0001677856445C287.90023562908175,354.9181677856445,294.7582356290817,376.88816778564455,303.25423562908173,388.0441677856445L306.73623562908176,392.62416778564454ZM345.6182356290817,386.2621677856445L347.43423562908174,380.78216778564456C351.87223562908173,367.40016778564456,351.2842356290817,344.37216778564454,343.32823562908175,331.43015778564455L340.77023562908175,327.26416778564453L338.93823562908176,331.8001777856445C333.19823562908175,346.03216778564456,336.3602356290817,368.81416778564454,342.91423562908176,381.1661677856445L345.6182356290817,386.2621677856445ZM387.7262356290817,381.17216778564455C394.28023562908174,368.73016778564454,397.4422356290817,345.92216778564455,391.7022356290817,331.80615778564453L389.8602356290817,327.27817538564454L387.3102356290817,331.4461777856445C379.35223562908175,344.45816778564455,378.7602356290817,367.4721677856445,383.2002356290817,380.80016778564453L385.03223562908175,386.29016778564454L387.7262356290817,381.17216778564455ZM423.7602356290817,392.7481677856445L427.29223562908174,388.1321677856445C435.8322356290817,376.96616778564453,442.7622356290817,355.0101677856445,439.4662356290817,340.12616778564455L438.4162356290817,335.37814778564456L435.2022356290817,339.03216778564456C425.2162356290817,350.39816778564455,420.7722356290817,373.01416778564453,422.8942356290817,387.00216778564453L423.7602356290817,392.7481677856445ZM485.33823562908174,356.6401677856445L485.14623562908173,351.82816778564455L481.35223562908175,354.7961677856445C469.62223562908173,363.9621677856445,461.1922356290817,385.46616778564453,460.6762356290817,399.80016778564453L460.46823562908173,405.67216778564455L464.8062356290817,401.70816778564455C475.2122356290817,392.21016778564456,485.9402356290817,371.8321677856445,485.33823562908174,356.6401677856445ZM527.6442356290818,381.5821677856445L528.3242356290817,376.83616778564453L524.0682356290818,379.03816778564453C510.63623562908174,385.98416778564456,498.25623562908174,405.42216778564455,495.11223562908174,419.21816778564454L493.7962356290817,424.9861677856445L498.8222356290817,421.8581677856445C510.9882356290817,414.2861677856445,525.4642356290817,396.73416778564456,527.6442356290818,381.5821677856445ZM522.1882356290816,450.27616778564453L527.7782356290818,448.24416778564455C541.2202356290818,443.36216778564454,559.0042356290817,429.18216778564454,564.2902356290817,414.78216778564456L565.9342356290817,410.30016778564453L561.3262356290818,411.55016778564453C546.4042356290818,415.60016778564454,530.6982356290818,432.00616778564455,524.6982356290818,444.88416778564454L522.1882356290816,450.27616778564453ZM548.1842356290817,475.99216778564454L544.4822356290817,480.76616778564454L550.4682356290817,479.94616778564455C564.7002356290817,477.99816778564457,585.1142356290818,467.9281677856445,593.2782356290818,455.05416778564455L595.8082356290818,451.0681677856445L591.0902356290817,451.26816778564455C575.9302356290817,451.91016778564455,557.0142356290817,464.6021677856445,548.1842356290817,475.99216778564454ZM558.9322356290818,514.6861677856446L564.9902356290818,515.3181677856445C566.7102356290818,515.4961677856445,568.5422356290817,515.5841677856445,570.4542356290817,515.5841677856445C584.5702356290817,515.5841677856445,603.0002356290818,510.7381677856445,612.5562356290817,501.55016778564453L615.9342356290817,498.30216778564454L611.3402356290817,497.3561677856445C596.4962356290818,494.28816778564453,575.0602356290817,502.01416778564453,563.7202356290818,510.9241677856445L558.9322356290818,514.6861677856446ZM570.0842356290817,548.2961677856446L564.5182356290818,550.7101677856446L570.1902356290817,552.8681677856446C576.8982356290817,555.4201677856445,585.8862356290817,556.9501677856446,594.8602356290817,556.9501677856446C603.9602356290818,556.9501677856446,613.0342356290818,555.3761677856445,619.7002356290817,551.6921677856445L623.8262356290817,549.4101677856445L619.6002356290817,547.3201677856446C605.9582356290817,540.5801677856446,583.2702356290818,542.5761677856445,570.0842356290817,548.2961677856446ZM613.5102356290818,602.0761677856445L618.0462356290817,600.9541677856446L614.5622356290817,597.8401677856446C603.3902356290816,587.8641677856446,580.9182356290817,583.8721677856445,566.5022356290817,585.9101677856445L560.4402356290817,586.7661677856445L565.4002356290817,590.3521677856445C574.9082356290817,597.2341677856446,591.0242356290817,603.0701677856446,604.6162356290818,603.0701677856446C607.7522356290817,603.0681677856445,610.7542356290817,602.7581677856446,613.5102356290818,602.0761677856445ZM599.3082356290818,649.1621677856446L596.7242356290817,645.2541677856445C588.4402356290817,632.7241677856446,567.7402356290818,623.1281677856446,553.3102356290817,621.4281677856445L547.2422356290817,620.7121677856445L551.1122356290817,625.4401677856445C560.2542356290817,636.6141677856446,579.4882356290817,648.8281677856446,594.6222356290817,649.0821677856445L599.3082356290818,649.1621677856446ZM531.3782356290817,652.8921677856445L525.7642356290817,650.8321677856445L528.2942356290818,656.2541677856445C534.3142356290817,669.1441677856445,550.0242356290817,685.5541677856445,564.9162356290817,689.5881677856446L569.5042356290817,690.8321677856445L567.8802356290817,686.3641677856446C562.6862356290817,672.0561677856444,544.8882356290817,657.8521677856445,531.3782356290817,652.8921677856445ZM531.7022356290818,724.2681677856446L531.0362356290817,719.5121677856446C528.9102356290817,704.3281677856446,514.5242356290817,686.7121677856445,502.4182356290817,679.0961677856445L497.4162356290817,675.9521677856445L498.69423562908173,681.7181677856445C501.75423562908173,695.5201677856445,514.0382356290818,715.0161677856445,527.4462356290817,722.0401677856446L531.7022356290818,724.2681677856446ZM464.10023562908174,694.9701677856445L464.24423562908174,700.8501677856445C464.5962356290817,715.0821677856445,472.4282356290817,736.4121677856446,484.4662356290817,746.0581677856445L488.23023562908173,749.0721677856445L488.47023562908174,744.2581677856446C489.2362356290817,729.1201677856445,478.71023562908175,708.6281677856446,468.39823562908174,698.9861677856445L464.10023562908174,694.9701677856445ZM427.9882356290817,706.7621677856446L426.89823562908174,712.6401677856445C424.2962356290817,726.6181677856446,427.54423562908175,749.1001677856445,437.3222356290817,761.0541677856445L440.3342356290817,764.7381677856445L441.6062356290817,760.1461677856446C445.68423562908174,745.4561677856445,439.4622356290817,723.5601677856446,431.3602356290817,711.6961677856445L427.9882356290817,706.7621677856446ZM390.31423562908174,710.6941677856446L388.01623562908173,716.1281677856446C382.48423562908175,729.1921677856445,381.13823562908175,752.2061677856445,387.94823562908175,765.6541677856445L390.12623562908175,769.9481677856445L392.3442356290817,765.6721677856445C399.4422356290817,751.9601677856446,397.9882356290817,729.2901677856446,392.56623562908175,716.1521677856445L390.31423562908174,710.6941677856446ZM352.53023562908174,706.6561677856446L349.1522356290817,711.5141677856445C341.0422356290817,723.1941677856446,334.77023562908175,745.0301677856446,338.7862356290817,759.9361677856446L340.03423562908176,764.5721677856445L343.07623562908174,760.8581677856446C352.9022356290817,748.8681677856446,356.19423562908173,726.4041677856445,353.6062356290817,712.4681677856445L352.53023562908174,706.6561677856446ZM291.43823562908176,743.2461677856445L291.58223562908177,747.9641677856446L295.37423562908174,745.1541677856445C307.59223562908176,736.0981677856446,316.1562356290817,715.0001677856445,317.08223562908177,700.6441677856445L317.47223562908175,694.5861677856445L312.9662356290817,698.6541677856445C302.2482356290817,708.3241677856445,290.9702356290817,728.1261677856446,291.43823562908176,743.2461677856445ZM288.6102356290817,674.6281677856446L282.7882356290817,677.4421677856445C271.26623562908173,683.0181677856446,253.2022356290817,697.9621677856445,249.11023562908173,713.7401677856445L247.98823562908171,718.0801677856446L252.25823562908172,716.7101677856446C265.9702356290817,712.3021677856445,280.25423562908173,694.8921677856445,286.1442356290817,680.6061677856445L288.6102356290817,674.6281677856446ZM221.18023562908172,674.7481677856445C235.88023562908174,674.7481677856445,254.17423562908172,663.6421677856445,264.27023562908175,652.8381677856446L268.7522356290817,648.0441677856445L262.22223562908175,648.6961677856445C249.30023562908173,649.9901677856445,227.02023562908172,657.7201677856445,217.94623562908174,670.8501677856445L215.4162356290817,674.5101677856445L219.86023562908173,674.7201677856445C220.29823562908172,674.7381677856445,220.73823562908171,674.7481677856445,221.18023562908172,674.7481677856445ZM200.26823562908174,622.4321677856445L204.46623562908172,624.1741677856446C208.9642356290817,626.0421677856446,214.41423562908173,626.8561677856445,220.18823562908173,626.8561677856445C231.76823562908172,626.8561677856445,244.63623562908174,623.5681677856445,253.7022356290817,618.8961677856446L259.3362356290817,615.9901677856445L253.2202356290817,614.3221677856445C238.73823562908171,610.3781677856446,216.37623562908172,611.3701677856445,204.01423562908172,619.8601677856445L200.26823562908174,622.4321677856445ZM255.31223562908173,583.5261677856445L261.67423562908175,582.7561677856445L256.4362356290817,579.0601677856446C244.01623562908173,570.2981677856445,222.64623562908173,563.4281677856445,208.38623562908174,567.1121677856445L204.01423562908172,568.2401677856445L207.32623562908174,571.3101677856446C216.42023562908173,579.7441677856445,233.59223562908173,583.9541677856446,247.82423562908173,583.9541677856446C250.32623562908174,583.9601677856446,252.8272356290817,583.8171677856445,255.31223562908173,583.5261677856445ZM275.27023562908175,550.5621677856445L271.51023562908176,545.5781677856445C262.5902356290817,533.7701677856445,243.90423562908174,520.5301677856445,229.26823562908172,519.7361677856445L224.67623562908173,519.4861677856445L227.00823562908172,523.4501677856446C234.58423562908172,536.3501677856445,254.76823562908172,547.0141677856445,269.1202356290817,549.4961677856445L275.27023562908175,550.5621677856445ZM258.0262356290817,479.13416778564454L259.15823562908173,483.62416778564454C262.7722356290817,497.9861677856445,279.2402356290817,513.8461677856445,292.42223562908174,520.3041677856445L297.9942356290817,523.0361677856445L295.8202356290817,517.2241677856446C290.72223562908175,503.6021677856445,276.4902356290817,485.7621677856445,262.3822356290817,480.69616778564455L258.0262356290817,479.13416778564454ZM302.2442356290817,449.80216778564454L301.92223562908174,454.2941677856445C300.88023562908177,468.8921677856445,311.55223562908174,488.66216778564456,322.46823562908173,499.3461677856445L327.0702356290817,503.85016778564454L326.6562356290817,497.4241677856445C325.6782356290817,482.21016778564456,317.63023562908177,461.24016778564453,305.85623562908177,452.49016778564453L302.2442356290817,449.80216778564454ZM355.97023562908174,489.83616778564453L358.62423562908174,496.0201677856445L360.5962356290817,489.5841677856445C365.1302356290817,474.76816778564455,365.7282356290817,452.4061677856445,357.9062356290817,440.14816778564455L355.54423562908175,436.45416778564453L353.61223562908174,440.38616778564455C347.0602356290817,453.6881677856445,349.93623562908175,475.79216778564455,355.97023562908174,489.83616778564453ZM389.1082356290817,501.0961677856445L393.6102356290817,496.0681677856445C403.8122356290817,484.6601677856445,413.5922356290817,464.62216778564454,411.6102356290817,449.95016778564457L411.03223562908175,445.6321677856445L407.62423562908174,448.3521677856445C396.3222356290817,457.38616778564455,389.7482356290817,478.7941677856445,389.3002356290817,494.3521677856445L389.1082356290817,501.0961677856445ZM456.4742356290817,483.0821677856445L457.91023562908174,479.01616778564454L453.6782356290817,479.83616778564453C437.8222356290817,482.89616778564454,422.56423562908174,500.8441677856446,416.1782356290817,512.1601677856445L412.80423562908175,518.1381677856446L419.2142356290817,515.6761677856446C433.64623562908173,510.1261677856445,451.6082356290817,496.82016778564457,456.4742356290817,483.0821677856445ZM438.41223562908175,545.5141677856445C451.8102356290817,545.5141677856445,471.88823562908175,542.0501677856446,481.91223562908175,531.6681677856445L484.85223562908175,528.6241677856445L480.75623562908174,527.5661677856446C466.3942356290817,523.8501677856445,445.9882356290817,531.8841677856445,433.0922356290817,540.9141677856445L427.29023562908174,544.9761677856445L434.36423562908175,545.3981677856445C435.62223562908173,545.4761677856445,436.9762356290817,545.5141677856445,438.41223562908175,545.5141677856445ZM481.06423562908174,589.2281677856445L485.12623562908175,588.2121677856445L482.2742356290817,585.1521677856445C470.95823562908174,573.0141677856445,447.14623562908173,570.6221677856445,434.8122356290817,571.1161677856445L427.5582356290817,571.4081677856445L433.49223562908173,575.5961677856445C444.22023562908174,583.1721677856445,460.1762356290817,590.0941677856445,473.50823562908175,590.0941677856445C476.14823562908174,590.0921677856445,478.6922356290817,589.8201677856446,481.06423562908174,589.2281677856445ZM419.79023562908174,599.3341677856445L413.0482356290817,596.0181677856446L416.5142356290817,602.6861677856446C423.6762356290817,616.4801677856445,437.2522356290817,633.8041677856445,451.95623562908173,637.2361677856445L455.93623562908175,638.1661677856446L454.90023562908175,634.2101677856446C450.73423562908175,618.2641677856445,430.8702356290817,604.7841677856445,419.79023562908174,599.3341677856445ZM395.24423562908174,603.8821677856445L393.17223562908174,611.8681677856446C390.5362356290817,622.0361677856445,385.4422356290817,647.2141677856446,395.1202356290817,661.3021677856445L397.32823562908175,664.5141677856445L399.29023562908174,661.1461677856446C408.06623562908175,646.0481677856445,401.24223562908173,621.5341677856445,397.9022356290817,611.6961677856445L395.24423562908174,603.8821677856445ZM339.7722356290817,645.6481677856445L339.7922356290817,649.8841677856445L343.4702356290817,647.7761677856445C356.2602356290817,640.4341677856446,365.24423562908174,620.3941677856445,368.1802356290817,604.8861677856446L369.5002356290817,597.9121677856446L364.13623562908174,602.5621677856445C354.30423562908175,611.0941677856445,339.6962356290817,629.6081677856446,339.7722356290817,645.6481677856445Z"></path></g><g style="opacity:0.75;"><path style="mix-blend-mode:passthrough" fill-opacity="1" fill="#FFFFFF" d="M572.0205481290817,416.80826544189455C586.4245481290817,432.1602654418945,600.8745481290817,449.78226544189454,607.6665481290818,470.3262654418945C613.0165481290817,486.5102654418945,616.8545481290818,521.0662654418945,593.2425481290818,524.4382654418946C578.7285481290817,526.5102654418945,573.9485481290817,516.1462654418946,549.8665481290817,477.27626544189457C535.4345481290817,453.9822654418945,520.8825481290817,430.54226544189453,503.4141481290817,409.3622654418945C465.7541481290817,363.69826544189453,408.53216912908175,348.0962554418945,408.74615848108175,345.8982654418945C409.3601721290817,339.5882654418945,497.3421481290817,337.2182654418945,572.0205481290817,416.80826544189455Z"></path></g><g><path style="mix-blend-mode:passthrough" fill-opacity="1" fill="#000E3F" d="M375.9237981290817,799.6002498168946C395.74179812908176,799.6002498168946,416.35779812908174,797.3082498168945,437.5197981290817,792.6472498168946C546.1397981290818,768.7302498168945,637.2137981290817,687.0482498168946,658.9937981290817,594.0172498168945C659.6787981290818,591.0992498168946,657.8667981290816,588.1782498168945,654.9477981290818,587.4942498168946C652.0277981290817,586.8012498168946,649.1017981290818,588.6162498168945,648.4237981290817,591.5402498168945C627.5577981290817,680.6542498168945,539.8717981290818,758.9912498168945,435.1837981290817,782.0462498168945C346.1257981290817,801.6582498168946,267.4521981290817,777.5932498168945,219.33019812908174,716.0422498168946C159.69219812908173,639.7482498168945,171.07024012908172,532.5702498168946,245.79419812908174,466.73174981689453C294.4557981290817,423.8577498168945,354.0757981290817,407.0837498168945,409.37179812908175,420.70174981689456C455.05779812908173,431.95384981689455,490.63379812908175,462.90374981689456,506.9817981290817,505.6142498168945C515.7437981290817,528.5082498168945,521.3777981290817,565.4482498168945,510.91779812908175,600.4602498168945C496.98779812908174,647.1022498168945,459.09579812908174,679.8102498168946,409.5617981290817,687.9562498168946C367.88579812908176,694.8022498168946,328.75979812908173,682.0022498168945,309.86779812908173,655.3282498168945C292.45179812908174,630.7402498168946,290.94379812908176,598.5462498168945,306.02579812908175,573.3122498168946C317.96379812908174,553.3362498168946,337.80779812908173,542.9542498168945,359.1957981290817,545.6202498168946C377.14579812908175,547.8362498168946,394.89179812908174,564.6642498168945,392.2537981290817,587.9822498168945C391.91979812908176,590.9612498168946,394.0617981290817,593.6482498168946,397.03979812908176,593.9862498168945C399.9937981290817,594.2702498168945,402.7057981290817,592.1782498168945,403.0437981290817,589.2002498168945C406.4217981290817,559.2862498168945,383.60579812908173,537.6922498168946,360.52379812908174,534.8422498168945C334.75579812908177,531.6742498168945,310.91579812908174,543.9602498168945,296.70179812908174,567.7422498168945C279.41779812908175,596.6662498168945,281.10579812908173,633.5082498168945,301.00579812908177,661.6022498168945C322.2817981290817,691.6382498168946,365.5717981290817,706.1922498168946,411.31979812908173,698.6682498168946C465.04579812908173,689.8322498168945,506.16779812908175,654.2782498168945,521.3177981290817,603.5662498168945C532.5537981290818,565.9402498168945,526.5157981290818,526.2922498168946,517.1177981290817,501.7322498168945C499.4817981290817,455.6518498168945,461.15379812908174,422.27384981689454,411.9657981290817,410.15784981689455C353.15379812908174,395.66584981689454,289.9797981290817,413.32384981689455,238.61419812908173,458.58584981689455C159.51019812908172,528.2802498168945,147.54219812908173,641.8342498168945,210.77219812908172,722.7242498168946C250.05219812908172,772.9702498168945,308.36179812908176,799.6022498168945,375.9237981290817,799.6002498168946ZM874.1117981290818,414.3638498168945C884.4457981290817,415.1258498168945,893.7997981290818,406.13774981689454,893.8337981290817,395.48984981689455C893.9177981290817,370.23581981689455,855.4057981290817,368.4378098168945,854.7877981290817,395.14184981689453C854.5117981290817,407.16784981689455,864.4257981290817,414.8418498168945,874.1117981290818,414.3638498168945Z"></path></g><g><path style="mix-blend-mode:passthrough" fill-opacity="1" fill="#000E3F" d="M1000.6216418790817,94.83201622314454C983.7856418790817,86.27601622314452,959.3336418790817,89.06601622314453,945.0116418790817,110.08201622314454C919.4096418790817,105.77401622314453,894.7396418790818,122.09201622314453,878.3256418790817,154.58801622314454C862.3396418790817,186.23981622314454,860.4436418790817,220.69781622314454,860.5696418790817,251.22581622314453C830.8096418790817,248.17981622314454,800.4496418790817,252.81181622314452,772.7076418790817,264.48981622314454C753.0216418790817,234.44581622314453,743.2196418790817,198.07381622314452,745.8056418790817,164.09181622314452C747.5396418790817,141.32591622314453,757.7876418790818,116.05601622314452,780.9856418790818,108.97601622314454C782.0836418790817,124.57401622314453,790.1496418790817,137.67001622314453,803.4716418790817,144.82801622314452C809.5706418790817,148.11891622314454,816.3946418790817,149.84191622314455,823.3276418790817,149.84201622314453C832.7886418790818,149.84201622314453,842.2916418790817,146.65001622314452,850.4576418790817,140.39401622314455C864.2076418790817,129.86401622314452,870.0206418790817,111.87801622314453,865.2676418790817,94.57201622314453C860.4796418790818,77.13801622314453,846.5416418790817,65.01198622314453,828.8896418790818,62.92798222314453C809.8666418790817,60.69198622314453,787.5466418790817,72.12398622314453,781.7386418790817,97.55601622314452C750.5696418790817,104.42601622314453,737.0926418790817,135.48401622314452,734.9786418790817,163.26981622314452C732.2516418790817,199.07581622314453,742.3486418790817,237.31181622314452,762.7186418790817,269.05981622314454C750.9236418790817,274.8958162231445,739.6786418790817,281.97981622314455,729.3196418790817,290.41581622314453C687.2116418790818,324.7078162231445,666.4116418790817,373.77781622314455,672.2516418790817,425.03981622314456C673.5076418790817,436.07181622314454,676.6216418790817,447.0698162231445,679.9186418790817,458.7098162231445C685.2726418790817,477.62181622314455,691.3406418790818,499.0558162231445,689.9316418790818,524.5778162231445C689.4636418790817,533.0518162231446,688.6216418790817,541.8718162231446,684.5206418790817,549.4078162231446C680.2236418790817,546.5898162231445,676.9006418790817,541.9838162231445,672.9556418790818,535.9638162231445C668.3436418790817,528.9278162231445,666.6036418790817,520.8578162231445,664.7596418790818,512.3118162231445C664.3456418790818,510.3898162231445,663.9316418790818,508.46381622314453,663.4816418790817,506.54781622314454C632.2856418790817,373.11181622314456,522.5386418790818,291.06181622314455,377.39964187908174,292.07581622314456C377.32964187908175,292.07581622314456,377.2596418790817,292.0778162231445,377.1896418790817,292.08381622314454C376.9466418790817,292.0698162231445,376.70264187908174,292.0748162231445,376.45964187908174,292.0978162231445C373.4976418790817,292.3538162231445,370.5336418790817,292.58181622314453,367.56764187908175,292.81181622314455C361.0976418790817,293.30981622314454,354.4056418790817,293.8298162231445,347.7836418790817,294.62381622314456C227.44764187908171,309.06581622314457,116.96564187908173,397.2798162231445,79.11814187908172,509.14781622314456C65.72214187908173,548.7378162231446,59.966141879081725,591.7178162231445,62.472141879081725,633.4458162231446C65.68814187908173,686.9998162231445,79.80414187908173,730.0938162231446,107.45164187908172,769.6498162231445C67.01214187908172,790.6238162231446,18.108141879081725,821.6158162231445,3.598131879081726,854.6518162231446C-0.715867120918274,864.4738162231446,-1.161868120918274,873.9158162231445,2.272131879081726,882.7138162231445C7.918131879081726,897.1778162231445,22.590141879081727,906.1178162231446,33.90414187908173,911.0738162231445C88.39014187908172,934.9278162231445,258.9946418790817,961.3458162231445,433.3716418790817,961.3438162231446C498.49864187908173,961.3438162231446,564.1596418790817,957.6558162231445,624.4816418790817,948.7798162231445C666.3236418790817,942.6218162231445,699.1756418790817,934.9838162231446,727.8696418790818,924.7478162231446C843.5856418790818,883.4618162231445,913.2676418790817,804.1618162231446,934.9836418790817,689.0558162231446C943.7496418790818,642.5778162231445,943.7756418790817,587.0298162231445,939.2646418790818,556.1818162231446C938.8626418790817,553.4198162231446,938.6206418790817,550.6258162231445,938.3766418790817,547.8258162231446C938.0666418790818,544.2378162231446,937.7426418790817,540.5338162231445,937.0926418790817,536.8018162231446C937.7326418790817,536.3558162231445,938.6706418790817,535.7658162231446,939.5346418790817,535.2238162231445C944.4126418790818,532.1618162231446,953.4866418790817,526.4598162231446,966.6366418790817,512.5318162231445C1004.1516418790817,472.79781622314454,1018.3216418790818,421.06381622314456,1005.5116418790817,370.5918162231445C992.3426418790817,318.66581622314453,951.6006418790818,276.8658162231445,896.5276418790817,258.7818162231445C888.3036418790817,256.0798162231445,879.9056418790817,254.10581622314453,871.4316418790818,252.69181622314454C871.2446418790818,223.06181622314452,872.8256418790817,189.54381622314452,888.0096418790818,159.48801622314454C894.6426418790817,146.3579162231445,912.3876418790817,117.87601622314453,940.0936418790817,120.39201622314454C935.2496418790818,135.77991622314454,938.1896418790817,151.32401622314453,948.4696418790817,162.92181622314453C956.6516418790817,172.15181622314452,968.1296418790818,177.11181622314453,980.2876418790818,177.11181622314453C984.8396418790817,177.11181622314453,989.4896418790818,176.41581622314453,994.0956418790818,174.98381622314452C1010.6416418790817,169.84781622314455,1022.3016418790817,154.97591622314454,1023.8216418790818,137.09191622314455C1025.3616418790816,119.07791622314454,1016.4616418790818,102.88591622314453,1000.6216418790817,94.83201622314454ZM827.6216418790817,73.71201622314453C843.3676418790817,75.57201622314453,851.9856418790818,87.19401622314453,854.8016418790817,97.45001622314453C857.6476418790817,107.81401622314453,856.2696418790817,122.27401622314453,843.8596418790818,131.78001622314451C833.2476418790817,139.90801622314453,819.7416418790817,141.24601622314452,808.6136418790817,135.26601622314453C797.6996418790817,129.40401622314454,791.5616418790818,118.01601622314453,791.7736418790818,104.55801622314453C792.2936418790817,103.58801622314454,792.6076418790817,102.49601622314452,792.4476418790817,101.32201622314453C792.4116418790817,101.05401622314453,792.2656418790817,100.84001622314453,792.1916418790818,100.58601622314453C796.4156418790817,80.91201622314453,813.3156418790817,72.02998622314453,827.6216418790817,73.71201622314453ZM89.41004187908173,512.6298162231445C125.96764187908173,404.5778162231445,232.74964187908174,319.3658162231445,349.0856418790817,305.40581622314454C355.48164187908174,304.63781622314457,362.05364187908174,304.1278162231445,368.41364187908175,303.63781622314457C371.34964187908173,303.41181622314457,374.2856418790817,303.18181622314455,377.22164187908174,302.93181622314455L377.49364187908174,302.9378162231445C378.45764187908173,302.92981622314454,379.4176418790817,302.9258162231445,380.3796418790817,302.9258162231445C518.8496418790817,302.9258162231445,623.1436418790818,381.6878162231445,652.9136418790818,509.02381622314454C653.3496418790817,510.87981622314453,653.7496418790818,512.7418162231445,654.1516418790817,514.6038162231446C656.1236418790817,523.7398162231445,658.1616418790817,533.1898162231446,663.8796418790818,541.9178162231445C669.2696418790817,550.1438162231445,675.9756418790818,560.3858162231445,689.3196418790817,562.8198162231445C695.0656418790817,563.8658162231445,700.4236418790817,563.6778162231445,705.1456418790817,563.5038162231446C712.8636418790817,563.2258162231445,718.9296418790817,563.0098162231445,725.6716418790817,567.3078162231445C765.0876418790817,592.4318162231446,723.5116418790817,690.3958162231445,698.4976418790817,731.2278162231445C638.7516418790817,828.7478162231446,534.7076418790817,892.5658162231446,420.18364187908173,901.9418162231445C410.4036418790817,902.7428162231446,400.6336418790817,903.1438162231445,390.8956418790817,903.1438162231445C291.5116418790817,903.1378162231446,199.10964187908172,861.3698162231445,133.94964187908172,786.0258162231445C95.72404187908172,741.8278162231445,77.02404187908172,694.5698162231446,73.31604187908172,632.7958162231446C70.89404187908173,592.4578162231445,76.46204187908172,550.9038162231445,89.41004187908173,512.6298162231445ZM994.9996418790818,373.2598162231445C1003.2016418790818,405.5898162231445,999.4156418790817,438.51181622314454,984.7896418790817,467.9698162231445C979.1316418790817,462.78981622314456,972.0036418790817,458.99981622314453,963.1656418790817,456.49181622314455C946.5856418790818,451.7818162231445,934.5976418790817,458.96381622314453,923.0056418790817,465.9098162231445C917.8876418790817,468.97581622314453,912.5936418790817,472.14381622314454,907.0196418790817,474.12181622314455C888.6076418790817,480.6618162231445,871.1236418790817,474.35981622314455,857.8016418790817,456.3898162231445C856.0156418790817,453.9818162231445,852.6156418790817,453.4768162231445,850.2066418790818,455.2628162231445C847.7986418790817,457.0488162231445,847.2936418790817,460.4498162231445,849.0796418790817,462.85781622314454C861.0636418790817,479.01581622314455,876.4856418790818,487.5058162231445,893.0116418790817,487.5058162231445C898.7896418790817,487.5058162231445,904.7056418790818,486.46781622314455,910.6536418790818,484.35581622314453C917.2456418790817,482.01581622314455,923.0116418790817,478.5658162231445,928.5876418790817,475.22581622314453C939.0796418790817,468.93981622314453,948.1316418790817,463.5078162231445,960.2036418790817,466.93981622314453C968.5496418790817,469.31181622314455,974.6296418790818,472.90781622314455,979.2896418790817,477.95581622314455C973.4536418790817,487.7168162231445,966.5676418790817,496.81181622314455,958.7556418790817,505.0778162231445C946.5536418790817,518.0018162231445,938.5516418790817,523.0278162231446,933.7716418790817,526.0338162231445C929.4876418790817,528.7258162231445,925.0556418790817,531.5118162231445,926.2576418790817,537.8298162231445C926.9296418790817,541.3498162231446,927.2446418790818,544.9558162231446,927.5736418790817,548.7698162231445C927.8356418790818,551.7818162231445,928.1016418790817,554.7878162231445,928.5356418790817,557.7578162231446C932.9156418790817,587.7138162231445,932.8756418790817,641.7398162231445,924.3276418790817,687.0458162231446C903.3796418790818,798.0958162231445,836.0576418790818,874.6298162231445,724.2356418790818,914.5238162231445C696.2296418790818,924.5178162231446,664.0336418790818,931.9898162231445,622.9136418790818,938.0398162231445C406.5956418790817,969.8878162231446,110.22764187908173,932.6338162231445,38.27404187908173,901.1318162231445C24.936041879081728,895.2918162231446,15.748041879081725,887.3518162231445,12.398041879081726,878.7718162231446C10.018041879081727,872.6698162231445,10.396041879081727,866.2098162231446,13.552041879081726,859.0238162231445C24.262041879081725,834.6338162231445,58.980041879081725,806.8418162231445,113.94564187908172,778.5358162231445C117.72364187908173,783.5248162231445,121.65864187908173,788.3918162231446,125.74364187908172,793.1318162231445C192.99964187908174,870.8978162231446,288.32764187908174,914.0078162231446,390.8716418790817,914.0058162231445C400.8716418790817,914.0058162231445,410.9536418790817,913.5938162231446,421.0716418790817,912.7658162231445C539.0376418790818,903.1098162231445,646.2116418790818,837.3678162231446,707.7596418790818,736.9038162231445C720.4556418790818,716.1798162231445,738.4236418790817,679.3818162231445,747.2696418790817,643.8778162231446C757.9176418790818,601.1538162231445,752.4676418790817,571.5118162231445,731.5116418790817,558.1538162231445C721.9116418790817,552.0378162231445,713.1936418790817,552.3518162231445,704.7596418790818,552.6578162231446C701.4576418790817,552.7718162231445,698.2816418790817,552.8758162231445,695.0436418790817,552.6178162231445C699.3196418790817,543.7578162231446,700.2776418790817,534.2718162231445,700.7796418790817,525.1818162231446C702.2916418790817,497.84981622314456,695.9576418790817,475.48781622314453,690.3736418790817,455.7598162231445C687.2016418790818,444.5558162231445,684.2056418790818,433.9718162231445,683.0476418790818,423.8178162231445C677.6356418790817,376.3038162231445,697.0016418790817,330.75181622314454,736.1856418790817,298.84381622314453C780.0656418790817,263.1118162231445,840.2256418790818,251.72181622314454,893.1536418790818,269.09981622314456C945.4426418790817,286.26781622314456,982.5646418790817,324.2318162231445,994.9996418790818,373.2598162231445ZM1013.0116418790817,136.17401622314452C1012.1016418790817,146.88401622314453,1005.8116418790818,159.98001622314453,990.8836418790818,164.61581622314452C978.1236418790817,168.57781622314454,964.9816418790817,165.16981622314455,956.6036418790817,155.71601622314455C948.1396418790818,146.16601622314454,946.4116418790817,132.86401622314452,951.8236418790817,119.94601622314454C952.4596418790817,119.29201622314453,952.9936418790817,118.53401622314453,953.2376418790817,117.58601622314453C953.2556418790817,117.51401622314452,953.2336418790817,117.44201622314453,953.2496418790818,117.36801622314454C964.0196418790817,100.47001622314454,982.8596418790818,97.98401622314452,995.6996418790817,104.50801622314452C1009.8316418790818,111.69201622314453,1013.9116418790817,125.57601622314453,1013.0116418790817,136.17401622314452Z"></path></g></g></g></svg>