<svg viewBox="0 0 1024 1024" height="1024" width="1024" version="1.1" fill="none" xmlns:xlink="http://www.w3.org/1999/xlink" xmlns="http://www.w3.org/2000/svg"><defs><clipPath id="master_svg0_30_041"><rect rx="0" height="1024" width="1024" y="0" x="0"></rect></clipPath></defs><g clip-path="url(#master_svg0_30_041)"><g><g><path style="mix-blend-mode:passthrough" fill-opacity="1" fill="#FFFFFF" d="M72.75207671051025,315.2381153503418C45.202076710510255,335.2941153503418,26.762076710510254,364.2541153503418,22.976076710510252,374.1341153503418C9.260116710510253,409.9165153503418,18.588076710510254,385.5705153503418,10.716116710510253,408.2185153503418C9.722116710510253,411.0825153503418,10.004116710510253,414.1445153503418,9.230116710510254,417.0105153503418C3.662116710510254,437.60051535034177,2.886116710510254,470.9205153503418,13.062116710510253,501.5725153503418C43.28807671051025,592.6065153503419,142.07777671051025,619.1725153503418,142.59377671051024,622.8545153503418C142.94377671051026,625.3445153503418,125.04777671051025,624.3485153503418,94.94207671051025,646.1725153503418C28.698076710510254,694.1965153503418,28.054076710510255,795.4685153503418,101.29407671051025,841.1205153503417C112.79777671051025,848.2925153503418,125.01977671051026,853.9485153503418,136.61977671051025,856.4205153503418C144.31377671051024,858.3685153503418,150.22177671051026,859.8745153503418,156.36577671051026,860.5765153503418C168.98777671051025,862.0185153503418,181.54777671051025,861.9745153503418,194.07977671051026,859.9885153503418C236.60377671051026,853.2485153503418,274.55177671051024,827.0825153503419,293.1317767105103,786.0085153503418C297.32577671051024,776.7385153503418,280.6897767105103,739.9545153503418,283.10377671051026,675.1365153503418C283.56777671051026,662.7645153503418,283.39777671051024,667.2565153503417,283.80177671051024,660.6545153503419C287.73577671051027,596.7245153503418,313.28977671051024,531.1105153503418,362.8337767105103,487.89851535034177C370.27777671051024,481.4045153503418,371.30377671051025,482.8665153503418,370.48377671051026,475.5705153503418C353.1557767105103,321.1001153503418,186.55577671051026,232.38011535034178,72.75207671051025,315.2381153503418ZM665.4357767105103,554.6825153503419C659.1097767105102,563.3945153503419,675.9097767105103,569.5125153503418,678.5017767105103,631.3645153503418C678.6557767105103,634.2685153503418,679.9517767105102,637.1205153503417,678.7077767105103,640.0225153503418C677.5657767105102,727.2385153503418,639.8017767105102,759.4065153503418,651.9557767105102,764.0425153503418C646.9637767105103,762.0545153503417,647.0697767105103,764.7085153503417,642.3117767105102,773.5285153503419C610.5137767105102,832.1085153503418,581.1237767105102,851.6885153503418,580.3037767105103,863.8485153503418C575.9457767105102,931.1985153503418,623.8557767105102,985.7405153503418,678.1377767105103,999.2225153503418C680.7297767105102,999.8445153503418,683.2717767105103,1000.4665153503418,685.8117767105102,1001.2445153503418C698.2037767105103,1004.9785153503418,722.1037767105103,1006.1705153503418,744.1397767105102,1000.8805153503419C812.4757767105102,984.3945153503417,849.8037767105103,912.3785153503418,824.6057767105102,844.6665153503418C808.1077767105103,800.3925153503418,780.8637767105103,790.8265153503419,794.9497767105103,793.6485153503418C805.5257767105103,795.8265153503418,831.5537767105103,798.0045153503418,856.7517767105103,796.0325153503418C946.4997767105102,788.9305153503418,1004.7737767105102,732.6245153503419,1017.2657767105103,647.4385153503417C1018.2557767105103,640.6985153503417,1019.2957767105103,633.9065153503418,1019.0857767105102,627.0105153503418C1013.2757767105103,450.2645153503418,779.1897767105103,398.8325153503418,665.4357767105103,554.6825153503419Z"></path></g><g style="opacity:0.15000000596046448;"><g><path style="mix-blend-mode:passthrough" fill-opacity="1" fill="#000E3F" d="M648.1839622573852,760.594142791748C647.3439622573853,760.936142791748,647.4039622573853,761.622142791748,647.6639622573853,762.3601427917481C648.1539622573853,763.8561427917481,647.3839622573853,765.048142791748,646.7319622573852,766.298142791748C629.6879622573853,799.4181427917481,613.7899622573852,820.560142791748,592.6839622573852,845.692142791748C588.9799622573853,850.076142791748,574.5399622573852,851.7641427917481,568.7859622573852,852.338142791748C550.1179622573852,854.1961427917481,530.2179622573852,854.016142791748,509.8699622573853,852.1881427917481C509.55596225738526,852.1601427917481,509.2159622573853,852.124142791748,508.90196225738526,852.094142791748C561.4579622573852,769.922142791748,562.6999622573853,680.4358427917481,615.5559622573853,598.957942791748C619.4039622573853,598.499842791748,623.2199622573853,597.9499427917481,627.0519622573852,597.3539427917481C641.3799622573853,595.071912791748,655.4959622573853,591.771922791748,669.1279622573852,587.351878791748C672.6119622573852,586.231883791748,673.1699622573852,586.4598507917481,673.9199622573852,589.821852791748C678.7659622573852,610.885842791748,680.1779622573853,632.677842791748,678.8459622573853,653.587842791748C678.6519622573853,656.457842791748,679.2639622573852,659.6238427917481,677.1439622573853,662.173842791748C677.0559622573853,662.306542791748,677.0139622573852,662.4649427917481,677.0259622573852,662.6238427917481C678.3379622573852,669.5378427917481,676.0539622573853,676.067842791748,675.0879622573852,682.7818427917481C671.4039622573853,708.540142791748,660.6459622573852,735.810142791748,651.3299622573852,756.6001427917481C650.6039622573853,758.230142791748,650.0159622573852,759.844142791748,648.1839622573852,760.594142791748ZM511.02996225738525,918.338142791748C496.9159622573852,929.362142791748,473.14796225738525,942.9341427917481,457.35196225738525,951.394142791748C432.1199622573853,964.926142791748,414.53396225738527,971.1201427917481,400.75596225738525,976.6021427917481C397.57596225738524,977.882142791748,395.0959622573853,977.2261427917481,392.83596225738523,974.512142791748C380.8219622573853,960.190142791748,370.6099422573852,946.558142791748,361.37596225738525,932.676142791748C383.31796225738526,933.8501427917481,416.87796225738526,933.7741427917481,440.85396225738526,924.896142791748C448.6299622573853,921.7461427917481,457.80196225738524,918.374142791748,467.3579622573852,915.076142791748C493.7159622573853,917.604142791748,509.78396225738527,915.540142791748,510.12796225738526,915.5521427917481C511.1779622573853,915.642142791748,512.2119622573853,917.416142791748,511.02996225738525,918.338142791748Z"></path></g></g><g><path style="mix-blend-mode:passthrough" fill-opacity="1" fill="#FF8EDE" d="M940.3281458511352,579.6475817565918C918.6301458511352,569.8195817565918,895.1661458511353,563.9115817565918,871.3561458511352,561.1375817565918C847.5201458511352,558.2955817565918,823.2161458511353,558.8575817565918,799.2981458511352,562.6635817565918L781.4941458511353,566.3435817565918C775.6321458511353,567.9235817565918,769.7721458511353,569.5595817565918,763.9541458511353,571.2815817565918C758.2241458511353,573.3475817565918,752.5501458511352,575.5815817565917,746.8681458511353,577.7355817565917C741.2881458511353,580.1995817565918,735.8241458511352,582.9475817565918,730.3761458511352,585.6475817565918C708.8901458511352,597.1355817565918,689.3761458511352,612.9235817565918,675.1321458511353,632.4955817565917C673.1801458511353,635.1765817565918,673.5421458511353,638.8935817565919,675.9731458511352,641.1485817565917C678.4041458511352,643.4025817565919,682.1371458511353,643.4835817565918,684.6641458511352,641.3355817565919L684.7001458511353,641.3055817565918C701.5071458511353,627.0185817565919,720.3281458511352,615.2865817565918,740.5561458511353,606.4875817565918C745.6901458511353,604.5535817565918,750.7361458511352,602.4835817565918,755.7981458511352,600.4635817565918L771.4261458511353,595.4655817565917L787.3401458511353,591.3375817565918L803.5281458511353,588.2335817565918C825.2201458511353,584.4615817565918,847.4361458511353,583.3115817565917,869.6841458511352,583.8455817565919C891.9581458511352,584.4935817565918,914.2401458511353,587.1175817565918,936.5981458511352,591.2995817565918L936.6581458511353,591.3115817565917C939.7171458511352,591.8765817565918,942.7171458511352,590.0705817565918,943.6511458511352,587.1025817565918C944.5851458511353,584.1355817565918,943.1591458511352,580.9375817565917,940.3281458511352,579.6475817565918ZM249.47414585113526,418.6639817565918C230.81414585113527,403.6679817565918,210.40414585113524,390.9699817565918,188.59204585113525,381.2579817565918C166.85004585113523,371.5539317565918,143.61604585113525,364.4939417565918,119.68004585113525,362.8259391565918C116.37494585113525,362.5932117565918,113.41804585113525,364.8687817565918,112.79664585113525,368.1232117565918C112.17524585113526,371.37763175659177,114.08574585113526,374.5825817565918,117.24404585113525,375.5839817565918L117.38404585113526,375.6279817565918C138.64604585113526,382.3839817565918,158.89204585113526,391.4139817565918,178.28004585113524,402.0339817565918C183.02804585113526,404.8899817565918,187.89804585113524,407.4759817565918,192.61414585113525,410.3399817565918C197.26014585113523,413.3319817565918,201.98214585113527,416.1859817565918,206.55414585113527,419.2659817565918L220.13614585113527,428.6919817565918L233.17814585113524,438.81398175659183C250.33814585113527,452.5539817565918,266.0541458511352,467.9855817565918,279.6601458511352,484.94758175659183C293.15814585113526,501.9975817565918,304.36014585113526,520.7235817565918,311.40614585113525,541.5855817565919L311.45414585113525,541.7315817565918C312.36114585113523,544.4065817565918,314.97114585113525,546.1205817565918,317.78614585113525,545.8895817565918C321.17214585113527,545.6135817565918,323.69214585113525,542.6415817565918,323.4121458511353,539.2555817565918C321.41614585113524,514.9355817565918,311.41414585113523,491.7375817565918,298.1281458511353,471.6335817565918C284.8161458511353,451.3559817565918,267.93014585113525,433.8759817565918,249.47414585113526,418.6639817565918ZM841.9881458511353,668.5435817565917C822.7621458511353,662.0535817565918,802.4981458511353,658.5095817565918,782.0721458511352,657.6535817565918L766.7301458511353,657.7395817565919C761.6221458511352,658.0975817565918,756.5081458511353,658.4035817565918,751.4141458511352,658.8595817565918L736.2341458511353,661.2575817565918C731.2221458511352,662.3575817565918,726.2401458511353,663.5655817565918,721.2941458511352,664.8495817565918C701.6041458511353,670.4235817565918,682.7821458511353,679.3555817565918,666.8201458511353,691.8235817565918C664.2441458511353,693.8365817565918,663.5411458511353,697.4365817565917,665.1711458511353,700.2705817565918C666.8011458511353,703.1035817565918,670.2681458511353,704.3055817565918,673.3021458511353,703.0895817565918L673.3641458511353,703.0635817565918C690.9061458511353,696.0335817565917,708.5681458511352,690.7035817565918,726.5981458511352,687.4295817565918C731.1481458511353,686.8015817565918,735.6701458511352,686.1495817565917,740.1581458511353,685.3615817565918L753.7981458511352,684.0615817565917C758.3701458511352,683.9235817565918,762.9241458511352,683.6115817565918,767.4841458511353,683.3955817565918L781.2001458511353,683.5535817565918C799.5041458511353,684.0115817565918,817.7821458511353,686.5715817565917,835.8801458511352,690.4755817565917C853.9841458511353,694.4755817565917,871.8101458511353,700.0975817565918,889.6961458511353,706.7495817565919L889.7461458511352,706.7695817565918C892.6241458511353,707.8375817565918,895.8501458511353,706.6275817565918,897.3171458511353,703.9315817565919C898.7851458511352,701.2345817565918,898.0491458511352,697.8695817565917,895.5901458511353,696.0315817565918C879.5201458511352,684.0155817565918,861.2101458511353,674.9415817565919,841.9881458511353,668.5435817565917ZM267.7001458511353,544.1355817565918C253.18814585113526,529.4135817565918,235.74414585113524,517.9375817565917,217.45814585113527,509.0715817565918C199.03214585113525,500.4095817565918,179.73204585113524,494.2175817565918,160.16004585113524,490.3855817565918C140.60804585113524,486.4795817565918,120.82604585113526,484.6215817565918,101.11602585113525,485.1175817565918C97.84535585113525,485.19758175659183,95.13270585113526,487.67358175659183,94.75479585113526,490.92358175659183C94.37687585113525,494.17358175659183,96.44903585113525,497.20558175659176,99.61402585113525,498.0335817565918L99.64202585113526,498.0395817565918C118.26804585113526,502.9275817565918,136.63404585113526,507.4515817565918,154.53804585113525,512.8875817565918C158.96804585113526,514.3795817565917,163.40004585113525,515.8175817565918,167.85804585113527,517.1435817565919L180.94804585113525,521.8075817565918L193.81014585113525,526.8315817565917L206.32414585113526,532.4735817565918C222.87614585113525,540.1655817565918,238.34414585113527,549.6595817565918,252.37214585113526,560.9715817565918C266.3761458511352,572.3535817565918,278.66614585113524,585.7855817565918,289.62414585113527,601.0415817565918L289.6741458511352,601.1135817565918C291.46714585113523,603.5955817565919,294.8091458511352,604.3895817565918,297.52614585113525,602.9775817565918C300.2441458511353,601.5665817565919,301.51714585113524,598.3765817565918,300.5181458511353,595.4815817565918C293.88014585113524,576.3555817565918,282.26614585113526,558.7075817565918,267.7001458511353,544.1355817565918ZM283.03814585113525,660.1215817565918L282.76614585113526,659.9955817565917L279.56214585113526,658.5255817565918C277.39814585113527,657.6155817565918,275.22014585113527,656.6015817565917,273.00214585113525,655.8095817565918C268.54014585113526,654.5315817565918,263.98814585113524,652.9355817565918,259.39214585113524,652.1455817565918C250.18414585113524,650.4075817565918,240.79014585113526,649.4415817565919,231.49614585113525,649.7695817565918C212.83614585113526,650.0175817565919,194.48414585113525,653.8715817565918,177.04204585113524,660.0155817565918C159.68604585113525,666.4095817565918,143.15604585113525,675.1835817565918,128.58604585113525,686.6255817565918C114.00804585113525,697.9595817565918,101.20401585113525,711.8555817565918,92.33002585113526,727.9575817565918C90.77008185113526,730.7905817565918,91.50202275113526,734.3375817565918,94.05598585113525,736.3205817565918C96.60993585113525,738.3045817565918,100.22734585113525,738.1365817565918,102.58604585113525,735.9235817565918L102.68404585113525,735.8335817565918C115.00004585113525,724.2795817565918,127.99004585113525,714.2175817565918,141.90804585113526,705.6135817565918C148.93604585113525,701.4495817565918,155.93604585113525,697.2475817565918,163.38604585113524,693.8895817565917C166.99604585113525,691.9995817565919,170.73404585113525,690.3735817565919,174.49404585113524,688.7955817565918C178.19604585113524,687.0815817565917,182.02804585113526,685.6955817565918,185.88404585113526,684.3755817565918C201.14014585113526,678.6755817565918,217.03814585113525,674.7315817565918,233.09214585113526,672.4795817565919C237.12014585113525,671.7515817565918,241.13814585113525,671.5975817565918,245.18014585113525,671.2595817565918C249.25214585113525,670.7295817565919,253.23814585113524,670.9535817565918,257.30814585113524,670.8535817565918C261.4101458511352,670.6155817565918,265.3201458511353,671.3015817565918,269.4501458511353,671.3555817565918C271.47014585113527,671.5195817565918,273.42214585113527,671.9175817565917,275.4481458511352,672.1715817565919L278.5081458511353,672.5335817565917L282.75414585113526,673.0175817565919C284.83614585113526,672.6995817565918,285.2461458511352,672.2235817565918,285.6601458511352,672.0455817565918C285.9941458511353,671.8295817565918,286.11014585113526,671.7555817565918,285.70414585113525,671.8615817565918C288.89914585113524,670.7665817565918,290.60114585113524,667.2885817565918,289.5061458511352,664.0935817565918C288.56014585113525,661.3315817565917,285.82614585113527,659.8075817565918,283.03814585113525,660.1215817565918ZM281.5681458511352,660.3495817565918C280.80814585113524,660.5955817565919,280.43814585113523,660.7595817565918,280.2941458511352,660.7755817565918C280.2221458511352,660.8235817565918,280.1601458511352,660.6015817565917,281.5681458511352,660.3495817565918ZM744.9241458511352,809.0595817565918C733.2261458511352,794.7655817565918,719.3461458511352,781.8975817565918,703.0581458511352,772.4255817565918C686.9361458511353,762.9115817565918,668.2341458511353,756.7255817565917,649.4821458511352,756.9575817565918C646.2531458511353,756.9995817565919,643.5321458511353,759.3795817565917,643.0621458511353,762.5745817565918C642.5921458511352,765.7685817565919,644.5121458511353,768.8325817565918,647.5921458511352,769.8015817565918L647.7241458511353,769.8435817565918C663.4321458511353,774.7815817565918,677.5261458511352,782.3095817565918,690.3401458511353,791.8235817565918L699.6781458511352,799.3155817565918C702.6161458511352,802.0575817565918,705.6301458511352,804.6815817565919,708.5061458511352,807.4675817565918L716.9181458511353,816.1215817565918L724.7721458511353,825.3535817565918C735.0721458511352,837.8655817565918,743.9061458511353,851.6875817565917,751.6921458511353,866.1195817565917C759.4521458511352,880.7715817565918,765.8771458511353,896.0925817565918,770.8901458511352,911.8955817565918L770.9341458511352,912.0435817565918C771.8601458511353,914.9305817565918,774.7411458511352,916.7205817565917,777.7381458511353,916.2715817565918C780.7361458511352,915.8225817565918,782.9671458511352,913.2665817565918,783.0061458511352,910.2355817565918C783.2261458511352,891.9095817565918,779.0461458511353,873.7235817565918,772.4081458511353,856.6815817565919C765.8021458511353,839.5615817565917,756.4041458511352,823.5555817565918,744.9241458511352,809.0595817565918ZM686.5341458511352,853.3835817565919C680.2661458511352,841.3155817565918,672.0061458511352,830.2155817565917,661.9241458511352,821.0655817565918C651.9401458511353,811.8775817565918,640.1361458511352,804.4635817565918,627.2081458511352,800.6355817565918C624.4081458511353,799.8145817565918,621.4111458511353,801.0395817565918,619.9881458511353,803.5865817565918C618.5651458511353,806.1345817565918,619.0931458511352,809.3275817565918,621.2601458511352,811.2815817565918L621.3821458511353,811.3895817565917C630.3481458511352,819.4315817565919,638.2881458511353,827.6895817565918,645.3241458511352,836.6455817565918C652.2701458511352,845.6515817565918,658.3701458511352,855.1735817565918,663.4861458511352,865.2355817565917C668.6141458511353,875.2895817565918,672.7541458511353,885.8235817565918,676.0281458511353,896.7295817565918C679.2101458511353,907.6775817565918,681.3641458511353,918.9355817565918,682.8621458511352,930.8575817565918L682.8841458511353,931.0415817565918C683.2751458511352,934.1305817565918,685.7601458511352,936.5325817565918,688.8601458511353,936.8195817565918C691.9601458511353,937.1055817565918,694.8431458511352,935.2005817565918,695.7941458511352,932.2355817565918C699.9181458511353,919.3935817565917,700.5421458511353,905.5155817565918,698.7521458511353,892.0895817565918C697.0421458511353,878.6055817565918,692.7721458511353,865.4695817565919,686.5341458511352,853.3835817565919ZM283.2441458511353,710.0875817565918C270.2581458511353,706.6755817565918,256.28414585113524,707.0335817565917,243.05814585113527,710.0255817565918C229.75814585113525,712.9215817565919,217.14214585113524,718.5555817565918,205.84814585113526,725.9415817565919C194.55814585113524,733.3575817565918,184.52804585113526,742.5835817565918,176.38404585113526,753.1915817565919C168.19404585113526,763.7255817565917,161.70004585113526,775.6315817565918,158.26404585113525,788.4515817565918C157.45694585113526,791.4595817565918,158.84754585113524,794.6245817565919,161.60894585113527,796.0645817565918C164.37044585113526,797.5045817565917,167.76154585113525,796.8335817565918,169.76604585113526,794.4495817565918L169.86604585113525,794.3315817565917C177.62604585113525,785.1135817565918,185.34604585113527,776.5455817565918,193.65214585113526,768.6795817565918C202.01214585113524,760.8955817565918,210.78414585113524,753.7695817565918,220.12814585113526,747.5715817565917C229.43914585113527,741.3665817565918,239.33514585113525,736.0875817565918,249.67414585113525,731.8075817565918C260.08214585113524,727.5955817565919,270.95614585113526,724.5555817565918,282.6761458511353,722.3035817565918L282.84214585113523,722.2735817565917C285.7051458511353,721.7175817565918,287.80214585113526,719.2555817565918,287.89914585113524,716.3415817565917C287.99514585113525,713.4265817565918,286.06414585113527,710.8325817565918,283.2441458511353,710.0875817565918Z"></path></g><g style="opacity:0.25;"><g><path style="mix-blend-mode:passthrough" fill-opacity="1" fill="#000E3F" d="M580.4200431900024,862.9943761901856C581.1880431900024,853.9763761901855,585.3640431900025,854.4003761901855,597.7140431900025,838.5963761901855C617.7860431900025,812.9143761901855,619.6580431900024,813.6803761901856,646.1440431900024,766.2143761901855C648.9340431900024,761.2143761901855,649.5260431900025,764.2003761901856,661.8880431900025,766.3983761901856C643.5240431900024,759.0403761901855,646.1580431900024,772.3583761901855,662.8120431900024,727.5303761901855C671.3520431900024,704.5383761901855,678.3860431900024,673.0123761901855,678.6160431900024,641.8123761901855C678.6340431900024,639.4083761901855,679.8560431900024,637.1483761901856,679.0520431900025,634.6703761901856C677.0380431900024,628.4683761901856,681.6440431900024,609.2043761901855,664.4120431900025,561.2783761901856C664.0340431900024,560.2263761901855,665.0240431900024,559.5163761901856,665.8700431900024,560.1483761901856C678.9920431900024,569.9643761901855,690.6620431900025,580.4003761901856,701.5040431900024,596.2923761901856C719.0360431900025,621.9923761901855,727.1740431900024,651.4023761901856,728.8080431900024,677.5823761901855C734.1940431900024,763.8983761901856,668.6380431900025,789.8563761901855,692.3000431900025,838.2443761901856C710.7400431900024,875.9563761901856,762.4560431900024,883.2603761901855,771.9960431900024,944.7803761901855C775.4620431900024,967.1303761901855,771.0140431900024,979.2083761901855,767.9780431900025,989.9123761901856C767.3120431900024,992.2603761901855,765.4720431900024,993.5043761901856,763.2280431900025,994.4563761901856C674.7780431900024,1031.9363761901855,572.1880431900024,959.6843761901855,580.4200431900024,862.9943761901856ZM68.55794319000245,810.9703761901856C67.36794319000245,809.3863761901855,66.40994319000245,807.6623761901856,66.99994319000244,805.6123761901856C69.22794319000243,797.8763761901855,70.34194319000244,789.8103761901855,74.01794319000244,782.5003761901855C82.88394319000244,764.8703761901855,95.04394319000244,750.3063761901856,112.34194319000244,740.2943761901856C130.92794319000245,729.5383761901855,149.69604319000246,727.3363761901855,169.60804319000243,723.8603761901855C243.75204319000244,710.9103761901856,225.69404319000245,669.9483761901856,232.51004319000245,611.0183761901856C237.84604319000243,564.8843761901855,275.78804319000244,511.1403761901855,330.91804319000244,490.14437619018554C344.85204319000246,484.83637619018555,360.24004319000244,481.85837619018554,367.67004319000245,481.6423761901856C374.5680431900024,481.4403761901856,351.3660431900024,491.0923761901855,323.87404319000245,533.2643761901855C303.90804319000245,563.8943761901855,287.75804319000247,607.9363761901856,283.82204319000243,659.6303761901855C283.3900431900024,665.2923761901856,283.52404319000243,666.2643761901855,277.93204319000245,664.8823761901856C271.88204319000243,663.3883761901856,272.51604319000245,663.2823761901856,269.8560431900024,662.9883761901856C270.3420431900024,663.1783761901855,270.81404319000245,663.4163761901855,271.31604319000246,663.5543761901856C293.9040431900024,669.7223761901855,275.4580431900024,658.2223761901855,286.64804319000245,739.1623761901856C292.37404319000245,780.5723761901855,296.57804319000246,778.3263761901856,293.35204319000246,785.5603761901855C252.90604319000244,876.2343761901856,125.67794319000244,887.0243761901855,68.55794319000245,810.9703761901856ZM151.93404319000246,318.43201619018555C156.41004319000245,319.72400619018555,159.44004319000243,326.05802619018556,155.53404319000242,329.71997619018555C144.79004319000245,339.79197619018555,108.26394319000244,343.20797619018555,84.38594319000245,384.29597619018557C54.55994319000244,435.6163761901855,80.85594319000245,487.3783761901856,82.10194319000244,505.7003761901856C83.31594319000244,523.5603761901855,54.20594319000244,540.8063761901856,37.45197319000244,480.0223761901856C32.98597819000244,463.82237619018554,31.48197819000244,447.31637619018557,32.483979190002444,430.56037619018554C37.34598319000244,349.26797619018555,109.04994319000244,306.03997619018554,151.93404319000246,318.43201619018555ZM957.4400431900025,592.7843761901855C953.2860431900025,576.4423761901855,946.2520431900025,560.5563761901856,931.7540431900024,543.9083761901855C917.2960431900025,527.3063761901856,928.7200431900025,519.6723761901856,943.9560431900024,528.0603761901855C966.4820431900024,540.4623761901855,985.0600431900025,563.4723761901855,993.0060431900024,594.7663761901856C1013.2120431900024,674.3823761901856,937.9260431900025,750.7083761901856,911.5660431900025,745.4983761901856C905.1440431900024,744.2283761901856,898.5200431900024,738.0143761901855,899.7460431900024,729.3403761901856C902.1920431900024,712.0363761901856,935.4400431900025,698.4363761901856,952.3820431900025,655.1103761901855C954.1120431900024,650.6823761901856,962.8000431900025,613.8663761901855,957.4400431900025,592.7843761901855Z"></path></g></g><g><path style="mix-blend-mode:passthrough" fill-opacity="1" fill="#FFCF00" d="M698.6159036636352,243.16194699096678C611.8319036636352,135.2059469909668,439.45610366363525,165.2419469909668,394.6761036636353,295.3924469909668C339.10210366363526,456.9064469909668,521.4659036636352,593.5274469909668,661.4379036636353,497.9744469909668C743.4379036636353,442.0114469909668,763.1579036636352,323.42944699096677,698.6159036636352,243.16194699096678Z"></path></g><g><path style="mix-blend-mode:passthrough" fill-opacity="1" fill="#FFCF00" d="M627.0518821792602,597.3520641784668C566.7378821792603,606.7400641784668,506.86388217926026,598.3980641784668,467.51788217926025,581.6579641784668C426.41188217926026,564.1939641784668,380.64588217926024,538.0759641784668,351.98398217926024,504.0300141784668C348.80188217926025,500.2400041784668,347.67188217926025,501.4700121784668,345.09598217926026,504.3320141784668C253.77588217926026,605.2060641784668,286.53795217926023,765.8680641784667,294.4518821792603,772.2920641784667C297.65198217926024,774.9060641784667,306.29388217926027,783.9140641784668,328.96788217926024,797.1600641784668C373.73388217926026,823.3080641784668,443.3558821792602,846.0940641784669,508.9058821792603,852.0960641784668C526.4218821792603,853.7200641784668,584.3558821792603,855.5580641784668,592.6978821792602,845.6800641784669C628.7738821792602,802.7200641784668,667.0558821792603,738.9580641784668,675.0878821792603,682.7840641784668C676.0558821792603,676.0680641784668,678.3398821792603,669.5400641784668,677.0278821792602,662.6240641784668C677.0158821792602,662.4650641784668,677.0578821792603,662.3070641784668,677.1458821792603,662.1740641784668C680.3778821792603,658.2840641784668,680.7798821792603,619.6300641784668,673.9198821792602,589.8199641784668C672.2358821792602,582.2659641784668,672.0518821792602,590.1879641784668,627.0518821792602,597.3520641784668ZM510.12788217926027,915.5540641784668C507.9518821792602,915.4820641784668,449.54188217926026,922.9920641784668,371.3558821792602,890.6700641784669C343.45988217926026,879.1300641784668,335.73388217926026,872.1340641784668,328.00588217926025,867.3860641784668C326.33588217926024,866.9460641784667,324.51388217926024,867.8120641784668,326.0358821792603,870.9940641784667C345.76788217926025,910.0880641784668,364.30588217926027,940.5020641784668,392.83788217926025,974.5120641784667C395.09788217926024,977.2260641784668,397.57988217926027,977.8800641784668,400.75588217926025,976.6000641784668C414.5358821792603,971.1200641784668,432.12188217926024,964.9260641784667,457.35188217926026,951.3920641784669C466.7858821792603,946.3420641784668,520.8898821792602,916.4480641784668,510.12788217926027,915.5540641784668Z"></path></g><g><path style="mix-blend-mode:passthrough" fill-opacity="1" fill="#FC09B2" d="M505.88183335113524,391.9220766784668C498.07383335113525,417.3640766784668,446.1878333511353,413.6240766784668,433.58989335113523,383.4860766784668C426.43590335113527,366.3600766784668,439.0919033511353,352.7820546784668,458.67793335113527,351.8460807784668C482.09993335113523,350.7260866784668,513.9759333511353,365.5460766784668,505.88183335113524,391.9220766784668ZM593.0658333511353,414.91607667846677C587.3098333511352,440.8980766784668,634.2938333511353,463.2358766784668,660.1138333511352,443.2280766784668C674.7838333511353,431.8580766784668,670.4698333511353,413.8040766784668,653.8938333511353,403.3300766784668C634.0698333511352,390.8060766784668,599.0318333511352,387.9800766784668,593.0658333511353,414.91607667846677Z"></path></g><g><path style="mix-blend-mode:passthrough" fill-opacity="1" fill="#000E3F" d="M1013.8282767105103,569.4200212097168C991.8022767105102,508.76602120971677,938.0622767105102,467.1920212097168,870.0742767105103,458.2100212097168C792.2442767105102,447.9180212097168,714.6102767105102,481.7880212097168,664.9242767105103,546.7900212097168C659.8412767105102,536.0040212097168,653.7872767105102,525.7030212097168,646.8382767105103,516.0140212097168C696.0302767105103,490.2680212097168,732.4762767105102,442.5040212097168,741.2962767105103,384.2160212097168C749.5202767105103,329.8860212097168,734.2042767105103,277.4240212097168,700.4642767105103,237.9620212097168C708.6222767105103,203.3980212097168,731.3762767105103,172.5280212097168,763.0982767105103,153.1360212097168C823.1602767105103,116.4120212097168,857.6202767105102,144.2500212097168,866.7582767105102,153.6520212097168C885.7222767105103,173.1820212097168,889.0582767105102,202.0100212097168,874.8722767105103,223.7580212097168C863.8142767105103,240.7120212097168,846.2762767105103,251.0000212097168,827.9562767105102,251.2840212097168C814.2762767105103,251.40002120971678,802.4142767105103,245.7800212097168,795.3202767105103,235.6040212097168C786.3962767105103,222.8120212097168,788.7462767105103,205.6720212097168,800.6702767105103,196.5860212097168C808.0882767105103,190.9320212097168,818.0642767105103,188.6780212097168,824.3862767105103,191.2340212097168C828.4142767105103,192.8600212097168,830.7802767105103,196.3100212097168,831.6222767105103,201.7820212097168C832.1042767105102,204.89402120971678,835.0222767105103,206.9940212097168,838.1282767105102,206.5520212097168C841.2402767105102,206.0710212097168,843.3752767105102,203.1590212097168,842.8982767105102,200.0460212097168C841.4522767105102,190.6660212097168,836.3942767105102,183.7780212097168,828.6562767105103,180.65602120971678C816.9702767105102,175.9400212097168,802.7082767105103,180.6960212097168,793.7602767105102,187.5120212097168C776.9582767105103,200.3140212097168,773.5342767105102,224.3040212097168,785.9662767105102,242.1260212097168C795.1022767105103,255.2320212097168,810.1002767105102,262.69602120971683,827.2202767105102,262.69602120971683C827.5222767105103,262.69602120971683,827.8282767105103,262.69402120971677,828.1342767105102,262.6880212097168C850.2482767105103,262.3460212097168,871.2922767105102,250.1240212097168,884.4262767105103,229.9900212097168C901.5482767105102,203.7460212097168,897.6462767105103,169.0860212097168,874.9402767105103,145.70402120971679C853.0502767105103,123.1640212097168,810.6102767105102,110.7160212097168,757.1502767105103,143.4040212097168C725.0942767105103,163.0020212097168,701.5002767105102,193.5020212097168,691.3122767105102,228.0200212097168C681.6022767105103,218.2500212097168,670.8322767105102,209.5930212097168,659.2042767105103,202.21002120971679C612.9202767105103,172.8080212097168,558.7642767105102,165.8280212097168,509.2182767105103,181.15602120971678C524.9422767105102,116.8820212097168,490.43827671051025,39.4400212097168,435.03627671051026,18.275991209716796C403.68027671051027,6.2899912097167965,360.3002767105103,18.783991209716795,345.70027671051025,56.4780212097168C334.04827671051027,86.5720212097168,342.56027671051027,128.8960212097168,376.63027671051026,144.8000212097168C392.60827671051027,152.2440212097168,416.70827671051023,153.21002120971679,431.89827671051023,137.7060212097168C444.17227671051023,125.1720212097168,446.8722767105103,108.2220212097168,439.12427671051023,92.3700212097168C432.2662767105102,78.33602120971679,419.04427671051025,69.4720212097168,406.9322767105103,70.8680212097168C398.91427671051025,71.78002120971681,391.9922767105103,77.4640212097168,390.09627671051027,84.6880212097168C389.36627671051025,87.70762120971679,391.1872767105103,90.7556212097168,394.19227671051027,91.5444212097168C397.19727671051027,92.3331212097168,400.28027671051024,90.5725212097168,401.12827671051025,87.5840212097168C401.83427671051027,84.8940212097168,404.88227671051027,82.58002120971679,408.22227671051024,82.2000212097168C415.38027671051026,81.4200212097168,424.2522767105103,87.9140212097168,428.87427671051023,97.3800212097168C431.53227671051025,102.8180212097168,436.35227671051024,116.8500212097168,423.74427671051023,129.7260212097168C412.44827671051024,141.26802120971678,393.90627671051027,140.2720212097168,381.45427671051027,134.4620212097168C353.35027671051023,121.3460212097168,346.53427671051026,85.9060212097168,356.3362767105103,60.596021209716795C368.4782767105103,29.234021209716797,404.72227671051024,18.897991209716796,430.96227671051025,28.9300212097168C483.41427671051025,48.9640212097168,515.1402767105103,124.97602120971679,496.24827671051025,185.3360212097168C496.20227671051026,185.4800212097168,496.23627671051025,185.6220212097168,496.20227671051026,185.7680212097168C484.14027671051025,190.5480212097168,472.61927671051023,196.5940212097168,461.83227671051026,203.8040212097168C430.4782767105103,224.7560212097168,407.65427671051026,252.5880212097168,393.99427671051023,286.5260212097168C374.28227671051025,335.4980212097168,376.53027671051024,390.4580212097168,400.16427671051025,437.3200212097168C402.60427671051025,442.1180212097168,405.2592767105103,446.8040212097168,408.12027671051027,451.3640212097168C398.56827671051025,455.0180212097168,386.63027671051026,462.1320212097168,375.16427671051025,470.3980212097168C367.4082767105103,406.0100212097168,330.93427671051023,346.9580212097168,276.00627671051024,310.8720212097168C225.68027671051024,277.8120212097168,166.32027671051026,269.5780212097168,113.13627671051026,288.27802120971677C72.06807671051025,302.7180212097168,40.78207671051025,329.57602120971677,20.150076710510255,368.1080212097168C5.094066710510254,396.2260212097168,-5.905933289489746,443.7140212097168,3.462066710510254,486.4220212097168C13.472076710510255,532.0680212097168,42.946076710510255,571.8820212097168,88.69207671051025,601.5660212097168C101.84227671051025,610.0980212097168,115.85427671051025,616.7600212097168,129.77027671051025,622.9100212097168C81.08407671051026,642.6240212097168,48.922076710510254,681.1300212097168,42.80407671051025,728.2280212097168C36.69207671051026,775.2620212097167,57.65207671051025,820.0840212097168,97.50207671051025,845.2020212097168C119.60027671051026,859.1300212097168,145.73627671051025,866.3840212097168,172.34627671051027,866.3840212097168C183.34627671051027,866.3840212097168,194.42627671051025,865.1440212097168,205.33827671051026,862.6240212097168C241.42827671051026,854.2880212097168,271.50827671051024,833.2160212097168,290.0382767105103,803.2900212097168C291.08027671051025,801.5960212097168,292.07327671051024,799.8730212097169,293.0162767105102,798.1220212097168C293.64027671051025,800.2840212097168,294.2642767105103,802.4480212097168,294.91627671051026,804.5720212097168C315.0382767105103,870.0380212097168,350.28427671051026,935.0200212097168,389.2062767105103,978.4040212097168C390.67427671051024,980.0400212097168,393.35627671051026,983.0300212097168,397.72027671051023,983.0300212097168C399.07027671051026,983.0300212097168,400.57827671051024,982.7440212097168,402.26027671051025,982.0440212097168L406.76827671051024,980.1800212097168C421.95827671051023,973.9000212097168,437.66427671051025,967.4080212097168,452.70427671051027,959.7180212097168C499.68627671051024,935.6900212097167,540.8682767105103,906.3060212097168,575.0402767105103,873.0860212097168C576.1642767105103,906.3740212097168,588.2562767105103,938.8620212097168,608.6362767105103,962.1820212097168C630.3842767105102,987.0640212097168,660.5222767105103,1003.5300212097168,693.4922767105103,1008.5480212097168C700.3902767105103,1009.5980212097168,707.2382767105103,1010.1160212097168,714.0042767105102,1010.1160212097168C748.4802767105102,1010.1120212097168,780.6022767105103,996.6640212097168,804.3062767105102,971.7800212097168C832.1482767105102,942.5520212097168,843.4402767105103,902.6620212097168,835.2822767105102,862.3440212097167C830.5762767105102,839.0880212097168,819.4522767105102,817.3340212097168,803.6162767105103,799.6320212097168C812.7342767105102,799.9760212097168,821.7282767105103,800.2380212097167,830.4542767105103,800.2380212097167C893.0282767105102,800.2380212097167,945.5122767105103,789.1320212097168,988.1702767105103,734.8340212097168C1023.7882767105102,689.4900212097168,1033.8582767105102,624.5640212097168,1013.8282767105103,569.4200212097168ZM582.0802767105102,849.6000212097168C580.2062767105102,850.0040212097168,577.6522767105103,850.6380212097168,574.0182767105102,851.1600212097168C504.8122767105103,861.0640212097168,403.5622767105103,836.9260212097169,343.3602767105103,804.7400212097168C314.75827671051024,789.4500212097169,303.92227671051023,779.8060212097168,298.84227671051025,775.3700212097168C291.14027671051025,742.4680212097168,287.07227671051027,706.2940212097168,288.76827671051024,669.9920212097168C288.97427671051025,670.2100212097168,289.16627671051026,670.4060212097168,289.38027671051026,670.6360212097168C352.3722767105103,738.2460212097168,473.72427671051025,769.8280212097168,566.3102767105103,770.8360212097168C577.3342767105103,770.9560212097168,621.3762767105103,773.5720212097168,641.4462767105102,765.3860212097168C626.3982767105102,795.1280212097168,606.4122767105102,823.4260212097169,582.0802767105102,849.6000212097168ZM672.1982767105103,663.3480212097168C669.9622767105103,664.1440212097168,667.1042767105102,665.4640212097167,663.6342767105102,666.7860212097168C586.7282767105103,696.1080212097168,484.08227671051026,679.6380212097168,411.6462767105103,644.6700212097168C347.73427671051024,613.8120212097168,317.96027671051024,577.1240212097168,311.28427671051026,568.5440212097168C321.16427671051025,545.8880212097168,334.60627671051026,524.5540212097168,352.23827671051026,505.4740212097168C377.25627671051024,536.3400212097168,449.4322767105103,583.7600212097168,513.3622767105103,595.4000212097168C546.7162767105102,601.4720212097168,571.8462767105102,602.9880212097167,608.5342767105102,600.2880212097168C634.2262767105102,598.3960212097168,658.2742767105102,591.9380212097168,667.6402767105103,588.6520212097168C673.3102767105103,612.1440212097168,674.8402767105102,637.2940212097168,672.1982767105103,663.3480212097168ZM404.57827671051024,290.7880212097168C417.36427671051024,259.01802120971684,438.76227671051026,232.9460212097168,468.17427671051024,213.2900212097168C524.4382767105103,175.6840212097168,595.2942767105103,175.1240212097168,653.0882767105103,211.8360212097168C710.9162767105103,248.5720212097168,740.3922767105103,313.9680212097168,730.0202767105103,382.5060212097168C716.9282767105102,469.0000212097168,634.7402767105102,532.7240212097169,546.7702767105103,524.5480212097168C542.3922767105103,524.1420212097169,538.0982767105103,523.3240212097169,533.5542767105103,522.4540212097168C529.3602767105102,521.6560212097168,525.0422767105102,520.8340212097169,520.6082767105103,520.3500212097167C520.1132767105103,520.0410212097167,519.5742767105103,519.8090212097168,519.0102767105102,519.6620212097168C471.8142767105102,507.4140212097168,432.21027671051024,475.52802120971677,410.3482767105103,432.1820212097168C388.1942767105103,388.2540212097168,386.09027671051024,336.7160212097168,404.57827671051024,290.7880212097168ZM280.34027671051024,797.2880212097168C263.42427671051024,824.6060212097168,235.87827671051025,843.8620212097168,202.77227671051025,851.5100212097168C168.40227671051025,859.4360212097168,132.26427671051025,853.6300212097168,103.58427671051025,835.5500212097168C67.53797671051025,812.8320212097168,48.58397671051026,772.2720212097167,54.11597671051025,729.6960212097168C60.203976710510254,682.8380212097168,94.86597671051025,645.1300212097168,146.83627671051025,628.8300212097168C146.90027671051024,628.8100212097168,146.94227671051024,628.7600212097168,147.00427671051025,628.7380212097167C148.22727671051027,628.2980212097168,149.26227671051026,627.4500212097169,149.93627671051024,626.3380212097168C150.03627671051026,626.1740212097168,150.15227671051025,626.0300212097168,150.23627671051025,625.8580212097168C150.27227671051025,625.7820212097168,150.33227671051026,625.7260212097168,150.36627671051025,625.6480212097168C150.47827671051024,625.3880212097168,150.46427671051026,625.1180212097167,150.53427671051026,624.8540212097168C150.64027671051025,624.4640212097167,150.76227671051026,624.0900212097168,150.78227671051025,623.6800212097168C150.80427671051027,623.2700212097168,150.72227671051024,622.8840212097168,150.65827671051025,622.4820212097168C150.61427671051027,622.2120212097168,150.65827671051025,621.9460212097168,150.57427671051025,621.6780212097168C150.55227671051026,621.6080212097168,150.49827671051025,621.5620212097168,150.47427671051025,621.4960212097168C150.33627671051025,621.1040212097168,150.10027671051026,620.7720212097167,149.88027671051026,620.4180212097168C149.70227671051026,620.1360212097168,149.56827671051025,619.8320212097168,149.34827671051025,619.5880212097168C149.12027671051027,619.3340212097168,148.81827671051025,619.1580212097168,148.54227671051027,618.9460212097168C148.22627671051026,618.7040212097168,147.93227671051025,618.4440212097168,147.57427671051025,618.2720212097167C147.50627671051026,618.2400212097168,147.46427671051026,618.1780212097168,147.39427671051024,618.1480212097168L145.83027671051025,617.4720212097168C127.86427671051025,609.7040212097168,110.89427671051025,602.3680212097167,94.90207671051026,591.9940212097168C51.72807671051025,563.9820212097168,23.962076710510253,526.6280212097168,14.604076710510254,483.9760212097168C5.862046710510254,444.1140212097168,16.142076710510253,399.7620212097168,30.208076710510255,373.4900212097168C49.45407671051026,337.55202120971677,78.62807671051026,312.5040212097168,116.92027671051025,299.0380212097168C167.44427671051025,281.2740212097168,221.72427671051025,288.8580212097168,269.74627671051024,320.4080212097168C323.7902767105102,355.9140212097168,358.99427671051023,414.8340212097168,364.52427671051026,478.5220212097168C357.8242767105103,483.9240212097168,351.63827671051024,489.4740212097168,346.68627671051024,494.6400212097168C271.2062767105103,573.3840212097168,266.44027671051026,690.1300212097168,288.54427671051025,781.2460212097168C285.9442767105103,786.9780212097168,283.44227671051027,792.2720212097167,280.34027671051024,797.2880212097168ZM447.51027671051025,949.5600212097168C432.88027671051026,957.0420212097168,417.39227671051026,963.4460212097168,402.41027671051023,969.6380212097168L398.2182767105103,971.3520212097168C398.04127671051026,971.1650212097168,397.8672767105103,970.9760212097168,397.69627671051023,970.7840212097168C373.9322767105103,944.2940212097168,351.56027671051027,909.4620212097168,333.33027671051025,871.3860212097168C367.18827671051025,893.3600212097168,403.50627671051024,901.5300212097168,405.4922767105103,902.4700212097168C408.54627671051026,903.9160212097167,411.7282767105103,904.7660212097168,414.96227671051025,905.5360212097168C417.33427671051027,906.1620212097168,419.68627671051024,907.1820212097168,422.08827671051023,907.3200212097167C428.40027671051024,907.6860212097168,438.22427671051025,911.3640212097168,444.66627671051026,912.2160212097168C452.50827671051024,913.2540212097168,480.24827671051025,917.9960212097168,503.7062767105103,916.3340212097168C485.67627671051025,928.5560212097168,466.9082767105103,939.6530212097168,447.51027671051025,949.5600212097168ZM979.2002767105103,727.7820212097168C931.0042767105102,789.1320212097168,870.7262767105102,791.5420212097168,791.0222767105103,787.7040212097168C788.8342767105103,786.9100212097168,786.3842767105102,787.5280212097168,784.8362767105102,789.2660212097168C784.6782767105102,789.4440212097168,784.6242767105102,789.6660212097167,784.4922767105103,789.8560212097168C783.7742767105102,790.7520212097168,783.2382767105103,791.8020212097168,783.1762767105103,793.0300212097168C783.0662767105102,795.3610212097168,784.3922767105103,797.5230212097168,786.5202767105103,798.4820212097168C805.6402767105103,815.9340212097168,818.9882767105103,839.3260212097168,824.1022767105103,864.6040212097168C831.5102767105102,901.2220212097168,821.2842767105102,937.4160212097167,796.0482767105102,963.9120212097168C770.3002767105103,990.9460212097168,733.5402767105103,1003.1080212097168,695.2102767105102,997.2720212097167C664.9002767105103,992.6600212097168,637.2042767105103,977.5300212097168,617.2242767105103,954.6760212097169C596.2782767105102,930.7060212097168,584.9162767105103,896.0420212097168,586.5422767105102,861.5320212097168C633.0882767105103,812.7820212097168,664.9222767105102,756.5000212097168,678.2962767105103,697.0440212097168C689.4202767105103,647.6000212097168,686.3882767105102,600.1220212097168,670.1422767105103,558.8340212097168C717.1302767105102,493.7200212097168,792.8262767105102,459.4940212097168,868.5822767105102,469.5180212097168C932.2702767105103,477.9300212097168,982.5622767105102,516.7340212097167,1003.1182767105103,573.3140212097168C1021.8282767105103,624.8360212097168,1012.4382767105103,685.4720212097168,979.2002767105103,727.7820212097168Z"></path></g><g><path style="mix-blend-mode:passthrough" fill-opacity="1" fill="#000E3F" d="M596.1577591323853,358.57851535034183C593.2307591323853,357.4175153503418,589.9157591323852,358.8465153503418,588.7497591323853,361.7725153503418C584.5997591323853,372.2185153503418,575.7879591323853,385.44851535034184,564.6139591323853,388.3565153503418C554.6399591323852,390.9445153503418,547.8639591323853,386.65051535034183,543.9359591323853,382.5825153503418C535.9479591323852,374.31251535034176,532.5999591323853,360.0845153503418,535.9719591323852,348.75451535034176C536.8707591323853,345.73551535034176,535.1525591323852,342.5595153503418,532.1339591323853,341.6605153503418C529.1142591323853,340.7515153503418,525.9319591323853,342.4735153503418,525.0399591323852,345.4985153503418C520.4939591323853,360.77051535034184,524.8899591323852,379.28051535034183,535.7339591323853,390.50451535034176C542.1279591323853,397.1285153503418,550.0578591323853,400.5605153503418,558.6559591323853,400.5585153503418C561.5339591323852,400.5585153503418,564.4919591323852,400.17251535034177,567.4859591323852,399.3925153503418C582.7737591323853,395.4165153503418,593.9717591323853,379.5265153503418,599.3537591323852,365.9845153503418C600.5137591323853,363.0565153503418,599.0837591323852,359.7425153503418,596.1577591323853,358.57851535034183ZM553.6819591323853,265.7141153503418C554.2359591323852,270.4661153503418,555.4899591323853,276.9360153503418,558.7719591323853,284.7181153503418C562.8479591323853,294.3781153503418,568.8199591323853,298.1501153503418,573.1099591323853,299.61411535034176C574.8359591323853,300.2001153503418,577.0039591323853,300.6581153503418,579.5737591323852,300.6581153503418C583.3557591323853,300.6581153503418,588.0057591323853,299.66411535034183,593.3777591323852,296.6221153503418C598.8097591323852,293.5480153503418,604.4037591323853,288.1720153503418,610.3397591323853,280.3320153503418C620.3037591323853,298.9461153503418,635.2897591323853,307.8260153503418,647.1417591323852,307.8260153503418C648.7497591323853,307.8260153503418,650.2957591323852,307.6640153503418,651.7657591323853,307.3460153503418C661.3937591323852,305.2520153503418,667.3077591323853,297.0980153503418,667.5857591323852,285.5320153503418C668.0297591323853,267.26401535034177,659.9877591323852,251.6740153503418,643.6897591323852,239.19601535034178C641.1857591323852,237.3442153503418,637.6597591323853,237.8430153503418,635.7677591323852,240.3166153503418C633.8757591323853,242.79031535034179,634.3177591323853,246.3242153503418,636.7597591323853,248.25601535034178C650.1817591323852,258.5340153503418,656.5377591323852,270.6380153503418,656.1837591323853,285.2600153503418C656.0777591323853,289.5960153503418,654.8057591323852,295.01401535034177,649.3437591323852,296.2040153503418C640.9937591323853,298.0120153503418,627.4377591323853,289.7780153503418,619.2157591323853,272.86001535034177C618.8347591323852,272.0974153503418,618.4307591323852,271.3464153503418,618.0037591323853,270.6080153503418C617.4197591323853,269.5840153503418,616.8697591323853,268.6140153503418,616.6797591323852,267.8700153503418C616.6077591323852,267.5880153503418,616.4257591323852,267.3760153503418,616.3157591323852,267.1160153503418C616.1537591323853,266.7260153503418,616.0177591323852,266.3340153503418,615.7697591323853,265.9860153503418C615.5357591323852,265.6600153503418,615.2257591323853,265.4240153503418,614.9337591323853,265.1560153503418C614.7077591323853,264.9500153503418,614.5517591323853,264.6900153503418,614.2877591323852,264.5160153503418C614.2437591323853,264.4880153503418,614.1917591323852,264.4880153503418,614.1477591323853,264.4620153503418C613.8357591323852,264.2680153503418,613.4777591323852,264.1840153503418,613.1317591323852,264.0540153503418C612.7757591323852,263.9200153503418,612.4397591323852,263.7340153503418,612.0717591323853,263.6760153503418C611.8117591323853,263.6320153503418,611.5417591323853,263.6920153503418,611.2757591323852,263.6860153503418C610.8037591323853,263.6760153503418,610.3357591323852,263.6460153503418,609.8777591323852,263.7521153503418C609.8317591323853,263.7621153503418,609.7877591323852,263.7481153503418,609.7417591323853,263.75811535034177C609.4497591323852,263.8321153503418,609.2297591323852,264.0201153503418,608.9617591323853,264.1341153503418C608.5837591323852,264.2941153503418,608.1997591323852,264.4241153503418,607.8617591323853,264.6641153503418C607.5077591323852,264.9161153503418,607.2497591323853,265.2481153503418,606.9657591323853,265.5681153503418C606.7817591323852,265.7741153503418,606.5437591323853,265.9141153503418,606.3877591323852,266.1521153503418C599.4417591323853,276.7221153503418,593.1757591323852,283.6341153503418,587.7657591323853,286.6981153503418C584.8137591323853,288.36611535034183,580.5277591323852,290.0821153503418,576.7939591323852,288.8181153503418C573.0220591323853,287.53211535034177,570.6299591323852,283.4681153503418,569.2880591323852,280.2861153503418C565.3160591323852,270.8760153503418,564.8879591323853,263.9260153503418,564.6319591323852,259.7781153503418C564.4219591323853,256.4140153503418,564.1860591323853,252.5981153503418,560.4319591323853,250.91611535034178C556.7359591323852,249.2741153503418,553.6399591323852,251.7061153503418,552.6219591323852,252.5081153503418C535.0120591323853,266.4001153503418,517.6860591323853,265.5201153503418,511.9520591323853,259.5520153503418C507.86795913238524,255.30401535034179,509.49795913238523,248.0101153503418,516.3080591323852,240.0401153503418C523.4240591323853,231.72001535034178,534.0820591323852,226.1600153503418,546.3200591323853,224.3880153503418C549.4372591323853,223.9347153503418,551.5980591323853,221.0418053503418,551.1480591323852,217.9240553503418C550.6940591323853,214.8040553503418,547.7680591323852,212.6680563503418,544.6840591323853,213.0960502503418C529.7080591323853,215.2680453503418,516.5540591323853,222.2040553503418,507.63605913238524,232.6260153503418C494.66205913238525,247.8080153503418,497.11005913238523,260.5700153503418,503.72405913238526,267.4540153503418C513.0120591323853,277.1160153503418,533.3840591323852,278.5800153503418,553.6819591323853,265.7141153503418ZM635.5297591323853,353.36051535034176C626.4697591323852,350.85251535034183,618.5157591323853,355.7585153503418,615.8697591323853,364.53051535034183C613.3437591323852,372.9025153503418,618.9137591323853,382.0445153503418,627.1977591323853,384.2405153503418C635.8557591323853,386.3005153503418,644.9657591323853,381.2405153503418,646.9557591323853,372.90051535034183C649.1117591323853,363.8805153503418,644.5497591323852,355.8585153503418,635.5297591323853,353.36051535034176ZM491.3419591323852,348.2485153503418C500.41995913238526,350.40051535034183,508.2919591323853,345.90051535034183,510.78595913238524,336.7385153503418C513.1279591323853,328.1365153503418,507.8299591323853,319.5505153503418,499.1619591323853,317.3665153503418C490.5299591323853,314.9185153503418,481.68592913238524,321.0625153503418,479.68992713238526,328.9005153503418C477.80793913238523,336.27851535034176,481.52393913238524,345.9205153503418,491.3419591323852,348.2485153503418Z"></path></g><g style="opacity:0.5;"><g><path style="mix-blend-mode:passthrough" fill-opacity="1" fill="#FFFFFF" d="M359.3900251968384,563.2780876159668C358.8740251968384,568.1420976159668,355.6740251968384,564.5581176159668,340.84602519683835,598.4640876159668C308.4179851968384,672.6180876159668,309.6479951968384,750.5940876159668,331.40802519683837,806.1700876159668C348.3320251968384,849.3960876159667,382.8660251968384,847.5480876159668,390.5640251968384,817.9820876159667C396.8020251968384,794.0240876159668,388.44402519683837,771.8000876159667,376.6180251968384,711.7060876159668C369.4460251968384,675.2640876159668,355.44402519683837,600.4260876159668,359.3900251968384,563.2780876159668Z"></path></g></g></g></g></svg>