<svg viewBox="0 0 1024 1024" height="1024" width="1024" version="1.1" fill="none" xmlns:xlink="http://www.w3.org/1999/xlink" xmlns="http://www.w3.org/2000/svg"><defs><clipPath id="master_svg0_30_414"><rect rx="0" height="1024" width="1024" y="0" x="0"></rect></clipPath></defs><g clip-path="url(#master_svg0_30_414)"><g><g><path style="mix-blend-mode:passthrough" fill-opacity="1" fill="#FFCF00" d="M482.6538942626953,855.5118908081055C404.2798642626953,787.6078908081055,390.23779426269533,544.5618908081055,444.0318942626953,438.99789080810547C447.6018942626953,431.9658908081054,441.6798942626953,436.12389080810544,430.1857942626953,411.19589080810545C406.3458442626953,359.90399080810545,431.5798942626953,297.98999080810546,487.7677942626953,282.8379408081055C511.4758942626953,276.4579408081055,537.8179942626953,280.33394580810545,558.7839942626953,292.39599080810547C606.8099942626953,320.02199080810544,617.2819942626953,389.5358908081055,580.0099942626953,432.98989080810543C575.4599942626953,438.30189080810544,581.0539942626954,434.4038908081055,593.3539942626953,473.9178908081055C650.3739942626953,656.8978908081054,569.4079942626953,930.8598908081054,482.6538942626953,855.5118908081055Z"></path></g><g style="opacity:0.5;"><path style="mix-blend-mode:passthrough" fill-opacity="1" fill="#FD8A02" d="M521.6459333251953,866.7861759643555C484.5140333251953,879.1021759643554,450.5979733251953,814.7221759643555,451.8259735251953,812.5921759643554C453.5459733251953,809.6121759643554,477.78393332519533,820.2061759643555,503.02193332519533,810.5061759643554C547.1959333251953,793.5261759643554,563.7495333251953,740.3841759643554,568.9755333251953,693.7141759643555C578.8675333251953,605.3721759643555,564.8515333251953,534.4261759643555,577.3435333251953,486.88417596435545C578.1795333251953,483.70617596435545,584.3935333251953,460.6461715743555,587.6795333251953,460.63817596435547C589.5875333251953,460.63216400435545,589.6535333251953,462.81618596435544,590.1535333251953,464.21416596435546C637.3095333251953,596.0381759643554,604.5375333251953,839.2921759643555,521.6459333251953,866.7861759643555ZM584.2375333251953,543.5861759643554L584.2375333251953,543.5721759643554C584.7455333251953,543.5721759643554,585.2795333251953,543.6741759643555,585.7535333251953,543.5481759643554C586.4195333251953,543.3701759643554,585.9435333251953,544.1181759643555,586.2355333251953,543.4861759643554C586.2395333251953,543.4781759643555,585.9075333251953,543.2381759643555,585.7275333251953,543.2301759643555C584.4935333251954,543.1821759643555,583.4935333251954,543.1661759643555,582.2775333251953,543.3181759643555C583.4635333251953,543.6561759643555,582.9535333251953,543.5861759643554,584.2375333251953,543.5861759643554ZM588.6015333251953,656.5721759643554L588.6015333251953,656.5901759643555C589.2235333251954,656.5901759643555,588.6675333251953,656.6341759643554,590.5915333251953,656.4401759643555C589.8635333251952,656.3221759643554,588.2735333251953,655.9881759643555,587.0475333251953,656.2461759643554C586.3775333251954,656.3861759643555,586.8655333251953,655.6781759643554,586.5375333251953,656.2941759643554C587.1735333251953,656.6321759643555,586.5435333251953,656.5721759643554,588.6015333251953,656.5721759643554Z"></path></g><g><path style="mix-blend-mode:passthrough" fill-opacity="1" fill="#FC09B2" d="M939.7101427001953,518.4123380737306C914.4621427001953,540.4083380737304,833.7641427001953,564.3803380737304,857.3901427001953,546.8803380737304C865.2741427001953,541.0403380737305,878.5261427001954,524.3963380737305,883.4921427001954,517.1583380737304C891.9301427001953,504.8603380737305,898.6361427001954,491.69233807373047,901.8181427001953,477.01433807373047C903.1521427001953,470.85833807373047,902.7301427001953,464.52233807373045,901.9321427001953,458.28233807373044C897.6741427001953,424.9203380737305,862.6201427001953,411.5303380737305,882.0561427001953,369.3423380737305C895.3641427001953,340.45433807373047,923.8301427001953,323.65233807373045,882.3101427001953,277.16433807373045C869.7061427001953,263.0523380737305,861.3121427001953,259.3360380737305,852.6361427001954,243.09803807373046C847.2081427001954,232.93803807373047,844.9801427001953,216.11803807373047,848.8281427001953,201.84603807373048C850.5201427001953,195.57603807373047,853.2721427001953,189.76003807373047,856.4201427001954,184.13203807373048C858.1021427001953,181.12803807373047,860.9061427001953,179.33203807373047,864.0181427001953,178.01803807373048C895.2581427001953,164.81801807373046,936.6721427001953,152.91400807373046,965.9601427001953,170.27000807373048C976.6881427001953,176.62803807373047,987.7641427001953,190.92803807373048,994.3281427001953,202.51203807373048C1043.8881427001952,289.9583380737305,1017.0881427001954,451.00233807373047,939.7101427001953,518.4123380737306ZM4.886046700195313,312.8283380737305C4.886046700195313,307.0763380737305,4.682046400195312,301.3143380737305,4.9280467001953125,295.5743380737305C6.542042700195313,257.79003807373044,17.376042700195313,213.61403807373046,41.93404270019531,184.44803807373046C47.79804270019531,177.48403807373046,54.42004270019531,171.35602807373047,62.88004270019531,167.50201807373048C91.83404270019531,154.31201807373046,130.6841427001953,165.52002807373046,159.7801427001953,178.08003807373046C163.71614270019532,179.77803807373047,166.4881427001953,182.39003807373047,168.4281427001953,185.99603807373046C173.61414270019532,195.63603807373048,177.2261427001953,205.70203807373048,176.5601427001953,216.9180380737305C176.33414270019532,220.73803807373048,176.39414270019532,224.54203807373045,175.81214270019532,228.37003807373048C173.00814270019532,246.81003807373048,160.79414270019532,258.1200380737305,147.0361427001953,271.2803380737305C139.81814270019532,278.1843380737305,133.8141427001953,286.0863380737305,128.1481427001953,294.23833807373046C121.53214270019531,303.75833807373044,118.92414270019532,314.41833807373047,120.12014270019532,325.97433807373045C122.42414270019532,348.26433807373047,150.6841427001953,365.7063380737305,147.1001427001953,399.1163380737305C145.6941427001953,412.22033807373043,137.99014270019532,421.0043380737305,129.78214270019532,435.64233807373046C121.97614270019531,449.5663380737305,118.14614270019531,466.9243380737305,123.31014270019531,482.41433807373045C125.59614270019532,489.27433807373046,128.4281427001953,499.99833807373045,138.9341427001953,515.3063380737304C158.91814270019532,544.4243380737305,171.86614270019533,549.2643380737304,170.34814270019533,552.3983380737304C169.57414270019532,553.9963380737304,167.98414270019532,553.4243380737305,166.6481427001953,553.1503380737305C132.6941427001953,546.2083380737305,94.98404270019532,532.2683380737305,71.6900427001953,506.5403380737305C40.90404270019531,472.5383380737305,15.678042700195313,421.50833807373044,6.694022700195313,350.34433807373046C5.124023700195313,337.86833807373046,4.482023700195312,325.38033807373046,4.886046700195313,312.8283380737305ZM247.4341427001953,905.4403380737305C239.7841427001953,904.7823380737304,232.34014270019532,903.0763380737304,224.80614270019532,901.8403380737304C218.09014270019532,900.7403380737304,194.6841427001953,891.4103380737305,175.26414270019532,877.7883380737304C122.02814270019532,840.4483380737305,92.9340427001953,778.2043380737305,105.38414270019531,703.2723380737305C106.05414270019531,699.2443380737304,108.07614270019532,696.7403380737304,112.02614270019531,695.4563380737304C120.42014270019531,692.7303380737304,128.8501427001953,691.4963380737305,137.6761427001953,693.0503380737305C143.00214270019532,693.9903380737304,148.24614270019532,695.0243380737305,153.29414270019532,697.0103380737305C163.12014270019532,700.8763380737305,178.6121427001953,711.7863380737305,189.3441427001953,727.0363380737305C211.7801427001953,758.9163380737305,199.89414270019532,801.1703380737305,240.78214270019532,820.5163380737305C270.03414270019533,834.3583380737305,299.3161427001953,818.2883380737304,325.2101427001953,823.9503380737304C351.5301427001953,829.7043380737305,368.8481427001953,852.7663380737305,370.6201427001953,869.1883380737305C370.8621427001953,871.4343380737305,370.0801427001953,873.1083380737305,368.2741427001953,874.6223380737305C344.9221427001953,894.2223380737305,315.7941427001953,904.0343380737305,284.80814270019533,906.4183380737305C280.1281427001953,906.7803380737305,261.70214270019534,906.6643380737305,247.4341427001953,905.4403380737305ZM921.5021427001953,735.6783380737305C921.1501427001953,814.1183380737305,875.4841427001953,872.7263380737305,810.2721427001953,898.1003380737304C789.5101427001953,906.1783380737305,746.2401427001953,911.2023380737305,708.1361427001954,901.3463380737305C681.9241427001953,894.5663380737304,664.4101427001954,881.0463380737305,657.4361427001953,876.3603380737304C642.4561427001953,866.2983380737305,673.3601427001953,822.6203380737305,706.9881427001953,822.9803380737304C721.0141427001953,823.1323380737305,716.8341427001953,822.2823380737304,732.9781427001953,824.4643380737305C759.1161427001953,827.9943380737304,783.3321427001953,827.6043380737304,801.7241427001953,806.3983380737304C826.5341427001953,777.7943380737305,809.7421427001954,743.1923380737305,852.4161427001953,708.1043380737304C873.3181427001953,690.9163380737305,897.3801427001953,689.0323380737304,913.2781427001953,696.1503380737305C916.1421427001953,697.4323380737304,917.5861427001953,699.4463380737304,918.0721427001953,702.4043380737305C918.7501427001953,706.5263380737305,919.7441427001953,710.6143380737304,920.1181427001953,714.7603380737305C920.8041427001953,722.3783380737304,921.7301427001953,729.9943380737304,921.5021427001953,735.6783380737305ZM540.2561427001954,388.59633807373046C534.7441427001953,382.7363380737305,539.3241427001954,375.12033807373047,546.6921427001953,372.47833807373047C558.1121427001954,368.3843380737305,569.3881427001953,371.55633807373044,574.0621427001953,376.5983380737305C586.6021427001953,390.1223380737305,553.6301427001953,402.8143380737305,540.2561427001954,388.59633807373046ZM483.5281427001953,388.59633807373046C489.0401427001953,382.7363380737305,484.4601427001953,375.12033807373047,477.0921427001953,372.47833807373047C465.6721427001953,368.3843380737305,454.3961427001953,371.55633807373044,449.7221427001953,376.5983380737305C437.1821427001953,390.1223380737305,470.15414270019534,402.8143380737305,483.5281427001953,388.59633807373046Z"></path></g><g><path style="mix-blend-mode:passthrough" fill-opacity="1" fill="#FF8EDE" d="M49.43968926269531,229.53198455810548C49.10168926269531,212.30598455810548,62.16366926269531,196.02396355810546,82.62566926269531,195.82396655810547C103.30166926269531,195.62197115810548,116.41766926269531,211.49398455810547,116.71366926269532,229.29798455810547C117.02566926269532,247.97398455810549,101.86966926269531,262.4779845581055,82.83566926269532,262.8819845581055C65.53766926269532,263.2459845581055,48.92169926269531,248.43598455810547,49.43968926269531,229.53198455810548ZM940.4093692626953,262.78998455810546C922.3813692626953,263.4639845581055,906.0193692626954,247.11198455810546,907.4473692626954,228.75198455810548C906.4713692626954,213.81398455810546,919.2013692626953,196.24597955810546,941.1973692626954,195.54198455810547C962.0053692626954,196.97197455810547,974.5253692626953,212.22598455810547,974.4893692626953,229.52798455810546C974.4453692626953,251.01598455810546,955.9073692626953,263.93398455810546,940.4093692626953,262.78998455810546ZM71.01566926269531,410.31598455810547C56.67566926269531,411.22598455810544,41.75968936269531,399.59998455810546,41.67568969769531,381.49198455810546C41.60369106269531,365.8679845581055,53.60366926269531,352.43398455810546,70.95366926269531,352.34998455810546C87.33566926269532,352.2699845581055,100.11766926269532,365.19598455810547,100.24566926269532,381.4379845581054C100.38966926269532,399.55798455810543,84.29166926269531,411.73998455810545,71.01566926269531,410.31598455810547ZM953.1233692626953,410.31598455810547C936.9593692626953,411.2099845581055,923.5793692626953,398.11398455810547,923.4453692626953,381.8479845581055C923.3013692626953,364.27998455810547,937.1213692626953,352.4879845581055,952.3333692626953,352.33198455810543C969.2353692626953,352.15798455810545,982.2933692626954,365.94598455810547,982.0393692626953,381.6159845581055C981.7393692626953,400.1519845581055,966.0373692626953,411.49998455810544,953.1233692626953,410.31598455810547ZM731.5453692626953,838.6779845581054C744.3593692626953,837.7279845581055,756.9473692626954,850.2319845581055,756.5673692626954,863.8519845581054C756.1953692626953,877.2099845581055,746.2933692626954,889.2679845581055,730.9233692626954,889.2199845581055C718.1493692626954,889.1799845581055,705.7733692626953,878.7659845581055,705.8013692626953,863.7359845581054C705.8273692626954,850.1779845581054,717.3973692626953,837.5379845581054,731.5453692626953,838.6779845581054ZM317.5833692626953,863.7779845581055C318.1273692626953,878.2779845581055,306.62136926269534,889.2579845581055,292.2853692626953,889.2159845581054C278.2873692626953,889.1759845581055,267.17936926269533,877.8999845581054,267.02536926269534,863.8499845581055C266.8773692626953,850.3259845581055,277.9793692626953,838.6879845581054,292.67936926269533,838.5119845581055C305.8433692626953,838.3559845581054,318.7953692626953,850.6059845581054,317.5833692626953,863.7779845581055ZM154.90536926269533,794.2639845581054C142.6133692626953,794.2099845581055,131.3556692626953,784.5779845581054,130.45966926269531,769.8859845581055C131.6656692626953,754.2379845581055,141.4936692626953,745.8599845581055,155.4493692626953,744.7279845581055C170.9493692626953,745.9099845581055,180.4433692626953,756.3699845581054,180.1973692626953,769.9119845581055C179.90936926269532,785.9099845581055,167.27136926269532,794.5679845581054,154.90536926269533,794.2639845581054ZM868.4493692626953,794.2739845581054C854.7633692626953,794.6099845581055,843.3893692626954,782.4959845581054,843.6513692626953,770.0439845581054C844.3693692626953,736.1219845581055,892.7613692626953,737.3679845581055,893.0133692626953,769.2519845581055C893.1333692626953,784.3999845581054,881.2833692626953,794.1399845581054,868.4493692626953,794.2739845581054ZM62.19566926269531,460.10798455810544C62.43566926269531,447.7339845581055,71.9456692626953,438.98598455810543,83.17366926269531,439.33598455810545C95.93166926269532,439.73598455810543,104.07366926269532,448.39398455810544,103.98366926269532,460.2959845581055C103.88766926269531,472.9259845581055,95.11766926269532,480.2699845581055,83.01566926269531,481.2619845581055C69.76366926269532,480.1399845581055,62.325669262695314,471.16798455810545,62.19566926269531,460.10798455810544ZM919.9873692626953,460.3659845581055C918.9853692626953,451.10598455810543,926.8433692626953,439.5319845581055,940.5233692626953,439.29198455810547C967.6553692626953,438.8199845581055,969.2953692626953,479.9399845581055,940.8013692626953,481.20598455810546C929.4713692626954,481.7099845581055,920.0113692626953,471.96798455810546,919.9873692626953,460.3659845581055ZM198.03936926269532,821.9379845581054C209.0893692626953,821.4479845581054,217.73736926269532,830.0359845581055,218.00536926269533,841.5299845581055C218.22336926269531,850.9639845581055,209.4353692626953,861.4419845581054,197.8713692626953,861.3479845581055C187.75336926269532,861.2659845581055,178.02936926269533,852.4999845581054,178.0133692626953,841.3979845581055C177.99936926269532,830.8559845581054,188.1153692626953,820.5499845581055,198.03936926269532,821.9379845581054ZM825.4733692626953,821.9539845581055C836.2573692626953,821.4659845581054,844.6713692626953,828.6919845581054,845.9413692626953,840.8959845581055C846.1613692626953,843.0219845581055,845.4553692626953,845.0499845581055,844.8873692626953,847.0299845581055C839.1193692626953,867.1539845581054,810.4193692626953,864.8119845581055,806.6673692626953,846.6399845581054C804.5833692626953,836.5479845581054,806.9633692626953,830.6639845581054,815.4013692626953,824.5159845581055C818.4513692626953,822.2939845581054,822.0473692626953,821.6019845581054,825.4733692626953,821.9539845581055ZM71.08966926269531,323.4739845581055C61.69566926269531,324.73198455810547,51.50568926269531,314.89798455810546,51.745669262695316,304.46998455810547C51.989669262695315,293.81198455810545,60.55766926269531,285.3579845581055,71.26366926269532,285.36198455810546C80.17966926269531,285.36398455810547,90.26366926269532,291.8679845581055,90.57166926269531,304.6259845581055C90.77366926269531,313.01598455810546,83.66366926269532,324.0939845581055,71.08966926269531,323.4739845581055ZM952.2833692626953,323.4739845581055C943.0793692626953,324.4299845581055,933.3413692626954,315.5699845581055,933.3673692626953,304.27798455810546C933.3893692626954,294.6639845581055,942.2653692626953,285.2699845581055,952.9553692626953,285.34598455810544C962.8273692626954,285.4159845581055,972.1273692626953,294.55198455810546,971.8533692626953,304.9379845581055C971.6253692626954,313.64598455810545,964.0853692626953,324.5019845581055,952.2833692626953,323.4739845581055Z"></path></g><g><path style="mix-blend-mode:passthrough" fill-opacity="1" fill="#91D728" d="M176.30811301269532,217.20809158935546C176.7601130126953,206.94009158935546,173.41011301269532,197.65409158935546,169.09411301269532,188.61011158935548C167.5481130126953,185.37011158935547,166.08811301269532,183.38211858935546,168.3241130126953,182.88611598935546C169.8241130126953,182.55211658935548,171.05811301269532,183.30611458935547,172.26811301269532,183.94411158935546C223.0617130126953,210.71609158935547,243.35371301269532,228.11809158935546,283.15371301269533,262.4000915893555C309.08571301269535,284.7361915893555,359.67771301269534,339.96419158935544,393.4597130126953,391.5081915893555C414.9217130126953,424.25619158935547,422.8837130126953,441.95619158935546,431.5917130126953,458.70819158935547C436.7437130126953,468.62019158935544,430.0877130126953,465.9141915893555,420.0197130126953,519.3481915893555C405.89171301269533,594.3341915893554,412.3337130126953,697.4221915893555,429.7117130126953,753.2701915893555C430.5677130126953,756.0181915893555,430.53371301269533,758.7621915893554,430.0137130126953,761.5401915893555C422.4437130126953,801.9281915893555,405.7877130126953,840.2941915893555,375.3037130126953,868.5121915893554C372.7757130126953,870.8521915893555,370.8617130126953,871.5601915893554,370.0497130126953,867.9541915893554C363.7817130126953,840.0841915893554,330.4397130126953,817.9561915893555,305.4797130126953,823.1401915893555C304.1797130126953,823.4101915893555,276.0557130126953,826.3201915893554,274.9597130126953,826.4041915893555C270.9857130126953,826.7121915893555,266.99771301269527,826.7521915893554,262.9957130126953,826.1301915893555C258.1997130126953,825.3841915893555,253.3737130126953,825.0621915893555,248.62571301269531,823.7921915893555C224.63771301269531,817.3801915893555,212.2797130126953,798.7361915893555,206.4921130126953,775.1861915893554C201.96011301269533,756.7441915893555,198.38811301269533,740.7641915893555,188.1681130126953,726.6321915893554C173.3701130126953,706.1741915893555,150.13811301269533,690.4981915893554,124.71211301269531,692.8341915893554C113.8881330126953,693.8281915893555,110.18413301269531,698.0341915893555,108.15813401269531,696.4301915893554C106.6221310126953,695.2121915893555,107.61613501269531,693.5201915893555,107.99213401269532,692.0601915893554C110.45620301269531,682.4361915893555,113.64052301269531,673.0111915893555,117.51811301269531,663.8641915893554C129.5681130126953,635.5421915893555,148.29611301269532,610.3481915893555,169.3701130126953,591.3381915893555C194.8701130126953,568.3381915893555,215.0417130126953,559.6901915893554,215.99571301269532,559.0081915893554C216.2497130126953,558.8261915893554,216.42571301269533,558.5321915893555,216.6357130126953,558.2881915893554C214.1417130126953,556.8541915893554,208.64971301269532,559.5021915893554,176.9861130126953,554.8481915893555C174.02011301269533,554.4121915893554,171.7061130126953,553.1081915893554,169.65411301269532,551.2321915893555C157.5361130126953,540.1521915893554,146.4441130126953,528.1581915893555,137.4541130126953,514.3401915893555C105.94413301269532,465.90819158935545,125.42611301269531,442.37619158935547,140.5481130126953,415.9501915893554C163.46411301269532,375.9041915893555,119.07011301269532,349.2981915893555,119.66011301269532,324.1501915893555C119.81011301269531,317.70819158935547,118.0561130126953,307.44419158935546,128.0841130126953,293.03619158935544C147.03011301269532,265.81009158935547,157.13011301269532,263.98609158935545,168.2481130126953,246.49609158935547C173.9881130126953,237.46409158935546,176.03011301269532,227.62609158935547,176.30811301269532,217.20809158935546ZM593.1077130126953,757.3061915893554C596.3657130126953,742.2061915893555,612.1857130126953,694.5221915893555,611.6817130126954,603.7381915893554C611.5177130126954,574.4501915893554,607.7817130126953,535.3181915893555,597.9877130126954,492.5921915893555C591.4917130126953,464.2581915893555,587.6977130126953,467.94619158935546,591.6157130126953,460.10019158935546C600.3377130126953,442.6381915893555,610.0757130126954,421.36219158935546,633.1997130126953,387.0721915893555C669.6017130126953,333.0921915893555,714.9097130126953,283.6521915893555,757.2037130126953,247.93819158935548C802.3597130126954,209.80619158935548,842.9117130126953,187.11014158935546,853.4917130126953,183.06214158935546C855.3877130126953,182.33614358935546,857.0997130126954,183.50814058935546,856.1077130126953,185.76014158935547C852.1357130126953,194.77819158935546,845.7597130126953,205.49009158935547,847.8717130126953,224.40009158935547C850.6257130126953,249.06409158935548,869.6697130126953,262.62009158935547,875.5997130126954,268.84409158935546C893.4057130126953,287.52819158935546,904.6517130126953,301.0201915893555,904.4937130126954,321.84419158935543C904.3177130126953,345.0961915893555,879.5377130126953,361.98219158935547,876.7057130126954,389.69419158935546C875.0037130126954,406.3561915893555,885.1917130126953,419.09419158935543,894.4477130126953,435.04619158935543C898.6937130126953,442.36219158935546,901.0097130126953,450.33419158935544,902.6297130126953,458.6161915893555C907.1237130126954,481.5801915893555,891.0457130126953,510.12619158935547,875.9657130126953,528.2681915893554C865.1357130126953,541.2941915893555,868.6397130126953,537.6941915893555,851.6577130126954,553.3081915893555C850.8737130126954,554.0301915893555,849.9077130126954,554.4221915893554,848.8357130126954,554.5461915893554C848.6177130126953,554.5721915893555,825.2397130126953,557.8561915893555,816.7357130126953,557.7481915893554C813.4337130126953,557.7061915893555,810.1297130126953,557.8881915893555,806.8257130126954,557.9681915893555C808.7397130126953,559.9061915893554,892.5517130126954,598.5001915893555,915.4537130126953,691.0521915893555C915.8617130126953,692.7001915893554,916.9057130126953,694.4921915893555,915.4577130126953,695.9821915893555C913.8957130126953,697.5901915893554,912.1697130126953,696.2641915893555,910.6277130126953,695.6641915893555C896.0137130126953,689.9681915893555,875.6037130126953,691.4041915893555,855.7717130126953,706.4401915893554C841.1677130126953,717.5141915893555,829.8077130126953,731.2741915893555,824.3617130126953,749.0161915893555C821.5497130126953,758.1741915893555,818.9337130126953,767.3881915893554,816.7657130126953,776.7241915893554C811.3537130126953,800.0381915893555,797.1157130126953,818.9801915893555,773.0617130126953,824.3681915893554C756.0197130126953,828.1861915893554,750.0017130126953,826.4961915893555,720.7957130126953,823.4321915893555C715.3957130126953,822.8641915893554,713.5317130126953,821.4161915893554,699.1057130126953,824.1421915893554C684.7057130126954,826.8661915893555,667.9257130126953,838.1381915893554,657.6497130126953,856.6321915893554C653.9877130126953,863.2201915893555,653.8937130126953,868.4861915893555,653.4817130126953,870.0181915893555C653.1877130126953,871.1081915893554,651.9477130126953,871.5101915893555,650.9697130126954,870.8361915893555C648.0737130126953,868.8441915893554,628.6657130126953,851.0321915893554,614.8157130126954,823.9941915893555C604.8277130126953,804.4961915893555,598.2897130126953,785.9321915893555,593.4557130126952,759.7961915893554C593.3337130126953,759.1121915893555,593.2637130126952,758.4181915893555,593.1077130126953,757.3061915893554Z"></path></g><g><path style="mix-blend-mode:passthrough" fill-opacity="1" fill="#018100" d="M851.0057012939453,322.88997322998046C842.8037012939453,347.47397322998046,815.7697012939453,365.98397322998045,795.6517012939453,380.16597322998047C748.6877012939453,413.2698732299805,683.7237012939453,443.8218732299805,633.8737012939453,461.53587322998044C631.7517012939453,462.28987322998046,629.6657012939453,464.2238732299804,627.0857012939452,462.72987322998046C626.7217012939453,460.3298732299805,628.1277012939454,458.44387322998045,628.9797012939453,456.42187322998046C666.1017012939453,368.25997322998046,759.6217012939453,296.67199322998044,807.3557012939453,288.0679852299805C832.3777012939453,283.55599322998046,859.6697012939453,296.9179932299805,851.0057012939453,322.88997322998046ZM264.40370129394535,308.68597322998045C311.8617012939453,336.9419732299805,367.49570129394533,394.10187322998047,396.8257012939453,460.86387322998047C397.6457012939453,462.72787322998045,396.7857012939453,463.84387322998043,394.56770129394533,463.2938732299805C387.9177012939453,461.64587322998045,332.1017012939453,439.5678732299805,295.93770129394534,420.7458732299805C261.6657012939453,402.90787322998045,176.61610129394532,355.4559732299805,171.1421012939453,315.89197322998047C164.63420129394532,268.79797322998047,244.08220129394533,296.5880032299805,264.40370129394535,308.68597322998045ZM660.9857012939453,511.99187322998046C655.6457012939453,512.7038732299804,650.1997012939453,512.1498732299805,644.9497012939453,513.5758732299805C644.4757012939453,513.7058732299804,643.9137012939453,513.5718732299805,643.4017012939453,513.4978732299804C642.0557012939453,513.2998732299804,641.4797012939453,511.73787322998044,642.4697012939453,510.73187322998047C680.6497012939453,471.98787322998044,756.0077012939453,435.31987322998043,811.6217012939453,429.6538732299805C830.4637012939453,427.7338732299805,865.6497012939453,432.0818732299805,873.7037012939453,453.2458732299805C886.5457012939453,486.9958732299805,835.1377012939453,510.04987322998045,810.6737012939453,512.9758732299805C776.1557012939453,517.1018732299805,728.7377012939453,502.95387322998045,660.9857012939453,511.99187322998046ZM229.25810129394532,513.6258732299805C206.24210129394532,514.4318732299805,179.39610129394532,508.06387322998046,163.6021012939453,491.1578732299805C153.48814129394532,480.33387322998044,146.3541412939453,460.72987322998046,153.2541512939453,447.55187322998046C175.3761012939453,405.3178732299805,271.78370129394534,441.2218732299805,314.5537012939453,463.75587322998047C333.34170129394533,473.6538732299805,351.8957012939453,484.8418732299805,368.3597012939453,498.33387322998044C369.5897012939453,499.3418732299805,387.0257012939453,514.7558732299805,378.4017012939453,513.5918732299805C328.8377012939453,506.89587322998045,278.6577012939453,511.89587322998045,229.25810129394532,513.6258732299805ZM832.9937012939453,704.0418732299804C807.5617012939454,721.9738732299804,780.8397012939453,705.8538732299805,756.1537012939453,685.8298732299804C709.1897012939453,647.7358732299805,656.1407012939453,583.6318732299804,655.5817012939453,582.3478732299805C655.2577012939453,581.5998732299804,655.6177012939453,580.6618732299805,656.2317012939453,580.6298732299805C697.9357012939453,578.5138732299804,739.1877012939453,586.1458732299805,777.4477012939453,603.0038732299804C806.5657012939453,615.8338732299804,839.9347012939453,640.0958732299805,845.5497012939453,671.4418732299805C847.9507012939453,684.8278732299805,843.9667012939453,696.3058732299805,832.9937012939453,704.0418732299804ZM192.84820129394532,705.5238732299805C176.01420129394532,694.7318732299805,174.02620129394532,677.2338732299804,181.7562012939453,659.3878732299804C203.7022012939453,608.7258732299805,283.3037012939453,584.4478732299805,339.24570129394533,580.1978732299805C343.2957012939453,579.8898732299805,366.7177012939453,577.6098732299804,367.5017012939453,582.3378732299805C367.7847012939453,584.0338732299805,363.96170129394534,587.5118732299804,362.9977012939453,588.6898732299805C336.6167012939453,620.8638732299805,272.9927012939453,690.5278732299805,234.3502012939453,707.3858732299805C228.0762012939453,710.1218732299805,205.6942012939453,713.7598732299805,192.84820129394532,705.5238732299805ZM649.6197012939454,643.9798732299805C649.7537012939454,640.0518732299804,650.6317012939453,639.4858732299805,653.9897012939452,641.2818732299804C692.8697012939454,662.0818732299805,735.7657012939453,709.7978732299805,742.0717012939454,756.6018732299805C747.0877012939453,793.8278732299805,710.9937012939453,813.6838732299805,685.1957012939453,796.0958732299805C655.9857012939453,776.1818732299805,651.9197012939453,700.2798732299805,650.3377012939453,665.3498732299804C650.0717012939454,659.4698732299805,649.1437012939452,657.9838732299804,649.6197012939454,643.9798732299805ZM373.7877012939453,656.3238732299804C373.7877012939453,689.4218732299805,367.8497012939453,762.9358732299804,346.78370129394534,788.5438732299805C327.7337012939453,811.6998732299804,293.0397012939453,804.0778732299805,284.0997012939453,779.5158732299805C267.6257012939453,734.2478732299805,325.9577012939453,664.2578732299805,369.3877012939453,641.3438732299805C374.6937012939453,638.5438732299805,373.8017012939453,640.9238732299805,373.8017012939453,656.3258732299805L373.7877012939453,656.3238732299804Z"></path></g><g style="opacity:0.5;"><g><path style="mix-blend-mode:passthrough" fill-opacity="1" fill="#018100" d="M411.8640417236328,615.8559474975586C413.5520417236328,627.2357474975586,409.8540417236328,677.3917474975585,429.7156417236328,753.2117474975586C430.4396417236328,755.9127474975586,430.54364172363285,758.7417474975587,430.01964172363284,761.4877474975585C422.4056417236328,802.1837474975587,405.6040417236328,840.4697474975586,375.3320417236328,868.4817474975587C372.0920417236328,871.4797474975586,370.91004172363284,871.1537474975586,369.71804172363284,867.0037474975586C363.8880417236328,846.7077474975586,350.3220417236328,833.6857474975586,331.11004172363283,826.0717474975586C328.0560117236328,824.8617474975586,324.9080017236328,823.7657474975586,321.5800017236328,823.4257474975586C320.1200107236328,823.2777474975586,320.37199372363284,821.8937474975586,321.3820037236328,821.3257474975586C334.6280417236328,813.8757474975587,335.4120417236328,814.1357474975587,341.3060417236328,809.0017474975587C407.6960417236328,751.1757474975586,381.23004172363284,647.5057474975586,409.4120417236328,595.8360474975586C410.01404172363283,594.7320474975586,410.5420417236328,593.6160474975586,411.46194172363283,593.8740474975586C411.7400417236328,593.9520474975586,412.1299417236328,594.2880474975586,412.1480417236328,594.5320474975586C413.31204172363283,611.7800474975586,411.1140417236328,610.7940474975586,411.8640417236328,615.8559474975586ZM593.0916417236328,757.3537474975586C595.2236417236328,747.5737474975585,604.3936417236328,718.8297474975586,608.9536417236328,668.9017474975586C613.4316417236328,619.8817474975585,610.2196417236328,589.4339474975586,613.4596417236328,594.4499474975586C644.9536417236328,643.2337474975586,610.4176417236329,771.7077474975586,700.6656417236328,820.5937474975585C701.5576417236327,821.0757474975586,702.9596417236328,821.3137474975586,702.9316417236328,822.4597474975585C702.8976417236329,823.8497474975586,701.3856417236328,823.4657474975586,700.4796417236328,823.6957474975586C695.4156417236328,824.9817474975587,690.4196417236328,826.4157474975586,685.7596417236327,828.8817474975585C670.8296417236328,836.7857474975585,655.8436417236328,852.9697474975586,653.8236417236328,868.0637474975586C653.7466417236328,868.7537474975586,653.6246417236327,869.4377474975586,653.4576417236328,870.1117474975586C653.2336417236328,870.9417474975586,652.0496417236328,871.4677474975585,651.3636417236328,871.0077474975585C650.5016417236328,870.4297474975585,649.6846417236328,869.7857474975585,648.9216417236328,869.0817474975586C617.6116417236328,840.0857474975586,600.2556417236328,799.9217474975586,593.0916417236328,757.3537474975586ZM604.1196417236329,517.6559674975585C604.2656417236328,517.6159896975586,604.4396417236328,517.5079574975586,604.5516417236329,517.5539779975586C605.0616417236329,517.7619854975586,604.8236417236328,518.7679674975586,604.1876417236329,518.1100084975586C604.0996417236329,518.0219954975586,604.1376417236329,517.8100204975586,604.1196417236329,517.6559674975585Z"></path></g></g><g style="opacity:0.25;"><g><path style="mix-blend-mode:passthrough" fill-opacity="1" fill="#000E3F" d="M141.7939861694336,847.1559759643554C126.4339861694336,828.8178759643555,115.0659861694336,806.0079259643554,115.6299819694336,803.0979539643555C117.8899861694336,802.6679611643555,118.8999761694336,804.6799259643554,120.2139861694336,805.7439459643555C124.4039861694336,809.1379359643555,128.46398616943358,812.6819359643555,132.8659861694336,815.8178759643555C178.54198616943359,848.3578759643555,241.8278861694336,855.3099759643554,293.6298861694336,835.0318759643554C314.4458861694336,826.8838759643554,315.7738861694336,821.6639759643555,324.3138861694336,823.6078759643555C351.5238861694336,829.8038759643555,368.1678861694336,852.1418759643554,370.5118861694336,867.7158759643555C370.9498861694336,870.6198759643555,370.4878861694336,873.0158759643555,367.81988616943363,875.0378759643554C295.1198861694336,930.1296759643554,195.5139861694336,911.2896759643554,141.7939861694336,847.1559759643554ZM755.0758861694336,907.3636759643555C718.7358861694336,906.1116759643555,689.3238861694336,900.2759759643554,657.4418861694336,876.3919759643554C654.7138861694336,874.3479759643554,653.2078861694336,872.0699759643554,653.4838861694336,868.4819759643555C653.6858861694336,865.8359759643555,653.9918861694335,863.2719759643554,655.0438861694336,860.8559759643555C659.0558861694336,851.6279759643555,664.5318861694336,843.5299759643555,672.4718861694336,837.1159759643555C684.5698861694336,827.3440759643555,691.6658861694336,825.3099759643554,701.7898861694335,823.2339759643555C711.2578861694336,821.2900759643554,716.4418861694336,837.2299759643555,771.7778861694336,845.2199759643555C782.3658861694336,846.7480759643555,792.9778861694336,846.2959759643554,803.5618861694336,846.0099759643555C837.9238861694336,845.0839759643554,877.8158861694336,829.6079759643554,904.8638861694336,804.4840059643554C905.8138861694335,803.6000289643555,907.1038861694336,802.3679729643554,907.8438861694336,802.7839889643554C908.5278861694336,803.1679609643554,908.1798861694336,804.4299859643555,907.8618861694335,805.1439759643555C887.2538861694336,851.4859759643555,853.4218861694336,881.4199759643554,805.9778861694336,899.7619759643554C798.2838861694336,902.7356759643554,773.5258861694336,906.0496759643555,773.2878861694336,906.0436759643554C766.1478861694336,905.8516759643554,759.1178861694336,907.7876759643555,755.0758861694336,907.3636759643555Z"></path></g></g><g><path style="mix-blend-mode:passthrough" fill-opacity="1" fill="#FD8A02" d="M482.8480817626953,456.10003807373045C492.1519817626953,459.1460380737305,501.9640817626953,460.53003807373045,511.75008176269534,460.62393807373047C521.5380817626954,460.5740380737305,531.3301817626954,459.2280380737305,540.6401817626953,456.29993807373046C549.9441817626953,453.42993807373045,558.8301817626952,449.12393807373047,566.4341817626953,443.16399807373045C567.9171817626953,442.0041080737305,568.3521817626953,439.9463380737305,567.4651817626954,438.28554807373047C566.5791817626953,436.6247480737305,564.6271817626953,435.84120907373045,562.8381817626953,436.42800107373046L562.7881817626953,436.4439930737305C554.2621817626953,439.2359880737305,545.8681817626953,441.52397807373046,537.3641817626954,443.06599807373044C528.8641817626954,444.55000807373045,520.3079817626954,445.4380080737305,511.7480817626953,445.3919880737305C503.18808176269533,445.4859880737305,494.6420817626953,444.6419880737305,486.1680817626953,443.1359780737305C477.6900817626953,441.57396807373044,469.3440817626953,439.1899680737305,460.8940817626953,436.18196907373044L460.84208176269533,436.1619800737305C459.1788817626953,435.57616407373047,457.3346817626953,436.2639080737305,456.46118176269533,437.7957380737305C455.5876817626953,439.32756807373045,455.9349817626953,441.26488807373045,457.2860817626953,442.39796807373045C464.7060817626953,448.60593807373044,473.5520817626953,453.1139380737305,482.8480817626953,456.10003807373045ZM433.8140817626953,548.7823380737304C436.72998176269533,549.6203380737304,439.83798176269534,550.1663380737305,442.9820817626953,550.1583380737304C449.2819817626953,550.2603380737305,455.7100817626953,548.5683380737305,461.2140817626953,545.5543380737305C466.7580817626953,542.5603380737305,471.3260817626953,538.3063380737304,474.9059817626953,533.5939380737304C475.9488817626953,532.1745380737304,476.9161817626953,530.7011380737305,477.80398176269534,529.1799380737305C479.24198176269533,534.2319380737305,481.4539817626953,539.1703380737305,484.6500817626953,543.7263380737305C485.3899817626953,544.7383380737305,486.0080817626953,545.8303380737304,486.8700817626953,546.7783380737304L489.5760817626953,549.5363380737305C491.27798176269533,551.4703380737304,493.5839817626953,552.9003380737305,495.7639817626953,554.4483380737305C496.8079817626953,555.2883380737305,498.0959817626953,555.8063380737304,499.3699817626953,556.3463380737305L503.2019817626953,557.9323380737304C504.5699817626953,558.2603380737305,505.9659817626953,558.5323380737304,507.3599817626953,558.8023380737304C508.75398176269533,559.0883380737305,510.1459817626953,559.3483380737305,511.5959817626953,559.2423380737305L515.8999817626953,559.0323380737304C517.3239817626953,558.9203380737305,518.6739817626953,558.4063380737305,520.0579817626954,558.0783380737305C522.8939817626954,557.4803380737304,525.3241817626953,556.1523380737304,527.7381817626954,554.7923380737304C529.0001817626953,554.1683380737304,530.0541817626953,553.3443380737305,531.0441817626953,552.4583380737305L534.0721817626953,549.8643380737304C536.0241817626953,548.1063380737305,537.4061817626953,545.9683380737305,538.9941817626953,543.9863380737305C542.2181817626953,539.2443380737304,544.3821817626953,534.1919380737305,545.8441817626954,529.0539380737305C546.7761817626953,530.6059380737305,547.7681817626953,532.1279380737304,548.8781817626952,533.5879380737305C552.4481817626953,538.1943380737305,556.9881817626954,542.2783380737304,562.3761817626953,545.2563380737305C567.7361817626953,548.2343380737304,574.0001817626953,550.0463380737305,580.2681817626953,550.0123380737305C586.5221817626953,549.9783380737305,592.6441817626953,548.2563380737305,597.5281817626953,544.9303380737305C598.5521817626953,544.2223380737305,599.2501817626953,543.0323380737304,599.2641817626953,541.6923380737305C599.2871817626954,539.4983380737305,597.5291817626953,537.7013380737304,595.3361817626953,537.6763380737304L595.1161817626953,537.6743380737305C590.0841817626954,537.6183380737305,585.6501817626953,537.3483380737305,581.4861817626953,536.3843380737305C577.3281817626953,535.4740380737305,573.4621817626953,533.9180380737305,569.6781817626953,531.8840380737305C565.9001817626953,529.8400380737305,562.2321817626953,527.2720380737305,558.6021817626953,524.3240380737304C554.9321817626953,521.4020380737304,551.4121817626954,518.0580380737305,547.4521817626953,514.6220380737304L547.3441817626954,514.5280380737305C547.2461817626953,514.4440380737304,547.1101817626953,514.4260380737305,547.0041817626953,514.3540380737304C546.7091817626953,514.0361380737305,546.3621817626953,513.7710380737304,545.9781817626953,513.5700380737305C544.0801817626954,512.5996380737305,541.7541817626953,513.3518380737305,540.7841817626953,515.2500380737305L540.6581817626953,515.4979380737304C536.8241817626953,522.9939380737304,533.1261817626953,530.1480380737305,528.2441817626953,535.5999380737305C523.3621817626953,541.0423380737304,517.5461817626954,544.1183380737305,511.84818176269533,544.0143380737304C511.1301817626953,544.1703380737305,510.4041817626953,544.0043380737304,509.68218176269534,543.8583380737305L507.4861817626953,543.5383380737305C506.0881817626953,542.8363380737305,504.5641817626953,542.5963380737305,503.1741817626953,541.7043380737305C501.7901817626953,540.8363380737305,500.2421817626953,540.2223380737305,498.99418176269535,538.9563380737304C497.6641817626953,537.8603380737304,496.2581817626953,536.7983380737305,495.0941817626953,535.3620380737304C490.09818176269533,530.0360380737304,486.2621817626953,523.0540380737305,482.8201817626953,515.4400380737304L482.7421817626953,515.2639380737305C482.1236817626953,513.9075380737305,480.74128176269534,513.0646380737305,479.25218176269533,513.1359380737305C478.7386817626953,513.1643380737305,478.2373817626953,513.3028380737305,477.7821817626953,513.5419380737304C477.2241817626953,513.6845380737304,476.7075817626953,513.9565380737305,476.2741817626953,514.3360380737305L476.1801817626953,514.4220380737305C472.2441817626953,517.9860380737305,468.7361817626953,521.4480380737305,465.0681817626953,524.4619380737305C461.43628176269533,527.4859380737305,457.7821817626953,530.1579380737305,453.9601817626953,532.1659380737304C450.1401817626953,534.1819380737304,446.2162817626953,535.6439380737305,441.9461817626953,536.5243380737304C440.88418176269533,536.8043380737305,439.7921817626953,536.9363380737304,438.6761817626953,537.0943380737305C437.5641817626953,537.3343380737305,436.4241817626953,537.3823380737305,435.2621817626953,537.4523380737305C434.1501817626953,537.6163380737305,432.7462317626953,537.6503380737305,431.81621176269533,537.7303380737304C430.8562117626953,537.7903380737305,430.25621176269533,537.9163380737305,429.5162217626953,537.8483380737305L427.8682117626953,537.6963380737304C426.38533176269533,537.5613380737304,424.9649817626953,538.3233380737305,424.2566067626953,539.6333380737304C423.5482637626953,540.9423380737305,423.6880947626953,542.5483380737305,424.6121977626953,543.7163380737304C425.9121817626953,545.3623380737305,427.8221917626953,546.5343380737305,429.42619176269534,547.2203380737304C431.0641917626953,547.9503380737304,432.2942017626953,548.3243380737305,433.8140817626953,548.7823380737304ZM595.4081817626953,652.1203380737304L595.2341817626952,652.0843380737305C590.5961817626953,651.1383380737304,586.4881817626954,650.3263380737305,582.6801817626954,649.0203380737305C578.8701817626953,647.7643380737304,575.3461817626953,646.1383380737304,571.8301817626952,644.1483380737304C568.5241817626953,642.2703380737305,565.4401817626954,639.9423380737305,562.2401817626953,637.0903380737304C559.0041817626953,634.2863380737305,555.7781817626953,630.9063380737305,551.8101817626953,627.7663380737305C551.5561817626954,627.5683380737305,551.2341817626954,627.4823380737305,550.9361817626954,627.3503380737304C550.6221817626953,627.1043380737304,550.2701817626953,626.9123380737304,549.8941817626953,626.7823380737304C547.9971817626953,626.1343380737305,545.9351817626953,627.1483380737304,545.2901817626953,629.0463380737305L545.2201817626953,629.2503380737305C542.2741817626953,637.8923380737305,538.1861817626954,645.7203380737304,532.1721817626953,651.3223380737304C529.2501817626953,654.1603380737305,525.9881817626954,656.5103380737305,522.4840817626953,657.9683380737305C519.0480817626953,659.4923380737305,515.4380817626953,660.5083380737304,511.9320817626953,660.2343380737304C508.42608176269533,660.1763380737304,505.0400817626953,659.1843380737305,501.79808176269535,657.5083380737304C498.7520817626953,655.7643380737304,495.2180817626953,652.8483380737305,492.3040817626953,649.9483380737305C489.36608176269533,646.9863380737305,486.8679817626953,643.6183380737305,484.8860817626953,639.9483380737305C482.7440817626953,636.1723380737304,481.58008176269533,632.1363380737305,479.2920817626953,626.9843380737304C478.6402817626953,625.5223380737305,477.1496817626953,624.6183380737305,475.5520817626953,624.7163380737304C474.39008176269533,624.7883380737305,473.4180817626953,625.4003380737305,472.7700817626953,626.2643380737304C472.70008176269533,626.3223380737304,472.6100817626953,626.3423380737305,472.5420817626953,626.4063380737305L472.4580817626953,626.4863380737305C468.8040817626953,629.9403380737305,465.62808176269533,633.3043380737305,462.30808176269534,636.2543380737304C459.0260817626953,639.2283380737305,455.7200817626953,641.8363380737305,452.26008176269534,643.9683380737305C448.7997817626953,646.0973380737305,445.0966817626953,647.8043380737305,441.2300817626953,649.0523380737304C437.2760817626953,650.3763380737305,432.9900617626953,651.1803380737305,428.18407176269534,652.0883380737305L427.9540517626953,652.1323380737305C426.2646617626953,652.4583380737305,424.9755417626953,653.8323380737304,424.7569427626953,655.5393380737305C424.53831476269534,657.2453380737304,425.4395317626953,658.9003380737305,426.9920517626953,659.6423380737305C432.02406176269534,662.0543380737305,437.8260817626953,662.9723380737305,443.6740817626953,662.5143380737304C449.5200817626953,662.0383380737305,455.35408176269533,660.0403380737305,460.33208176269534,656.8903380737305C465.3280817626953,653.7463380737305,469.45208176269534,649.5443380737305,472.5780817626953,644.9083380737304C473.0540817626953,644.1883380737305,473.4700817626953,643.4423380737305,473.90408176269534,642.7043380737305C474.0359817626953,643.2063380737304,474.13008176269534,643.7163380737304,474.2819817626953,644.2143380737305C475.93198176269533,649.4303380737305,478.5200817626953,654.5163380737305,481.9539817626953,658.8243380737305C485.3440817626953,663.2603380737305,489.1320817626953,666.7683380737304,494.1959817626953,670.3003380737305C499.3799817626953,673.3883380737304,505.4600817626953,675.2663380737305,511.6299817626953,675.4663380737304C524.1201817626953,675.6063380737305,535.3181817626953,669.0323380737304,542.1341817626953,660.2623380737305C546.2621817626953,655.2823380737304,549.0281817626953,649.5023380737305,550.6401817626953,643.5243380737304C551.0841817626953,644.2823380737304,551.5141817626953,645.0423380737304,552.0101817626953,645.7923380737304C555.0081817626954,650.2623380737305,559.1861817626952,654.4363380737304,564.2241817626953,657.3483380737305C569.0241817626953,660.1563380737305,574.5921817626953,662.0343380737305,580.2421817626953,662.4823380737305C585.8901817626953,662.9143380737305,591.5181817626953,662.0163380737305,596.3701817626953,659.6463380737305C597.4401817626954,659.1163380737305,598.2821817626952,658.1063380737305,598.5381817626953,656.8463380737305C598.9751817626953,654.6773380737304,597.5751817626954,652.5633380737305,595.4081817626953,652.1203380737304ZM580.7401817626953,759.3943380737305L580.4941817626953,759.3483380737305C571.7501817626953,757.6963380737304,566.0241817626953,754.9463380737304,560.2641817626953,749.9963380737304C557.4201817626953,747.5523380737304,554.6661817626953,744.6663380737305,551.9141817626953,741.5063380737305C549.1161817626953,738.3623380737305,546.4321817626953,734.9123380737306,543.2321817626953,731.4143380737305L543.1461817626953,731.3223380737304C542.9941817626953,731.1583380737304,542.7781817626953,731.0763380737305,542.6001817626953,730.9423380737305C542.0971817626953,730.3723380737305,541.4271817626953,729.9763380737304,540.6861817626954,729.8103380737305C538.7231817626953,729.3693380737304,536.7741817626953,730.6033380737305,536.3341817626953,732.5663380737305L536.3081817626953,732.6863380737304C534.3381817626953,741.4543380737305,531.5041817626953,750.5923380737304,527.4501817626954,757.4243380737305C526.9301817626953,758.2343380737304,526.3981817626953,758.9883380737305,525.8581817626953,759.6383380737304L523.8681817626953,762.0143380737304C522.5579817626954,763.4913380737305,521.1371817626953,764.8673380737305,519.6181817626953,766.1303380737304C516.7121817626953,768.4363380737304,513.8761817626953,769.7703380737305,511.5201817626953,769.6523380737304C506.8561817626953,770.0723380737304,500.4241817626953,764.2643380737304,496.1441817626953,757.1743380737305C491.81218176269533,749.9903380737305,488.5601817626953,741.5823380737304,487.2981817626953,732.9763380737304L487.2620817626953,732.7223380737305C487.0212817626953,731.1003380737304,485.7807817626953,729.8083380737305,484.1700817626953,729.5023380737305C482.4180817626953,729.1683380737304,480.7780817626953,730.1163380737305,480.0380817626953,731.6503380737305L471.59208176269533,741.6803380737305C468.81808176269533,744.8803380737304,466.0000817626953,748.0403380737305,463.2920817626953,750.4563380737304C460.8940817626953,752.6283380737304,457.7100817626953,754.5603380737305,454.4000817626953,756.0003380737305C451.0160817626953,757.4923380737305,447.2461817626953,758.4543380737305,442.8720817626953,759.3483380737305L442.5600817626953,759.4123380737306C440.9062817626953,759.7623380737305,439.6509817626953,761.1143380737306,439.42428176269533,762.7893380737305C439.1976817626953,764.4643380737305,440.0486817626953,766.1013380737304,441.5500817626953,766.8783380737304C446.3820817626953,769.3663380737305,452.1660817626953,770.1063380737305,457.8360817626953,769.2423380737305C463.5400817626953,768.2843380737304,468.9560817626953,765.9003380737305,473.48608176269533,761.7763380737305C476.3700817626953,759.1203380737304,478.6020817626953,756.2363380737304,480.4840817626953,753.2063380737304C481.3772817626953,756.7573380737305,482.5867817626953,760.2223380737305,484.0980817626953,763.5583380737305C486.3580817626953,768.4643380737305,489.4200817626953,773.1403380737304,493.7460817626953,777.3063380737304C497.9820817626953,781.3583380737305,504.35608176269534,784.9063380737305,511.6700817626953,784.8843380737305C519.0180817626954,784.7443380737304,525.0701817626953,781.0823380737304,529.3401817626954,777.2163380737304C531.3601817626953,775.2573380737305,533.2231817626953,773.1423380737305,534.9101817626953,770.8903380737304C535.6921817626953,769.7663380737305,536.4701817626953,768.7463380737304,537.2381817626954,767.5363380737305C538.0541817626953,766.2143380737305,538.7261817626953,764.9003380737305,539.3261817626953,763.5963380737305C541.0141817626953,759.8723380737305,542.0201817626953,756.1903380737305,542.7281817626953,752.5243380737304C544.7541817626953,755.7763380737305,547.2441817626953,758.8383380737305,550.2841817626953,761.5063380737305C554.4261817626953,765.1683380737304,559.7401817626953,768.0063380737305,565.4601817626954,769.0583380737305C571.1681817626953,770.1103380737304,577.0701817626953,769.3703380737304,581.8521817626953,766.8723380737305C582.9341817626953,766.3003380737305,583.6991817626953,765.2693380737305,583.9321817626953,764.0683380737305C584.3401817626954,761.8963380737305,582.9121817626954,759.8043380737305,580.7401817626953,759.3943380737305Z"></path></g><g style="opacity:0.75;"><path style="mix-blend-mode:passthrough" fill-opacity="1" fill="#FFFFFF" d="M446.9477809814453,491.9859904174805C454.11978098144533,472.7680004174805,463.14378098144533,478.8799972174805,462.2317809814453,484.6959804174805C453.50178098144534,540.3759904174805,455.1517809814453,518.2899904174805,451.1117809814453,562.7019904174805C443.6997809814453,644.1819904174805,452.6997809814453,673.3139904174805,453.3637809814453,708.5759904174804C453.4397809814453,712.6119904174805,449.7437809814453,718.5279904174805,444.35778098144533,716.3899904174805C441.7857809814453,715.3699904174805,439.3737809814453,713.5679904174805,437.56178098144534,707.6439904174805C422.1257809814453,657.1579904174805,422.0457909814453,558.7079904174805,446.9477809814453,491.9859904174805Z"></path></g><g><path style="mix-blend-mode:passthrough" fill-opacity="1" fill="#000E3F" d="M526.3400731689453,345.0679855518555C523.7093731689453,345.34398615185546,521.8014731689453,347.7016231518555,522.0800731689453,350.33199315185544C523.3420731689453,362.3259431518555,519.5220731689453,369.4140431518555,515.5260731689453,372.0480431518555C513.2680731689453,373.53394315185545,510.8280731689453,373.6900431518555,508.65407316894533,372.4720431518555C504.8280731689453,370.32804315185547,500.8940231689453,363.2980431518555,501.3300331689453,349.99001315185546C501.4164931689453,347.34594315185547,499.3440131689453,345.1320114518555,496.70002316894534,345.0439987218555C493.9860431689453,345.01399995185545,491.8420261689453,347.03200315185546,491.7540130689453,349.67400315185546C491.26002516894533,364.85004315185546,495.71202316894534,376.20404315185544,503.9739731689453,380.82804315185547C506.3246731689453,382.1561431518555,508.9780731689453,382.8560431518555,511.67807316894533,382.86004315185545C514.8080731689453,382.86004315185545,517.9560731689453,381.9160431518555,520.7959731689454,380.0460431518555C529.0199731689453,374.6280431518555,533.0599731689454,363.1440431518555,531.6019731689453,349.3300131518555C531.3354731689453,346.69481315185544,528.9729731689454,344.7813641518555,526.3400731689453,345.0679855518555Z"></path></g><g><path style="mix-blend-mode:passthrough" fill-opacity="1" fill="#000E3F" d="M958.5001700439453,161.72803104248047C897.8961700439453,138.53203104248047,804.8421700439453,204.79403104248047,777.7681700439454,225.65963104248047C690.7541700439454,292.7256310424805,622.1041700439453,385.21163104248046,592.6681700439453,447.1196310424805C591.8321700439453,448.87763104248046,591.1061700439453,450.43563104248045,590.4101700439453,451.94563104248044C588.5751700439453,447.56763104248046,586.5851700439454,443.25563104248045,584.4421700439453,439.01963104248046C583.8981700439454,437.92763104248047,583.3601700439453,436.8456310424805,582.9501700439453,435.9996310424805C613.0421700439454,400.0856310424805,615.1281700439453,348.6236310424805,587.4901700439453,312.4696310424805C581.3331700439453,304.41563104248047,573.9451700439453,297.38263104248045,565.5981700439453,291.62963104248047C579.7341700439454,270.36763104248047,575.6661700439453,242.25963104248046,572.0301700439453,217.29163104248047C571.1541700439453,211.28203104248047,570.3261700439454,205.60403104248047,569.7861700439453,200.24803104248048C566.8161700439454,170.75203104248047,573.8141700439453,145.97803104248047,588.9881700439453,132.28203104248047C598.5041700439454,123.68803104248047,610.2381700439453,120.29800104248046,622.0121700439453,122.71203104248048C640.5181700439454,126.51203104248047,646.4941700439454,139.09603104248046,648.4061700439453,146.26203104248046C651.4641700439453,157.70003104248048,648.4761700439453,171.01603104248048,641.4561700439453,177.23203104248046C637.4481700439453,180.78803104248047,632.7301700439453,181.50803104248047,627.4301700439453,179.37803104248047C623.0981700439453,177.63403104248047,620.1401700439453,173.94003104248048,619.3221700439453,169.23603104248048C618.3841700439453,163.84403104248048,620.3481700439453,158.37803104248047,624.5821700439453,154.61203104248045C626.4581700439453,152.83133104248049,626.5831700439453,149.8827310424805,624.8631700439453,147.95023104248048C623.1431700439454,146.01763104248047,620.2001700439453,145.79893104248046,618.2141700439453,147.45603104248048C611.4901700439453,153.44203104248047,608.3741700439454,162.19803104248047,609.8861700439453,170.87803104248047C611.2881700439453,178.91803104248046,616.3801700439453,185.25603104248046,623.8581700439453,188.2620310424805C632.5481700439453,191.75603104248046,641.0521700439454,190.38403104248047,647.8081700439453,184.40203104248047C657.6681700439453,175.67003104248047,661.7201700439454,158.96803104248048,657.6621700439454,143.78803104248047C653.4341700439453,127.96003104248047,641.1401700439453,116.85800104248047,623.9381700439453,113.32600104248047C609.3121700439453,110.32600104248047,594.2341700439454,114.64001104248047,582.5701700439453,125.16803104248046C565.1081700439453,140.93003104248046,556.9761700439453,168.64603104248047,560.2581700439453,201.20803104248046C560.8181700439453,206.7740310424805,561.6601700439453,212.55163104248047,562.5501700439453,218.67163104248047C565.9461700439454,241.98963104248048,569.7361700439453,268.2516310424805,557.4321700439453,286.5716310424805C537.2821700439453,275.5256310424804,513.4541700439453,272.08163104248047,489.6941700439453,277.66963104248043C481.5261700439453,279.5946310424805,473.6421700439453,282.5706310424805,466.24017004394534,286.5236310424805C454.48817004394533,266.24763104248046,457.7101700439453,243.19763104248048,461.1481700439453,218.85363104248046C465.4481700439453,188.40003104248046,469.8961700439453,156.90803104248047,445.10817004394534,128.67403104248046C434.72617004394533,116.84801104248046,419.8861700439453,110.96602104248046,404.3601700439453,112.49202004248046C389.6941700439453,113.95002104248047,377.2461700439453,121.80202104248048,370.2081700439453,134.03203104248047C361.5761700439453,149.03603104248046,362.7581700439453,168.17203104248046,373.1501700439453,181.65803104248047C378.97617004394533,189.21603104248047,391.1101700439453,192.24003104248047,400.1881700439453,188.40203104248047C407.5061700439453,185.31203104248047,412.7881700439453,178.09003104248046,413.9721700439453,169.55603104248047C415.19017004394533,160.77603104248047,411.8281700439453,152.25603104248046,404.97617004394533,146.77203104248048C402.9071700439453,145.19623104248046,399.95917004394533,145.55863104248047,398.33417004394533,147.58843104248047C396.70917004394533,149.61833104248046,397.00017004394533,152.57423104248048,398.99017004394534,154.24803104248048C403.2421700439453,157.65603104248046,405.2441700439453,162.75403104248048,404.4841700439453,168.24203104248048C403.76217004394533,173.45003104248048,400.6881700439453,177.79603104248048,396.4621700439453,179.58003104248047C391.4021700439453,181.71003104248047,383.9101700439453,179.92203104248046,380.7361700439453,175.81003104248046C372.6841700439453,165.36203104248045,371.7901700439453,150.49403104248046,378.51217004394533,138.81403104248048C383.98817004394533,129.29403104248047,393.7581700439453,123.17403104248046,405.3081700439453,122.02403104248047C417.7061700439453,120.79403104248047,429.5881700439453,125.51803104248047,437.9081700439453,134.99403104248046C459.7961700439453,159.92403104248046,455.84617004394534,187.89803104248045,451.6641700439453,217.51563104248046C448.1381700439453,242.48563104248046,444.53617004394533,268.25763104248045,458.0101700439453,291.41563104248047C437.8001700439453,304.9896310424805,423.5821700439453,326.01563104248044,418.75017004394533,351.0236310424805C413.0881700439453,380.3356310424805,419.9681700439453,407.2736310424805,440.31017004394533,435.56563104248045C437.8471700439453,440.59363104248047,435.5631700439453,445.70663104248047,433.46417004394533,450.8956310424805C426.1221700439453,434.81763104248046,407.7661700439453,400.0236310424805,367.1821700439453,347.37563104248045C313.5041700439453,277.73563104248046,224.86017004394532,193.18203104248047,137.05217004394532,164.71803104248048C91.93377004394532,150.09603104248046,58.51177004394531,156.10203104248046,37.69777004394531,182.55803104248048C-21.858229956054686,258.2756310424804,-9.162189956054688,414.5496310424805,63.82377004394531,504.1216310424805C98.69577004394532,546.9156310424805,160.70617004394532,559.0556310424804,203.4361700439453,562.0396310424806C137.5081700439453,601.0916310424805,98.39177004394531,664.6116310424804,97.90977004394531,734.8496310424805C97.44177004394531,803.0976310424804,133.7281700439453,862.9716310424805,194.9701700439453,895.0076310424805C215.08017004394532,905.5296310424804,242.28417004394532,911.7416310424804,270.53617004394533,911.7416310424804C300.8541700439453,911.7416310424804,332.3721700439453,904.5816310424805,357.5761700439453,887.9016310424805C408.6981700439453,854.0696310424805,424.3761700439453,803.3236310424804,431.0901700439453,775.8456310424805C444.8841700439453,817.1876310424805,464.20417004394534,849.6376310424805,488.19217004394534,864.9936310424805C497.2841700439453,870.8156310424805,504.9201700439453,873.2656310424804,512.0461700439453,873.2656310424804C520.2461700439453,873.2656310424804,527.7741700439453,870.0196310424805,536.0781700439453,864.9256310424805C559.3561700439453,850.6476310424805,578.6841700439453,818.7716310424805,592.6041700439453,777.2856310424804C594.7001700439453,785.8416310424805,597.2931700439453,794.2676310424805,600.3701700439453,802.5216310424805C612.8241700439453,835.8976310424805,632.6641700439453,863.3856310424804,657.7461700439453,882.0116310424804C686.7561700439453,903.5496310424804,721.8161700439454,911.5256310424804,753.8141700439453,911.5256310424804C782.1181700439453,911.5256310424804,808.0281700439454,905.2836310424805,825.2221700439453,896.6716310424805C879.7901700439453,869.3376310424804,915.8121700439453,820.3356310424805,924.0461700439453,762.2276310424804C932.8781700439453,699.9196310424804,908.7741700439453,635.5816310424805,859.5761700439454,590.1176310424805C851.5681700439453,582.7196310424804,838.8821700439453,570.9976310424804,825.0701700439453,562.3516310424804C849.4601700439454,561.0516310424805,889.5821700439453,554.8076310424805,929.9581700439453,530.7256310424805C976.1701700439453,503.15963104248044,1005.4361700439454,433.23163104248044,1016.4661700439453,381.7296310424805C1039.8861700439454,272.36563104248046,1005.3961700439453,179.68003104248046,958.5001700439453,161.72803104248047ZM423.5401700439453,766.1496310424805C417.6401700439453,791.6776310424805,405.3621700439453,844.7956310424805,352.2941700439453,879.9136310424805C306.5501700439453,910.1876310424805,238.6441700439453,907.0396310424804,199.41417004394532,886.5216310424805C141.4161700439453,856.1796310424804,107.05217004394531,799.5056310424804,107.49617004394531,734.9176310424805C107.98817004394532,663.1336310424805,151.11817004394533,598.6076310424805,222.87217004394532,562.3116310424805C224.8331700439453,561.3206310424805,225.86817004394533,559.1216310424804,225.3811700439453,556.9786310424804C224.8941700439453,554.8356310424805,223.0111700439453,553.2986310424805,220.81417004394532,553.2516310424805C181.04417004394531,552.3836310424805,108.73017004394531,544.0636310424804,71.25397004394532,498.0756310424805C-5.984059956054687,403.28363104248047,-6.156069956054687,253.81563104248048,45.23197004394531,188.48193104248048C63.30197004394531,165.50793104248046,93.20197004394531,160.57993104248047,134.10017004394533,173.83193104248048C219.8281700439453,201.61993104248046,306.7961700439453,284.72163104248045,359.6001700439453,353.22363104248046C413.7801700439453,423.5116310424805,427.8281700439453,461.9416310424805,428.5581700439453,464.00563104248045C399.3241700439453,548.4236310424805,400.7881700439453,669.0996310424805,425.5781700439453,757.8116310424805C424.95417004394534,760.0416310424805,424.3081700439453,762.8276310424804,423.5401700439453,766.1496310424805ZM531.0721700439453,856.7636310424805C517.6601700439453,864.9876310424804,509.0381700439453,866.9596310424805,493.3601700439453,856.9296310424804C415.7301700439453,807.2276310424804,389.8781700439453,556.2136310424805,450.1401700439453,437.2636310424805C450.2481700439453,437.0496310424805,450.25017004394533,436.81763104248046,450.3241700439453,436.5956310424805C450.4341700439453,436.26763104248045,450.56017004394533,435.9536310424805,450.59617004394534,435.6096310424805C450.6301700439453,435.2976310424805,450.5801700439453,435.0036310424805,450.5541700439453,434.69563104248044C450.5281700439453,434.38963104248046,450.5261700439453,434.09163104248046,450.44217004394534,433.79363104248046C450.3481700439453,433.4636310424805,450.1721700439453,433.17763104248047,450.0101700439453,432.87563104248045C449.8981700439453,432.6676310424805,449.8561700439453,432.43763104248046,449.7101700439453,432.2396310424805C429.7301700439453,405.37963104248047,422.88217004394534,380.14963104248045,428.15617004394534,352.8396310424805C434.5041700439453,319.9756310424805,458.9241700439453,294.74563104248045,491.8881700439453,286.99563104248045C525.3821700439453,279.11163104248044,559.1021700439453,291.1076310424805,579.8781700439453,318.2856310424805C604.9821700439453,351.12563104248045,602.8281700439453,398.06563104248045,575.0121700439453,430.59163104248046C573.6681700439453,431.43963104248047,572.7241700439453,432.86763104248047,572.7241700439453,434.5756310424805C572.7241700439453,434.73163104248044,572.7681700439454,434.88963104248046,572.7781700439454,435.0476310424805C572.7821700439453,435.35863104248045,572.8181700439453,435.66663104248045,572.8841700439453,435.96963104248044C573.2261700439453,437.92363104248045,574.2341700439454,440.0116310424805,575.8701700439453,443.29563104248047C579.9541700439453,451.48563104248046,588.4521700439453,468.5276310424805,596.2781700439454,505.1696310424805C613.7561700439453,586.9996310424805,608.9021700439453,683.5316310424805,588.9821700439453,755.8636310424805C588.9021700439453,756.0896310424805,588.8321700439453,756.3056310424805,588.7881700439453,756.5436310424805C575.4841700439454,804.5036310424805,555.5561700439453,841.7456310424805,531.0721700439453,856.7636310424805ZM1007.1061700439453,379.72163104248045C996.4801700439453,429.34363104248047,968.6181700439453,496.5116310424805,925.0541700439453,522.4976310424804C869.4361700439454,555.6736310424805,814.5101700439453,553.5016310424805,804.0701700439453,552.7376310424804C801.6541700439453,552.5876310424806,799.4361700439454,554.2536310424805,799.0041700439454,556.6696310424804C798.5691700439453,559.0846310424804,800.0311700439453,561.4376310424805,802.3881700439454,562.1176310424805C820.9641700439453,567.4836310424805,841.8541700439453,586.7856310424804,853.0761700439454,597.1556310424805C899.9681700439453,640.4836310424805,922.9521700439453,701.6916310424805,914.5621700439453,760.8836310424805C906.7761700439453,815.8316310424805,872.6481700439454,862.2036310424804,820.9321700439453,888.1096310424805C786.4861700439453,905.3596310424805,714.8641700439454,912.4936310424805,663.4581700439453,874.3216310424805C639.8661700439453,856.8036310424804,621.1541700439453,830.8176310424805,609.3481700439453,799.1756310424805C604.1621700439454,785.2716310424805,600.8021700439454,772.5516310424805,598.4621700439453,758.2396310424805C618.9101700439453,684.6276310424805,623.6461700439453,587.4536310424805,605.6421700439453,503.1676310424805C602.1861700439454,486.9876310424805,598.5901700439454,474.5036310424805,595.2701700439453,464.8136310424805C597.2461700439453,459.93963104248047,598.8721700439453,456.37963104248047,601.3181700439453,451.23363104248045C630.2621700439453,390.3596310424805,697.8541700439453,299.3456310424805,783.6121700439453,233.24763104248046C886.7441700439454,153.75603104248046,940.9141700439453,165.26203104248046,955.0741700439453,170.67603104248047C997.3841700439453,186.87003104248046,1029.1561700439454,276.7056310424805,1007.1061700439453,379.72163104248045Z"></path></g><g><path style="mix-blend-mode:passthrough" fill-opacity="1" fill="#000E3F" d="M470.3216575439453,336.3699570081055C463.6736575439453,336.44594570810546,458.63566584394533,341.5859608081055,458.5516815189453,348.22799080810546C458.4736785439453,354.37199080810547,464.0096875439453,360.0559908081055,470.62165754394533,359.92999080810546C477.1636575439453,359.8059908081055,482.2976575439453,354.82399080810546,482.27765754394534,347.89199080810545C482.2916575439453,341.28997080810547,477.1056575439453,336.29195400810545,470.3216575439453,336.3699570081055ZM553.2156575439453,336.3619613681055C545.2636575439453,336.53597280810544,541.4996575439453,342.9019708081055,541.2836575439453,348.20599080810547C541.0456575439453,354.0899908081055,546.9056575439453,360.14199080810545,552.8436575439453,359.9859908081055C569.3878575439453,359.5519908081055,568.3678575439453,336.0259628081055,553.2156575439453,336.3619613681055Z"></path></g></g></g></svg>