<svg viewBox="0 0 1024 1024" height="1024" width="1024" version="1.1" fill="none" xmlns:xlink="http://www.w3.org/1999/xlink" xmlns="http://www.w3.org/2000/svg"><defs><clipPath id="master_svg0_30_77"><rect rx="0" height="1024" width="1024" y="0" x="0"></rect></clipPath></defs><g clip-path="url(#master_svg0_30_77)"><g><g><path style="mix-blend-mode:passthrough" fill-opacity="1" fill="#FC09B2" d="M514.7459945144653,600.9760676131248C525.1979945144653,605.1380676131248,494.31599451446533,583.6340676131249,479.35599451446535,534.3520676131249C472.88399451446537,513.0340676131249,470.92399451446533,486.11406761312486,481.9559945144654,467.7340676131248C506.48999451446537,426.85806761312483,573.0559945144653,445.85806761312483,617.3639945144653,507.35206761312486C623.2219945144653,515.4820676131249,622.3379945144653,515.5900676131248,624.2779945144653,516.3260676131249C621.3179945144653,400.6479676131248,689.7739945144654,290.6599676131249,725.2779945144653,330.87600761312484C735.2859945144653,342.21196761312484,739.0859945144653,366.16996761312487,739.2519945144653,381.70996761312483C739.6559945144653,419.7319676131249,733.8979945144654,432.24606761312486,734.7479945144653,435.94806761312486C737.5579945144653,434.4280676131249,748.6839945144653,410.06796761312484,777.9599945144653,386.3499676131248C861.0119945144653,319.06399761312485,933.1159945144653,394.4799676131248,838.4919945144653,454.21606761312484C823.4959945144653,463.68206761312484,803.8219945144654,474.24206761312485,779.4419945144653,497.26406761312484C730.0239945144654,543.9320676131249,742.8499945144654,559.4860676131249,733.2459945144653,546.6380676131248C716.3119945144654,523.9840676131248,700.9419945144653,544.8800676131249,692.3459945144654,571.8680676131248C682.8679945144654,601.6200676131248,683.2739945144654,634.4160676131248,683.2559945144653,634.6400676131249C683.0919945144653,636.5800676131248,682.7699945144653,641.4340676131249,681.6579945144654,641.3440676131248C680.1419945144653,641.2220676131249,679.1999945144653,636.4420676131249,678.6959945144654,635.3140676131248C655.3999945144653,583.2220676131249,619.4619945144653,541.4540676131248,606.8019945144654,556.8820676131248C599.9479945144653,565.2360676131249,603.4539945144653,585.0360676131248,606.0359945144653,595.5740676131248C617.9339945144653,644.1100676131248,642.6079945144653,670.8260676131249,638.9259945144654,674.0680676131249C635.3839945144653,677.1900676131248,616.3699945144654,660.8000676131248,567.5239945144654,650.0000676131249C497.26399451446537,634.4660676131248,499.22399451446535,673.0580676131249,591.2879945144653,717.6820676131249C592.7219945144653,718.3760676131249,595.4439945144653,718.5420676131248,594.6239945144653,720.9020676131249C593.5039945144654,724.1240676131249,540.4619945144653,711.8440676131248,499.6419945144653,727.8680676131248C491.6239945144653,731.0160676131248,483.78399451446535,735.8120676131248,482.53399451446535,744.3220676131248C482.1939945144653,746.6280676131248,481.7519945144653,746.8820676131248,479.47599451446536,747.2160676131248C478.7759945144653,747.3180676131249,478.03399451446535,747.5120676131248,477.36599451446534,747.3840676131249C470.5399945144653,746.0720676131248,464.07999451446534,748.6880676131249,457.44799451446534,749.3380676131248C452.7519945144653,749.7980676131249,448.0759945144653,751.1760676131248,443.56799451446534,752.6740676131249C403.6359945144653,765.9300676131248,405.7199945144653,776.7600676131249,369.9740945144653,786.1740676131249C361.4580945144653,788.4160676131248,362.1020945144653,787.5040676131248,354.3640945144653,789.0600676131248C353.3280945144653,789.2680676131249,352.28809451446534,789.7240676131248,351.26209451446533,789.6900676131248C341.7580945144653,789.3780676131248,332.1660945144653,789.9900676131249,322.95809451446536,786.6700676131248C295.9921045144653,776.9480676131249,294.37610451446534,750.8180676131249,309.11209451446535,732.0920676131249C331.26409451446534,703.9400676131248,381.0580945144653,687.7240676131248,414.06799451446534,684.9420676131249C418.0979945144653,684.6020676131249,421.9819945144653,683.1700676131248,426.09199451446534,683.0880676131248C429.6179945144653,683.0180676131249,433.1179945144653,682.3040676131249,436.6719945144653,682.9760676131248C437.84599451446536,683.1980676131249,440.2439945144653,682.8520676131249,441.41799451446536,682.6480676131248C437.99599451446534,681.2060676131248,384.08609451446534,674.5120676131248,352.2460945144653,646.5560676131249C347.17209451446536,642.1000676131248,342.4860945144653,637.1860676131248,339.9000945144653,630.8280676131249C328.6140945144653,603.0780676131249,356.37409451446536,590.4180676131248,385.9160945144653,584.7920676131248C419.47199451446534,578.4060676131248,467.63999451446534,582.2180676131248,514.7459945144653,600.9760676131248Z"></path></g><g><path style="mix-blend-mode:passthrough" fill-opacity="1" fill="#91D728" d="M934.7894906082154,759.1823215193749C932.3544906082153,759.5503215193748,929.9584906082154,760.1783215193748,927.5454906082153,760.7003215193748C925.7494906082154,761.0883215193749,925.2414906082154,761.6703215193749,925.3274906082154,763.6823215193749C925.6754906082153,771.7903215193749,931.5514906082153,802.5923215193748,919.8474906082154,839.2423215193749C909.7434906082153,870.8843215193749,887.1954906082153,898.3923215193748,854.5654906082153,893.9863215193748C810.9674906082153,888.1003215193748,768.1854906082153,798.7543215193748,831.1654906082154,689.3223215193748C854.9614906082154,647.9763215193749,892.2974906082154,607.1880215193748,937.3594906082153,587.4080215193749C940.6594906082153,585.9600215193749,942.7974906082154,584.7180215193748,945.6174906082153,587.3640215193749C948.3234906082153,589.9060215193748,951.2814906082153,592.2000215193749,953.8184906082154,594.8960215193748C1007.3104906082153,651.7703215193749,990.2634906082153,750.7743215193748,934.7894906082154,759.1823215193749ZM601.5474906082153,937.9363215193748C594.2164906082153,923.6903215193748,598.3374906082154,925.3563215193749,587.9154906082154,930.1083215193748C521.8199906082153,960.2383215193748,455.7099906082153,930.7963215193748,442.5739796082153,876.3903215193748C442.2319686082153,874.9783215193748,442.4959764082153,873.9903215193749,443.67398060821535,873.1903215193748C509.45199060821534,828.4863215193748,598.1834906082154,838.8943215193749,669.3314906082153,874.5403215193749C719.1214906082153,899.4843215193748,738.7034906082154,924.2443215193748,767.4874906082154,940.2223215193749C772.2094906082153,942.8443215193748,772.2944906082153,943.4023215193748,769.8554906082154,948.0743215193748C735.6754906082153,1013.5863215193749,641.2734906082153,1015.1303215193748,601.5474906082153,937.9363215193748ZM749.3494906082153,605.3420215193748C750.5524906082153,620.0120215193748,752.1514906082153,628.7260215193749,746.5194906082154,654.3163215193748C743.4034906082154,668.4763215193748,743.1374906082153,668.9163215193748,738.7174906082153,668.2703215193749C731.1954906082153,667.1703215193749,728.3514906082153,666.4423215193749,726.1454906082154,666.4503215193748C710.2854906082154,666.5083215193748,695.2754906082154,669.9083215193748,681.4394906082154,677.8783215193748C646.3154906082153,698.1103215193748,624.1414906082153,732.3523215193749,631.2014906082153,771.9423215193749C631.8754906082154,775.7283215193748,631.7094906082153,776.2863215193748,627.8374906082154,776.7003215193748C537.6779906082154,786.3683215193748,464.6719906082153,758.3203215193748,485.83199060821534,735.6883215193749C496.08799060821536,724.7183215193749,523.7159906082153,722.0203215193749,526.7099906082153,721.3923215193748C531.2499906082153,720.4383215193749,535.8059906082153,719.5983215193748,540.3519906082154,719.7083215193749C555.2354906082153,720.0743215193748,559.4564906082153,717.7403215193749,596.8884906082153,721.9703215193748C597.1364906082154,721.9983215193748,597.4194906082154,721.7143215193748,597.6854906082153,721.5743215193748C597.0684906082154,720.8903215193749,520.2759906082154,686.6803215193748,517.8079906082153,659.9903215193749C517.2899906082154,654.3843215193749,519.6759906082153,650.3103215193748,525.0479906082153,648.5663215193748C545.6234906082153,641.8863215193749,580.8234906082154,652.1463215193749,599.6464906082153,658.5883215193749C657.3054906082153,678.3283215193749,642.7924906082153,690.0263215193748,618.1144906082153,632.7159215193749C594.2324906082154,577.2499215193749,597.2064906082153,535.2239015193749,629.1684906082153,560.4799215193749C660.2844906082153,585.0638215193749,681.3684906082153,641.6763215193748,682.1104906082153,641.3643215193748C683.1284906082153,640.9363215193748,682.5944906082153,639.9763215193749,682.6024906082154,639.2403215193749C683.7164906082153,526.2259215193749,739.4784906082153,494.16792151937483,749.3494906082153,605.3420215193748Z"></path></g><g style="opacity:0.5;"><g><path style="mix-blend-mode:passthrough" fill-opacity="1" fill="#018100" d="M852.8984989089965,780.2023254256248C860.8064989089966,755.6563254256248,867.5144989089965,733.8583254256248,881.8564989089966,712.1843254256248C906.1024989089966,675.5403254256248,932.2424989089966,641.4143254256248,929.5744989089966,595.4319254256249C929.3444989089966,591.4619254256248,928.6304989089965,590.7159254256248,937.4344989089966,587.3819254256249C942.8124989089965,585.3459254256248,942.0604989089966,584.2319254256248,947.6904989089966,589.1339254256249C1002.0804989089966,636.4839254256249,998.2084989089966,739.6243254256249,939.9404989089966,758.1303254256248C924.7404989089966,762.9583254256248,924.4944989089965,756.9163254256248,925.8964989089966,769.5203254256248C930.1084989089966,807.3823254256249,922.2244989089966,856.8763254256248,895.3324989089965,880.7363254256248C877.2804989089966,896.7523254256248,843.4964989089965,897.1663254256248,842.6424989089966,887.0783254256248C839.6294989089965,851.5083254256249,840.4644989089966,818.7923254256248,852.8984989089965,780.2023254256248ZM598.6864989089966,931.9883254256249C593.5164989089966,920.5183254256249,597.5784989089966,930.6123254256249,562.1994989089966,939.0183254256249C520.5159989089966,948.9223254256249,480.22199890899657,934.5443254256248,460.7899829089966,911.0763254256249C459.72598790899656,909.7923254256248,460.0139819089966,908.7763254256249,461.56597890899656,908.2783254256249C464.4239889089966,907.3603254256249,467.3039889089966,906.5143254256249,470.1639989089966,905.6063254256248C484.6899989089966,900.9963254256248,498.67199890899656,889.8883254256248,518.5059989089966,883.9803254256249C597.2674989089966,860.5243254256249,631.0874989089966,924.8423254256248,681.1834989089966,933.2963254256249C698.8374989089966,936.2743254256249,716.5094989089966,933.0223254256248,729.5374989089966,920.4923254256248C733.8814989089966,916.3143254256249,733.3934989089967,916.2103254256249,738.4974989089966,920.1643254256248C772.1934989089966,946.2643254256249,774.2314989089966,939.8123254256249,769.7454989089965,948.3083254256248C733.6074989089966,1016.7303254256249,635.4614989089966,1013.5663254256249,598.6864989089966,931.9883254256249ZM750.3764989089966,618.1559254256249C751.0564989089966,630.4399254256249,749.1304989089965,642.4623254256248,746.5044989089965,654.4003254256248C741.4884989089966,677.2063254256249,743.5764989089967,665.0203254256248,721.8404989089966,666.6283254256248C706.8924989089966,667.7343254256249,695.6164989089966,669.3283254256248,679.1464989089966,679.2823254256248C666.3044989089966,687.0423254256249,665.9024989089966,687.0103254256248,656.6344989089966,696.6743254256248C642.5614989089966,711.3503254256249,639.6734989089966,720.3283254256248,637.1554989089966,723.6303254256248C636.6604989089966,724.2803254256248,635.3374989089966,723.9803254256249,635.3854989089966,722.8023254256249C637.0434989089965,681.2623254256248,681.0454989089966,669.4283254256248,711.2114989089966,630.0620254256248C726.9414989089967,609.5339254256248,724.2614989089966,569.2700254256248,714.5674989089966,544.7799954256249C712.5134989089966,539.5899954256248,711.6214989089966,537.4839764256249,717.1474989089966,536.6720254256248C730.5254989089966,534.7080354256249,738.9234989089966,553.4480254256248,742.8514989089965,566.3380254256249C748.0434989089965,583.3840254256248,749.2434989089966,597.6940254256249,750.3764989089966,618.1559254256249Z"></path></g></g><g><path style="mix-blend-mode:passthrough" fill-opacity="1" fill="#018100" d="M641.8521570144653,714.2921113631248C665.9100570144653,675.8680713631248,707.8901570144653,661.3420713631249,737.6520570144653,667.5920713631249C742.5260570144653,668.6140413631249,742.9280570144654,669.1280813631248,741.4100570144653,673.9200713631249C728.2940570144654,715.3560113631248,722.9420570144654,716.2421113631249,721.8281570144653,728.2020113631248C720.6321570144653,741.0380113631248,726.1141570144654,740.8280113631248,751.0460570144653,783.7364113631248C770.2640570144654,816.8124113631249,787.9300570144653,852.7504113631248,800.5580570144654,888.6924113631248C812.9740570144653,924.0324113631248,836.3820570144653,954.1724113631249,866.4300570144653,977.2964113631249C881.6880570144654,989.0384113631249,896.4480570144653,995.4304113631249,902.2780570144653,1000.8704113631248C910.4360570144654,1008.4844113631248,907.2680570144653,1022.7744113631248,879.4200570144653,1017.4844113631248C848.8160570144653,1011.6684113631248,824.5640570144653,988.2464113631248,807.5200570144654,961.8844113631249C790.5280570144653,935.6024113631249,784.0160570144653,917.7424113631248,775.8560570144654,897.2004113631249C756.7180570144653,849.0204113631248,730.8120570144654,798.7144113631248,692.4362570144654,763.8640113631249C688.0361570144653,759.8681113631249,682.9142570144653,759.2000113631249,677.7062570144653,761.9881113631249C662.0142570144653,770.3864113631248,644.5902570144654,773.6104113631249,633.9042370144654,775.8364113631249C631.8622470144653,776.2624113631248,630.7662370144653,773.2804113631248,630.5862470144654,771.2004113631249C628.9582570144653,752.3141113631249,627.1562570144654,737.7601113631249,641.8521570144653,714.2921113631248Z"></path></g><g style="opacity:0.25;"><path style="mix-blend-mode:passthrough" fill-opacity="1" fill="#000E3F" d="M720.8259963894653,732.7380046224998C721.1079763894653,732.7619914724999,721.7819863894654,733.4900189724998,721.8479663894653,733.8379759724999C723.7319363894653,743.7100359724999,731.7419163894654,752.7300359724999,736.8060163894653,761.2219359724999C761.1119163894654,801.9719359724999,783.9740163894653,842.5301359724998,800.0799163894653,887.3401359724999C824.8044163894654,957.7261359724998,880.7724163894653,986.0381359724998,886.9204163894653,991.7581359724999C888.6904163894653,993.4041359724998,890.3184163894654,993.5481359724998,900.5944163894653,999.8601359724998C906.7124163894653,1003.6181359724999,908.5024163894653,1013.6501359724998,900.8804163894654,1017.1521359724998C895.1204163894654,1019.7981359724998,886.0184163894653,1011.8881359724999,881.3024163894653,1009.1801359724998C802.4499163894653,963.9201359724998,786.4479163894654,882.2041359724999,746.5380163894654,807.3920359724998C732.6739163894654,781.4040359724999,725.5899663894653,769.4919359724998,720.7739963894653,750.5099359724999C720.0119673894653,747.4940359724999,717.9279863894653,732.4959999724998,720.8259963894653,732.7380046224998Z"></path></g><g style="opacity:0.25;"><g><path style="mix-blend-mode:passthrough" fill-opacity="1" fill="#000E3F" d="M697.8537874832153,327.97191847249985C696.9577874832153,324.72591847249987,699.6217874832154,323.81591647249985,702.8417874832153,323.42391747249985C711.8697874832153,322.32192747249985,717.2757874832154,321.84393147249983,725.1997874832153,330.76790847249987C731.8677874832154,338.2778984724998,734.8857874832154,349.60189847249984,736.8077874832153,359.45989847249984C744.0237874832153,396.48789847249986,733.6037874832153,435.0736984724998,734.6877874832153,435.7996984724998C736.5717874832153,437.06169847249987,744.1277874832153,415.94989847249985,772.5737874832154,390.8958984724999C846.1577874832153,326.0798884724999,909.8877874832153,375.32189847249987,872.5077874832153,423.8836984724999C846.7697874832154,457.32169847249986,822.0217874832153,457.09569847249986,779.5657874832153,497.14169847249985C733.3817874832154,540.7056984724999,741.1397874832153,558.6116984724998,734.2357874832153,548.1136984724999C727.5917874832153,538.0116984724998,719.1457874832154,532.9876984724999,709.8637874832153,540.6056984724999C694.9977874832153,552.8076984724999,687.6957874832153,585.3976984724998,685.3477874832154,604.8516984724998C681.8697874832153,633.6656984724998,684.4817874832154,641.6836984724998,681.2757874832154,642.0796984724998C680.4957874832153,642.1756984724998,679.8357874832153,637.5556984724999,679.5117874832154,636.9056984724998C674.8737874832153,627.6516984724999,657.6637874832153,587.5316984724998,632.1059874832154,563.9356984724998C618.4239874832153,551.3056984724999,633.5279874832154,550.0716984724999,646.7479874832153,540.0876984724998C691.8057874832153,506.05769847249985,702.8757874832154,438.29569847249985,702.1017874832153,385.03579847249983C701.9437874832154,374.07579847249986,700.5237874832153,337.63179847249984,697.8537874832153,327.97191847249985ZM601.5420874832154,574.6856984724998C601.8180874832153,574.8636984724999,602.2440874832154,574.9856984724998,602.3560874832153,575.2416984724998C603.4200874832153,577.7116984724998,604.7200874832154,614.7796984724998,637.2580874832154,668.2956984724999C639.1760874832153,671.4496984724999,640.1300874832153,672.8956984724998,639.0660874832154,673.9676984724998C637.9200874832153,675.1216984724999,636.5719874832154,674.4596984724999,633.7099874832153,673.1036984724999C605.6479874832153,659.8076984724999,579.5299874832153,651.8936984724999,558.9520274832154,648.3116984724999C557.5460274832153,648.0676984724998,554.2800374832153,648.2676984724999,555.0540174832154,645.3936984724999C562.6299874832154,617.2736984724999,581.1199874832154,594.7756984724999,599.7659874832153,575.6956984724999C600.2639874832154,575.1876984724998,600.7639874832154,574.7056984724999,601.5420874832154,574.6856984724998ZM550.8540696832154,698.3556984724999C550.5520674832153,691.7916984724998,554.7460974832153,700.0596984724998,591.3060874832154,717.6936984724998C592.7320874832153,718.3816984724999,595.4620874832153,718.5396984724998,594.6100874832154,720.9196984724999C593.9660874832153,722.7136984724998,591.8080874832153,721.5436984724998,590.2940874832153,721.4016984724999C551.9421474832153,717.8596984724999,554.8141574832154,721.6496984724998,553.3721374832153,716.7116984724998C551.7501264832154,711.1616984724999,551.0161184832153,701.8776984724998,550.8540696832154,698.3556984724999Z"></path></g></g><g style="opacity:0.5;"><g><path style="mix-blend-mode:passthrough" fill-opacity="1" fill="#FFFFFF" d="M882.7583870925903,650.8936442732811C885.8243870925903,648.4796442732811,889.5363870925903,649.703644273281,888.9023870925903,652.6316442732812C887.3183870925903,659.9496442732811,838.0263870925903,712.117644273281,831.9923870925903,797.2116442732811C830.9443870925903,811.991644273281,830.8383870925903,812.0876442732811,829.3183870925903,815.4456442732811C827.1103870925904,820.3316442732811,820.3283870925903,820.9696442732811,817.3303870925904,815.9856442732811C804.5863870925903,794.799644273281,825.1423870925903,696.2376442732811,882.7583870925903,650.8936442732811ZM421.72808709259033,620.3396442732811C446.7903870925903,622.2836442732811,461.4303870925903,626.9076442732811,477.4323870925903,634.2376442732811C495.5363870925903,642.531644273281,489.1423870925903,654.8916442732811,479.71238709259035,654.1096442732811C471.34038709259033,653.415644273281,466.2063870925903,649.4556442732811,444.09038709259033,643.9236442732811C427.91208709259035,639.877644273281,413.35208709259035,638.5656442732811,378.66208709259035,634.031644273281C375.09008709259035,633.5656442732811,372.3920870925903,632.9596442732811,370.55208709259034,630.6736442732811C367.7620870925903,627.2096442732811,372.40008709259035,623.2596442732811,376.97808709259033,622.0556442732811C381.6080870925903,620.8376442732811,408.42208709259035,619.3076442732811,421.72808709259033,620.3396442732811ZM459.11438709259033,713.4236442732811C472.6423870925903,714.3716442732812,473.16438709259035,724.4116442732811,465.62638709259033,727.2316442732811C462.58238709259035,728.3696442732811,459.4303870925903,729.0936442732811,456.2783870925903,728.7116442732811C449.95038709259035,727.9456442732811,438.01038709259035,729.4676442732812,428.75408709259034,730.0776442732811C421.55408709259035,730.5536442732812,399.47208709259036,735.789644273281,392.4640870925903,737.5296442732811C374.30208709259034,742.039644273281,359.56608709259035,748.0076442732811,340.9841070925903,753.9456442732811C339.2341070925903,754.5056442732812,337.8481170925903,753.9196442732812,336.7261090925903,752.6196442732811C335.49811309259036,751.1956442732811,335.8821153925903,749.6616442732811,336.5921070925903,748.1496442732811C338.97809709259036,743.0576442732811,370.34008709259035,727.5956442732811,394.89808709259034,721.4976442732811C423.3220870925903,714.4416442732811,434.4280870925903,711.6996442732811,459.11438709259033,713.4236442732811ZM649.4063870925903,448.7139442732811C652.7843870925904,430.8519442732811,662.9683870925903,392.3659442732811,675.6503870925903,379.3758842732811C677.2623870925904,377.7218912732811,678.8663870925903,377.5358862732811,680.4503870925903,378.4038982732811C682.1143870925903,379.3158842732811,682.8423870925903,380.6878942732811,682.3943870925903,382.8699042732811C681.8603870925904,385.4619142732811,681.2863870925903,388.0838442732811,680.3563870925904,390.5519442732811C672.1523870925903,412.3039442732811,666.3043870925903,444.9459442732811,665.1903870925903,456.6199442732811C663.0583870925904,478.9556442732811,667.9783870925903,493.0256442732811,657.0163870925903,494.1056442732811C650.5703870925904,494.7396442732811,648.3163870925903,488.9136442732811,647.4183870925904,482.4976442732811C647.2983870925904,481.6216442732811,646.8523870925903,462.22394427328106,649.4063870925903,448.7139442732811ZM633.3963870925903,872.5776442732811C643.8303870925904,876.799644273281,671.6483870925904,889.3216442732811,677.5763870925903,898.179644273281C680.9943870925904,903.2856442732812,676.5363870925903,907.9036442732811,671.8403870925904,907.1356442732811C661.7883870925903,905.4936442732811,643.7323870925903,889.9616442732811,594.3923870925903,873.9976442732811C578.2103870925903,868.761644273281,567.4103870925903,868.521644273281,563.0043870925904,866.3136442732812C557.6143870925903,863.6136442732811,559.7723870925903,858.8616442732812,563.9403870925903,858.3756442732811C565.6963870925904,858.1736442732811,612.7203870925903,864.213644273281,633.3963870925903,872.5776442732811ZM569.5543870925903,557.6436442732811C565.2143870925903,564.9896442732811,558.0143870925904,562.3536442732811,553.3363870925904,555.0576442732811C526.4823870925903,513.1596442732811,504.03838709259037,493.9136442732811,502.54238709259033,485.4956442732811C501.7423870925903,480.9896442732811,505.7243870925903,477.5138442732811,515.0343870925904,484.4016442732811C539.8883870925904,502.7856442732811,576.7323870925903,545.4936442732811,569.5543870925903,557.6436442732811ZM548.1623870925903,760.1136442732811C509.20238709259036,752.9896442732811,519.6483870925904,742.7216442732811,526.4523870925904,743.8276442732811C583.7463870925903,753.1436442732811,595.4023870925903,743.9296442732812,604.8663870925903,748.3256442732811C609.4103870925903,750.435644273281,608.9723870925903,756.4996442732811,601.6023870925903,758.7756442732812C585.0003870925904,763.9016442732811,564.3423870925903,763.0716442732811,548.1623870925903,760.1136442732811ZM593.2863870925903,692.9476442732811C581.6503870925903,688.7536442732811,560.3543870925903,681.0176442732811,552.4763870925904,671.4496442732811C551.3623870925903,670.097644273281,550.1663870925903,668.6096442732811,551.2843870925904,666.6916442732811C554.2703870925903,661.569644273281,563.9923870925903,668.4976442732811,594.8183870925903,678.8236442732812C597.3023870925904,679.655644273281,599.5903870925904,681.0756442732811,601.9483870925903,682.2676442732811C607.5423870925904,685.0956442732811,608.4643870925904,692.5536442732812,601.6243870925903,693.6676442732811C598.1463870925903,694.2356442732811,596.1303870925904,693.973644273281,593.2863870925903,692.9476442732811ZM647.4683870925903,632.8856442732811C645.5563870925903,632.4096442732811,643.9543870925903,631.2476442732811,642.6823870925903,629.693644273281C634.4143870925903,619.607644273281,627.9263870925904,608.5356442732812,624.0083870925903,596.0356442732812C621.4343870925903,587.8256442732811,628.0803870925904,585.3216442732811,633.3683870925904,591.7656442732812C641.3163870925903,601.4496442732811,639.2223870925903,600.8076442732811,652.8263870925903,618.271644273281C659.0383870925903,626.2456442732811,656.8403870925904,635.2216442732811,647.4683870925903,632.8856442732811Z"></path></g></g><g><path style="mix-blend-mode:passthrough" fill-opacity="1" fill="#000E3F" d="M988.8583421707153,657.0657648787499C984.2243421707153,629.8717648787499,969.8543421707153,603.4997648787498,949.4383421707154,584.7077648787499C944.4663421707153,580.1337648787498,939.8623421707154,581.2317648787498,936.0103421707154,582.9097648787499C861.5563421707153,615.3477648787498,805.5083421707153,705.3517648787499,796.2843421707153,770.1397648787499C789.8643421707153,815.2017648787498,800.2183421707153,856.9597648787499,823.9843421707153,881.8477648787499C828.6263421707154,886.7077648787498,833.7043421707153,890.5077648787499,839.0303421707154,893.3437648787499C843.3763421707154,922.1137648787499,853.0083421707153,948.9777648787499,867.1823421707153,972.3177648787498C857.3663421707154,964.7497648787498,847.8183421707154,955.6177648787499,838.0603421707153,944.4357648787499C818.4243421707154,921.9257648787499,811.5623421707153,904.1957648787499,802.0743421707153,879.6557648787499C790.6743421707154,850.1897648787499,775.0583421707154,809.8277648787498,728.8683421707153,739.6997648787499C724.8963421707153,733.6737648787498,725.1123421707154,726.5737648787499,729.5423421707153,717.3537648787499C752.2903421707153,670.0697648787498,759.9783421707153,626.7997648787498,752.3943421707154,588.7417648787498L751.5503421707153,584.4537648787498C749.9423421707154,576.1657648787498,748.2783421707154,567.6017648787499,745.2603421707154,559.3237648787499C744.4503421707153,557.1057648787498,743.5503421707153,554.9207648787499,742.5623421707153,552.7757648787499C747.1843421707154,539.3477648787498,760.2543421707153,521.9857648787498,780.6243421707154,502.35976487874984C799.6563421707153,484.01576487874985,816.5763421707153,473.43376487874986,831.5003421707154,464.09576487874983C850.8463421707154,451.99376487874986,867.5523421707153,441.5457648787499,881.1703421707153,419.0217648787499C888.9443421707153,406.1639648787499,890.3623421707154,392.55396487874987,885.1603421707154,380.7099648787499C879.8303421707153,368.55796487874983,867.8463421707154,359.7819648787498,852.2903421707153,356.62996487874983C835.8523421707154,353.3059648787498,816.9563421707153,357.08796487874986,797.5923421707153,367.55996487874984C771.1703421707153,381.84996487874986,753.2443421707153,402.4739648787498,741.4483421707153,418.46976487874986C743.4343421707154,401.62196487874985,744.8503421707153,380.26396487874985,741.8903421707153,361.70196487874983C737.9703421707154,337.09796487874985,727.8743421707154,321.78594487874983,713.4663421707153,318.57797087874985C698.1023421707154,315.1579548787498,680.5963421707154,326.48196487874986,664.3063421707153,350.49996487874984C636.4283421707153,391.6039648787498,621.2203421707154,444.68376487874986,619.9663421707153,504.66976487874985C598.9583421707154,479.2597648787498,576.3143421707153,454.65776487874984,543.1983421707154,444.74576487874987C515.2823421707153,436.39376487874983,491.96834217071535,443.32776487874986,479.27434217071533,463.79776487874983C457.18234217071534,499.4377648787498,474.78834217071534,553.4357648787499,504.7343421707153,592.9197648787499C477.48034217071535,582.7837648787498,452.90634217071533,577.3397648787499,418.25634217071536,577.3397648787499C417.76434217071534,577.3397648787499,417.26634217071535,577.3397648787499,416.77034217071537,577.3437648787499C369.65604217071535,577.5497648787498,337.5040421707153,591.7397648787498,332.85604217071534,614.3677648787498C328.72804217071536,634.4657648787498,347.54604217071534,655.1877648787499,384.48004217071536,671.2217648787498C392.29394217071535,674.5997648787499,400.3183421707153,677.4687648787499,408.50234217071534,679.8117648787498C381.7340421707153,684.6237648787499,341.45204217071534,695.4177648787498,315.29604217071534,718.9037648787498C299.8360321707153,732.7857648787499,292.86203217071534,749.4037648787498,296.1600391707153,764.4877648787499C298.90204217071533,777.0217648787498,308.66404217071533,787.0197648787498,322.2680421707153,791.2477648787499C329.27604217071536,793.4217648787499,336.8020421707153,794.4937648787499,344.68004217071535,794.4897648787498C365.63404217071536,794.4897648787498,389.0660421707153,786.9197648787499,411.76434217071534,772.4537648787498C432.1903421707153,759.4317648787498,454.5763421707153,752.7057648787498,480.03834217071534,751.8157648787499C484.69434217071534,759.8837648787498,496.2543421707153,767.1197648787498,513.7323421707154,772.7097648787499C547.6443421707154,783.5437648787499,591.4643421707153,785.4297648787499,619.8723421707153,782.4637648787498C652.4343421707154,779.0777648787498,667.7083421707154,771.8597648787498,676.8363421707154,767.5477648787498C684.8043421707154,763.7877648787498,685.2843421707153,763.5437648787499,689.6683421707153,767.3697648787498C731.1463421707153,803.5157648787499,759.9203421707153,869.2077648787498,770.3703421707153,895.7737648787498C777.3043421707154,913.4077648787498,784.7263421707153,931.2097648787499,793.6563421707153,947.8097648787499C772.6003421707153,940.2257648787498,755.2903421707153,927.1617648787499,735.7503421707154,912.3197648787499C705.0383421707154,888.9917648787498,670.2263421707153,862.5517648787499,608.5223421707153,847.0077648787499C543.3783421707153,830.5997648787499,481.84634217071533,838.6917648787498,439.62234217071534,869.1837648787498L439.59234217071537,869.2037648787499C439.53034217071536,869.2477648787499,439.4623421707154,869.2877648787498,439.40034217071536,869.3317648787498C439.2003421707153,869.4757648787498,439.0903421707153,869.6857648787499,438.91834217071533,869.8537648787499C438.6623421707153,870.1057648787498,438.39434217071533,870.3357648787498,438.19834217071536,870.6357648787498C438.02634217071534,870.9017648787499,437.9403421707153,871.1917648787498,437.82234217071533,871.4817648787498C437.70434217071534,871.7717648787499,437.56434217071535,872.0437648787498,437.50234217071534,872.3557648787498C437.43434217071535,872.7057648787498,437.46834217071535,873.0577648787498,437.47834217071534,873.4137648787498C437.4843421707153,873.6537648787498,437.41834217071533,873.8817648787499,437.4623421707154,874.1237648787499C437.4763421707153,874.2017648787498,437.49634217071537,874.2777648787498,437.5103421707153,874.3537648787499L437.51634217071535,874.3837648787498C442.2843421707153,900.6817648787498,460.3543421707153,923.2237648787499,487.1523421707153,936.2617648787499C520.1303421707153,952.3017648787499,559.0443421707153,950.8617648787498,593.9243421707154,932.2877648787498L593.9363421707153,932.2797648787498C607.3423421707153,962.4737648787499,628.3323421707153,983.5397648787498,656.3243421707153,994.9017648787499C666.9783421707153,999.2317648787498,678.3713421707153,1001.4557648787498,689.8723421707153,1001.4517648787498C723.8003421707153,1001.4517648787498,756.5983421707153,982.1817648787498,773.7503421707154,949.7537648787498C782.3403421707153,954.2357648787498,791.4063421707153,957.7397648787498,800.7783421707154,960.1997648787499C812.0803421707153,978.5697648787499,825.7623421707153,994.8517648787498,843.5243421707154,1006.8257648787499C850.8783421707153,1011.7837648787498,862.1183421707153,1018.7657648787498,874.7683421707153,1022.1417648787499C879.0003421707154,1023.2737648787498,883.7383421707153,1023.9957648787498,888.3523421707154,1023.9957648787498C896.9243421707154,1023.9957648787498,905.0843421707153,1021.4977648787499,908.8443421707153,1014.4457648787499C910.7943421707154,1010.7917648787499,911.2143421707153,1006.9697648787499,910.0583421707154,1003.3997648787498C907.4603421707153,995.3797648787498,897.8543421707153,990.6817648787498,890.8423421707154,987.2477648787499C889.8433421707153,986.7657648787498,888.8513421707154,986.2687648787498,887.8663421707154,985.7577648787499C887.6963421707153,985.2957648787499,887.5203421707154,984.8337648787499,887.2023421707154,984.4237648787498C868.2703421707154,960.1117648787498,855.4243421707154,930.1877648787498,849.6243421707153,897.5357648787499C853.5843421707153,898.5937648787499,857.6183421707153,899.1917648787498,861.6903421707153,899.1917648787498C868.9403421707153,899.1917648787498,876.2863421707153,897.4977648787499,883.4183421707153,894.0457648787499C912.8943421707153,879.7797648787498,938.3143421707153,834.4977648787499,929.9183421707153,765.0617648787498L930.9563421707153,764.8597648787498C942.5463421707153,762.6377648787499,966.6663421707153,758.0077648787499,982.1263421707154,723.1097648787498C990.5103421707154,704.2137648787498,992.8963421707153,680.7557648787499,988.8583421707153,657.0657648787499ZM659.9903421707154,985.8777648787499C634.0463421707153,975.3497648787499,615.3483421707153,956.5177648787499,602.8283421707154,928.2997648787499C601.9503421707153,926.3337648787499,600.6323421707153,923.3537648787499,597.4643421707153,922.2637648787498C594.5723421707153,921.2537648787498,591.7363421707153,922.4157648787499,589.3543421707153,923.6917648787498C557.2583421707153,940.7777648787498,521.5623421707153,942.1697648787499,491.4163421707153,927.5037648787498C468.4283421707153,916.3217648787498,452.66834217071533,897.4757648787498,447.7023421707153,875.4797648787498C487.53034217071536,848.0377648787498,545.0203421707154,841.0617648787498,606.1463421707153,856.4477648787498C665.9243421707154,871.5057648787498,699.8903421707153,897.3097648787499,729.8603421707153,920.0717648787498C741.9963421707153,929.2897648787498,753.2983421707154,937.8517648787498,765.2223421707154,944.9737648787499C744.7623421707153,983.8817648787499,699.4083421707153,1001.8677648787499,659.9903421707154,985.8777648787499ZM406.52634217071534,764.2377648787499C377.72404217071534,782.6037648787499,348.07204217071535,789.0657648787499,325.15804217071536,781.9417648787498C314.7900421707153,778.7257648787498,307.68804217071533,771.5997648787499,305.67804217071534,762.4057648787498C303.15003217071535,750.8417648787499,309.0280421707153,737.6237648787499,321.80804217071534,726.1477648787499C359.0520421707153,692.6997648787499,430.3643421707153,686.3857648787498,436.2543421707153,685.9177648787498C450.36234217071535,688.2197648787499,464.27034217071537,689.4417648787498,477.73034217071535,690.2437648787499C477.8303421707153,690.2517648787498,477.92434217071536,690.2517648787498,478.02434217071533,690.2517648787498C480.6473421707153,690.2387648787499,482.7873421707153,688.1487648787498,482.8643421707153,685.5267648787499C482.9413421707153,682.9047648787498,480.9273421707153,680.6937648787498,478.31034217071533,680.5257648787499C449.44834217071536,678.8037648787499,418.57634217071535,675.4037648787498,388.36414217071535,662.2897648787498C356.5101421707153,648.4597648787499,339.32614217071534,631.2797648787498,342.40014217071536,616.3257648787499C345.3561421707153,601.9197648787499,369.51614217071534,587.2897648787498,416.8163421707153,587.0797648787499L418.31234217071534,587.0797648787499C458.9043421707153,587.0797648787499,484.18434217071535,594.5057648787499,518.9503421707153,609.0297648787498L518.9743421707153,609.0397648787498L518.9923421707153,609.0457648787499C519.8503421707153,609.4097648787499,520.7343421707153,609.4217648787499,521.5923421707154,609.2877648787498C521.9543421707153,609.2337648787499,522.3183421707154,609.2097648787499,522.6623421707153,609.0737648787499C522.9483421707154,608.9597648787499,523.1803421707153,608.7517648787498,523.4423421707154,608.5837648787499C523.6923421707154,608.4237648787498,523.9683421707153,608.3237648787499,524.1923421707154,608.1117648787499C524.2063421707153,608.0977648787498,524.2103421707153,608.0797648787499,524.2243421707153,608.0677648787498C524.4403421707153,607.8597648787498,524.5763421707153,607.5757648787499,524.7523421707153,607.3277648787498C524.9543421707153,607.0437648787499,525.1983421707154,606.7837648787498,525.3323421707153,606.4717648787498C525.3383421707154,606.4557648787498,525.3523421707154,606.4477648787499,525.3583421707153,606.4317648787498C525.4383421707154,606.2417648787498,525.4203421707153,606.0457648787499,525.4743421707153,605.8537648787499C525.5883421707154,605.4457648787499,525.7143421707153,605.0437648787499,525.7203421707153,604.6237648787499C525.7243421707153,604.3257648787499,525.6323421707153,604.0477648787498,525.5823421707153,603.7577648787499C525.5283421707153,603.4297648787499,525.5123421707153,603.1037648787499,525.3903421707154,602.7917648787499C525.2523421707153,602.4357648787499,525.0103421707154,602.1377648787499,524.7923421707153,601.8217648787498C524.6583421707153,601.6297648787498,524.5923421707154,601.4077648787498,524.4283421707153,601.2317648787498C477.99234217071535,551.5797648787499,470.77634217071534,496.00776487874987,487.56034217071533,468.93176487874985C497.90634217071533,452.24376487874986,516.6723421707153,446.96976487874986,540.4123421707153,454.07776487874986C574.4543421707153,464.26776487874986,597.4023421707153,492.3777648787499,619.5883421707154,519.5617648787498L621.0063421707154,521.2957648787499C621.0643421707153,521.3657648787498,621.1463421707153,521.3937648787498,621.2063421707153,521.4597648787499C621.4343421707154,521.7097648787499,621.7043421707153,521.8957648787498,621.9803421707154,522.0937648787499C622.2243421707153,522.2697648787498,622.4503421707153,522.4597648787499,622.7183421707153,522.5857648787498C622.9783421707153,522.7097648787499,623.2603421707154,522.7597648787498,623.5443421707153,522.8357648787498C623.8783421707153,522.9237648787498,624.1983421707153,523.0197648787498,624.5423421707153,523.0357648787499C624.6243421707154,523.0397648787498,624.6943421707153,523.0837648787499,624.7763421707153,523.0837648787499L624.8463421707154,523.0837648787499C625.0603421707153,523.0817648787498,625.2403421707154,522.9817648787498,625.4463421707153,522.9537648787498C625.7803421707154,522.9077648787498,626.1003421707153,522.8597648787498,626.4223421707154,522.7437648787499C626.7483421707153,522.6257648787498,627.0303421707154,522.4537648787498,627.3203421707153,522.2697648787498C627.4963421707153,522.1597648787499,627.6963421707153,522.1197648787498,627.8603421707153,521.9857648787498C627.9343421707154,521.9257648787499,627.9643421707153,521.8377648787498,628.0323421707153,521.7757648787499C628.2843421707153,521.5457648787499,628.4723421707154,521.2757648787499,628.6703421707153,520.9977648787499C628.8463421707154,520.7517648787498,629.0323421707153,520.5217648787499,629.1563421707153,520.2537648787498C629.2803421707154,519.9877648787499,629.3343421707153,519.7037648787498,629.4083421707153,519.4137648787498C629.4943421707153,519.0797648787499,629.5803421707153,518.7577648787499,629.5963421707154,518.4137648787498C629.6003421707153,518.3197648787499,629.6483421707153,518.2417648787498,629.6463421707153,518.1457648787498C628.7463421707153,453.66976487874985,643.1223421707153,399.10586487874986,672.3723421707153,355.9678648787499C686.0643421707153,335.7878648787499,700.2743421707153,325.63189487874985,711.3603421707153,328.0878648787498C721.4543421707153,330.33186487874985,729.0803421707153,343.1458648787499,732.2843421707153,363.23586487874985C736.4003421707152,389.0978648787499,731.4203421707153,421.55176487874985,729.0283421707154,437.14576487874984C728.9903421707154,437.38776487874986,729.0623421707153,437.60976487874984,729.0603421707153,437.84776487874984C729.0583421707154,438.20976487874987,729.0323421707153,438.56376487874985,729.1103421707153,438.9157648787499C729.1783421707153,439.2237648787499,729.3243421707153,439.49176487874985,729.4483421707153,439.77776487874985C729.5703421707153,440.06576487874986,729.6663421707153,440.35776487874983,729.8443421707153,440.61976487874983C730.0443421707153,440.91176487874986,730.3163421707154,441.13376487874984,730.5763421707154,441.3777648787499C730.7523421707153,441.5437648787498,730.8683421707153,441.75176487874984,731.0743421707153,441.89376487874983C731.1103421707153,441.91776487874984,731.1523421707153,441.91976487874985,731.1883421707153,441.94376487874985C731.4523421707154,442.1157648787498,731.7663421707153,442.1997648787499,732.0643421707153,442.3197648787499C732.3743421707154,442.44376487874985,732.6683421707153,442.60176487874986,732.9903421707154,442.65976487874985C733.0303421707154,442.66776487874984,733.0603421707153,442.69376487874985,733.1003421707153,442.6997648787499C733.3483421707153,442.73776487874983,733.5723421707153,442.6657648787499,733.8143421707153,442.66776487874984C734.1703421707153,442.66976487874985,734.5183421707154,442.69576487874986,734.8643421707153,442.62176487874984C735.2203421707154,442.5457648787499,735.5283421707154,442.38376487874984,735.8503421707153,442.23376487874987C736.0903421707153,442.12376487874985,736.3363421707154,442.04776487874983,736.5583421707154,441.89976487874986C736.8923421707153,441.67376487874986,737.1523421707153,441.36976487874983,737.4223421707154,441.06576487874986C737.5563421707153,440.9157648787499,737.7323421707154,440.82376487874984,737.8483421707153,440.6537648787498L740.3303421707153,437.0217648787499C751.3583421707153,420.80576487874987,769.8203421707153,393.66386487874985,802.2343421707153,376.1338648787498C814.3223421707154,369.59186487874985,832.4803421707153,362.5638648787498,850.3603421707153,366.1818648787498C862.9543421707153,368.73186487874983,872.1503421707154,375.28586487874986,876.2483421707153,384.62986487874986C880.1383421707153,393.4918648787499,878.9283421707154,403.9198648787499,872.8423421707154,413.9898648787498C860.4263421707153,434.52976487874986,845.3863421707154,443.9377648787498,826.3463421707154,455.84776487874984C811.0123421707153,465.44176487874984,793.6363421707154,476.3097648787499,773.8703421707153,495.35776487874983C755.5503421707153,513.0077648787499,743.0843421707153,528.7017648787498,736.4723421707154,542.2357648787498C729.7903421707153,533.3677648787499,722.9783421707153,531.7117648787498,718.6503421707152,531.8377648787498C706.8123421707153,531.9877648787499,696.1823421707154,544.3017648787499,688.7163421707153,566.5097648787498C682.1903421707153,585.9177648787498,679.8103421707153,605.9777648787499,678.5563421707153,624.9037648787498C666.1743421707154,599.8557648787498,643.2763421707153,559.1737648787498,621.4543421707153,550.5077648787499C612.5903421707153,546.9857648787498,607.1563421707153,549.3677648787499,604.1703421707153,551.9917648787498C592.5923421707153,562.1597648787499,599.9463421707153,592.7337648787499,600.8243421707153,596.1837648787498C607.2383421707153,621.4597648787499,618.6663421707153,645.2657648787499,630.1443421707154,666.1957648787499L629.6343421707154,665.9817648787498C609.1903421707153,657.3617648787499,574.9763421707153,642.9297648787499,541.1343421707154,641.6637648787498C535.2163421707153,641.4477648787499,520.7883421707154,641.8757648787498,514.9443421707153,650.6697648787499C512.9083421707153,653.7257648787498,511.21834217071535,658.9397648787499,514.6883421707154,666.4277648787498C523.3083421707154,685.0037648787498,549.2583421707153,701.6697648787499,575.9963421707153,715.3997648787499C554.2383421707153,714.0057648787499,526.7243421707153,713.3757648787498,499.11634217071537,722.7157648787498C482.1663421707153,728.4457648787499,478.34634217071533,736.8317648787498,477.8083421707153,742.1877648787499C451.34634217071533,743.3937648787498,427.9523421707153,750.5777648787498,406.52634217071534,764.2377648787499ZM900.7943421707154,1006.3997648787498C901.0223421707153,1007.1137648787499,901.1703421707153,1008.1477648787499,900.2543421707153,1009.8677648787499C897.1943421707153,1015.6037648787499,884.5343421707154,1014.6697648787499,877.2843421707154,1012.7377648787499C868.7323421707154,1010.4537648787499,859.7363421707154,1006.0097648787498,848.9763421707154,998.7517648787499C832.1563421707153,987.4137648787498,819.1243421707153,971.6757648787499,808.2983421707154,953.8117648787498C808.2083421707154,953.6447648787498,808.1083421707153,953.4827648787499,807.9983421707153,953.3277648787498C796.6203421707153,934.4397648787499,787.6883421707153,913.2037648787499,779.4323421707154,892.2097648787499C766.1343421707154,858.3837648787498,737.6143421707153,796.2297648787498,696.0683421707154,760.0277648787498C686.8763421707154,752.0177648787499,680.9203421707153,754.8397648787499,672.6783421707153,758.7397648787498C664.1143421707153,762.7857648787499,649.7783421707154,769.5597648787498,618.8623421707154,772.7777648787498C591.4923421707153,775.6257648787498,549.2663421707153,773.8457648787498,516.7003421707153,763.4297648787499C495.1783421707153,756.5477648787498,487.49634217071537,748.4837648787499,487.45834217071535,743.6697648787499C487.42434217071536,739.5237648787498,493.0823421707153,735.0237648787498,502.23034217071535,731.9317648787498C531.7103421707153,721.9617648787498,561.8303421707153,724.1197648787498,583.8103421707153,725.6897648787499C589.9303421707153,726.1277648787499,595.2243421707153,726.5037648787498,599.8423421707153,726.5797648787499C600.0123421707153,726.5977648787498,600.1823421707154,726.6917648787498,600.3523421707154,726.6917648787498C602.1903421707153,726.6917648787498,603.9483421707153,725.6457648787498,604.7743421707153,723.8697648787498C604.7903421707153,723.8337648787499,604.7843421707153,723.7977648787498,604.8003421707153,723.7617648787498C605.0473421707154,723.2117648787498,605.1893421707153,722.6207648787499,605.2183421707153,722.0177648787499C605.2183421707153,722.0057648787499,605.2243421707153,721.9957648787499,605.2243421707153,721.9857648787498C605.2283421707153,721.9157648787498,605.2663421707153,721.8577648787498,605.2663421707153,721.7857648787499C605.2943421707153,719.6077648787498,603.8583421707153,717.8097648787498,601.8923421707153,717.1637648787498C582.9623421707154,708.3877648787499,534.3723421707153,685.7217648787498,523.5183421707153,662.3197648787498C521.6123421707154,658.2077648787499,522.6883421707154,656.5877648787498,523.0423421707153,656.0497648787498C525.1083421707153,652.9417648787498,532.2283421707153,651.0557648787499,540.7623421707153,651.3897648787499C572.8243421707153,652.5877648787498,606.0123421707153,666.5817648787498,625.8443421707153,674.9437648787498C631.2783421707154,677.2397648787498,635.9743421707153,679.2197648787499,639.5183421707154,680.4637648787498C639.5623421707153,680.4797648787498,639.6063421707154,680.4697648787499,639.6483421707153,680.4837648787499C640.1303421707153,680.6397648787499,640.6283421707153,680.7457648787499,641.1383421707153,680.7457648787499C641.1983421707153,680.7457648787499,641.2603421707154,680.7257648787498,641.3223421707153,680.7217648787498C641.4383421707153,680.7177648787499,641.5443421707153,680.6897648787499,641.6583421707153,680.6777648787498C642.1153421707154,680.6267648787498,642.5623421707153,680.5097648787498,642.9863421707153,680.3317648787498C643.1083421707153,680.2817648787499,643.2303421707154,680.2437648787499,643.3503421707153,680.1817648787498C643.4183421707153,680.1477648787499,643.4903421707154,680.1357648787498,643.5563421707153,680.0957648787498C643.7663421707153,679.9757648787498,643.8963421707153,679.7817648787499,644.0823421707153,679.6377648787499C644.3503421707153,679.4277648787498,644.6223421707153,679.2377648787499,644.8423421707153,678.9717648787498C645.0763421707154,678.6897648787499,645.2283421707153,678.3737648787499,645.3923421707153,678.0517648787499C645.4943421707153,677.8557648787498,645.6523421707153,677.7057648787498,645.7283421707153,677.4897648787498C645.7483421707153,677.4337648787498,645.7343421707153,677.3777648787499,645.7523421707153,677.3237648787499C645.8623421707154,676.9757648787498,645.8743421707154,676.6177648787498,645.9023421707153,676.2537648787498C645.9243421707154,675.9777648787499,645.9863421707153,675.7097648787499,645.9623421707154,675.4377648787499C645.9363421707153,675.1537648787498,645.8223421707153,674.8877648787499,645.7463421707153,674.6077648787498C645.6523421707153,674.2677648787499,645.5803421707153,673.9317648787498,645.4183421707153,673.6197648787498C645.3903421707153,673.5657648787499,645.3923421707153,673.5057648787499,645.3623421707154,673.4517648787498C632.1543421707154,650.4057648787498,617.6543421707154,622.9177648787498,610.2623421707153,593.7797648787498C606.8463421707154,580.3337648787499,606.0043421707153,563.3317648787498,610.5943421707153,559.3017648787499C611.9603421707153,558.0997648787499,614.3943421707154,558.1817648787498,617.8543421707153,559.5517648787499C638.8183421707154,567.8737648787499,665.4743421707153,618.1277648787499,677.9163421707153,646.5097648787498C678.0183421707154,646.7417648787498,678.2023421707154,646.8977648787499,678.3343421707153,647.1037648787499C678.5203421707154,647.3977648787499,678.6823421707154,647.6957648787499,678.9243421707154,647.9417648787498C679.1443421707154,648.1657648787498,679.4063421707153,648.3157648787499,679.6603421707154,648.4917648787498C679.9223421707154,648.6717648787499,680.1603421707154,648.8677648787498,680.4563421707153,648.9957648787499C680.7663421707153,649.1297648787498,681.0963421707154,649.1717648787499,681.4283421707153,649.2377648787499C681.6743421707154,649.2877648787498,681.8943421707154,649.4077648787498,682.1523421707153,649.4197648787499C682.2043421707153,649.4237648787498,682.2503421707154,649.3957648787498,682.3023421707153,649.3977648787499C682.5623421707153,649.4017648787499,682.8183421707154,649.3237648787499,683.0803421707153,649.2857648787499C683.4703421707154,649.2297648787498,683.8583421707153,649.1897648787499,684.2163421707153,649.0417648787499C684.2543421707153,649.0257648787499,684.2943421707153,649.0337648787498,684.3323421707153,649.0177648787499C684.5223421707153,648.9337648787498,684.6463421707153,648.7777648787498,684.8203421707153,648.6737648787498C685.1543421707154,648.4717648787498,685.4863421707153,648.2857648787499,685.7643421707153,648.0117648787498C685.9943421707153,647.7837648787498,686.1483421707153,647.5157648787499,686.3283421707154,647.2537648787498C686.5003421707154,647.0017648787498,686.6863421707153,646.7737648787498,686.8103421707153,646.4917648787498C686.9563421707153,646.1557648787498,687.0083421707153,645.7997648787498,687.0763421707154,645.4377648787499C687.1183421707153,645.2117648787498,687.2323421707154,645.0157648787499,687.2423421707153,644.7797648787498C688.3323421707153,621.2277648787499,689.5643421707153,594.5297648787498,697.9463421707153,569.6017648787499C704.8583421707153,549.0357648787499,713.2323421707154,541.6337648787498,718.7663421707153,541.5657648787499L718.8523421707154,541.5657648787499C724.8523421707154,541.5657648787499,731.2983421707154,549.4377648787498,736.1143421707153,562.6497648787498C738.8643421707153,570.2117648787498,740.3863421707154,578.0317648787499,741.9943421707153,586.3077648787498L742.8423421707153,590.6437648787498C750.0063421707154,626.5837648787499,742.5783421707154,667.7957648787499,720.7683421707154,713.1337648787498C714.7843421707153,725.5717648787498,714.7763421707153,736.0157648787499,720.7323421707154,745.0617648787498C766.3503421707153,814.3157648787499,781.7463421707153,854.1097648787498,792.9903421707154,883.1717648787499C802.8383421707154,908.6357648787498,809.9583421707154,927.0397648787498,830.7203421707153,950.8377648787498C847.8483421707153,970.4657648787498,864.4423421707153,984.2337648787499,882.9323421707153,994.1697648787499C883.9743421707153,994.7317648787498,885.2143421707153,995.3377648787498,886.5683421707154,996.0037648787498C891.3963421707153,998.3617648787498,899.4703421707153,1002.3137648787498,900.7943421707154,1006.3997648787498ZM973.2263421707154,719.1717648787499C959.8323421707154,749.4077648787498,940.6123421707154,753.0957648787498,929.1243421707153,755.3017648787499C927.2403421707153,755.6637648787498,925.5803421707153,755.9797648787498,924.1443421707153,756.3917648787499C921.3443421707153,756.6097648787498,919.3073421707153,759.1407648787499,919.6923421707153,761.9217648787499C929.0863421707153,829.0537648787499,906.1123421707154,872.2497648787498,879.1803421707153,885.2857648787499C862.4743421707153,893.3657648787498,844.9223421707153,889.6657648787499,831.0323421707153,875.1217648787499C805.4523421707154,848.3377648787498,801.2923421707153,804.0397648787498,805.9263421707153,771.5157648787499C814.8203421707153,709.0577648787498,870.7783421707153,621.9537648787498,939.9043421707154,591.8417648787499C940.8723421707153,591.4177648787498,941.3703421707153,591.2057648787498,941.7363421707154,591.2057648787498C942.1163421707154,591.2057648787498,942.3583421707153,591.4297648787499,942.8423421707154,591.8757648787498C961.7043421707153,609.2377648787499,974.9763421707154,633.5937648787499,979.2623421707153,658.6997648787499C982.9783421707153,680.5237648787498,980.8383421707154,701.9997648787498,973.2263421707154,719.1717648787499Z"></path></g><g><path style="mix-blend-mode:passthrough" fill-opacity="1" fill="#FF8EDE" d="M396.05434217071536,359.29355394124985C349.3063421707153,380.67355394124985,295.2963421707153,432.73755394124987,271.2143421707153,486.43555394124985C265.3263421707153,499.62755394124986,266.8303421707153,501.84155394124986,259.0823421707153,512.8635539412498C241.86234217071532,537.3895539412498,220.34634217071533,560.5455539412499,194.62434217071535,576.6575539412498C184.84034217071533,582.7655539412499,172.1360421707153,589.0095539412498,166.02604217071533,590.4715539412498C163.99014217071533,590.9135539412498,162.17604217071533,590.5595539412499,160.62614217071533,589.0555539412499C156.90814217071534,585.2915539412498,152.87814217071534,581.7055539412498,149.47004217071532,577.7215539412498C125.29814217071532,549.5635539412499,108.47404217071534,516.8935539412498,102.67804217071533,475.9895539412498C97.76204217071533,441.32555394124984,95.34404217071534,379.08155394124987,143.62814217071534,323.56755394124986C157.93814217071534,307.11355394124985,158.98814217071532,312.45755394124984,148.71804217071534,304.17755394124987C61.108042170715336,233.47755394124985,49.420042170715334,77.86985394124984,112.81604217071533,11.463893941249847C114.63014217071533,9.561890541249847,116.35604217071534,9.073889941249847,118.92414217071533,9.825890941249847C259.12634217071536,49.89185394124985,387.24434217071536,207.09155394124986,398.62034217071533,340.83155394124987C399.81634217071536,354.90955394124984,400.70434217071534,357.1675539412498,396.05434217071536,359.29355394124985Z"></path></g><g><path style="mix-blend-mode:passthrough" fill-opacity="1" fill="#FD8A02" d="M419.2041312332153,482.9119387068748C407.52013123321535,496.10593870687484,412.2341312332153,491.08193870687484,392.27013123321535,510.72393870687483C385.49613123321535,517.3939387068749,384.21213123321536,515.2959387068748,379.45813123321534,512.6479387068748C354.5819312332153,498.78993870687486,321.3799312332153,466.4839387068748,305.2220312332153,436.27393870687484C303.7800312332153,433.57783870687484,305.1939312332153,431.5299387068749,307.1939312332153,429.15793870687486C315.76003123321533,418.99793870687483,325.0859312332153,409.56983870687486,334.7820312332153,400.49993870687484C338.34403123321533,397.16593870687484,338.9800312332153,397.36793870687484,340.95203123321534,401.90193870687483C351.6740312332153,426.5439387068749,391.4981312332153,468.36593870687483,418.08813123321534,478.14393870687485C419.0721312332154,478.5059387068749,421.1661312332153,480.6959387068748,419.2041312332153,482.9119387068748ZM467.44613123321534,389.47383870687486C467.47013123321534,397.77983870687484,459.98013123321533,422.80583870687485,450.48013123321533,438.20783870687484C449.10213123321535,440.44193870687485,448.5841312332153,440.7038387068749,446.1681312332153,439.79593870687484C426.3721312332153,432.34793870687486,402.18813123321536,414.28793870687485,384.9421312332153,387.7799387068749C381.7501312332153,382.87393870687487,379.3601312332153,377.53793870687485,376.8601312332153,372.27193870687483C375.8841312332153,370.21593870687485,376.1901312332153,369.47993870687486,377.94413123321533,368.21793870687486C385.91013123321534,362.47793870687485,409.44413123321533,352.18792870687486,421.3201312332153,350.23193170687483C423.99413123321534,349.79192870687484,426.1341312332153,350.48592970687486,427.70213123321537,352.9079287068748C434.4061312332153,363.2679387068749,450.2161312332153,378.02193870687483,464.49413123321534,384.04793870687485C467.13613123321534,385.1619387068748,467.7641312332153,387.00193870687485,467.44613123321534,389.47383870687486ZM267.27997123321535,494.22593870687484C268.66596123321534,490.49193870687486,272.89193123321536,479.4939387068748,275.41193123321534,476.43393870687487C279.74393123321533,471.1739387068749,284.43993123321536,500.01393870687485,329.36393123321534,532.5539387068749C340.99393123321533,540.9779387068749,342.64193123321536,539.5339387068748,345.68393123321533,542.2639387068748C346.88793123321534,543.3439387068748,345.3839312332153,544.6179387068748,343.96193123321535,545.3899387068749C333.05593123321535,551.3159387068748,321.8160312332153,556.3999387068749,309.5920312332153,559.0039387068748C263.50998123321534,568.8199387068748,251.02799123321535,538.0119387068748,267.27997123321535,494.22593870687484Z"></path></g><g><path style="mix-blend-mode:passthrough" fill-opacity="1" fill="#FFCF00" d="M457.74249060821535,381.50965159749984C446.26649060821535,374.57995159749987,436.51649060821535,365.75795159749987,428.2024906082153,355.24395159749986C423.7024906082153,349.55395159749986,421.77049060821537,343.04995159749984,421.6764906082153,336.06395159749985C421.01449060821534,287.36395159749986,478.18449060821536,261.94195159749984,514.7784906082153,297.02995159749986C516.5244906082153,298.70395159749984,516.8024906082153,301.29995159749984,518.3364906082154,302.69595159749986C532.1904906082153,315.31195159749984,532.9564906082153,350.90795159749985,513.3844906082154,368.34995159749985C511.0324906082153,370.44595159749986,509.1624906082153,373.05395159749986,506.4704906082153,374.83795159749985C497.12249060821534,381.03165159749983,487.0904906082153,384.99165159749987,475.65849060821535,384.5516515974998C467.01249060821533,384.2196515974998,465.1624906082153,385.99165159749987,457.74249060821535,381.50965159749984ZM419.46849060821535,478.92565159749984C401.1724906082153,474.46765159749987,376.1601906082153,450.1116515974999,363.53619060821535,435.9696515974998C350.1261906082153,420.94365159749987,345.50019060821535,412.4956515974999,339.5041906082153,400.5776515974999C338.5901906082153,398.76165159749985,338.8521906082153,397.10965159749986,340.34619060821535,395.76965159749983C348.98819060821535,388.02165159749984,360.16619060821535,379.0679515974998,369.27019060821533,373.4499515974999C376.15219060821534,369.20395159749984,375.73619060821534,368.6399515974998,379.4604906082153,376.32995159749987C391.24249060821535,400.65765159749986,413.42049060821535,424.01165159749985,443.43249060821535,438.10765159749985C447.6284906082153,440.07965159749983,449.4024906082153,440.68765159749984,447.1304906082153,444.32365159749986C441.22849060821534,453.7676515974998,431.2584906082153,469.29965159749986,423.14649060821534,477.9356515974998C422.2144906082153,478.92765159749985,421.0224906082153,479.11565159749983,419.46849060821535,478.92565159749984ZM383.32249060821533,518.3896515974998C375.16819060821535,525.3656515974999,361.6221906082153,535.0356515974999,352.37819060821533,540.7416515974999C349.29819060821535,542.6436515974999,346.6841906082153,542.8656515974999,343.45619060821537,541.4096515974999C319.7661906082153,530.7356515974998,291.7541906082153,501.49965159749985,279.73420060821536,480.6836515974999C277.4642076082153,476.7556515974999,275.95618060821533,474.30565159749983,279.0982106082153,469.03165159749983C289.0301906082153,452.35765159749985,300.16419060821534,437.56365159749987,301.10419060821533,436.5416515974998C305.97819060821536,431.24965159749985,305.65619060821535,439.6496515974999,320.70219060821535,458.55565159749983C341.52219060821534,484.7196515974998,360.08219060821534,499.82165159749985,382.85049060821535,514.0516515974998C383.59649060821533,514.5176515974998,384.7484906082153,517.1716515974998,383.32249060821533,518.3896515974998Z"></path></g><g><path style="mix-blend-mode:passthrough" fill-opacity="1" fill="#FC09B2" d="M56.78611013946533,404.20352464437485C59.01611013946533,397.50352464437486,61.57211013946533,390.85952464437486,64.60201013946534,384.48752464437484C74.17611013946534,364.36552464437483,92.63401013946533,344.71752464437486,110.74451013946533,332.83752464437487C114.06051013946534,330.6615246443748,115.66451013946534,329.96552464437485,113.39651013946533,329.06152464437486C74.40001013946534,313.52752464437486,46.62611013946533,278.6615246443748,30.016110139465333,239.94152464437485C18.32811013946533,212.69152464437485,13.47206013946533,189.40552464437485,10.090060139465333,162.12152464437486C5.786060139465333,127.39752464437484,9.690060139465333,96.18392464437484,9.982060139465332,92.29792464437485C14.346060139465333,34.35592464437485,59.88211013946533,-8.056075355625152,111.78451013946533,7.817914644374847C117.34851013946533,9.519914644374847,112.62251013946533,12.129914644374846,105.78611013946534,20.907924644374848C50.42811013946533,91.98992464437485,69.59811013946533,227.56752464437486,135.52051013946533,291.09952464437487C154.85451013946533,309.7335246443748,151.58651013946533,304.40352464437484,155.35651013946534,308.66552464437484C156.04851013946532,309.44952464437483,155.83251013946534,310.33352464437485,154.94651013946535,310.90352464437484C152.87651013946532,312.23752464437484,151.51451013946533,311.64552464437486,152.26451013946533,313.7455246443748C153.21851013946534,316.4115246443748,144.78251013946533,319.10552464437484,127.49851013946534,348.51352464437485C85.21001013946533,420.46752464437486,91.51601013946534,518.6855246443748,159.41451013946534,586.9475246443749C160.97451013946534,588.5155246443749,163.31451013946534,590.3335246443748,161.59451013946534,591.5215246443748C160.86651013946533,592.0195246443749,160.06151013946533,592.3925246443748,159.21251013946534,592.6255246443749C129.83451013946535,600.6195246443748,101.17001013946533,595.1175246443748,80.76001013946534,570.7095246443748C62.060010139465334,548.3475246443749,51.42601013946533,521.0335246443749,47.770010139465334,493.69552464437487C46.66801013946533,485.4715246443748,46.34801013946533,435.55952464437485,56.78611013946533,404.20352464437485ZM450.2565101394653,346.28352464437484C447.8765101394653,337.2935246443748,455.78451013946534,331.88152464437485,464.05851013946534,333.28752464437486C470.9245101394653,334.45352464437485,477.59651013946535,340.9595246443748,479.7665101394653,347.4475246443748C482.8285101394653,356.60352464437483,474.74651013946533,362.49152464437486,465.95051013946534,361.15952464437487C458.89251013946534,360.0895246443748,452.05651013946533,353.08552464437486,450.2565101394653,346.28352464437484Z"></path></g><g><path style="mix-blend-mode:passthrough" fill-opacity="1" fill="#FC09B2" d="M370.96645935821533,322.0601437849998C355.56245935821534,307.38814378499984,338.18045935821533,295.0401437849998,320.1484593582153,283.86414378499984C302.00445935821534,272.79214378499984,283.15045935821536,262.92814378499986,263.7104593582153,254.33614378499985C244.31445935821534,245.64814378499986,224.35015935821534,238.17214378499983,204.01215935821534,232.13814378499984C193.82415935821533,229.22814378499984,183.55815935821533,226.49614378499984,173.18015935821535,224.62814378499985C162.81615935821532,222.31614378499984,152.37015935821535,221.58014378499985,141.91415935821533,221.25814378499985L141.64615935821533,221.25014378499986C139.88935935821533,221.21214378499985,138.46515935821535,219.81414378499983,138.39475935821534,218.05814378499986C138.32435935821533,216.30214378499983,139.63195935821534,214.79414378499985,141.38015935821534,214.61594378499984C163.68015935821535,212.13194378499986,185.82015935821534,215.50414378499985,207.09415935821534,220.66014378499983C228.43045935821533,225.87814378499985,249.10045935821535,233.34014378499984,269.1184593582153,242.20814378499983C289.06845935821536,251.22414378499985,308.4044593582153,261.68614378499984,326.51645935821534,274.08814378499983C344.62645935821536,286.4201437849998,361.6144593582153,300.7641437849999,375.5724593582153,317.8101437849998C376.66445935821537,319.0911437849999,376.55045935821533,321.0071437849998,375.31245935821534,322.14914378499986C374.07445935821534,323.29114378499986,372.15545935821535,323.2521437849998,370.96645935821533,322.0601437849998ZM347.84245935821536,262.7401437849999C334.19445935821534,245.26214378499984,318.5084593582153,229.59014378499984,301.97245935821536,214.96614378499984C285.32945935821533,200.42134378499986,267.7384593582153,186.99974378499985,249.31445935821534,174.78984378499985C230.94845935821533,162.51184378499985,211.75815935821532,151.42584378499984,191.88215935821535,141.90984378499985C181.89215935821534,137.29584378499985,171.80415935821532,132.83184378499985,161.43415935821534,129.31184378499984C151.13615935821534,125.40784378499984,140.51815935821534,123.02988378499985,129.80216935821534,121.34988378499985L129.53415935821533,121.30788378499985C127.80611935821533,121.03317378499985,126.58591135821533,119.46724378499985,126.74190235821533,117.72446378499984C126.89789335821533,115.98168378499984,128.37679935821532,114.65733138499985,130.12615935821532,114.69388383599984C153.48815935821534,115.23188578499985,175.76815935821534,122.26788378499985,196.74615935821532,131.06984378499985C217.78815935821535,139.96184378499984,237.70445935821533,151.16984378499984,256.66845935821533,163.73984378499983C275.54445935821536,176.44384378499984,293.49245935821534,190.56984378499985,309.8804593582153,206.39784378499985C326.2864593582153,222.16214378499984,341.2024593582153,239.68614378499984,353.01045935821537,259.20214378499986C353.9074593582153,260.68414378499983,353.4334593582154,262.6131437849998,351.9504593582153,263.51014378499985C350.5824593582154,264.3261437849999,348.8214593582153,263.99514378499987,347.84245935821536,262.7401437849999ZM347.1864593582153,366.0981437849998C311.9944593582153,363.4801437849999,276.94845935821536,365.16614378499986,242.23045935821534,370.23614378499985C207.47615935821534,375.1581437849998,173.25815935821532,383.48214378499983,139.00815935821532,392.70214378499986C137.31785935821534,393.16614378499986,135.55593935821534,392.24514378499987,134.97292935821534,390.59214378499985C134.38993935821534,388.9391437849998,135.18427935821532,387.11614378499985,136.79215935821534,386.41814378499987C169.65815935821533,372.03414378499986,204.63015935821534,362.27014378499985,240.35045935821535,357.09414378499986C276.0184593582153,352.14014378499985,312.89445935821533,351.7661437849998,348.1384593582153,359.9061437849998C349.82845935821535,360.29614378499986,350.8824593582153,361.9831437849998,350.49245935821534,363.67414378499984C350.1374593582153,365.1851437849998,348.7344593582153,366.2141437849998,347.1864593582153,366.0981437849998ZM300.4044593582153,411.1101437849998C272.5844593582153,420.5401437849998,245.22045935821535,430.44014378499986,219.32215935821534,443.27014378499985C206.35015935821534,449.59614378499987,193.81415935821533,456.7061437849998,181.85815935821535,464.64014378499985C169.96615935821532,472.66014378499983,158.60015935821534,481.47014378499983,148.28815935821532,491.6221437849998L148.26615935821533,491.64414378499987C147.03365935821535,492.86614378499985,145.07025935821534,492.94214378499987,143.74765935821534,491.81714378499987C142.42495935821535,490.69314378499985,142.18355935821532,488.74314378499986,143.19215935821532,487.33014378499985C151.94215935821532,474.96014378499984,162.89015935821533,464.16014378499983,174.92615935821533,454.9901437849999C186.92815935821534,445.7301437849998,199.99615935821532,438.02214378499986,213.47815935821535,431.35014378499983C240.56845935821534,418.24814378499985,269.45645935821534,409.2641437849999,298.96245935821537,405.0141437849999C300.68245935821534,404.7661437849998,302.27645935821533,405.96014378499984,302.5244593582153,407.68014378499987C302.7314593582153,409.18414378499983,301.84245935821536,410.62314378499985,300.4044593582153,411.1101437849998Z"></path></g><g style="opacity:0.25;"><g><path style="mix-blend-mode:passthrough" fill-opacity="1" fill="#000E3F" d="M35.23612153472901,117.27999685433579C44.820121534729005,116.74799885433579,55.140121534729005,117.96599385433578,65.316121534729,120.52799985433579C73.46212153472901,122.57999985433578,73.11412153472901,122.73799985433578,73.14412153472901,129.16203985433577C73.458121534729,197.40203985433578,101.460121534729,258.2382398543358,135.43972153472902,291.0222398543358C154.475721534729,309.3882398543358,150.727721534729,303.9602398543358,155.289721534729,308.5682398543358C155.95172153472902,309.2362398543358,155.807721534729,310.4062398543358,155.035721534729,310.8542398543358C154.42772153472902,311.2082398543358,153.797721534729,311.5922398543358,153.125721534729,311.7662398543358C148.995721534729,312.8342398543358,145.67172153472902,315.8542398543358,141.407721534729,316.5842398543358C137.67172153472902,319.97623985433574,132.417721534729,320.39423985433575,128.365721534729,323.3962398543358C125.599721534729,325.4462398543358,122.10772153472901,326.6042398543358,119.231721534729,328.6902398543358C116.855721534729,330.4142398543358,112.63172153472901,328.8082398543358,110.115721534729,327.7462398543358C80.518121534729,315.2522398543358,49.238121534729004,286.0102398543358,29.232021534729004,238.1902398543358C13.400071534729005,200.3380398543358,8.686075534729003,164.5240398543358,8.102075534729003,125.84399985433578C8.004076034729003,119.32199985433579,8.484075534729003,119.12799985433578,14.752071534729005,118.27599985433578C21.262121534729005,117.39199585433579,27.776121534729004,117.17999835433578,35.23612153472901,117.27999685433579ZM102.99812153472901,588.7642398543358C84.702121534729,580.1602398543357,69.202121534729,557.6202398543358,60.838121534729005,539.1982398543357C57.620121534729,532.1122398543357,52.478121534729006,518.2062398543358,51.936121534729004,513.7442398543358C51.110121534729004,506.9482398543358,68.342121534729,523.5202398543358,116.081721534729,531.1322398543358C123.011721534729,532.2382398543358,118.683721534729,534.5402398543358,137.291721534729,561.1562398543358C156.523721534729,588.6662398543358,168.917721534729,590.3222398543357,158.297721534729,592.8162398543358C150.551721534729,594.6362398543358,121.673721534729,597.5462398543358,102.99812153472901,588.7642398543358Z"></path></g></g><g style="opacity:0.15000000596046448;"><g><path style="mix-blend-mode:passthrough" fill-opacity="1" fill="#000E3F" d="M263.1840525613403,542.9298942732811C260.44205156134035,536.0358942732811,261.22406456134036,533.8318942732811,260.6420640613403,528.945894273281C260.30606556134035,526.1218942732811,260.82605456134036,525.5778942732811,263.26407256134036,526.5818942732811C279.2180925613403,533.1518942732811,299.81009256134035,534.3078942732811,315.8140925613403,526.647894273281C318.6600925613403,525.2858942732811,320.82009256134035,525.8238942732811,323.03609256134035,527.7378942732811C324.5040925613403,529.003894273281,326.1460925613403,530.0638942732811,327.68609256134033,531.2478942732811C339.6240925613403,540.4258942732811,343.08209256134035,539.7098942732811,345.6700925613403,542.2378942732811C346.8380925613403,543.3798942732811,345.4300925613403,544.5918942732811,343.98809256134035,545.3758942732811C333.09209256134034,551.2938942732811,321.86809256134035,556.3798942732811,309.6560925613403,558.9898942732812C290.46009256134033,563.0918942732811,270.4420825613403,561.1818942732812,263.1840525613403,542.9298942732811ZM385.3579925613403,515.311894273281C377.7819925613403,512.9518942732811,365.67399256134036,503.8158942732811,359.48609256134034,498.8578942732811C357.60609256134035,497.3518942732811,357.63809256134033,496.4718942732811,359.52409256134035,494.50789427328107C368.2619925613403,485.41389427328113,378.69799256134036,471.8918942732811,386.46199256134037,461.8478942732811C389.33799256134034,458.1298942732811,388.34999256134034,460.38789427328106,401.81799256134036,469.4498942732811C412.47199256134036,476.6178942732811,416.1999925613403,477.1978942732811,418.6199925613403,478.3618942732811C422.00399256134034,479.9918942732811,420.50199256134033,481.9078942732811,415.80799256134037,487.00789427328107C411.37199256134033,491.82989427328107,392.9699925613403,511.1018942732811,387.72999256134034,514.2978942732811C386.9999925613403,514.7458942732811,386.14599256134034,514.9858942732811,385.3579925613403,515.311894273281ZM466.72799256134033,394.2259542732811C465.7619925613403,405.1359942732811,457.07599256134034,427.5079942732811,450.4759925613403,438.2139942732811C449.10199256134035,440.4439942732811,448.5899925613403,440.6899942732811,446.1539925613404,439.8019942732811C441.82599256134034,438.2219942732811,437.7039925613403,436.1739942732811,433.72199256134036,433.8719942732811C417.1419925613403,424.2859942732811,417.1379925613403,423.2159942732811,419.65799256134034,420.6199942732811C438.0559925613403,401.6619542732811,467.2859925613403,387.9199542732811,466.72799256134033,394.2259542732811Z"></path></g></g><g style="opacity:0.5;"><g><path style="mix-blend-mode:passthrough" fill-opacity="1" fill="#FC09B2" d="M397.38202381134033,358.62818394613265C394.50602381134036,360.31018394613267,392.82402381134034,360.40218394613265,390.6520238113403,358.14218394613266C386.0920238113403,353.3601839461327,380.3800238113403,350.12818394613265,375.11402381134036,346.23418394613265C330.6660238113403,313.4301839461327,272.7620238113403,293.6861839461327,217.07002381134032,298.5981839461326C159.74002381134034,303.60218394613264,161.15802381134034,313.6941839461326,154.07402381134034,308.25018394613267C99.62002381134033,266.59218394613265,73.63602181134033,199.12408394613266,72.88202381134033,127.58405394613266C72.88202381134033,125.32604394613266,73.37002281134033,123.42204894613266,75.49602381134034,124.13204794613266C85.36802381134034,127.27604394613266,96.30202381134033,132.58605394613267,110.11402381134033,144.23008394613265C147.56602381134033,175.75008394613266,156.15402381134032,214.00008394613266,188.07602381134035,245.60818394613267C211.84802381134034,269.2041839461327,242.21602381134034,268.7161839461327,288.0800238113403,285.27418394613267C313.4020238113403,294.39418394613267,377.2380238113403,330.82818394613264,398.26602381134035,353.89218394613266C399.9500238113403,355.7521839461326,399.59602381134033,357.34418394613266,397.38202381134033,358.62818394613265ZM160.72602381134033,589.1081839461326C155.86402381134033,584.2501839461327,145.98402381134034,575.5301839461326,134.80202381134035,559.0341839461327C130.61202381134032,552.8521839461326,122.01402381134034,538.9441839461326,120.37802381134034,533.7241839461326C120.09972381134034,532.8081839461327,120.87162381134033,531.9151839461326,121.81802381134034,532.0581839461327C248.55402381134033,548.4041839461327,221.93202381134034,431.35218394613264,310.6180238113403,383.29418394613265C318.31002381134033,379.12618394613264,326.8780238113403,373.6921839461327,346.8780238113403,370.4801839461327C362.41002381134035,367.98418394613265,372.62002381134033,369.6341839461327,372.9020238113403,370.85618394613266C373.56402381134035,373.71218394613265,350.9600238113403,381.99418394613264,314.5900238113403,421.92618394613265C294.2120238113404,444.3001839461327,274.02002381134037,474.04618394613266,265.4120238113403,501.7641839461327C261.7780238113403,513.4641839461326,218.59202381134034,571.3681839461326,169.64802381134035,589.2561839461326C168.00002381134033,589.8621839461326,163.31602381134033,591.6941839461326,160.72602381134033,589.1081839461326Z"></path></g></g><g style="opacity:0.5;"><g><path style="mix-blend-mode:passthrough" fill-opacity="1" fill="#FFCF00" d="M413.24012849884036,476.73394378499984C403.43812849884034,472.09594378499986,392.20802849884035,463.78194378499984,390.2181284988403,461.77594378499987C388.91212849884033,460.46194378499985,388.81202849884033,459.7899437849999,389.7801284988403,458.03794378499987C392.6710284988403,452.77714378499985,396.0100284988403,447.77534378499985,399.76012849884034,443.0879437849998C402.44012849884035,439.75794378499984,413.02012849884034,427.2199037849999,414.47412849884034,425.7459037849998C420.35382849884036,419.79189378499984,416.43612849884033,425.47390378499983,444.0238284988403,438.35594378499985C449.1298284988403,440.73994378499987,448.79182849884035,441.65184378499987,447.07782849884035,444.39994378499983C441.25582849884034,453.73594378499985,431.1538284988403,469.4319437849998,423.13382849884033,477.9439437849999C422.2018284988403,478.93594378499984,416.27002849884036,478.1658437849999,413.24012849884036,476.73394378499984ZM357.59212849884034,496.80994378499986C362.3501284988403,499.92394378499984,366.5281284988403,503.34594378499986,372.5621284988403,507.5759437849998C382.17812849884035,514.3139437849999,387.68612849884033,514.8519437849999,382.50012849884035,519.0719437849998C372.6321284988403,527.1056437849999,362.41612849884035,534.6456437849998,351.51212849884035,541.2416437849998C349.15412849884035,542.6676437849999,347.0021284988403,542.8916437849998,344.5161284988403,541.8336437849998C335.8261284988403,538.1316437849998,328.07208849884034,532.9496437849998,320.8180894988403,526.9736437849998C319.65210449884034,526.0116437849998,319.8400924988403,524.8676437849998,321.28207849884035,524.0696437849998C343.16612849884035,511.97784378499983,351.25812849884034,498.7378437849999,357.59212849884034,496.80994378499986Z"></path></g><g><path style="mix-blend-mode:passthrough" fill-opacity="1" fill="#FD8A02" d="M413.24012849884036,476.73394378499984C403.43812849884034,472.09594378499986,392.20802849884035,463.78194378499984,390.2181284988403,461.77594378499987C388.91212849884033,460.46194378499985,388.81202849884033,459.7899437849999,389.7801284988403,458.03794378499987C392.6710284988403,452.77714378499985,396.0100284988403,447.77534378499985,399.76012849884034,443.0879437849998C402.44012849884035,439.75794378499984,413.02012849884034,427.2199037849999,414.47412849884034,425.7459037849998C420.35382849884036,419.79189378499984,416.43612849884033,425.47390378499983,444.0238284988403,438.35594378499985C449.1298284988403,440.73994378499987,448.79182849884035,441.65184378499987,447.07782849884035,444.39994378499983C441.25582849884034,453.73594378499985,431.1538284988403,469.4319437849998,423.13382849884033,477.9439437849999C422.2018284988403,478.93594378499984,416.27002849884036,478.1658437849999,413.24012849884036,476.73394378499984ZM357.59212849884034,496.80994378499986C362.3501284988403,499.92394378499984,366.5281284988403,503.34594378499986,372.5621284988403,507.5759437849998C382.17812849884035,514.3139437849999,387.68612849884033,514.8519437849999,382.50012849884035,519.0719437849998C372.6321284988403,527.1056437849999,362.41612849884035,534.6456437849998,351.51212849884035,541.2416437849998C349.15412849884035,542.6676437849999,347.0021284988403,542.8916437849998,344.5161284988403,541.8336437849998C335.8261284988403,538.1316437849998,328.07208849884034,532.9496437849998,320.8180894988403,526.9736437849998C319.65210449884034,526.0116437849998,319.8400924988403,524.8676437849998,321.28207849884035,524.0696437849998C343.16612849884035,511.97784378499983,351.25812849884034,498.7378437849999,357.59212849884034,496.80994378499986Z"></path></g></g><g style="opacity:0.5;"><g><path style="mix-blend-mode:passthrough" fill-opacity="1" fill="#FFFFFF" d="M278.19228443145755,168.87378636312485C274.2682844314575,165.96178636312484,281.22628443145754,171.40778636312484,246.26228443145752,138.55598636312484C174.29398443145752,70.93998636312485,117.47000443145753,53.06597636312485,125.48200743145752,45.479966363124845C134.9719844314575,36.49396636312485,194.8919844314575,72.45598636312485,209.07998443145752,82.45998636312484C324.1322844314575,163.58178636312485,293.2762844314575,180.06578636312486,278.19228443145755,168.87378636312485ZM316.3882844314575,334.03778636312484C319.15228443145753,347.98378636312486,282.2922844314575,338.85178636312486,265.4962844314575,337.38178636312483C232.86428443145752,334.5237863631248,201.06798443145752,338.63378636312484,168.7499844314575,340.66178636312486C166.96798443145752,340.7737863631248,165.13398443145752,340.85378636312487,164.14198443145753,339.16378636312487C163.44598443145753,337.98178636312485,163.98598443145752,336.7597863631249,166.1499844314575,335.31578636312486C188.21198443145752,320.5937863631248,217.0479844314575,314.37378636312485,244.33228443145754,313.7257863631248C261.24028443145755,313.32178636312483,312.47428443145753,314.28178636312487,316.3882844314575,334.03778636312484ZM289.0422844314575,474.05178636312485C298.6022844314575,453.96978636312485,319.53428443145754,427.14378636312483,351.4002844314575,404.37378636312485C377.8022844314575,385.5097863631249,379.5182844314575,399.03778636312484,370.2902844314575,406.19178636312483C362.0682844314575,412.56578636312486,338.94228443145755,437.22978636312484,329.07228443145755,448.88978636312487C313.3862844314575,467.42178636312485,305.3442844314575,484.66178636312486,298.7442844314575,487.4857863631249C290.1962844314575,491.1417863631248,284.75028443145754,483.06378636312485,289.0422844314575,474.05178636312485Z"></path></g></g><g><path style="mix-blend-mode:passthrough" fill-opacity="1" fill="#000E3F" d="M609.0365355300903,207.85227269124985C601.8545355300903,198.93827269124984,590.9005355300903,196.22227269124986,579.7205355300904,200.62427269124984C571.4365355300903,203.87427269124984,565.2545355300904,212.69827269124985,565.0125355300903,221.60427269124986C564.8785355300903,226.64027269124983,567.3085355300904,232.05827269124984,571.1985355300903,235.40427269124984C574.3285355300903,238.09227269124986,578.1365355300903,239.20027269124984,581.9245355300903,238.52227269124984C588.6085355300903,237.32427269124986,592.7585355300903,231.47427269124984,592.7585355300903,223.25227269124986C592.7585355300903,220.56327269124984,590.5785355300903,218.38427269124983,587.8895355300904,218.38427269124983C585.2015355300904,218.38427269124983,583.0225355300903,220.56327269124984,583.0225355300903,223.25227269124986C583.0225355300903,224.80827269124984,582.7465355300903,228.47827269124986,580.2075355300904,228.93227269124984C579.8775355300903,228.98827269124985,578.8935355300903,229.17427269124985,577.5495355300903,228.01627269124984C575.8975355300903,226.59827269124986,574.6915355300903,223.95227269124985,574.7475355300903,221.86427269124985C574.8815355300903,216.94827269124985,578.7075355300904,211.48427269124986,583.2815355300903,209.68627269124985C590.3975355300903,206.90227269124983,597.0155355300903,208.45427269124986,601.4515355300904,213.96227269124984C606.0595355300903,219.68627269124985,607.8495355300903,229.79027269124984,602.3455355300904,238.02027269124986C591.3215355300904,254.52227269124984,578.1435355300903,257.35827269124985,562.8835355300903,260.64027269124983C558.5775355300904,261.57027269124984,554.1295355300904,262.52427269124985,549.6275355300903,263.82627269124987C535.9955355300904,267.76027269124984,520.8295355300903,279.06427269124987,514.6595355300904,293.81827269124983C511.8145355300903,290.95927269124985,508.6655355300903,288.41827269124985,505.2695355300903,286.24227269124987C501.9395355300903,265.51027269124984,515.4095355300904,247.19027269124985,525.3655355300904,233.71027269124986C528.8935355300903,228.93427269124984,531.9455355300903,224.80427269124985,533.7735355300904,221.19427269124984C543.4875355300903,202.03427269124984,543.7555355300904,183.44027269124985,534.5175355300903,170.17627269124984C528.2915355300903,161.24027269124986,518.5615355300903,156.32827269124985,509.1875355300903,157.44827269124985C500.8175355300903,158.41627269124984,493.9995355300903,164.05427269124985,490.4855355300903,172.91827269124985C487.2955355300903,180.95427269124986,488.32053553009035,189.23827269124985,493.2955355300903,195.64627269124983C497.3195355300903,200.83427269124985,503.3555355300903,203.80027269124986,508.69153553009033,203.06027269124985C512.8975355300904,202.52827269124984,516.3735355300903,200.39627269124983,518.4885355300903,197.06027269124985C520.5765355300904,193.75827269124986,521.0295355300904,189.58627269124986,519.7385355300903,185.62027269124985C518.9155355300903,183.04527269124983,516.1535355300904,181.63227269124985,513.5845355300903,182.47227269124986C511.0145355300903,183.31127269124985,509.61953553009033,186.08227269124984,510.47653553009036,188.64627269124983C510.8745355300903,189.86027269124986,510.79653553009035,190.99827269124984,510.25653553009033,191.84827269124986C509.72053553009033,192.70027269124984,508.7525355300903,193.23627269124984,507.45853553009033,193.40027269124985C505.8585355300903,193.56427269124984,503.1005355300903,192.39227269124984,500.9855355300903,189.67227269124984C499.33753553009035,187.54627269124984,496.95553553009034,183.01427269124986,499.53753553009034,176.50827269124986C501.75153553009034,170.92627269124984,505.47753553009034,167.68027269124985,510.3075355300903,167.11827269124984C516.1055355300904,166.49627269124986,522.4175355300903,169.84627269124985,526.5275355300903,175.74427269124985C533.6525355300903,185.96827269124984,533.1265355300903,200.93027269124985,525.0845355300903,216.79227269124985C523.6225355300903,219.67227269124984,520.8005355300903,223.49827269124984,517.5295355300904,227.92427269124985C508.1055355300903,240.67827269124984,494.46753553009034,259.16827269124985,494.98853553009036,280.98027269124987C482.47653553009036,276.1382726912498,468.2645355300903,275.70227269124985,455.02053553009034,280.72627269124985C427.54453553009034,291.15427269124984,412.0145355300903,319.55627269124983,418.3985355300903,345.88627269124987C413.6005355300903,347.02927269124984,408.8705355300903,348.4412726912498,404.23253553009033,350.11627269124983C397.5765355300903,261.69427269124986,348.6325355300903,167.31627269124985,272.3945355300903,96.50607269124984C209.55253553009032,38.13797269124985,140.43653553009034,6.317972691249848,99.81603553009033,0.6799716912498475C72.65603553009034,-3.1080273087501524,44.82803553009033,9.129972691249847,27.16403553009033,32.569972691249845C-12.565964469909668,85.28797269124985,3.208058530090332,183.75027269124985,22.486035530090334,233.42827269124984C37.39203553009033,271.84827269124986,57.44203553009033,303.30227269124987,105.16053553009033,330.91827269124985C85.53203553009033,345.09227269124983,70.13803553009033,362.75427269124987,60.29403553009033,383.19427269124986C44.90203553009033,415.1482726912499,38.39203553009033,454.3282726912498,42.434035530090334,490.69027269124985C46.94203553009033,531.2902726912498,64.42203553009034,565.4002726912498,91.64603553009033,586.7362726912498C105.51453553009033,597.6102726912499,121.30853553009034,600.6102726912499,134.51053553009032,600.6102726912499C138.41053553009033,600.6102726912499,142.08453553009033,600.3462726912499,145.41253553009034,599.9482726912498C193.94053553009033,594.1582726912499,230.43053553009034,557.3082726912498,255.85253553009034,524.0342726912498C255.78853553009034,525.6842726912498,255.75253553009034,527.3202726912499,255.81453553009032,528.9042726912498C256.7185355300903,551.7602726912498,270.43653553009034,565.4522726912498,292.50653553009033,565.5342726912498L292.78253553009034,565.5382726912499C307.68853553009035,565.5342726912498,323.98253553009033,560.9122726912499,342.58253553009035,551.4102726912498C359.8585355300903,542.5782726912498,377.26853553009033,530.3422726912498,394.3225355300903,515.0382726912499C411.40253553009035,499.71227269124984,426.5045355300903,482.77027269124983,439.2065355300903,464.67827269124984C454.1685355300903,443.36627269124983,470.14053553009035,411.7462726912498,472.20053553009035,389.50227269124986C486.48653553009035,388.98827269124985,498.8265355300903,386.27627269124986,511.10653553009035,376.75027269124985C532.1385355300903,360.44427269124986,537.4005355300903,330.58627269124986,523.6125355300903,305.75027269124985C523.1065355300904,304.83827269124987,522.5345355300904,303.9842726912498,521.9825355300903,303.11027269124986C524.5825355300904,289.08627269124986,539.1415355300903,276.98827269124985,552.3305355300903,273.17827269124984C556.5065355300903,271.9722726912498,560.7905355300903,271.05227269124987,564.9285355300904,270.1602726912499C580.8085355300904,266.74027269124986,597.2285355300903,263.2082726912499,610.4485355300903,243.43027269124985C617.7225355300903,232.54627269124984,617.1425355300903,217.91427269124983,609.0365355300903,207.85227269124985ZM31.564035530090333,229.90827269124983C11.678055530090331,178.65227269124983,-0.42394446990966816,85.35997269124985,34.946035530090334,38.43197269124985C50.48003553009033,17.811972691249846,74.80603553009033,7.0699726912498475,98.47603553009033,10.323972691249848C136.31853553009034,15.577972691249848,204.80653553009034,47.02197269124985,265.76853553009033,103.63827269124985C341.12853553009035,173.63627269124984,389.17853553009036,266.9822726912499,394.73653553009035,353.87027269124985C394.48853553009036,353.97827269124986,394.23853553009036,354.07227269124985,393.9905355300903,354.18227269124986C342.1005355300903,305.58227269124984,263.47653553009036,283.76627269124987,187.84853553009034,297.27027269124983C159.96253553009032,302.25227269124986,135.03853553009034,311.74827269124984,114.17053553009033,324.85027269124987C65.72003553009034,297.99827269124984,46.55803553009033,268.55827269124984,31.564035530090333,229.90827269124983ZM259.68853553009035,502.28627269124985C235.38653553009033,537.0442726912498,196.98453553009034,583.9862726912498,144.25853553009034,590.2802726912498C131.48253553009033,591.8102726912498,113.00053553009033,591.1022726912498,97.65403553009033,579.0702726912499C43.440035530090334,536.5862726912499,40.60403553009033,446.5062726912498,69.07003553009034,387.4222726912499C88.84003553009033,346.36827269124984,132.76053553009032,317.0062726912498,189.55753553009032,306.85827269124985C260.86453553009034,294.10427269124983,334.81353553009035,314.0062726912498,384.49853553009035,358.73027269124987C327.54253553009033,388.05827269124984,274.2185355300903,452.57627269124987,259.68853553009035,502.28627269124985C259.69053553009036,502.28427269124984,259.68853553009035,502.28427269124984,259.68853553009035,502.28627269124985ZM511.54253553009033,362.83827269124987C508.0865355300903,362.35427269124983,504.72253553009034,360.79827269124985,502.26053553009035,358.3642726912498C499.2355355300903,355.3332726912499,497.50853553009034,351.24527269124985,497.4445355300903,346.96427269124985C497.4105355300903,344.27627269124986,495.36453553009034,342.2222726912498,492.50653553009033,342.16427269124983C489.8175355300903,342.20227269124985,487.66953553009034,344.41327269124986,487.70853553009033,347.1022726912498C487.80453553009033,353.90627269124985,490.6105355300903,360.5302726912498,495.41253553009034,365.28627269124985C497.6365355300903,367.46827269124987,500.23453553009034,369.2322726912499,503.0845355300903,370.4942726912499C492.3005355300903,378.07627269124987,481.37853553009035,379.7922726912498,467.5405355300903,379.88227269124985C467.2405355300903,379.88427269124986,466.97753553009034,380.00427269124987,466.6945355300903,380.05827269124984C466.34253553009034,380.12427269124987,465.97253553009034,380.1382726912498,465.65253553009035,380.27427269124985C465.4515355300903,380.36027269124986,465.30453553009033,380.52627269124986,465.11853553009036,380.6382726912498C464.7665355300903,380.85027269124987,464.3965355300903,381.03827269124986,464.1105355300903,381.32627269124987C463.9925355300903,381.4462726912499,463.93653553009034,381.61227269124987,463.83053553009034,381.7462726912498C463.54453553009034,382.10027269124987,463.2545355300903,382.45427269124986,463.0765355300903,382.87827269124983C462.9905355300903,383.08427269124985,463.0025355300903,383.3282726912498,462.9445355300903,383.54827269124985C462.84053553009034,383.9482726912498,462.70253553009036,384.33427269124985,462.7045355300903,384.76627269124987C462.7745355300903,404.02627269124986,446.92453553009034,436.72827269124986,431.23653553009035,459.08227269124984C418.96253553009035,476.57027269124984,404.35453553009035,492.9582726912499,387.8225355300903,507.7922726912498C371.39053553009035,522.5302726912498,354.6805355300903,534.2902726912498,338.1485355300903,542.7382726912499C320.9565355300903,551.5222726912499,306.1125355300903,555.7982726912498,292.78453553009035,555.7982726912498L292.54253553009033,555.7982726912498C275.82853553009033,555.7322726912498,266.24453553009033,546.0442726912498,265.5525355300903,528.5222726912499C263.36853553009036,473.25027269124985,350.29653553009035,368.34627269124985,425.46053553009034,354.28827269124986C425.5965355300903,354.26227269124985,425.70053553009035,354.1742726912498,425.83053553009034,354.1382726912498C425.95853553009033,354.10427269124983,426.0885355300903,354.1262726912498,426.2165355300903,354.08027269124983C426.40253553009035,354.01427269124986,426.5285355300903,353.87427269124987,426.70053553009035,353.78827269124986C427.0045355300903,353.63627269124987,427.2885355300903,353.4822726912499,427.5485355300903,353.27427269124985C427.79253553009033,353.08227269124984,427.9925355300903,352.87227269124986,428.1925355300903,352.64027269124983C428.40053553009034,352.4002726912498,428.5845355300903,352.16427269124983,428.7425355300903,351.89027269124983C428.8985355300903,351.61827269124984,429.00653553009033,351.34227269124983,429.10653553009035,351.04627269124984C429.2065355300903,350.75427269124987,429.2865355300903,350.46827269124987,429.33053553009034,350.15627269124985C429.36853553009036,349.83427269124985,429.37353553009035,349.51027269124984,429.34453553009035,349.18827269124984C429.33253553009035,348.99227269124987,429.38853553009034,348.80627269124983,429.35253553009034,348.60827269124985C429.3265355300903,348.4702726912499,429.23853553009036,348.36627269124983,429.20253553009036,348.2322726912499C429.1685355300903,348.10427269124983,429.19053553009036,347.97627269124985,429.1465355300903,347.8522726912498C420.94053553009036,325.11627269124983,434.10453553009035,299.0902726912498,458.48853553009036,289.83427269124985C471.77053553009034,284.79027269124987,486.26053553009035,286.3642726912498,497.94853553009034,293.09827269124986L497.95253553009036,293.10027269124987C505.14353553009033,297.22627269124985,511.0725355300903,303.23727269124987,515.1005355300904,310.4842726912498C524.9385355300903,328.2082726912499,523.1825355300904,348.90427269124984,511.54253553009033,362.83827269124987Z"></path></g><g><path style="mix-blend-mode:passthrough" fill-opacity="1" fill="#000E3F" d="M485.0281724832153,318.6838969631248C474.21417248321535,318.41589161312487,472.8321624832153,335.05589261312485,483.47617248321535,336.5358926131249C496.53221248321535,338.3478926131248,497.4701124832153,318.99188061312486,485.0281724832153,318.6838969631248Z"></path></g><g><path style="mix-blend-mode:passthrough" fill-opacity="1" fill="#FD8A02" d="M376.91554334259035,996.6838254256248C402.5515433425903,996.5458254256248,393.6595433425903,959.3778254256248,388.98354334259034,944.6698254256248C385.4075433425903,933.4178254256249,377.6235433425903,922.1498254256248,368.3355433425903,936.5278254256249C357.91804334259035,952.6538254256249,348.8760433425903,996.8338254256248,376.91554334259035,996.6838254256248ZM327.0520433425903,902.9538254256249C355.34604334259035,902.8018254256249,345.5320433425903,861.7758254256248,340.37204334259036,845.5418254256249C336.4240433425903,833.1218254256248,327.83204334259034,820.6858254256249,317.58204334259034,836.5558254256248C306.08404334259035,854.3558254256249,296.10404334259033,903.1178254256249,327.0520433425903,902.9538254256249ZM284.6980433425903,988.3318254256249C308.99204334259036,988.2018254256249,300.5660433425903,952.9758254256249,296.1360433425903,939.0358254256248C292.7460433425903,928.3718254256248,285.37004334259035,917.6938254256248,276.56803334259035,931.3198254256248C266.6940353425903,946.6038254256248,258.1240233425903,988.4738254256248,284.6980433425903,988.3318254256249ZM980.8965433425903,479.17002542562483C1006.4975433425903,480.47202542562485,999.7085433425904,442.86202542562484,995.8655433425903,427.91602542562487C992.9255433425903,416.4800054256248,985.7875433425903,404.79400542562485,975.7075433425904,418.6280154256248C964.4025433425903,434.14202542562487,952.8915433425904,477.74402542562484,980.8965433425903,479.17002542562483ZM1000.7965433425903,577.9258254256249C1029.0545433425905,579.3638254256248,1021.5595433425904,537.8498254256249,1017.3195433425904,521.3538254256248C1014.0755433425903,508.73202542562484,1006.1955433425903,495.8340254256249,995.0695433425904,511.10202542562484C982.5895433425903,528.2278254256248,969.8865433425904,576.3538254256248,1000.7965433425903,577.9258254256249ZM912.5895433425903,522.0698254256248C936.8545433425903,523.3038254256248,930.4175433425903,487.66002542562484,926.7775433425903,473.49402542562484C923.9915433425904,462.6560254256249,917.2285433425903,451.58202542562486,907.6735433425903,464.6920254256248C896.9595433425903,479.39802542562484,886.0495433425904,520.7198254256249,912.5895433425903,522.0698254256248Z"></path></g></g></g></svg>